G04 #@! TF.GenerationSoftware,KiCad,Pcbnew,5.1.12-1.fc34*
G04 #@! TF.CreationDate,2021-12-19T18:48:49+02:00*
G04 #@! TF.ProjectId,slash_right,736c6173-685f-4726-9967-68742e6b6963,rev?*
G04 #@! TF.SameCoordinates,Original*
G04 #@! TF.FileFunction,Paste,Bot*
G04 #@! TF.FilePolarity,Positive*
%FSLAX46Y46*%
G04 Gerber Fmt 4.6, Leading zero omitted, Abs format (unit mm)*
G04 Created by KiCad (PCBNEW 5.1.12-1.fc34) date 2021-12-19 18:48:49*
%MOMM*%
%LPD*%
G01*
G04 APERTURE LIST*
%ADD10R,2.550000X2.500000*%
%ADD11R,0.550000X1.500000*%
%ADD12R,1.500000X0.550000*%
%ADD13R,1.200000X0.900000*%
%ADD14R,0.900000X1.200000*%
%ADD15R,1.400000X1.000000*%
%ADD16R,1.400000X1.200000*%
%ADD17R,1.000000X1.400000*%
%ADD18R,1.200000X1.400000*%
G04 APERTURE END LIST*
D10*
X101593750Y-142722500D03*
X115443750Y-140182500D03*
G36*
G01*
X194675000Y-111400000D02*
X193725000Y-111400000D01*
G75*
G02*
X193475000Y-111150000I0J250000D01*
G01*
X193475000Y-110475000D01*
G75*
G02*
X193725000Y-110225000I250000J0D01*
G01*
X194675000Y-110225000D01*
G75*
G02*
X194925000Y-110475000I0J-250000D01*
G01*
X194925000Y-111150000D01*
G75*
G02*
X194675000Y-111400000I-250000J0D01*
G01*
G37*
G36*
G01*
X194675000Y-113475000D02*
X193725000Y-113475000D01*
G75*
G02*
X193475000Y-113225000I0J250000D01*
G01*
X193475000Y-112550000D01*
G75*
G02*
X193725000Y-112300000I250000J0D01*
G01*
X194675000Y-112300000D01*
G75*
G02*
X194925000Y-112550000I0J-250000D01*
G01*
X194925000Y-113225000D01*
G75*
G02*
X194675000Y-113475000I-250000J0D01*
G01*
G37*
G36*
G01*
X200325000Y-107012500D02*
X201275000Y-107012500D01*
G75*
G02*
X201525000Y-107262500I0J-250000D01*
G01*
X201525000Y-107937500D01*
G75*
G02*
X201275000Y-108187500I-250000J0D01*
G01*
X200325000Y-108187500D01*
G75*
G02*
X200075000Y-107937500I0J250000D01*
G01*
X200075000Y-107262500D01*
G75*
G02*
X200325000Y-107012500I250000J0D01*
G01*
G37*
G36*
G01*
X200325000Y-104937500D02*
X201275000Y-104937500D01*
G75*
G02*
X201525000Y-105187500I0J-250000D01*
G01*
X201525000Y-105862500D01*
G75*
G02*
X201275000Y-106112500I-250000J0D01*
G01*
X200325000Y-106112500D01*
G75*
G02*
X200075000Y-105862500I0J250000D01*
G01*
X200075000Y-105187500D01*
G75*
G02*
X200325000Y-104937500I250000J0D01*
G01*
G37*
D11*
X199600000Y-129650000D03*
X200400000Y-129650000D03*
X201200000Y-129650000D03*
X202000000Y-129650000D03*
X202800000Y-129650000D03*
X203600000Y-129650000D03*
X204400000Y-129650000D03*
X205200000Y-129650000D03*
X206000000Y-129650000D03*
X206800000Y-129650000D03*
X207600000Y-129650000D03*
D12*
X209300000Y-127950000D03*
X209300000Y-127150000D03*
X209300000Y-126350000D03*
X209300000Y-125550000D03*
X209300000Y-124750000D03*
X209300000Y-123950000D03*
X209300000Y-123150000D03*
X209300000Y-122350000D03*
X209300000Y-121550000D03*
X209300000Y-120750000D03*
X209300000Y-119950000D03*
D11*
X207600000Y-118250000D03*
X206800000Y-118250000D03*
X206000000Y-118250000D03*
X205200000Y-118250000D03*
X204400000Y-118250000D03*
X203600000Y-118250000D03*
X202800000Y-118250000D03*
X202000000Y-118250000D03*
X201200000Y-118250000D03*
X200400000Y-118250000D03*
X199600000Y-118250000D03*
D12*
X197900000Y-119950000D03*
X197900000Y-120750000D03*
X197900000Y-121550000D03*
X197900000Y-122350000D03*
X197900000Y-123150000D03*
X197900000Y-123950000D03*
X197900000Y-124750000D03*
X197900000Y-125550000D03*
X197900000Y-126350000D03*
X197900000Y-127150000D03*
X197900000Y-127950000D03*
D10*
X237325000Y-142722500D03*
X251175000Y-140182500D03*
X237325000Y-104622500D03*
X251175000Y-102082500D03*
X237325000Y-85572500D03*
X251175000Y-83032500D03*
X237325000Y-66522500D03*
X251175000Y-63982500D03*
X237325000Y-42710000D03*
X251175000Y-40170000D03*
X218275000Y-142722500D03*
X232125000Y-140182500D03*
X218275000Y-123672500D03*
X232125000Y-121132500D03*
X218275000Y-104622500D03*
X232125000Y-102082500D03*
X218275000Y-85572500D03*
X232125000Y-83032500D03*
X218275000Y-66522500D03*
X232125000Y-63982500D03*
X218275000Y-42710000D03*
X232125000Y-40170000D03*
X199225000Y-142722500D03*
X213075000Y-140182500D03*
X177793750Y-104622500D03*
X191643750Y-102082500D03*
X189700000Y-85572500D03*
X203550000Y-83032500D03*
X189700000Y-66522500D03*
X203550000Y-63982500D03*
X199225000Y-42710000D03*
X213075000Y-40170000D03*
X165887500Y-142722500D03*
X179737500Y-140182500D03*
X163506250Y-123672500D03*
X177356250Y-121132500D03*
X151600000Y-104622500D03*
X165450000Y-102082500D03*
X170650000Y-85572500D03*
X184500000Y-83032500D03*
X170650000Y-66522500D03*
X184500000Y-63982500D03*
X175412500Y-42710000D03*
X189262500Y-40170000D03*
X144456250Y-142722500D03*
X158306250Y-140182500D03*
X132550000Y-123672500D03*
X146400000Y-121132500D03*
X132550000Y-104622500D03*
X146400000Y-102082500D03*
X151600000Y-85572500D03*
X165450000Y-83032500D03*
X151600000Y-66522500D03*
X165450000Y-63982500D03*
X156362500Y-42710000D03*
X170212500Y-40170000D03*
X123025000Y-142722500D03*
X136875000Y-140182500D03*
X113500000Y-123672500D03*
X127350000Y-121132500D03*
X113500000Y-104622500D03*
X127350000Y-102082500D03*
X132550000Y-85572500D03*
X146400000Y-83032500D03*
X132550000Y-66522500D03*
X146400000Y-63982500D03*
X137312500Y-42710000D03*
X151162500Y-40170000D03*
X94450000Y-123672500D03*
X108300000Y-121132500D03*
X94450000Y-104622500D03*
X108300000Y-102082500D03*
X113500000Y-85572500D03*
X127350000Y-83032500D03*
X113500000Y-66522500D03*
X127350000Y-63982500D03*
X118262500Y-42710000D03*
X132112500Y-40170000D03*
X75400000Y-142722500D03*
X89250000Y-140182500D03*
X75400000Y-123672500D03*
X89250000Y-121132500D03*
X75400000Y-104622500D03*
X89250000Y-102082500D03*
X94450000Y-85572500D03*
X108300000Y-83032500D03*
X94450000Y-66522500D03*
X108300000Y-63982500D03*
X94450000Y-42710000D03*
X108300000Y-40170000D03*
X56350000Y-142722500D03*
X70200000Y-140182500D03*
X56350000Y-123672500D03*
X70200000Y-121132500D03*
X56350000Y-104622500D03*
X70200000Y-102082500D03*
X75400000Y-85572500D03*
X89250000Y-83032500D03*
X75400000Y-66522500D03*
X89250000Y-63982500D03*
X75400000Y-42710000D03*
X89250000Y-40170000D03*
X56350000Y-85572500D03*
X70200000Y-83032500D03*
X56350000Y-66522500D03*
X70200000Y-63982500D03*
X56350000Y-42710000D03*
X70200000Y-40170000D03*
G36*
G01*
X117669999Y-55060000D02*
X118570001Y-55060000D01*
G75*
G02*
X118820000Y-55309999I0J-249999D01*
G01*
X118820000Y-56010001D01*
G75*
G02*
X118570001Y-56260000I-249999J0D01*
G01*
X117669999Y-56260000D01*
G75*
G02*
X117420000Y-56010001I0J249999D01*
G01*
X117420000Y-55309999D01*
G75*
G02*
X117669999Y-55060000I249999J0D01*
G01*
G37*
G36*
G01*
X117669999Y-53060000D02*
X118570001Y-53060000D01*
G75*
G02*
X118820000Y-53309999I0J-249999D01*
G01*
X118820000Y-54010001D01*
G75*
G02*
X118570001Y-54260000I-249999J0D01*
G01*
X117669999Y-54260000D01*
G75*
G02*
X117420000Y-54010001I0J249999D01*
G01*
X117420000Y-53309999D01*
G75*
G02*
X117669999Y-53060000I249999J0D01*
G01*
G37*
G36*
G01*
X123109999Y-55000000D02*
X124010001Y-55000000D01*
G75*
G02*
X124260000Y-55249999I0J-249999D01*
G01*
X124260000Y-55950001D01*
G75*
G02*
X124010001Y-56200000I-249999J0D01*
G01*
X123109999Y-56200000D01*
G75*
G02*
X122860000Y-55950001I0J249999D01*
G01*
X122860000Y-55249999D01*
G75*
G02*
X123109999Y-55000000I249999J0D01*
G01*
G37*
G36*
G01*
X123109999Y-53000000D02*
X124010001Y-53000000D01*
G75*
G02*
X124260000Y-53249999I0J-249999D01*
G01*
X124260000Y-53950001D01*
G75*
G02*
X124010001Y-54200000I-249999J0D01*
G01*
X123109999Y-54200000D01*
G75*
G02*
X122860000Y-53950001I0J249999D01*
G01*
X122860000Y-53249999D01*
G75*
G02*
X123109999Y-53000000I249999J0D01*
G01*
G37*
G36*
G01*
X204820000Y-99830001D02*
X204820000Y-98929999D01*
G75*
G02*
X205069999Y-98680000I249999J0D01*
G01*
X205770001Y-98680000D01*
G75*
G02*
X206020000Y-98929999I0J-249999D01*
G01*
X206020000Y-99830001D01*
G75*
G02*
X205770001Y-100080000I-249999J0D01*
G01*
X205069999Y-100080000D01*
G75*
G02*
X204820000Y-99830001I0J249999D01*
G01*
G37*
G36*
G01*
X202820000Y-99830001D02*
X202820000Y-98929999D01*
G75*
G02*
X203069999Y-98680000I249999J0D01*
G01*
X203770001Y-98680000D01*
G75*
G02*
X204020000Y-98929999I0J-249999D01*
G01*
X204020000Y-99830001D01*
G75*
G02*
X203770001Y-100080000I-249999J0D01*
G01*
X203069999Y-100080000D01*
G75*
G02*
X202820000Y-99830001I0J249999D01*
G01*
G37*
G36*
G01*
X216020001Y-132490000D02*
X215119999Y-132490000D01*
G75*
G02*
X214870000Y-132240001I0J249999D01*
G01*
X214870000Y-131539999D01*
G75*
G02*
X215119999Y-131290000I249999J0D01*
G01*
X216020001Y-131290000D01*
G75*
G02*
X216270000Y-131539999I0J-249999D01*
G01*
X216270000Y-132240001D01*
G75*
G02*
X216020001Y-132490000I-249999J0D01*
G01*
G37*
G36*
G01*
X216020001Y-134490000D02*
X215119999Y-134490000D01*
G75*
G02*
X214870000Y-134240001I0J249999D01*
G01*
X214870000Y-133539999D01*
G75*
G02*
X215119999Y-133290000I249999J0D01*
G01*
X216020001Y-133290000D01*
G75*
G02*
X216270000Y-133539999I0J-249999D01*
G01*
X216270000Y-134240001D01*
G75*
G02*
X216020001Y-134490000I-249999J0D01*
G01*
G37*
G36*
G01*
X191339999Y-133360000D02*
X192240001Y-133360000D01*
G75*
G02*
X192490000Y-133609999I0J-249999D01*
G01*
X192490000Y-134310001D01*
G75*
G02*
X192240001Y-134560000I-249999J0D01*
G01*
X191339999Y-134560000D01*
G75*
G02*
X191090000Y-134310001I0J249999D01*
G01*
X191090000Y-133609999D01*
G75*
G02*
X191339999Y-133360000I249999J0D01*
G01*
G37*
G36*
G01*
X191339999Y-131360000D02*
X192240001Y-131360000D01*
G75*
G02*
X192490000Y-131609999I0J-249999D01*
G01*
X192490000Y-132310001D01*
G75*
G02*
X192240001Y-132560000I-249999J0D01*
G01*
X191339999Y-132560000D01*
G75*
G02*
X191090000Y-132310001I0J249999D01*
G01*
X191090000Y-131609999D01*
G75*
G02*
X191339999Y-131360000I249999J0D01*
G01*
G37*
G36*
G01*
X187189999Y-133330000D02*
X188090001Y-133330000D01*
G75*
G02*
X188340000Y-133579999I0J-249999D01*
G01*
X188340000Y-134280001D01*
G75*
G02*
X188090001Y-134530000I-249999J0D01*
G01*
X187189999Y-134530000D01*
G75*
G02*
X186940000Y-134280001I0J249999D01*
G01*
X186940000Y-133579999D01*
G75*
G02*
X187189999Y-133330000I249999J0D01*
G01*
G37*
G36*
G01*
X187189999Y-131330000D02*
X188090001Y-131330000D01*
G75*
G02*
X188340000Y-131579999I0J-249999D01*
G01*
X188340000Y-132280001D01*
G75*
G02*
X188090001Y-132530000I-249999J0D01*
G01*
X187189999Y-132530000D01*
G75*
G02*
X186940000Y-132280001I0J249999D01*
G01*
X186940000Y-131579999D01*
G75*
G02*
X187189999Y-131330000I249999J0D01*
G01*
G37*
G36*
G01*
X239740001Y-126260000D02*
X238839999Y-126260000D01*
G75*
G02*
X238590000Y-126010001I0J249999D01*
G01*
X238590000Y-125309999D01*
G75*
G02*
X238839999Y-125060000I249999J0D01*
G01*
X239740001Y-125060000D01*
G75*
G02*
X239990000Y-125309999I0J-249999D01*
G01*
X239990000Y-126010001D01*
G75*
G02*
X239740001Y-126260000I-249999J0D01*
G01*
G37*
G36*
G01*
X239740001Y-128260000D02*
X238839999Y-128260000D01*
G75*
G02*
X238590000Y-128010001I0J249999D01*
G01*
X238590000Y-127309999D01*
G75*
G02*
X238839999Y-127060000I249999J0D01*
G01*
X239740001Y-127060000D01*
G75*
G02*
X239990000Y-127309999I0J-249999D01*
G01*
X239990000Y-128010001D01*
G75*
G02*
X239740001Y-128260000I-249999J0D01*
G01*
G37*
G36*
G01*
X53580001Y-33310000D02*
X52679999Y-33310000D01*
G75*
G02*
X52430000Y-33060001I0J249999D01*
G01*
X52430000Y-32409999D01*
G75*
G02*
X52679999Y-32160000I249999J0D01*
G01*
X53580001Y-32160000D01*
G75*
G02*
X53830000Y-32409999I0J-249999D01*
G01*
X53830000Y-33060001D01*
G75*
G02*
X53580001Y-33310000I-249999J0D01*
G01*
G37*
G36*
G01*
X53580001Y-35360000D02*
X52679999Y-35360000D01*
G75*
G02*
X52430000Y-35110001I0J249999D01*
G01*
X52430000Y-34459999D01*
G75*
G02*
X52679999Y-34210000I249999J0D01*
G01*
X53580001Y-34210000D01*
G75*
G02*
X53830000Y-34459999I0J-249999D01*
G01*
X53830000Y-35110001D01*
G75*
G02*
X53580001Y-35360000I-249999J0D01*
G01*
G37*
D13*
X251028750Y-148375000D03*
X251028750Y-151675000D03*
X251028750Y-110275000D03*
X251028750Y-113575000D03*
X251028750Y-91225000D03*
X251028750Y-94525000D03*
X251028750Y-72175000D03*
X251028750Y-75475000D03*
X251028750Y-48362500D03*
X251028750Y-51662500D03*
X232978750Y-148375000D03*
X232978750Y-151675000D03*
X232978750Y-129325000D03*
X232978750Y-132625000D03*
X232978750Y-110275000D03*
X232978750Y-113575000D03*
X232978750Y-91225000D03*
X232978750Y-94525000D03*
X232978750Y-72175000D03*
X232978750Y-75475000D03*
X232978750Y-48362500D03*
X232978750Y-51662500D03*
X213928750Y-148375000D03*
X213928750Y-151675000D03*
X173580000Y-110340000D03*
X173580000Y-113640000D03*
X204403750Y-91225000D03*
X204403750Y-94525000D03*
X204403750Y-72175000D03*
X204403750Y-75475000D03*
X213928750Y-48362500D03*
X213928750Y-51662500D03*
X180591250Y-148375000D03*
X180591250Y-151675000D03*
X182760000Y-125340000D03*
X182760000Y-128640000D03*
X166303750Y-110275000D03*
X166303750Y-113575000D03*
X185353750Y-91225000D03*
X185353750Y-94525000D03*
X185353750Y-72175000D03*
X185353750Y-75475000D03*
X190116250Y-48362500D03*
X190116250Y-51662500D03*
X159160000Y-148375000D03*
X159160000Y-151675000D03*
X147253750Y-129325000D03*
X147253750Y-132625000D03*
X147253750Y-110275000D03*
X147253750Y-113575000D03*
X166303750Y-91225000D03*
X166303750Y-94525000D03*
X166303750Y-72175000D03*
X166303750Y-75475000D03*
X171066250Y-48362500D03*
X171066250Y-51662500D03*
X137728750Y-148375000D03*
X137728750Y-151675000D03*
X128203750Y-129325000D03*
X128203750Y-132625000D03*
X128203750Y-110275000D03*
X128203750Y-113575000D03*
X147253750Y-91225000D03*
X147253750Y-94525000D03*
X147253750Y-72175000D03*
X147253750Y-75475000D03*
X152016250Y-48362500D03*
X152016250Y-51662500D03*
X116297500Y-148375000D03*
X116297500Y-151675000D03*
X109153750Y-129325000D03*
X109153750Y-132625000D03*
X109153750Y-110275000D03*
X109153750Y-113575000D03*
X128203750Y-91225000D03*
X128203750Y-94525000D03*
X128203750Y-72175000D03*
X128203750Y-75475000D03*
X132966250Y-48362500D03*
X132966250Y-51662500D03*
X90103750Y-148375000D03*
X90103750Y-151675000D03*
X90103750Y-129325000D03*
X90103750Y-132625000D03*
X90103750Y-110275000D03*
X90103750Y-113575000D03*
X109153750Y-91225000D03*
X109153750Y-94525000D03*
X109153750Y-72175000D03*
X109153750Y-75475000D03*
X109153750Y-48362500D03*
X109153750Y-51662500D03*
X71053750Y-148375000D03*
X71053750Y-151675000D03*
X71053750Y-129325000D03*
X71053750Y-132625000D03*
D14*
X70490000Y-114400000D03*
X67190000Y-114400000D03*
D13*
X90103750Y-91225000D03*
X90103750Y-94525000D03*
X90103750Y-72175000D03*
X90103750Y-75475000D03*
X90103750Y-48362500D03*
X90103750Y-51662500D03*
X67053750Y-91225000D03*
X67053750Y-94525000D03*
X67053750Y-72175000D03*
X67053750Y-75475000D03*
X71053750Y-48362500D03*
X71053750Y-51662500D03*
D15*
X98170000Y-54760000D03*
X98170000Y-56660000D03*
X100370000Y-56660000D03*
D16*
X100370000Y-54940000D03*
D17*
X63670000Y-49450000D03*
X61770000Y-49450000D03*
X61770000Y-51650000D03*
D18*
X63490000Y-51650000D03*
G36*
G01*
X193125000Y-124412500D02*
X194075000Y-124412500D01*
G75*
G02*
X194325000Y-124662500I0J-250000D01*
G01*
X194325000Y-125337500D01*
G75*
G02*
X194075000Y-125587500I-250000J0D01*
G01*
X193125000Y-125587500D01*
G75*
G02*
X192875000Y-125337500I0J250000D01*
G01*
X192875000Y-124662500D01*
G75*
G02*
X193125000Y-124412500I250000J0D01*
G01*
G37*
G36*
G01*
X193125000Y-122337500D02*
X194075000Y-122337500D01*
G75*
G02*
X194325000Y-122587500I0J-250000D01*
G01*
X194325000Y-123262500D01*
G75*
G02*
X194075000Y-123512500I-250000J0D01*
G01*
X193125000Y-123512500D01*
G75*
G02*
X192875000Y-123262500I0J250000D01*
G01*
X192875000Y-122587500D01*
G75*
G02*
X193125000Y-122337500I250000J0D01*
G01*
G37*
G36*
G01*
X208700000Y-133225000D02*
X208700000Y-134175000D01*
G75*
G02*
X208450000Y-134425000I-250000J0D01*
G01*
X207775000Y-134425000D01*
G75*
G02*
X207525000Y-134175000I0J250000D01*
G01*
X207525000Y-133225000D01*
G75*
G02*
X207775000Y-132975000I250000J0D01*
G01*
X208450000Y-132975000D01*
G75*
G02*
X208700000Y-133225000I0J-250000D01*
G01*
G37*
G36*
G01*
X210775000Y-133225000D02*
X210775000Y-134175000D01*
G75*
G02*
X210525000Y-134425000I-250000J0D01*
G01*
X209850000Y-134425000D01*
G75*
G02*
X209600000Y-134175000I0J250000D01*
G01*
X209600000Y-133225000D01*
G75*
G02*
X209850000Y-132975000I250000J0D01*
G01*
X210525000Y-132975000D01*
G75*
G02*
X210775000Y-133225000I0J-250000D01*
G01*
G37*
G36*
G01*
X213875000Y-118300000D02*
X212925000Y-118300000D01*
G75*
G02*
X212675000Y-118050000I0J250000D01*
G01*
X212675000Y-117375000D01*
G75*
G02*
X212925000Y-117125000I250000J0D01*
G01*
X213875000Y-117125000D01*
G75*
G02*
X214125000Y-117375000I0J-250000D01*
G01*
X214125000Y-118050000D01*
G75*
G02*
X213875000Y-118300000I-250000J0D01*
G01*
G37*
G36*
G01*
X213875000Y-120375000D02*
X212925000Y-120375000D01*
G75*
G02*
X212675000Y-120125000I0J250000D01*
G01*
X212675000Y-119450000D01*
G75*
G02*
X212925000Y-119200000I250000J0D01*
G01*
X213875000Y-119200000D01*
G75*
G02*
X214125000Y-119450000I0J-250000D01*
G01*
X214125000Y-120125000D01*
G75*
G02*
X213875000Y-120375000I-250000J0D01*
G01*
G37*
G36*
G01*
X198712500Y-134125000D02*
X198712500Y-133175000D01*
G75*
G02*
X198962500Y-132925000I250000J0D01*
G01*
X199637500Y-132925000D01*
G75*
G02*
X199887500Y-133175000I0J-250000D01*
G01*
X199887500Y-134125000D01*
G75*
G02*
X199637500Y-134375000I-250000J0D01*
G01*
X198962500Y-134375000D01*
G75*
G02*
X198712500Y-134125000I0J250000D01*
G01*
G37*
G36*
G01*
X196637500Y-134125000D02*
X196637500Y-133175000D01*
G75*
G02*
X196887500Y-132925000I250000J0D01*
G01*
X197562500Y-132925000D01*
G75*
G02*
X197812500Y-133175000I0J-250000D01*
G01*
X197812500Y-134125000D01*
G75*
G02*
X197562500Y-134375000I-250000J0D01*
G01*
X196887500Y-134375000D01*
G75*
G02*
X196637500Y-134125000I0J250000D01*
G01*
G37*
G36*
G01*
X188825000Y-124387500D02*
X189775000Y-124387500D01*
G75*
G02*
X190025000Y-124637500I0J-250000D01*
G01*
X190025000Y-125312500D01*
G75*
G02*
X189775000Y-125562500I-250000J0D01*
G01*
X188825000Y-125562500D01*
G75*
G02*
X188575000Y-125312500I0J250000D01*
G01*
X188575000Y-124637500D01*
G75*
G02*
X188825000Y-124387500I250000J0D01*
G01*
G37*
G36*
G01*
X188825000Y-122312500D02*
X189775000Y-122312500D01*
G75*
G02*
X190025000Y-122562500I0J-250000D01*
G01*
X190025000Y-123237500D01*
G75*
G02*
X189775000Y-123487500I-250000J0D01*
G01*
X188825000Y-123487500D01*
G75*
G02*
X188575000Y-123237500I0J250000D01*
G01*
X188575000Y-122562500D01*
G75*
G02*
X188825000Y-122312500I250000J0D01*
G01*
G37*
G36*
G01*
X206175000Y-106100000D02*
X205225000Y-106100000D01*
G75*
G02*
X204975000Y-105850000I0J250000D01*
G01*
X204975000Y-105175000D01*
G75*
G02*
X205225000Y-104925000I250000J0D01*
G01*
X206175000Y-104925000D01*
G75*
G02*
X206425000Y-105175000I0J-250000D01*
G01*
X206425000Y-105850000D01*
G75*
G02*
X206175000Y-106100000I-250000J0D01*
G01*
G37*
G36*
G01*
X206175000Y-108175000D02*
X205225000Y-108175000D01*
G75*
G02*
X204975000Y-107925000I0J250000D01*
G01*
X204975000Y-107250000D01*
G75*
G02*
X205225000Y-107000000I250000J0D01*
G01*
X206175000Y-107000000D01*
G75*
G02*
X206425000Y-107250000I0J-250000D01*
G01*
X206425000Y-107925000D01*
G75*
G02*
X206175000Y-108175000I-250000J0D01*
G01*
G37*
G36*
G01*
X220210000Y-97085001D02*
X220210000Y-96234999D01*
G75*
G02*
X220459999Y-95985000I249999J0D01*
G01*
X221535001Y-95985000D01*
G75*
G02*
X221785000Y-96234999I0J-249999D01*
G01*
X221785000Y-97085001D01*
G75*
G02*
X221535001Y-97335000I-249999J0D01*
G01*
X220459999Y-97335000D01*
G75*
G02*
X220210000Y-97085001I0J249999D01*
G01*
G37*
G36*
G01*
X217335000Y-97085001D02*
X217335000Y-96234999D01*
G75*
G02*
X217584999Y-95985000I249999J0D01*
G01*
X218660001Y-95985000D01*
G75*
G02*
X218910000Y-96234999I0J-249999D01*
G01*
X218910000Y-97085001D01*
G75*
G02*
X218660001Y-97335000I-249999J0D01*
G01*
X217584999Y-97335000D01*
G75*
G02*
X217335000Y-97085001I0J249999D01*
G01*
G37*
M02*
