M48
; DRILL file {KiCad 5.1.12-1.fc34} date Sun 19 Dec 2021 18:49:46
; FORMAT={-:-/ absolute / metric / decimal}
; #@! TF.CreationDate,2021-12-19T18:49:46+02:00
; #@! TF.GenerationSoftware,Kicad,Pcbnew,5.1.12-1.fc34
; #@! TF.FileFunction,NonPlated,1,2,NPTH
FMAT,2
METRIC
T1C1.702
T2C2.500
T3C3.000
T4C3.048
T5C3.988
%
G90
G05
T1
X58.83Y-45.25
X58.83Y-69.062
X58.83Y-88.112
X58.83Y-107.162
X58.83Y-126.212
X58.83Y-145.262
X68.99Y-45.25
X68.99Y-69.062
X68.99Y-88.112
X68.99Y-107.162
X68.99Y-126.212
X68.99Y-145.262
X77.88Y-45.25
X77.88Y-69.062
X77.88Y-88.112
X77.88Y-107.162
X77.88Y-126.212
X77.88Y-145.262
X88.04Y-45.25
X88.04Y-69.062
X88.04Y-88.112
X88.04Y-107.162
X88.04Y-126.212
X88.04Y-145.262
X96.93Y-45.25
X96.93Y-69.062
X96.93Y-88.112
X96.93Y-107.162
X96.93Y-126.212
X104.074Y-145.262
X107.09Y-45.25
X107.09Y-69.062
X107.09Y-88.112
X107.09Y-107.162
X107.09Y-126.212
X114.234Y-145.262
X115.98Y-69.062
X115.98Y-88.112
X115.98Y-107.162
X115.98Y-126.212
X120.742Y-45.25
X125.505Y-145.262
X126.14Y-69.062
X126.14Y-88.112
X126.14Y-107.162
X126.14Y-126.212
X130.903Y-45.25
X135.03Y-69.062
X135.03Y-88.112
X135.03Y-107.162
X135.03Y-126.212
X135.665Y-145.262
X139.792Y-45.25
X145.19Y-69.062
X145.19Y-88.112
X145.19Y-107.162
X145.19Y-126.212
X146.936Y-145.262
X149.952Y-45.25
X154.08Y-69.062
X154.08Y-88.112
X154.08Y-107.162
X157.096Y-145.262
X158.843Y-45.25
X164.24Y-69.062
X164.24Y-88.112
X164.24Y-107.162
X165.986Y-126.212
X168.367Y-145.262
X169.002Y-45.25
X173.13Y-69.062
X173.13Y-88.112
X176.146Y-126.212
X177.892Y-45.25
X178.528Y-145.262
X180.274Y-107.162
X183.29Y-69.062
X183.29Y-88.112
X188.052Y-45.25
X190.434Y-107.162
X192.18Y-69.062
X192.18Y-88.112
X201.705Y-45.25
X201.705Y-145.262
X202.34Y-69.062
X202.34Y-88.112
X211.865Y-45.25
X211.865Y-145.262
X220.755Y-45.25
X220.755Y-69.062
X220.755Y-88.112
X220.755Y-107.162
X220.755Y-126.212
X220.755Y-145.262
X230.915Y-45.25
X230.915Y-69.062
X230.915Y-88.112
X230.915Y-107.162
X230.915Y-126.212
X230.915Y-145.262
X239.805Y-45.25
X239.805Y-69.062
X239.805Y-88.112
X239.805Y-107.162
X239.805Y-145.262
X249.965Y-45.25
X249.965Y-69.062
X249.965Y-88.112
X249.965Y-107.162
X249.965Y-145.262
T2
X42.93Y-40.29
X42.93Y-52.29
T3
X60.1Y-42.71
X60.1Y-66.522
X60.1Y-85.572
X60.1Y-104.623
X60.1Y-123.672
X60.1Y-142.722
X66.45Y-40.17
X66.45Y-63.982
X66.45Y-83.032
X66.45Y-102.082
X66.45Y-121.132
X66.45Y-140.183
X79.15Y-42.71
X79.15Y-66.522
X79.15Y-85.572
X79.15Y-104.623
X79.15Y-123.672
X79.15Y-142.722
X85.5Y-40.17
X85.5Y-63.982
X85.5Y-83.032
X85.5Y-102.082
X85.5Y-121.132
X85.5Y-140.183
X98.2Y-42.71
X98.2Y-66.522
X98.2Y-85.572
X98.2Y-104.623
X98.2Y-123.672
X104.55Y-40.17
X104.55Y-63.982
X104.55Y-83.032
X104.55Y-102.082
X104.55Y-121.132
X105.344Y-142.722
X111.694Y-140.183
X117.25Y-66.522
X117.25Y-85.572
X117.25Y-104.623
X117.25Y-123.672
X122.012Y-42.71
X123.6Y-63.982
X123.6Y-83.032
X123.6Y-102.082
X123.6Y-121.132
X126.775Y-142.722
X128.362Y-40.17
X133.125Y-140.183
X136.3Y-66.522
X136.3Y-85.572
X136.3Y-104.623
X136.3Y-123.672
X141.062Y-42.71
X142.65Y-63.982
X142.65Y-83.032
X142.65Y-102.082
X142.65Y-121.132
X147.412Y-40.17
X148.206Y-142.722
X154.556Y-140.183
X155.35Y-66.522
X155.35Y-85.572
X155.35Y-104.623
X160.112Y-42.71
X161.7Y-63.982
X161.7Y-83.032
X161.7Y-102.082
X166.463Y-40.17
X167.256Y-123.672
X169.637Y-142.722
X173.606Y-121.132
X174.4Y-66.522
X174.4Y-85.572
X175.987Y-140.183
X179.162Y-42.71
X180.75Y-63.982
X180.75Y-83.032
X181.544Y-104.623
X185.512Y-40.17
X187.894Y-102.082
X193.45Y-66.522
X193.45Y-85.572
X199.8Y-63.982
X199.8Y-83.032
X202.975Y-42.71
X202.975Y-142.722
X209.325Y-40.17
X209.325Y-140.183
X222.025Y-42.71
X222.025Y-66.522
X222.025Y-85.572
X222.025Y-104.623
X222.025Y-123.672
X222.025Y-142.722
X228.375Y-40.17
X228.375Y-63.982
X228.375Y-83.032
X228.375Y-102.082
X228.375Y-121.132
X228.375Y-140.183
X241.075Y-42.71
X241.075Y-66.522
X241.075Y-85.572
X241.075Y-104.623
X241.075Y-142.722
X247.425Y-40.17
X247.425Y-63.982
X247.425Y-83.032
X247.425Y-102.082
X247.425Y-140.183
T4
X159.166Y-119.227
X182.966Y-119.227
T5
X63.91Y-45.25
X63.91Y-69.062
X63.91Y-88.112
X63.91Y-107.162
X63.91Y-126.212
X63.91Y-145.262
X82.96Y-45.25
X82.96Y-69.062
X82.96Y-88.112
X82.96Y-107.162
X82.96Y-126.212
X82.96Y-145.262
X102.01Y-45.25
X102.01Y-69.062
X102.01Y-88.112
X102.01Y-107.162
X102.01Y-126.212
X109.154Y-145.262
X121.06Y-69.062
X121.06Y-88.112
X121.06Y-107.162
X121.06Y-126.212
X125.822Y-45.25
X130.585Y-145.262
X140.11Y-69.062
X140.11Y-88.112
X140.11Y-107.162
X140.11Y-126.212
X144.873Y-45.25
X152.016Y-145.262
X159.16Y-69.062
X159.16Y-88.112
X159.16Y-107.162
X159.166Y-134.468
X163.922Y-45.25
X171.066Y-126.212
X173.447Y-145.262
X178.21Y-69.062
X178.21Y-88.112
X182.966Y-134.468
X182.972Y-45.25
X185.354Y-107.162
X197.26Y-69.062
X197.26Y-88.112
X206.785Y-45.25
X206.785Y-145.262
X225.835Y-45.25
X225.835Y-69.062
X225.835Y-88.112
X225.835Y-107.162
X225.835Y-126.212
X225.835Y-145.262
X244.885Y-45.25
X244.885Y-69.062
X244.885Y-88.112
X244.885Y-107.162
X244.885Y-145.262
T0
M30
