M48
; DRILL file {KiCad 5.1.12-1.fc34} date Sun 19 Dec 2021 18:49:46
; FORMAT={-:-/ absolute / metric / decimal}
; #@! TF.CreationDate,2021-12-19T18:49:46+02:00
; #@! TF.GenerationSoftware,Kicad,Pcbnew,5.1.12-1.fc34
; #@! TF.FileFunction,Plated,1,2,PTH
FMAT,2
METRIC
T1C0.400
T2C0.700
T3C0.800
T4C1.000
T5C1.100
%
G90
G05
T1
X39.11Y-36.58
X50.499Y-43.861
X52.6Y-41.77
X54.0Y-48.25
X56.21Y-45.09
X56.3Y-145.37
X57.09Y-57.48
X57.74Y-132.53
X58.36Y-50.55
X59.75Y-54.61
X60.01Y-48.99
X60.52Y-75.62
X65.22Y-51.58
X68.93Y-58.25
X69.71Y-59.01
X70.46Y-59.87
X71.01Y-56.12
X71.18Y-75.4
X71.24Y-80.1
X71.3Y-94.42
X71.88Y-56.93
X72.52Y-57.9
X74.16Y-75.34
X74.22Y-94.42
X74.31Y-80.1
X74.6Y-114.66
X75.34Y-59.09
X75.34Y-145.45
X75.4Y-50.57
X75.47Y-131.14
X76.72Y-112.61
X78.37Y-80.1
X79.44Y-75.48
X79.506Y-72.54
X94.46Y-72.34
X94.48Y-50.46
X94.48Y-54.55
X94.48Y-56.87
X94.48Y-61.02
X94.49Y-75.55
X94.51Y-115.17
X94.51Y-117.95
X97.07Y-130.96
X101.53Y-145.53
X102.48Y-54.93
X102.56Y-57.14
X102.57Y-59.01
X113.44Y-50.62
X113.44Y-54.55
X113.44Y-56.98
X113.47Y-72.29
X113.47Y-75.53
X113.5Y-61.08
X113.53Y-114.95
X113.53Y-117.95
X115.25Y-131.05
X122.97Y-145.33
X123.56Y-58.97
X123.57Y-57.25
X132.52Y-72.35
X132.57Y-75.53
X132.58Y-60.97
X132.63Y-56.98
X132.63Y-115.1
X132.63Y-118.02
X134.4Y-131.14
X134.74Y-54.44
X137.28Y-50.57
X144.49Y-145.28
X151.47Y-72.45
X151.54Y-75.49
X151.63Y-57.06
X151.63Y-61.04
X153.46Y-54.36
X156.17Y-50.53
X163.38Y-132.37
X163.46Y-129.65
X163.64Y-136.23
X165.89Y-145.22
X170.61Y-72.35
X170.64Y-75.36
X170.66Y-60.89
X170.74Y-57.06
X172.5Y-54.34
X174.88Y-50.29
X176.57Y-134.93
X178.8Y-132.73
X180.16Y-74.93
X181.98Y-73.11
X184.56Y-128.61
X187.64Y-124.95
X189.64Y-57.26
X189.64Y-61.02
X189.65Y-71.08
X189.65Y-75.4
X190.84Y-116.04
X190.88Y-128.37
X191.36Y-122.93
X191.69Y-54.49
X191.97Y-125.02
X192.71Y-136.52
X192.76Y-115.99
X192.775Y-130.38
X193.03Y-120.13
X194.18Y-109.14
X195.73Y-50.24
X196.38Y-116.81
X197.72Y-136.38
X198.15Y-129.41
X199.32Y-135.25
X199.57Y-124.05
X199.7Y-122.13
X202.0Y-132.25
X202.07Y-123.58
X202.75Y-133.25
X202.93Y-122.71
X203.36Y-103.39
X203.5Y-134.0
X204.3Y-134.761
X205.2Y-135.5
X205.42Y-123.85
X206.0Y-136.25
X206.38Y-69.91
X206.39Y-80.76
X206.5Y-74.54
X206.63Y-119.6
X206.64Y-73.03
X206.67Y-116.75
X207.68Y-125.64
X207.79Y-121.6
X207.83Y-122.93
X208.09Y-135.3
X211.18Y-123.89
X211.43Y-72.97
X211.43Y-117.61
X211.46Y-69.91
X211.882Y-124.69
X211.96Y-126.44
X212.074Y-114.297
X213.086Y-121.956
X213.71Y-133.87
X216.75Y-74.08
X216.75Y-77.17
X218.1Y-126.37
X218.21Y-46.43
X218.24Y-107.12
X218.27Y-81.84
X218.31Y-69.82
X219.11Y-117.48
X221.209Y-139.789
X222.7Y-96.66
X237.25Y-46.45
X237.25Y-70.1
X237.25Y-81.79
X237.32Y-107.68
X237.32Y-139.2
X241.2Y-132.99
X242.89Y-132.69
X243.2Y-134.99
T2
X44.24Y-36.21
X45.04Y-34.61
X45.84Y-36.21
X46.64Y-34.61
X47.44Y-36.21
T3
X45.23Y-44.76
X45.23Y-46.8
X45.23Y-48.84
X47.77Y-43.74
X47.77Y-45.78
X47.77Y-47.82
X200.8Y-111.75
X205.68Y-111.75
T4
X246.05Y-128.2
X246.05Y-130.74
X246.05Y-133.28
X248.59Y-128.2
X248.59Y-130.74
X248.59Y-133.28
T5
X244.23Y-118.4
X244.23Y-122.9
X250.73Y-118.4
X250.73Y-122.9
T2
X42.29Y-29.56G85X42.29Y-30.86
G05
X49.39Y-29.56G85X49.39Y-30.86
G05
T0
M30
