%TF.GenerationSoftware,KiCad,Pcbnew,5.1.10-1.fc34*%
%TF.CreationDate,2021-06-27T19:23:10+03:00*%
%TF.ProjectId,poc,706f632e-6b69-4636-9164-5f7063625858,rev?*%
%TF.SameCoordinates,Original*%
%TF.FileFunction,Legend,Top*%
%TF.FilePolarity,Positive*%
%FSLAX46Y46*%
G04 Gerber Fmt 4.6, Leading zero omitted, Abs format (unit mm)*
G04 Created by KiCad (PCBNEW 5.1.10-1.fc34) date 2021-06-27 19:23:10*
%MOMM*%
%LPD*%
G01*
G04 APERTURE LIST*
%ADD10C,0.150000*%
%ADD11C,0.300000*%
%ADD12C,0.120000*%
%ADD13O,1.700000X1.700000*%
%ADD14R,1.700000X1.700000*%
%ADD15R,1.400000X1.200000*%
%ADD16R,1.400000X1.000000*%
%ADD17C,2.000000*%
%ADD18C,1.700000*%
%ADD19C,4.000000*%
%ADD20C,2.200000*%
%ADD21C,2.500000*%
%ADD22C,1.520000*%
%ADD23R,1.520000X1.520000*%
%ADD24R,1.200000X1.400000*%
%ADD25R,1.000000X1.400000*%
%ADD26R,0.900000X1.200000*%
%ADD27R,1.100000X1.100000*%
%ADD28C,1.100000*%
%ADD29O,1.100000X2.400000*%
%ADD30R,0.550000X1.500000*%
%ADD31R,1.500000X0.550000*%
%ADD32C,1.500000*%
G04 APERTURE END LIST*
D10*
X160547619Y-152212023D02*
X160500000Y-152164404D01*
X160452380Y-152069166D01*
X160452380Y-151831071D01*
X160500000Y-151735833D01*
X160547619Y-151688214D01*
X160642857Y-151640595D01*
X160738095Y-151640595D01*
X160880952Y-151688214D01*
X161452380Y-152259642D01*
X161452380Y-151640595D01*
X160452380Y-151307261D02*
X160452380Y-150640595D01*
X161452380Y-151069166D01*
X160404761Y-149545357D02*
X161690476Y-150402500D01*
X160452380Y-149021547D02*
X160452380Y-148926309D01*
X160500000Y-148831071D01*
X160547619Y-148783452D01*
X160642857Y-148735833D01*
X160833333Y-148688214D01*
X161071428Y-148688214D01*
X161261904Y-148735833D01*
X161357142Y-148783452D01*
X161404761Y-148831071D01*
X161452380Y-148926309D01*
X161452380Y-149021547D01*
X161404761Y-149116785D01*
X161357142Y-149164404D01*
X161261904Y-149212023D01*
X161071428Y-149259642D01*
X160833333Y-149259642D01*
X160642857Y-149212023D01*
X160547619Y-149164404D01*
X160500000Y-149116785D01*
X160452380Y-149021547D01*
X160452380Y-147831071D02*
X160452380Y-148021547D01*
X160500000Y-148116785D01*
X160547619Y-148164404D01*
X160690476Y-148259642D01*
X160880952Y-148307261D01*
X161261904Y-148307261D01*
X161357142Y-148259642D01*
X161404761Y-148212023D01*
X161452380Y-148116785D01*
X161452380Y-147926309D01*
X161404761Y-147831071D01*
X161357142Y-147783452D01*
X161261904Y-147735833D01*
X161023809Y-147735833D01*
X160928571Y-147783452D01*
X160880952Y-147831071D01*
X160833333Y-147926309D01*
X160833333Y-148116785D01*
X160880952Y-148212023D01*
X160928571Y-148259642D01*
X161023809Y-148307261D01*
X160404761Y-146592976D02*
X161690476Y-147450119D01*
X160547619Y-146307261D02*
X160500000Y-146259642D01*
X160452380Y-146164404D01*
X160452380Y-145926309D01*
X160500000Y-145831071D01*
X160547619Y-145783452D01*
X160642857Y-145735833D01*
X160738095Y-145735833D01*
X160880952Y-145783452D01*
X161452380Y-146354880D01*
X161452380Y-145735833D01*
X160452380Y-145116785D02*
X160452380Y-145021547D01*
X160500000Y-144926309D01*
X160547619Y-144878690D01*
X160642857Y-144831071D01*
X160833333Y-144783452D01*
X161071428Y-144783452D01*
X161261904Y-144831071D01*
X161357142Y-144878690D01*
X161404761Y-144926309D01*
X161452380Y-145021547D01*
X161452380Y-145116785D01*
X161404761Y-145212023D01*
X161357142Y-145259642D01*
X161261904Y-145307261D01*
X161071428Y-145354880D01*
X160833333Y-145354880D01*
X160642857Y-145307261D01*
X160547619Y-145259642D01*
X160500000Y-145212023D01*
X160452380Y-145116785D01*
X160547619Y-144402500D02*
X160500000Y-144354880D01*
X160452380Y-144259642D01*
X160452380Y-144021547D01*
X160500000Y-143926309D01*
X160547619Y-143878690D01*
X160642857Y-143831071D01*
X160738095Y-143831071D01*
X160880952Y-143878690D01*
X161452380Y-144450119D01*
X161452380Y-143831071D01*
X161452380Y-142878690D02*
X161452380Y-143450119D01*
X161452380Y-143164404D02*
X160452380Y-143164404D01*
X160595238Y-143259642D01*
X160690476Y-143354880D01*
X160738095Y-143450119D01*
X161452380Y-141688214D02*
X160785714Y-141688214D01*
X160976190Y-141688214D02*
X160880952Y-141640595D01*
X160833333Y-141592976D01*
X160785714Y-141497738D01*
X160785714Y-141402500D01*
X161404761Y-140688214D02*
X161452380Y-140783452D01*
X161452380Y-140973928D01*
X161404761Y-141069166D01*
X161309523Y-141116785D01*
X160928571Y-141116785D01*
X160833333Y-141069166D01*
X160785714Y-140973928D01*
X160785714Y-140783452D01*
X160833333Y-140688214D01*
X160928571Y-140640595D01*
X161023809Y-140640595D01*
X161119047Y-141116785D01*
X160785714Y-140307261D02*
X161452380Y-140069166D01*
X160785714Y-139831071D01*
X161452380Y-138926309D02*
X161452380Y-139497738D01*
X161452380Y-139212023D02*
X160452380Y-139212023D01*
X160595238Y-139307261D01*
X160690476Y-139402500D01*
X160738095Y-139497738D01*
D11*
X165678571Y-151947857D02*
X164178571Y-151947857D01*
X165678571Y-151090714D01*
X164178571Y-151090714D01*
X165678571Y-150376428D02*
X164678571Y-150376428D01*
X164178571Y-150376428D02*
X164250000Y-150447857D01*
X164321428Y-150376428D01*
X164250000Y-150305000D01*
X164178571Y-150376428D01*
X164321428Y-150376428D01*
X165678571Y-149662142D02*
X164178571Y-149662142D01*
X165107142Y-149519285D02*
X165678571Y-149090714D01*
X164678571Y-149090714D02*
X165250000Y-149662142D01*
X165678571Y-148447857D02*
X164678571Y-148447857D01*
X164178571Y-148447857D02*
X164250000Y-148519285D01*
X164321428Y-148447857D01*
X164250000Y-148376428D01*
X164178571Y-148447857D01*
X164321428Y-148447857D01*
X164678571Y-147947857D02*
X164678571Y-147376428D01*
X164178571Y-147733571D02*
X165464285Y-147733571D01*
X165607142Y-147662142D01*
X165678571Y-147519285D01*
X165678571Y-147376428D01*
X165678571Y-146233571D02*
X164892857Y-146233571D01*
X164750000Y-146305000D01*
X164678571Y-146447857D01*
X164678571Y-146733571D01*
X164750000Y-146876428D01*
X165607142Y-146233571D02*
X165678571Y-146376428D01*
X165678571Y-146733571D01*
X165607142Y-146876428D01*
X165464285Y-146947857D01*
X165321428Y-146947857D01*
X165178571Y-146876428D01*
X165107142Y-146733571D01*
X165107142Y-146376428D01*
X165035714Y-146233571D01*
X165678571Y-144805000D02*
X165678571Y-145519285D01*
X164178571Y-145519285D01*
X165678571Y-143162142D02*
X164178571Y-143162142D01*
X165678571Y-142305000D02*
X164821428Y-142947857D01*
X164178571Y-142305000D02*
X165035714Y-143162142D01*
X165607142Y-141090714D02*
X165678571Y-141233571D01*
X165678571Y-141519285D01*
X165607142Y-141662142D01*
X165464285Y-141733571D01*
X164892857Y-141733571D01*
X164750000Y-141662142D01*
X164678571Y-141519285D01*
X164678571Y-141233571D01*
X164750000Y-141090714D01*
X164892857Y-141019285D01*
X165035714Y-141019285D01*
X165178571Y-141733571D01*
X164678571Y-140519285D02*
X165678571Y-140162142D01*
X164678571Y-139805000D02*
X165678571Y-140162142D01*
X166035714Y-140305000D01*
X166107142Y-140376428D01*
X166178571Y-140519285D01*
X165678571Y-139233571D02*
X164178571Y-139233571D01*
X164750000Y-139233571D02*
X164678571Y-139090714D01*
X164678571Y-138805000D01*
X164750000Y-138662142D01*
X164821428Y-138590714D01*
X164964285Y-138519285D01*
X165392857Y-138519285D01*
X165535714Y-138590714D01*
X165607142Y-138662142D01*
X165678571Y-138805000D01*
X165678571Y-139090714D01*
X165607142Y-139233571D01*
X165678571Y-137662142D02*
X165607142Y-137805000D01*
X165535714Y-137876428D01*
X165392857Y-137947857D01*
X164964285Y-137947857D01*
X164821428Y-137876428D01*
X164750000Y-137805000D01*
X164678571Y-137662142D01*
X164678571Y-137447857D01*
X164750000Y-137305000D01*
X164821428Y-137233571D01*
X164964285Y-137162142D01*
X165392857Y-137162142D01*
X165535714Y-137233571D01*
X165607142Y-137305000D01*
X165678571Y-137447857D01*
X165678571Y-137662142D01*
X165678571Y-135876428D02*
X164892857Y-135876428D01*
X164750000Y-135947857D01*
X164678571Y-136090714D01*
X164678571Y-136376428D01*
X164750000Y-136519285D01*
X165607142Y-135876428D02*
X165678571Y-136019285D01*
X165678571Y-136376428D01*
X165607142Y-136519285D01*
X165464285Y-136590714D01*
X165321428Y-136590714D01*
X165178571Y-136519285D01*
X165107142Y-136376428D01*
X165107142Y-136019285D01*
X165035714Y-135876428D01*
X165678571Y-135162142D02*
X164678571Y-135162142D01*
X164964285Y-135162142D02*
X164821428Y-135090714D01*
X164750000Y-135019285D01*
X164678571Y-134876428D01*
X164678571Y-134733571D01*
X165678571Y-133590714D02*
X164178571Y-133590714D01*
X165607142Y-133590714D02*
X165678571Y-133733571D01*
X165678571Y-134019285D01*
X165607142Y-134162142D01*
X165535714Y-134233571D01*
X165392857Y-134305000D01*
X164964285Y-134305000D01*
X164821428Y-134233571D01*
X164750000Y-134162142D01*
X164678571Y-134019285D01*
X164678571Y-133733571D01*
X164750000Y-133590714D01*
X165678571Y-131733571D02*
X164178571Y-131733571D01*
X164178571Y-131162142D01*
X164250000Y-131019285D01*
X164321428Y-130947857D01*
X164464285Y-130876428D01*
X164678571Y-130876428D01*
X164821428Y-130947857D01*
X164892857Y-131019285D01*
X164964285Y-131162142D01*
X164964285Y-131733571D01*
X165678571Y-130019285D02*
X165607142Y-130162142D01*
X165535714Y-130233571D01*
X165392857Y-130305000D01*
X164964285Y-130305000D01*
X164821428Y-130233571D01*
X164750000Y-130162142D01*
X164678571Y-130019285D01*
X164678571Y-129805000D01*
X164750000Y-129662142D01*
X164821428Y-129590714D01*
X164964285Y-129519285D01*
X165392857Y-129519285D01*
X165535714Y-129590714D01*
X165607142Y-129662142D01*
X165678571Y-129805000D01*
X165678571Y-130019285D01*
X165535714Y-128019285D02*
X165607142Y-128090714D01*
X165678571Y-128305000D01*
X165678571Y-128447857D01*
X165607142Y-128662142D01*
X165464285Y-128805000D01*
X165321428Y-128876428D01*
X165035714Y-128947857D01*
X164821428Y-128947857D01*
X164535714Y-128876428D01*
X164392857Y-128805000D01*
X164250000Y-128662142D01*
X164178571Y-128447857D01*
X164178571Y-128305000D01*
X164250000Y-128090714D01*
X164321428Y-128019285D01*
D10*
X96404761Y-148857142D02*
X96357142Y-148904761D01*
X96214285Y-148952380D01*
X96119047Y-148952380D01*
X95976190Y-148904761D01*
X95880952Y-148809523D01*
X95833333Y-148714285D01*
X95785714Y-148523809D01*
X95785714Y-148380952D01*
X95833333Y-148190476D01*
X95880952Y-148095238D01*
X95976190Y-148000000D01*
X96119047Y-147952380D01*
X96214285Y-147952380D01*
X96357142Y-148000000D01*
X96404761Y-148047619D01*
X97023809Y-147952380D02*
X97214285Y-147952380D01*
X97309523Y-148000000D01*
X97404761Y-148095238D01*
X97452380Y-148285714D01*
X97452380Y-148619047D01*
X97404761Y-148809523D01*
X97309523Y-148904761D01*
X97214285Y-148952380D01*
X97023809Y-148952380D01*
X96928571Y-148904761D01*
X96833333Y-148809523D01*
X96785714Y-148619047D01*
X96785714Y-148285714D01*
X96833333Y-148095238D01*
X96928571Y-148000000D01*
X97023809Y-147952380D01*
X98357142Y-148952380D02*
X97880952Y-148952380D01*
X97880952Y-147952380D01*
X99214285Y-148952380D02*
X98642857Y-148952380D01*
X98928571Y-148952380D02*
X98928571Y-147952380D01*
X98833333Y-148095238D01*
X98738095Y-148190476D01*
X98642857Y-148238095D01*
X85902500Y-148857142D02*
X85854880Y-148904761D01*
X85712023Y-148952380D01*
X85616785Y-148952380D01*
X85473928Y-148904761D01*
X85378690Y-148809523D01*
X85331071Y-148714285D01*
X85283452Y-148523809D01*
X85283452Y-148380952D01*
X85331071Y-148190476D01*
X85378690Y-148095238D01*
X85473928Y-148000000D01*
X85616785Y-147952380D01*
X85712023Y-147952380D01*
X85854880Y-148000000D01*
X85902500Y-148047619D01*
X86521547Y-147952380D02*
X86712023Y-147952380D01*
X86807261Y-148000000D01*
X86902500Y-148095238D01*
X86950119Y-148285714D01*
X86950119Y-148619047D01*
X86902500Y-148809523D01*
X86807261Y-148904761D01*
X86712023Y-148952380D01*
X86521547Y-148952380D01*
X86426309Y-148904761D01*
X86331071Y-148809523D01*
X86283452Y-148619047D01*
X86283452Y-148285714D01*
X86331071Y-148095238D01*
X86426309Y-148000000D01*
X86521547Y-147952380D01*
X87854880Y-148952380D02*
X87378690Y-148952380D01*
X87378690Y-147952380D01*
X88378690Y-147952380D02*
X88473928Y-147952380D01*
X88569166Y-148000000D01*
X88616785Y-148047619D01*
X88664404Y-148142857D01*
X88712023Y-148333333D01*
X88712023Y-148571428D01*
X88664404Y-148761904D01*
X88616785Y-148857142D01*
X88569166Y-148904761D01*
X88473928Y-148952380D01*
X88378690Y-148952380D01*
X88283452Y-148904761D01*
X88235833Y-148857142D01*
X88188214Y-148761904D01*
X88140595Y-148571428D01*
X88140595Y-148333333D01*
X88188214Y-148142857D01*
X88235833Y-148047619D01*
X88283452Y-148000000D01*
X88378690Y-147952380D01*
X96238095Y-151952380D02*
X95904761Y-151476190D01*
X95666666Y-151952380D02*
X95666666Y-150952380D01*
X96047619Y-150952380D01*
X96142857Y-151000000D01*
X96190476Y-151047619D01*
X96238095Y-151142857D01*
X96238095Y-151285714D01*
X96190476Y-151380952D01*
X96142857Y-151428571D01*
X96047619Y-151476190D01*
X95666666Y-151476190D01*
X96857142Y-150952380D02*
X97047619Y-150952380D01*
X97142857Y-151000000D01*
X97238095Y-151095238D01*
X97285714Y-151285714D01*
X97285714Y-151619047D01*
X97238095Y-151809523D01*
X97142857Y-151904761D01*
X97047619Y-151952380D01*
X96857142Y-151952380D01*
X96761904Y-151904761D01*
X96666666Y-151809523D01*
X96619047Y-151619047D01*
X96619047Y-151285714D01*
X96666666Y-151095238D01*
X96761904Y-151000000D01*
X96857142Y-150952380D01*
X97619047Y-150952380D02*
X97857142Y-151952380D01*
X98047619Y-151238095D01*
X98238095Y-151952380D01*
X98476190Y-150952380D01*
X99380952Y-151952380D02*
X98809523Y-151952380D01*
X99095238Y-151952380D02*
X99095238Y-150952380D01*
X99000000Y-151095238D01*
X98904761Y-151190476D01*
X98809523Y-151238095D01*
X85738095Y-151952380D02*
X85404761Y-151476190D01*
X85166666Y-151952380D02*
X85166666Y-150952380D01*
X85547619Y-150952380D01*
X85642857Y-151000000D01*
X85690476Y-151047619D01*
X85738095Y-151142857D01*
X85738095Y-151285714D01*
X85690476Y-151380952D01*
X85642857Y-151428571D01*
X85547619Y-151476190D01*
X85166666Y-151476190D01*
X86357142Y-150952380D02*
X86547619Y-150952380D01*
X86642857Y-151000000D01*
X86738095Y-151095238D01*
X86785714Y-151285714D01*
X86785714Y-151619047D01*
X86738095Y-151809523D01*
X86642857Y-151904761D01*
X86547619Y-151952380D01*
X86357142Y-151952380D01*
X86261904Y-151904761D01*
X86166666Y-151809523D01*
X86119047Y-151619047D01*
X86119047Y-151285714D01*
X86166666Y-151095238D01*
X86261904Y-151000000D01*
X86357142Y-150952380D01*
X87119047Y-150952380D02*
X87357142Y-151952380D01*
X87547619Y-151238095D01*
X87738095Y-151952380D01*
X87976190Y-150952380D01*
X88547619Y-150952380D02*
X88642857Y-150952380D01*
X88738095Y-151000000D01*
X88785714Y-151047619D01*
X88833333Y-151142857D01*
X88880952Y-151333333D01*
X88880952Y-151571428D01*
X88833333Y-151761904D01*
X88785714Y-151857142D01*
X88738095Y-151904761D01*
X88642857Y-151952380D01*
X88547619Y-151952380D01*
X88452380Y-151904761D01*
X88404761Y-151857142D01*
X88357142Y-151761904D01*
X88309523Y-151571428D01*
X88309523Y-151333333D01*
X88357142Y-151142857D01*
X88404761Y-151047619D01*
X88452380Y-151000000D01*
X88547619Y-150952380D01*
X73261904Y-118952380D02*
X72928571Y-118476190D01*
X72690476Y-118952380D02*
X72690476Y-117952380D01*
X73071428Y-117952380D01*
X73166666Y-118000000D01*
X73214285Y-118047619D01*
X73261904Y-118142857D01*
X73261904Y-118285714D01*
X73214285Y-118380952D01*
X73166666Y-118428571D01*
X73071428Y-118476190D01*
X72690476Y-118476190D01*
X74071428Y-118904761D02*
X73976190Y-118952380D01*
X73785714Y-118952380D01*
X73690476Y-118904761D01*
X73642857Y-118809523D01*
X73642857Y-118428571D01*
X73690476Y-118333333D01*
X73785714Y-118285714D01*
X73976190Y-118285714D01*
X74071428Y-118333333D01*
X74119047Y-118428571D01*
X74119047Y-118523809D01*
X73642857Y-118619047D01*
X74500000Y-118904761D02*
X74595238Y-118952380D01*
X74785714Y-118952380D01*
X74880952Y-118904761D01*
X74928571Y-118809523D01*
X74928571Y-118761904D01*
X74880952Y-118666666D01*
X74785714Y-118619047D01*
X74642857Y-118619047D01*
X74547619Y-118571428D01*
X74500000Y-118476190D01*
X74500000Y-118428571D01*
X74547619Y-118333333D01*
X74642857Y-118285714D01*
X74785714Y-118285714D01*
X74880952Y-118333333D01*
X75738095Y-118904761D02*
X75642857Y-118952380D01*
X75452380Y-118952380D01*
X75357142Y-118904761D01*
X75309523Y-118809523D01*
X75309523Y-118428571D01*
X75357142Y-118333333D01*
X75452380Y-118285714D01*
X75642857Y-118285714D01*
X75738095Y-118333333D01*
X75785714Y-118428571D01*
X75785714Y-118523809D01*
X75309523Y-118619047D01*
X76071428Y-118285714D02*
X76452380Y-118285714D01*
X76214285Y-117952380D02*
X76214285Y-118809523D01*
X76261904Y-118904761D01*
X76357142Y-118952380D01*
X76452380Y-118952380D01*
X162904761Y-100714285D02*
X162952380Y-100571428D01*
X162952380Y-100333333D01*
X162904761Y-100238095D01*
X162857142Y-100190476D01*
X162761904Y-100142857D01*
X162666666Y-100142857D01*
X162571428Y-100190476D01*
X162523809Y-100238095D01*
X162476190Y-100333333D01*
X162428571Y-100523809D01*
X162380952Y-100619047D01*
X162333333Y-100666666D01*
X162238095Y-100714285D01*
X162142857Y-100714285D01*
X162047619Y-100666666D01*
X162000000Y-100619047D01*
X161952380Y-100523809D01*
X161952380Y-100285714D01*
X162000000Y-100142857D01*
X162952380Y-99714285D02*
X161952380Y-99714285D01*
X161952380Y-99476190D01*
X162000000Y-99333333D01*
X162095238Y-99238095D01*
X162190476Y-99190476D01*
X162380952Y-99142857D01*
X162523809Y-99142857D01*
X162714285Y-99190476D01*
X162809523Y-99238095D01*
X162904761Y-99333333D01*
X162952380Y-99476190D01*
X162952380Y-99714285D01*
X162666666Y-98761904D02*
X162666666Y-98285714D01*
X162952380Y-98857142D02*
X161952380Y-98523809D01*
X162952380Y-98190476D01*
X165404761Y-100690476D02*
X165452380Y-100547619D01*
X165452380Y-100309523D01*
X165404761Y-100214285D01*
X165357142Y-100166666D01*
X165261904Y-100119047D01*
X165166666Y-100119047D01*
X165071428Y-100166666D01*
X165023809Y-100214285D01*
X164976190Y-100309523D01*
X164928571Y-100500000D01*
X164880952Y-100595238D01*
X164833333Y-100642857D01*
X164738095Y-100690476D01*
X164642857Y-100690476D01*
X164547619Y-100642857D01*
X164500000Y-100595238D01*
X164452380Y-100500000D01*
X164452380Y-100261904D01*
X164500000Y-100119047D01*
X165357142Y-99119047D02*
X165404761Y-99166666D01*
X165452380Y-99309523D01*
X165452380Y-99404761D01*
X165404761Y-99547619D01*
X165309523Y-99642857D01*
X165214285Y-99690476D01*
X165023809Y-99738095D01*
X164880952Y-99738095D01*
X164690476Y-99690476D01*
X164595238Y-99642857D01*
X164500000Y-99547619D01*
X164452380Y-99404761D01*
X164452380Y-99309523D01*
X164500000Y-99166666D01*
X164547619Y-99119047D01*
X165452380Y-98214285D02*
X165452380Y-98690476D01*
X164452380Y-98690476D01*
X131485714Y-93166666D02*
X131961904Y-93166666D01*
X131390476Y-93452380D02*
X131723809Y-92452380D01*
X132057142Y-93452380D01*
X132295238Y-92452380D02*
X132961904Y-92452380D01*
X132533333Y-93452380D01*
X134395238Y-92928571D02*
X134538095Y-92976190D01*
X134585714Y-93023809D01*
X134633333Y-93119047D01*
X134633333Y-93261904D01*
X134585714Y-93357142D01*
X134538095Y-93404761D01*
X134442857Y-93452380D01*
X134061904Y-93452380D01*
X134061904Y-92452380D01*
X134395238Y-92452380D01*
X134490476Y-92500000D01*
X134538095Y-92547619D01*
X134585714Y-92642857D01*
X134585714Y-92738095D01*
X134538095Y-92833333D01*
X134490476Y-92880952D01*
X134395238Y-92928571D01*
X134061904Y-92928571D01*
X135585714Y-93452380D02*
X135014285Y-93452380D01*
X135300000Y-93452380D02*
X135300000Y-92452380D01*
X135204761Y-92595238D01*
X135109523Y-92690476D01*
X135014285Y-92738095D01*
X136795238Y-92928571D02*
X136938095Y-92976190D01*
X136985714Y-93023809D01*
X137033333Y-93119047D01*
X137033333Y-93261904D01*
X136985714Y-93357142D01*
X136938095Y-93404761D01*
X136842857Y-93452380D01*
X136461904Y-93452380D01*
X136461904Y-92452380D01*
X136795238Y-92452380D01*
X136890476Y-92500000D01*
X136938095Y-92547619D01*
X136985714Y-92642857D01*
X136985714Y-92738095D01*
X136938095Y-92833333D01*
X136890476Y-92880952D01*
X136795238Y-92928571D01*
X136461904Y-92928571D01*
X137414285Y-92547619D02*
X137461904Y-92500000D01*
X137557142Y-92452380D01*
X137795238Y-92452380D01*
X137890476Y-92500000D01*
X137938095Y-92547619D01*
X137985714Y-92642857D01*
X137985714Y-92738095D01*
X137938095Y-92880952D01*
X137366666Y-93452380D01*
X137985714Y-93452380D01*
X139395238Y-92928571D02*
X139538095Y-92976190D01*
X139585714Y-93023809D01*
X139633333Y-93119047D01*
X139633333Y-93261904D01*
X139585714Y-93357142D01*
X139538095Y-93404761D01*
X139442857Y-93452380D01*
X139061904Y-93452380D01*
X139061904Y-92452380D01*
X139395238Y-92452380D01*
X139490476Y-92500000D01*
X139538095Y-92547619D01*
X139585714Y-92642857D01*
X139585714Y-92738095D01*
X139538095Y-92833333D01*
X139490476Y-92880952D01*
X139395238Y-92928571D01*
X139061904Y-92928571D01*
X139966666Y-92452380D02*
X140585714Y-92452380D01*
X140252380Y-92833333D01*
X140395238Y-92833333D01*
X140490476Y-92880952D01*
X140538095Y-92928571D01*
X140585714Y-93023809D01*
X140585714Y-93261904D01*
X140538095Y-93357142D01*
X140490476Y-93404761D01*
X140395238Y-93452380D01*
X140109523Y-93452380D01*
X140014285Y-93404761D01*
X139966666Y-93357142D01*
X141995238Y-92928571D02*
X142138095Y-92976190D01*
X142185714Y-93023809D01*
X142233333Y-93119047D01*
X142233333Y-93261904D01*
X142185714Y-93357142D01*
X142138095Y-93404761D01*
X142042857Y-93452380D01*
X141661904Y-93452380D01*
X141661904Y-92452380D01*
X141995238Y-92452380D01*
X142090476Y-92500000D01*
X142138095Y-92547619D01*
X142185714Y-92642857D01*
X142185714Y-92738095D01*
X142138095Y-92833333D01*
X142090476Y-92880952D01*
X141995238Y-92928571D01*
X141661904Y-92928571D01*
X143090476Y-92785714D02*
X143090476Y-93452380D01*
X142852380Y-92404761D02*
X142614285Y-93119047D01*
X143233333Y-93119047D01*
X144395238Y-92928571D02*
X144538095Y-92976190D01*
X144585714Y-93023809D01*
X144633333Y-93119047D01*
X144633333Y-93261904D01*
X144585714Y-93357142D01*
X144538095Y-93404761D01*
X144442857Y-93452380D01*
X144061904Y-93452380D01*
X144061904Y-92452380D01*
X144395238Y-92452380D01*
X144490476Y-92500000D01*
X144538095Y-92547619D01*
X144585714Y-92642857D01*
X144585714Y-92738095D01*
X144538095Y-92833333D01*
X144490476Y-92880952D01*
X144395238Y-92928571D01*
X144061904Y-92928571D01*
X145538095Y-92452380D02*
X145061904Y-92452380D01*
X145014285Y-92928571D01*
X145061904Y-92880952D01*
X145157142Y-92833333D01*
X145395238Y-92833333D01*
X145490476Y-92880952D01*
X145538095Y-92928571D01*
X145585714Y-93023809D01*
X145585714Y-93261904D01*
X145538095Y-93357142D01*
X145490476Y-93404761D01*
X145395238Y-93452380D01*
X145157142Y-93452380D01*
X145061904Y-93404761D01*
X145014285Y-93357142D01*
X147233333Y-93357142D02*
X147185714Y-93404761D01*
X147042857Y-93452380D01*
X146947619Y-93452380D01*
X146804761Y-93404761D01*
X146709523Y-93309523D01*
X146661904Y-93214285D01*
X146614285Y-93023809D01*
X146614285Y-92880952D01*
X146661904Y-92690476D01*
X146709523Y-92595238D01*
X146804761Y-92500000D01*
X146947619Y-92452380D01*
X147042857Y-92452380D01*
X147185714Y-92500000D01*
X147233333Y-92547619D01*
X148090476Y-92785714D02*
X148090476Y-93452380D01*
X147852380Y-92404761D02*
X147614285Y-93119047D01*
X148233333Y-93119047D01*
X149833333Y-93452380D02*
X149500000Y-92976190D01*
X149261904Y-93452380D02*
X149261904Y-92452380D01*
X149642857Y-92452380D01*
X149738095Y-92500000D01*
X149785714Y-92547619D01*
X149833333Y-92642857D01*
X149833333Y-92785714D01*
X149785714Y-92880952D01*
X149738095Y-92928571D01*
X149642857Y-92976190D01*
X149261904Y-92976190D01*
X150214285Y-92547619D02*
X150261904Y-92500000D01*
X150357142Y-92452380D01*
X150595238Y-92452380D01*
X150690476Y-92500000D01*
X150738095Y-92547619D01*
X150785714Y-92642857D01*
X150785714Y-92738095D01*
X150738095Y-92880952D01*
X150166666Y-93452380D01*
X150785714Y-93452380D01*
X149833333Y-101852380D02*
X149500000Y-101376190D01*
X149261904Y-101852380D02*
X149261904Y-100852380D01*
X149642857Y-100852380D01*
X149738095Y-100900000D01*
X149785714Y-100947619D01*
X149833333Y-101042857D01*
X149833333Y-101185714D01*
X149785714Y-101280952D01*
X149738095Y-101328571D01*
X149642857Y-101376190D01*
X149261904Y-101376190D01*
X150166666Y-100852380D02*
X150785714Y-100852380D01*
X150452380Y-101233333D01*
X150595238Y-101233333D01*
X150690476Y-101280952D01*
X150738095Y-101328571D01*
X150785714Y-101423809D01*
X150785714Y-101661904D01*
X150738095Y-101757142D01*
X150690476Y-101804761D01*
X150595238Y-101852380D01*
X150309523Y-101852380D01*
X150214285Y-101804761D01*
X150166666Y-101757142D01*
X147233333Y-101757142D02*
X147185714Y-101804761D01*
X147042857Y-101852380D01*
X146947619Y-101852380D01*
X146804761Y-101804761D01*
X146709523Y-101709523D01*
X146661904Y-101614285D01*
X146614285Y-101423809D01*
X146614285Y-101280952D01*
X146661904Y-101090476D01*
X146709523Y-100995238D01*
X146804761Y-100900000D01*
X146947619Y-100852380D01*
X147042857Y-100852380D01*
X147185714Y-100900000D01*
X147233333Y-100947619D01*
X147566666Y-100852380D02*
X148185714Y-100852380D01*
X147852380Y-101233333D01*
X147995238Y-101233333D01*
X148090476Y-101280952D01*
X148138095Y-101328571D01*
X148185714Y-101423809D01*
X148185714Y-101661904D01*
X148138095Y-101757142D01*
X148090476Y-101804761D01*
X147995238Y-101852380D01*
X147709523Y-101852380D01*
X147614285Y-101804761D01*
X147566666Y-101757142D01*
X144085714Y-101566666D02*
X144561904Y-101566666D01*
X143990476Y-101852380D02*
X144323809Y-100852380D01*
X144657142Y-101852380D01*
X144942857Y-100947619D02*
X144990476Y-100900000D01*
X145085714Y-100852380D01*
X145323809Y-100852380D01*
X145419047Y-100900000D01*
X145466666Y-100947619D01*
X145514285Y-101042857D01*
X145514285Y-101138095D01*
X145466666Y-101280952D01*
X144895238Y-101852380D01*
X145514285Y-101852380D01*
X141685714Y-101566666D02*
X142161904Y-101566666D01*
X141590476Y-101852380D02*
X141923809Y-100852380D01*
X142257142Y-101852380D01*
X142495238Y-100852380D02*
X143114285Y-100852380D01*
X142780952Y-101233333D01*
X142923809Y-101233333D01*
X143019047Y-101280952D01*
X143066666Y-101328571D01*
X143114285Y-101423809D01*
X143114285Y-101661904D01*
X143066666Y-101757142D01*
X143019047Y-101804761D01*
X142923809Y-101852380D01*
X142638095Y-101852380D01*
X142542857Y-101804761D01*
X142495238Y-101757142D01*
X139085714Y-101566666D02*
X139561904Y-101566666D01*
X138990476Y-101852380D02*
X139323809Y-100852380D01*
X139657142Y-101852380D01*
X140419047Y-101185714D02*
X140419047Y-101852380D01*
X140180952Y-100804761D02*
X139942857Y-101519047D01*
X140561904Y-101519047D01*
X136685714Y-101566666D02*
X137161904Y-101566666D01*
X136590476Y-101852380D02*
X136923809Y-100852380D01*
X137257142Y-101852380D01*
X138066666Y-100852380D02*
X137590476Y-100852380D01*
X137542857Y-101328571D01*
X137590476Y-101280952D01*
X137685714Y-101233333D01*
X137923809Y-101233333D01*
X138019047Y-101280952D01*
X138066666Y-101328571D01*
X138114285Y-101423809D01*
X138114285Y-101661904D01*
X138066666Y-101757142D01*
X138019047Y-101804761D01*
X137923809Y-101852380D01*
X137685714Y-101852380D01*
X137590476Y-101804761D01*
X137542857Y-101757142D01*
X134085714Y-101566666D02*
X134561904Y-101566666D01*
X133990476Y-101852380D02*
X134323809Y-100852380D01*
X134657142Y-101852380D01*
X135419047Y-100852380D02*
X135228571Y-100852380D01*
X135133333Y-100900000D01*
X135085714Y-100947619D01*
X134990476Y-101090476D01*
X134942857Y-101280952D01*
X134942857Y-101661904D01*
X134990476Y-101757142D01*
X135038095Y-101804761D01*
X135133333Y-101852380D01*
X135323809Y-101852380D01*
X135419047Y-101804761D01*
X135466666Y-101757142D01*
X135514285Y-101661904D01*
X135514285Y-101423809D01*
X135466666Y-101328571D01*
X135419047Y-101280952D01*
X135323809Y-101233333D01*
X135133333Y-101233333D01*
X135038095Y-101280952D01*
X134990476Y-101328571D01*
X134942857Y-101423809D01*
X131038095Y-100900000D02*
X130942857Y-100852380D01*
X130800000Y-100852380D01*
X130657142Y-100900000D01*
X130561904Y-100995238D01*
X130514285Y-101090476D01*
X130466666Y-101280952D01*
X130466666Y-101423809D01*
X130514285Y-101614285D01*
X130561904Y-101709523D01*
X130657142Y-101804761D01*
X130800000Y-101852380D01*
X130895238Y-101852380D01*
X131038095Y-101804761D01*
X131085714Y-101757142D01*
X131085714Y-101423809D01*
X130895238Y-101423809D01*
X131514285Y-101852380D02*
X131514285Y-100852380D01*
X132085714Y-101852380D01*
X132085714Y-100852380D01*
X132561904Y-101852380D02*
X132561904Y-100852380D01*
X132800000Y-100852380D01*
X132942857Y-100900000D01*
X133038095Y-100995238D01*
X133085714Y-101090476D01*
X133133333Y-101280952D01*
X133133333Y-101423809D01*
X133085714Y-101614285D01*
X133038095Y-101709523D01*
X132942857Y-101804761D01*
X132800000Y-101852380D01*
X132561904Y-101852380D01*
X101833333Y-64952380D02*
X102357142Y-64285714D01*
X101833333Y-64285714D02*
X102357142Y-64952380D01*
X102642857Y-64952380D02*
X103166666Y-64285714D01*
X102642857Y-64285714D02*
X103166666Y-64952380D01*
X99261904Y-65052380D02*
X99261904Y-64052380D01*
X99500000Y-64052380D01*
X99642857Y-64100000D01*
X99738095Y-64195238D01*
X99785714Y-64290476D01*
X99833333Y-64480952D01*
X99833333Y-64623809D01*
X99785714Y-64814285D01*
X99738095Y-64909523D01*
X99642857Y-65004761D01*
X99500000Y-65052380D01*
X99261904Y-65052380D01*
X100166666Y-64052380D02*
X100833333Y-64052380D01*
X100404761Y-65052380D01*
X96995238Y-64528571D02*
X97138095Y-64576190D01*
X97185714Y-64623809D01*
X97233333Y-64719047D01*
X97233333Y-64861904D01*
X97185714Y-64957142D01*
X97138095Y-65004761D01*
X97042857Y-65052380D01*
X96661904Y-65052380D01*
X96661904Y-64052380D01*
X96995238Y-64052380D01*
X97090476Y-64100000D01*
X97138095Y-64147619D01*
X97185714Y-64242857D01*
X97185714Y-64338095D01*
X97138095Y-64433333D01*
X97090476Y-64480952D01*
X96995238Y-64528571D01*
X96661904Y-64528571D01*
X98138095Y-64052380D02*
X97661904Y-64052380D01*
X97614285Y-64528571D01*
X97661904Y-64480952D01*
X97757142Y-64433333D01*
X97995238Y-64433333D01*
X98090476Y-64480952D01*
X98138095Y-64528571D01*
X98185714Y-64623809D01*
X98185714Y-64861904D01*
X98138095Y-64957142D01*
X98090476Y-65004761D01*
X97995238Y-65052380D01*
X97757142Y-65052380D01*
X97661904Y-65004761D01*
X97614285Y-64957142D01*
X94633333Y-64957142D02*
X94585714Y-65004761D01*
X94442857Y-65052380D01*
X94347619Y-65052380D01*
X94204761Y-65004761D01*
X94109523Y-64909523D01*
X94061904Y-64814285D01*
X94014285Y-64623809D01*
X94014285Y-64480952D01*
X94061904Y-64290476D01*
X94109523Y-64195238D01*
X94204761Y-64100000D01*
X94347619Y-64052380D01*
X94442857Y-64052380D01*
X94585714Y-64100000D01*
X94633333Y-64147619D01*
X95490476Y-64052380D02*
X95300000Y-64052380D01*
X95204761Y-64100000D01*
X95157142Y-64147619D01*
X95061904Y-64290476D01*
X95014285Y-64480952D01*
X95014285Y-64861904D01*
X95061904Y-64957142D01*
X95109523Y-65004761D01*
X95204761Y-65052380D01*
X95395238Y-65052380D01*
X95490476Y-65004761D01*
X95538095Y-64957142D01*
X95585714Y-64861904D01*
X95585714Y-64623809D01*
X95538095Y-64528571D01*
X95490476Y-64480952D01*
X95395238Y-64433333D01*
X95204761Y-64433333D01*
X95109523Y-64480952D01*
X95061904Y-64528571D01*
X95014285Y-64623809D01*
X91866666Y-64528571D02*
X91533333Y-64528571D01*
X91533333Y-65052380D02*
X91533333Y-64052380D01*
X92009523Y-64052380D01*
X92295238Y-64052380D02*
X92961904Y-64052380D01*
X92533333Y-65052380D01*
X89266666Y-64528571D02*
X88933333Y-64528571D01*
X88933333Y-65052380D02*
X88933333Y-64052380D01*
X89409523Y-64052380D01*
X90266666Y-64052380D02*
X89790476Y-64052380D01*
X89742857Y-64528571D01*
X89790476Y-64480952D01*
X89885714Y-64433333D01*
X90123809Y-64433333D01*
X90219047Y-64480952D01*
X90266666Y-64528571D01*
X90314285Y-64623809D01*
X90314285Y-64861904D01*
X90266666Y-64957142D01*
X90219047Y-65004761D01*
X90123809Y-65052380D01*
X89885714Y-65052380D01*
X89790476Y-65004761D01*
X89742857Y-64957142D01*
X86666666Y-64528571D02*
X86333333Y-64528571D01*
X86333333Y-65052380D02*
X86333333Y-64052380D01*
X86809523Y-64052380D01*
X87714285Y-65052380D02*
X87142857Y-65052380D01*
X87428571Y-65052380D02*
X87428571Y-64052380D01*
X87333333Y-64195238D01*
X87238095Y-64290476D01*
X87142857Y-64338095D01*
X83709523Y-64528571D02*
X84042857Y-64528571D01*
X84185714Y-65052380D02*
X83709523Y-65052380D01*
X83709523Y-64052380D01*
X84185714Y-64052380D01*
X85042857Y-64052380D02*
X84852380Y-64052380D01*
X84757142Y-64100000D01*
X84709523Y-64147619D01*
X84614285Y-64290476D01*
X84566666Y-64480952D01*
X84566666Y-64861904D01*
X84614285Y-64957142D01*
X84661904Y-65004761D01*
X84757142Y-65052380D01*
X84947619Y-65052380D01*
X85042857Y-65004761D01*
X85090476Y-64957142D01*
X85138095Y-64861904D01*
X85138095Y-64623809D01*
X85090476Y-64528571D01*
X85042857Y-64480952D01*
X84947619Y-64433333D01*
X84757142Y-64433333D01*
X84661904Y-64480952D01*
X84614285Y-64528571D01*
X84566666Y-64623809D01*
X101661904Y-57252380D02*
X101661904Y-56252380D01*
X101900000Y-56252380D01*
X102042857Y-56300000D01*
X102138095Y-56395238D01*
X102185714Y-56490476D01*
X102233333Y-56680952D01*
X102233333Y-56823809D01*
X102185714Y-57014285D01*
X102138095Y-57109523D01*
X102042857Y-57204761D01*
X101900000Y-57252380D01*
X101661904Y-57252380D01*
X103090476Y-56252380D02*
X102900000Y-56252380D01*
X102804761Y-56300000D01*
X102757142Y-56347619D01*
X102661904Y-56490476D01*
X102614285Y-56680952D01*
X102614285Y-57061904D01*
X102661904Y-57157142D01*
X102709523Y-57204761D01*
X102804761Y-57252380D01*
X102995238Y-57252380D01*
X103090476Y-57204761D01*
X103138095Y-57157142D01*
X103185714Y-57061904D01*
X103185714Y-56823809D01*
X103138095Y-56728571D01*
X103090476Y-56680952D01*
X102995238Y-56633333D01*
X102804761Y-56633333D01*
X102709523Y-56680952D01*
X102661904Y-56728571D01*
X102614285Y-56823809D01*
X99395238Y-56728571D02*
X99538095Y-56776190D01*
X99585714Y-56823809D01*
X99633333Y-56919047D01*
X99633333Y-57061904D01*
X99585714Y-57157142D01*
X99538095Y-57204761D01*
X99442857Y-57252380D01*
X99061904Y-57252380D01*
X99061904Y-56252380D01*
X99395238Y-56252380D01*
X99490476Y-56300000D01*
X99538095Y-56347619D01*
X99585714Y-56442857D01*
X99585714Y-56538095D01*
X99538095Y-56633333D01*
X99490476Y-56680952D01*
X99395238Y-56728571D01*
X99061904Y-56728571D01*
X100490476Y-56585714D02*
X100490476Y-57252380D01*
X100252380Y-56204761D02*
X100014285Y-56919047D01*
X100633333Y-56919047D01*
X96795238Y-56728571D02*
X96938095Y-56776190D01*
X96985714Y-56823809D01*
X97033333Y-56919047D01*
X97033333Y-57061904D01*
X96985714Y-57157142D01*
X96938095Y-57204761D01*
X96842857Y-57252380D01*
X96461904Y-57252380D01*
X96461904Y-56252380D01*
X96795238Y-56252380D01*
X96890476Y-56300000D01*
X96938095Y-56347619D01*
X96985714Y-56442857D01*
X96985714Y-56538095D01*
X96938095Y-56633333D01*
X96890476Y-56680952D01*
X96795238Y-56728571D01*
X96461904Y-56728571D01*
X97890476Y-56252380D02*
X97700000Y-56252380D01*
X97604761Y-56300000D01*
X97557142Y-56347619D01*
X97461904Y-56490476D01*
X97414285Y-56680952D01*
X97414285Y-57061904D01*
X97461904Y-57157142D01*
X97509523Y-57204761D01*
X97604761Y-57252380D01*
X97795238Y-57252380D01*
X97890476Y-57204761D01*
X97938095Y-57157142D01*
X97985714Y-57061904D01*
X97985714Y-56823809D01*
X97938095Y-56728571D01*
X97890476Y-56680952D01*
X97795238Y-56633333D01*
X97604761Y-56633333D01*
X97509523Y-56680952D01*
X97461904Y-56728571D01*
X97414285Y-56823809D01*
X94633333Y-57157142D02*
X94585714Y-57204761D01*
X94442857Y-57252380D01*
X94347619Y-57252380D01*
X94204761Y-57204761D01*
X94109523Y-57109523D01*
X94061904Y-57014285D01*
X94014285Y-56823809D01*
X94014285Y-56680952D01*
X94061904Y-56490476D01*
X94109523Y-56395238D01*
X94204761Y-56300000D01*
X94347619Y-56252380D01*
X94442857Y-56252380D01*
X94585714Y-56300000D01*
X94633333Y-56347619D01*
X94966666Y-56252380D02*
X95633333Y-56252380D01*
X95204761Y-57252380D01*
X91866666Y-56728571D02*
X91533333Y-56728571D01*
X91533333Y-57252380D02*
X91533333Y-56252380D01*
X92009523Y-56252380D01*
X92819047Y-56252380D02*
X92628571Y-56252380D01*
X92533333Y-56300000D01*
X92485714Y-56347619D01*
X92390476Y-56490476D01*
X92342857Y-56680952D01*
X92342857Y-57061904D01*
X92390476Y-57157142D01*
X92438095Y-57204761D01*
X92533333Y-57252380D01*
X92723809Y-57252380D01*
X92819047Y-57204761D01*
X92866666Y-57157142D01*
X92914285Y-57061904D01*
X92914285Y-56823809D01*
X92866666Y-56728571D01*
X92819047Y-56680952D01*
X92723809Y-56633333D01*
X92533333Y-56633333D01*
X92438095Y-56680952D01*
X92390476Y-56728571D01*
X92342857Y-56823809D01*
X89266666Y-56728571D02*
X88933333Y-56728571D01*
X88933333Y-57252380D02*
X88933333Y-56252380D01*
X89409523Y-56252380D01*
X90219047Y-56585714D02*
X90219047Y-57252380D01*
X89980952Y-56204761D02*
X89742857Y-56919047D01*
X90361904Y-56919047D01*
X86666666Y-56728571D02*
X86333333Y-56728571D01*
X86333333Y-57252380D02*
X86333333Y-56252380D01*
X86809523Y-56252380D01*
X87380952Y-56252380D02*
X87476190Y-56252380D01*
X87571428Y-56300000D01*
X87619047Y-56347619D01*
X87666666Y-56442857D01*
X87714285Y-56633333D01*
X87714285Y-56871428D01*
X87666666Y-57061904D01*
X87619047Y-57157142D01*
X87571428Y-57204761D01*
X87476190Y-57252380D01*
X87380952Y-57252380D01*
X87285714Y-57204761D01*
X87238095Y-57157142D01*
X87190476Y-57061904D01*
X87142857Y-56871428D01*
X87142857Y-56633333D01*
X87190476Y-56442857D01*
X87238095Y-56347619D01*
X87285714Y-56300000D01*
X87380952Y-56252380D01*
X83038095Y-56300000D02*
X82942857Y-56252380D01*
X82800000Y-56252380D01*
X82657142Y-56300000D01*
X82561904Y-56395238D01*
X82514285Y-56490476D01*
X82466666Y-56680952D01*
X82466666Y-56823809D01*
X82514285Y-57014285D01*
X82561904Y-57109523D01*
X82657142Y-57204761D01*
X82800000Y-57252380D01*
X82895238Y-57252380D01*
X83038095Y-57204761D01*
X83085714Y-57157142D01*
X83085714Y-56823809D01*
X82895238Y-56823809D01*
X83514285Y-57252380D02*
X83514285Y-56252380D01*
X84085714Y-57252380D01*
X84085714Y-56252380D01*
X84561904Y-57252380D02*
X84561904Y-56252380D01*
X84800000Y-56252380D01*
X84942857Y-56300000D01*
X85038095Y-56395238D01*
X85085714Y-56490476D01*
X85133333Y-56680952D01*
X85133333Y-56823809D01*
X85085714Y-57014285D01*
X85038095Y-57109523D01*
X84942857Y-57204761D01*
X84800000Y-57252380D01*
X84561904Y-57252380D01*
X77785714Y-154004761D02*
X77928571Y-154052380D01*
X78166666Y-154052380D01*
X78261904Y-154004761D01*
X78309523Y-153957142D01*
X78357142Y-153861904D01*
X78357142Y-153766666D01*
X78309523Y-153671428D01*
X78261904Y-153623809D01*
X78166666Y-153576190D01*
X77976190Y-153528571D01*
X77880952Y-153480952D01*
X77833333Y-153433333D01*
X77785714Y-153338095D01*
X77785714Y-153242857D01*
X77833333Y-153147619D01*
X77880952Y-153100000D01*
X77976190Y-153052380D01*
X78214285Y-153052380D01*
X78357142Y-153100000D01*
X78785714Y-154052380D02*
X78785714Y-153052380D01*
X79023809Y-153052380D01*
X79166666Y-153100000D01*
X79261904Y-153195238D01*
X79309523Y-153290476D01*
X79357142Y-153480952D01*
X79357142Y-153623809D01*
X79309523Y-153814285D01*
X79261904Y-153909523D01*
X79166666Y-154004761D01*
X79023809Y-154052380D01*
X78785714Y-154052380D01*
X79738095Y-153766666D02*
X80214285Y-153766666D01*
X79642857Y-154052380D02*
X79976190Y-153052380D01*
X80309523Y-154052380D01*
X74009523Y-154004761D02*
X74152380Y-154052380D01*
X74390476Y-154052380D01*
X74485714Y-154004761D01*
X74533333Y-153957142D01*
X74580952Y-153861904D01*
X74580952Y-153766666D01*
X74533333Y-153671428D01*
X74485714Y-153623809D01*
X74390476Y-153576190D01*
X74200000Y-153528571D01*
X74104761Y-153480952D01*
X74057142Y-153433333D01*
X74009523Y-153338095D01*
X74009523Y-153242857D01*
X74057142Y-153147619D01*
X74104761Y-153100000D01*
X74200000Y-153052380D01*
X74438095Y-153052380D01*
X74580952Y-153100000D01*
X75580952Y-153957142D02*
X75533333Y-154004761D01*
X75390476Y-154052380D01*
X75295238Y-154052380D01*
X75152380Y-154004761D01*
X75057142Y-153909523D01*
X75009523Y-153814285D01*
X74961904Y-153623809D01*
X74961904Y-153480952D01*
X75009523Y-153290476D01*
X75057142Y-153195238D01*
X75152380Y-153100000D01*
X75295238Y-153052380D01*
X75390476Y-153052380D01*
X75533333Y-153100000D01*
X75580952Y-153147619D01*
X76485714Y-154052380D02*
X76009523Y-154052380D01*
X76009523Y-153052380D01*
X127309523Y-61452380D02*
X126833333Y-61452380D01*
X126833333Y-60452380D01*
X128023809Y-61404761D02*
X127928571Y-61452380D01*
X127738095Y-61452380D01*
X127642857Y-61404761D01*
X127595238Y-61309523D01*
X127595238Y-60928571D01*
X127642857Y-60833333D01*
X127738095Y-60785714D01*
X127928571Y-60785714D01*
X128023809Y-60833333D01*
X128071428Y-60928571D01*
X128071428Y-61023809D01*
X127595238Y-61119047D01*
X128357142Y-60785714D02*
X128738095Y-60785714D01*
X128500000Y-61452380D02*
X128500000Y-60595238D01*
X128547619Y-60500000D01*
X128642857Y-60452380D01*
X128738095Y-60452380D01*
X128928571Y-60785714D02*
X129309523Y-60785714D01*
X129071428Y-60452380D02*
X129071428Y-61309523D01*
X129119047Y-61404761D01*
X129214285Y-61452380D01*
X129309523Y-61452380D01*
X113380952Y-61452380D02*
X113047619Y-60976190D01*
X112809523Y-61452380D02*
X112809523Y-60452380D01*
X113190476Y-60452380D01*
X113285714Y-60500000D01*
X113333333Y-60547619D01*
X113380952Y-60642857D01*
X113380952Y-60785714D01*
X113333333Y-60880952D01*
X113285714Y-60928571D01*
X113190476Y-60976190D01*
X112809523Y-60976190D01*
X113809523Y-61452380D02*
X113809523Y-60785714D01*
X113809523Y-60452380D02*
X113761904Y-60500000D01*
X113809523Y-60547619D01*
X113857142Y-60500000D01*
X113809523Y-60452380D01*
X113809523Y-60547619D01*
X114714285Y-60785714D02*
X114714285Y-61595238D01*
X114666666Y-61690476D01*
X114619047Y-61738095D01*
X114523809Y-61785714D01*
X114380952Y-61785714D01*
X114285714Y-61738095D01*
X114714285Y-61404761D02*
X114619047Y-61452380D01*
X114428571Y-61452380D01*
X114333333Y-61404761D01*
X114285714Y-61357142D01*
X114238095Y-61261904D01*
X114238095Y-60976190D01*
X114285714Y-60880952D01*
X114333333Y-60833333D01*
X114428571Y-60785714D01*
X114619047Y-60785714D01*
X114714285Y-60833333D01*
X115190476Y-61452380D02*
X115190476Y-60452380D01*
X115619047Y-61452380D02*
X115619047Y-60928571D01*
X115571428Y-60833333D01*
X115476190Y-60785714D01*
X115333333Y-60785714D01*
X115238095Y-60833333D01*
X115190476Y-60880952D01*
X115952380Y-60785714D02*
X116333333Y-60785714D01*
X116095238Y-60452380D02*
X116095238Y-61309523D01*
X116142857Y-61404761D01*
X116238095Y-61452380D01*
X116333333Y-61452380D01*
D12*
X122000000Y-57000000D02*
X122000000Y-153000000D01*
X83270000Y-63270000D02*
X83270000Y-60670000D01*
X83270000Y-63270000D02*
X103710000Y-63270000D01*
X103710000Y-63270000D02*
X103710000Y-58070000D01*
X85870000Y-58070000D02*
X103710000Y-58070000D01*
X85870000Y-60670000D02*
X85870000Y-58070000D01*
X83270000Y-60670000D02*
X85870000Y-60670000D01*
X83270000Y-58070000D02*
X84600000Y-58070000D01*
X83270000Y-59400000D02*
X83270000Y-58070000D01*
X89630000Y-147170000D02*
X92230000Y-147170000D01*
X89630000Y-147170000D02*
X89630000Y-152370000D01*
X89630000Y-152370000D02*
X94830000Y-152370000D01*
X94830000Y-149770000D02*
X94830000Y-152370000D01*
X92230000Y-149770000D02*
X94830000Y-149770000D01*
X92230000Y-147170000D02*
X92230000Y-149770000D01*
X94830000Y-147170000D02*
X94830000Y-148500000D01*
X93500000Y-147170000D02*
X94830000Y-147170000D01*
X85200000Y-123950000D02*
X82800000Y-123950000D01*
X82800000Y-127050000D02*
X85750000Y-127050000D01*
X109000000Y-112250000D02*
X107500000Y-112250000D01*
X105000000Y-113500000D02*
X105000000Y-118000000D01*
X107500000Y-119250000D02*
X109000000Y-119250000D01*
X111500000Y-118000000D02*
X111500000Y-113500000D01*
X74356252Y-70310000D02*
X73833748Y-70310000D01*
X74356252Y-68890000D02*
X73833748Y-68890000D01*
X96223752Y-99665000D02*
X95701248Y-99665000D01*
X96223752Y-101135000D02*
X95701248Y-101135000D01*
X162227064Y-90735000D02*
X161772936Y-90735000D01*
X162227064Y-89265000D02*
X161772936Y-89265000D01*
X138475000Y-150065000D02*
X138475000Y-136095000D01*
X152445000Y-150065000D02*
X138475000Y-150065000D01*
X152445000Y-136095000D02*
X152445000Y-150065000D01*
X138475000Y-136095000D02*
X152445000Y-136095000D01*
X130890000Y-99830000D02*
X130890000Y-98500000D01*
X132220000Y-99830000D02*
X130890000Y-99830000D01*
X130890000Y-97230000D02*
X130890000Y-94630000D01*
X133490000Y-97230000D02*
X130890000Y-97230000D01*
X133490000Y-99830000D02*
X133490000Y-97230000D01*
X130890000Y-94630000D02*
X151330000Y-94630000D01*
X133490000Y-99830000D02*
X151330000Y-99830000D01*
X151330000Y-99830000D02*
X151330000Y-94630000D01*
X166330000Y-94670000D02*
X166330000Y-96000000D01*
X165000000Y-94670000D02*
X166330000Y-94670000D01*
X163730000Y-94670000D02*
X163730000Y-97330000D01*
X163730000Y-97330000D02*
X161130000Y-97330000D01*
X163730000Y-94670000D02*
X161130000Y-94670000D01*
X161130000Y-94670000D02*
X161130000Y-97330000D01*
X166830000Y-68960000D02*
X154850000Y-68960000D01*
X154850000Y-68960000D02*
X154850000Y-64260000D01*
X154850000Y-55960000D02*
X166830000Y-55960000D01*
X166830000Y-64260000D02*
X166830000Y-68960000D01*
X167300000Y-66030000D02*
X167300000Y-67560000D01*
X147265000Y-59772936D02*
X147265000Y-60227064D01*
X148735000Y-59772936D02*
X148735000Y-60227064D01*
X156400000Y-72250000D02*
X153450000Y-72250000D01*
X154000000Y-75350000D02*
X156400000Y-75350000D01*
X76772936Y-110235000D02*
X77227064Y-110235000D01*
X76772936Y-108765000D02*
X77227064Y-108765000D01*
X91323752Y-81365000D02*
X90801248Y-81365000D01*
X91323752Y-82835000D02*
X90801248Y-82835000D01*
X76772936Y-104765000D02*
X77227064Y-104765000D01*
X76772936Y-106235000D02*
X77227064Y-106235000D01*
X73000000Y-74535000D02*
X77085000Y-74535000D01*
X77085000Y-74535000D02*
X77085000Y-72665000D01*
X77085000Y-72665000D02*
X73000000Y-72665000D01*
X83261252Y-91065000D02*
X82738748Y-91065000D01*
X83261252Y-92535000D02*
X82738748Y-92535000D01*
X83261252Y-87735000D02*
X82738748Y-87735000D01*
X83261252Y-86265000D02*
X82738748Y-86265000D01*
X100138748Y-74665000D02*
X100661252Y-74665000D01*
X100138748Y-76135000D02*
X100661252Y-76135000D01*
X111735000Y-94708752D02*
X111735000Y-94186248D01*
X110265000Y-94708752D02*
X110265000Y-94186248D01*
X100138748Y-78665000D02*
X100661252Y-78665000D01*
X100138748Y-80135000D02*
X100661252Y-80135000D01*
X111735000Y-85138748D02*
X111735000Y-85661252D01*
X110265000Y-85138748D02*
X110265000Y-85661252D01*
X83950000Y-72000000D02*
X83950000Y-69600000D01*
X80850000Y-69600000D02*
X80850000Y-72550000D01*
X72750000Y-94000000D02*
X72750000Y-96000000D01*
X72750000Y-96000000D02*
X76650000Y-96000000D01*
X72750000Y-94000000D02*
X76650000Y-94000000D01*
X72340000Y-78360000D02*
X75200000Y-78360000D01*
X72340000Y-76440000D02*
X72340000Y-78360000D01*
X75200000Y-76440000D02*
X72340000Y-76440000D01*
X130975000Y-86960000D02*
X133835000Y-86960000D01*
X133835000Y-86960000D02*
X133835000Y-85040000D01*
X133835000Y-85040000D02*
X130975000Y-85040000D01*
X79050000Y-65100000D02*
X79050000Y-60800000D01*
X77900000Y-65100000D02*
X79050000Y-65100000D01*
X71950000Y-65100000D02*
X73100000Y-65100000D01*
X71950000Y-60800000D02*
X71950000Y-65100000D01*
X73770000Y-145500000D02*
X72240000Y-145500000D01*
X75540000Y-145030000D02*
X70840000Y-145030000D01*
X83840000Y-133050000D02*
X83840000Y-145030000D01*
X70840000Y-133050000D02*
X75540000Y-133050000D01*
X70840000Y-145030000D02*
X70840000Y-133050000D01*
X77330000Y-82590000D02*
X72130000Y-82590000D01*
X77330000Y-87730000D02*
X77330000Y-82590000D01*
X72130000Y-90330000D02*
X72130000Y-82590000D01*
X77330000Y-87730000D02*
X74730000Y-87730000D01*
X74730000Y-87730000D02*
X74730000Y-90330000D01*
X74730000Y-90330000D02*
X72130000Y-90330000D01*
X77330000Y-89000000D02*
X77330000Y-90330000D01*
X77330000Y-90330000D02*
X76000000Y-90330000D01*
X107735000Y-76627064D02*
X107735000Y-76172936D01*
X106265000Y-76627064D02*
X106265000Y-76172936D01*
X111735000Y-76172936D02*
X111735000Y-76627064D01*
X110265000Y-76172936D02*
X110265000Y-76627064D01*
X75272936Y-99265000D02*
X75727064Y-99265000D01*
X75272936Y-100735000D02*
X75727064Y-100735000D01*
X105927064Y-99665000D02*
X105472936Y-99665000D01*
X105927064Y-101135000D02*
X105472936Y-101135000D01*
X82627064Y-78135000D02*
X82172936Y-78135000D01*
X82627064Y-76665000D02*
X82172936Y-76665000D01*
X89265000Y-141227064D02*
X89265000Y-140772936D01*
X90735000Y-141227064D02*
X90735000Y-140772936D01*
X95735000Y-141227064D02*
X95735000Y-140772936D01*
X94265000Y-141227064D02*
X94265000Y-140772936D01*
X140835000Y-59772936D02*
X140835000Y-60227064D01*
X139365000Y-59772936D02*
X139365000Y-60227064D01*
X143265000Y-60227064D02*
X143265000Y-59772936D01*
X144735000Y-60227064D02*
X144735000Y-59772936D01*
X132227064Y-81265000D02*
X131772936Y-81265000D01*
X132227064Y-82735000D02*
X131772936Y-82735000D01*
X162227064Y-85265000D02*
X161772936Y-85265000D01*
X162227064Y-86735000D02*
X161772936Y-86735000D01*
X75500000Y-120850000D02*
X74000000Y-120850000D01*
X71500000Y-122100000D02*
X71500000Y-126600000D01*
X74000000Y-127850000D02*
X75500000Y-127850000D01*
X78000000Y-126600000D02*
X78000000Y-122100000D01*
X94500000Y-119250000D02*
X96000000Y-119250000D01*
X98500000Y-118000000D02*
X98500000Y-113500000D01*
X96000000Y-112250000D02*
X94500000Y-112250000D01*
X92000000Y-113500000D02*
X92000000Y-118000000D01*
X92000000Y-126500000D02*
X92000000Y-131000000D01*
X96000000Y-125250000D02*
X94500000Y-125250000D01*
X98500000Y-131000000D02*
X98500000Y-126500000D01*
X94500000Y-132250000D02*
X96000000Y-132250000D01*
X109000000Y-125250000D02*
X107500000Y-125250000D01*
X105000000Y-126500000D02*
X105000000Y-131000000D01*
X107500000Y-132250000D02*
X109000000Y-132250000D01*
X111500000Y-131000000D02*
X111500000Y-126500000D01*
X136000000Y-112500000D02*
X136000000Y-117000000D01*
X140000000Y-111250000D02*
X138500000Y-111250000D01*
X142500000Y-117000000D02*
X142500000Y-112500000D01*
X138500000Y-118250000D02*
X140000000Y-118250000D01*
X136000000Y-125500000D02*
X136000000Y-130000000D01*
X140000000Y-124250000D02*
X138500000Y-124250000D01*
X142500000Y-130000000D02*
X142500000Y-125500000D01*
X138500000Y-131250000D02*
X140000000Y-131250000D01*
X155500000Y-117000000D02*
X155500000Y-112500000D01*
X151500000Y-118250000D02*
X153000000Y-118250000D01*
X149000000Y-112500000D02*
X149000000Y-117000000D01*
X153000000Y-111250000D02*
X151500000Y-111250000D01*
X155500000Y-130000000D02*
X155500000Y-125500000D01*
X151500000Y-131250000D02*
X153000000Y-131250000D01*
X149000000Y-125500000D02*
X149000000Y-130000000D01*
X153000000Y-124250000D02*
X151500000Y-124250000D01*
X103015000Y-137515000D02*
X116985000Y-137515000D01*
X116985000Y-137515000D02*
X116985000Y-151485000D01*
X116985000Y-151485000D02*
X103015000Y-151485000D01*
X103015000Y-151485000D02*
X103015000Y-137515000D01*
D10*
X105625000Y-84735000D02*
X105050000Y-84735000D01*
X105625000Y-95085000D02*
X104950000Y-95085000D01*
X95275000Y-95085000D02*
X95950000Y-95085000D01*
X95275000Y-84735000D02*
X95950000Y-84735000D01*
X105625000Y-84735000D02*
X105625000Y-85410000D01*
X95275000Y-84735000D02*
X95275000Y-85410000D01*
X95275000Y-95085000D02*
X95275000Y-94410000D01*
X105625000Y-95085000D02*
X105625000Y-94410000D01*
X105050000Y-84735000D02*
X105050000Y-83460000D01*
D12*
X148160000Y-72200000D02*
X148160000Y-68340000D01*
X148160000Y-68340000D02*
X147915000Y-68340000D01*
X148160000Y-72200000D02*
X148160000Y-76060000D01*
X148160000Y-76060000D02*
X147915000Y-76060000D01*
X130040000Y-72200000D02*
X130040000Y-68340000D01*
X130040000Y-68340000D02*
X130285000Y-68340000D01*
X130040000Y-72200000D02*
X130040000Y-76060000D01*
X130040000Y-76060000D02*
X130285000Y-76060000D01*
X130285000Y-76060000D02*
X130285000Y-77875000D01*
X85665000Y-92525000D02*
X85665000Y-86275000D01*
X90715000Y-92525000D02*
X90715000Y-86275000D01*
X90715000Y-92525000D02*
G75*
G02*
X85665000Y-92525000I-2525000J0D01*
G01*
X90715000Y-86275000D02*
G75*
G03*
X85665000Y-86275000I-2525000J0D01*
G01*
X79470000Y-151730000D02*
X79470000Y-149070000D01*
X76870000Y-151730000D02*
X79470000Y-151730000D01*
X76870000Y-149070000D02*
X79470000Y-149070000D01*
X76870000Y-151730000D02*
X76870000Y-149070000D01*
X75600000Y-151730000D02*
X74270000Y-151730000D01*
X74270000Y-151730000D02*
X74270000Y-150400000D01*
X144738748Y-81265000D02*
X145261252Y-81265000D01*
X144738748Y-82735000D02*
X145261252Y-82735000D01*
D10*
X81282380Y-61003333D02*
X81996666Y-61003333D01*
X82139523Y-61050952D01*
X82234761Y-61146190D01*
X82282380Y-61289047D01*
X82282380Y-61384285D01*
X81282380Y-60050952D02*
X81282380Y-60527142D01*
X81758571Y-60574761D01*
X81710952Y-60527142D01*
X81663333Y-60431904D01*
X81663333Y-60193809D01*
X81710952Y-60098571D01*
X81758571Y-60050952D01*
X81853809Y-60003333D01*
X82091904Y-60003333D01*
X82187142Y-60050952D01*
X82234761Y-60098571D01*
X82282380Y-60193809D01*
X82282380Y-60431904D01*
X82234761Y-60527142D01*
X82187142Y-60574761D01*
X91896666Y-145182380D02*
X91896666Y-145896666D01*
X91849047Y-146039523D01*
X91753809Y-146134761D01*
X91610952Y-146182380D01*
X91515714Y-146182380D01*
X92420476Y-146182380D02*
X92610952Y-146182380D01*
X92706190Y-146134761D01*
X92753809Y-146087142D01*
X92849047Y-145944285D01*
X92896666Y-145753809D01*
X92896666Y-145372857D01*
X92849047Y-145277619D01*
X92801428Y-145230000D01*
X92706190Y-145182380D01*
X92515714Y-145182380D01*
X92420476Y-145230000D01*
X92372857Y-145277619D01*
X92325238Y-145372857D01*
X92325238Y-145610952D01*
X92372857Y-145706190D01*
X92420476Y-145753809D01*
X92515714Y-145801428D01*
X92706190Y-145801428D01*
X92801428Y-145753809D01*
X92849047Y-145706190D01*
X92896666Y-145610952D01*
X86511904Y-125902380D02*
X86511904Y-124902380D01*
X86750000Y-124902380D01*
X86892857Y-124950000D01*
X86988095Y-125045238D01*
X87035714Y-125140476D01*
X87083333Y-125330952D01*
X87083333Y-125473809D01*
X87035714Y-125664285D01*
X86988095Y-125759523D01*
X86892857Y-125854761D01*
X86750000Y-125902380D01*
X86511904Y-125902380D01*
X87416666Y-124902380D02*
X88035714Y-124902380D01*
X87702380Y-125283333D01*
X87845238Y-125283333D01*
X87940476Y-125330952D01*
X87988095Y-125378571D01*
X88035714Y-125473809D01*
X88035714Y-125711904D01*
X87988095Y-125807142D01*
X87940476Y-125854761D01*
X87845238Y-125902380D01*
X87559523Y-125902380D01*
X87464285Y-125854761D01*
X87416666Y-125807142D01*
X104404761Y-117083333D02*
X104452380Y-116940476D01*
X104452380Y-116702380D01*
X104404761Y-116607142D01*
X104357142Y-116559523D01*
X104261904Y-116511904D01*
X104166666Y-116511904D01*
X104071428Y-116559523D01*
X104023809Y-116607142D01*
X103976190Y-116702380D01*
X103928571Y-116892857D01*
X103880952Y-116988095D01*
X103833333Y-117035714D01*
X103738095Y-117083333D01*
X103642857Y-117083333D01*
X103547619Y-117035714D01*
X103500000Y-116988095D01*
X103452380Y-116892857D01*
X103452380Y-116654761D01*
X103500000Y-116511904D01*
X103452380Y-116178571D02*
X104452380Y-115940476D01*
X103738095Y-115750000D01*
X104452380Y-115559523D01*
X103452380Y-115321428D01*
X103785714Y-114511904D02*
X104452380Y-114511904D01*
X103404761Y-114750000D02*
X104119047Y-114988095D01*
X104119047Y-114369047D01*
X76666666Y-68428571D02*
X76333333Y-68428571D01*
X76333333Y-68952380D02*
X76333333Y-67952380D01*
X76809523Y-67952380D01*
X77714285Y-68952380D02*
X77142857Y-68952380D01*
X77428571Y-68952380D02*
X77428571Y-67952380D01*
X77333333Y-68095238D01*
X77238095Y-68190476D01*
X77142857Y-68238095D01*
X98745833Y-100857142D02*
X98698214Y-100904761D01*
X98555357Y-100952380D01*
X98460119Y-100952380D01*
X98317261Y-100904761D01*
X98222023Y-100809523D01*
X98174404Y-100714285D01*
X98126785Y-100523809D01*
X98126785Y-100380952D01*
X98174404Y-100190476D01*
X98222023Y-100095238D01*
X98317261Y-100000000D01*
X98460119Y-99952380D01*
X98555357Y-99952380D01*
X98698214Y-100000000D01*
X98745833Y-100047619D01*
X99650595Y-99952380D02*
X99174404Y-99952380D01*
X99126785Y-100428571D01*
X99174404Y-100380952D01*
X99269642Y-100333333D01*
X99507738Y-100333333D01*
X99602976Y-100380952D01*
X99650595Y-100428571D01*
X99698214Y-100523809D01*
X99698214Y-100761904D01*
X99650595Y-100857142D01*
X99602976Y-100904761D01*
X99507738Y-100952380D01*
X99269642Y-100952380D01*
X99174404Y-100904761D01*
X99126785Y-100857142D01*
X157557142Y-90452380D02*
X157223809Y-89976190D01*
X156985714Y-90452380D02*
X156985714Y-89452380D01*
X157366666Y-89452380D01*
X157461904Y-89500000D01*
X157509523Y-89547619D01*
X157557142Y-89642857D01*
X157557142Y-89785714D01*
X157509523Y-89880952D01*
X157461904Y-89928571D01*
X157366666Y-89976190D01*
X156985714Y-89976190D01*
X158509523Y-90452380D02*
X157938095Y-90452380D01*
X158223809Y-90452380D02*
X158223809Y-89452380D01*
X158128571Y-89595238D01*
X158033333Y-89690476D01*
X157938095Y-89738095D01*
X159414285Y-89452380D02*
X158938095Y-89452380D01*
X158890476Y-89928571D01*
X158938095Y-89880952D01*
X159033333Y-89833333D01*
X159271428Y-89833333D01*
X159366666Y-89880952D01*
X159414285Y-89928571D01*
X159461904Y-90023809D01*
X159461904Y-90261904D01*
X159414285Y-90357142D01*
X159366666Y-90404761D01*
X159271428Y-90452380D01*
X159033333Y-90452380D01*
X158938095Y-90404761D01*
X158890476Y-90357142D01*
X143650476Y-135610761D02*
X143793333Y-135658380D01*
X144031428Y-135658380D01*
X144126666Y-135610761D01*
X144174285Y-135563142D01*
X144221904Y-135467904D01*
X144221904Y-135372666D01*
X144174285Y-135277428D01*
X144126666Y-135229809D01*
X144031428Y-135182190D01*
X143840952Y-135134571D01*
X143745714Y-135086952D01*
X143698095Y-135039333D01*
X143650476Y-134944095D01*
X143650476Y-134848857D01*
X143698095Y-134753619D01*
X143745714Y-134706000D01*
X143840952Y-134658380D01*
X144079047Y-134658380D01*
X144221904Y-134706000D01*
X144555238Y-134658380D02*
X144793333Y-135658380D01*
X144983809Y-134944095D01*
X145174285Y-135658380D01*
X145412380Y-134658380D01*
X146317142Y-135658380D02*
X145745714Y-135658380D01*
X146031428Y-135658380D02*
X146031428Y-134658380D01*
X145936190Y-134801238D01*
X145840952Y-134896476D01*
X145745714Y-134944095D01*
X147269523Y-135658380D02*
X146698095Y-135658380D01*
X146983809Y-135658380D02*
X146983809Y-134658380D01*
X146888571Y-134801238D01*
X146793333Y-134896476D01*
X146698095Y-134944095D01*
X129342380Y-97563333D02*
X130056666Y-97563333D01*
X130199523Y-97610952D01*
X130294761Y-97706190D01*
X130342380Y-97849047D01*
X130342380Y-97944285D01*
X129342380Y-96658571D02*
X129342380Y-96849047D01*
X129390000Y-96944285D01*
X129437619Y-96991904D01*
X129580476Y-97087142D01*
X129770952Y-97134761D01*
X130151904Y-97134761D01*
X130247142Y-97087142D01*
X130294761Y-97039523D01*
X130342380Y-96944285D01*
X130342380Y-96753809D01*
X130294761Y-96658571D01*
X130247142Y-96610952D01*
X130151904Y-96563333D01*
X129913809Y-96563333D01*
X129818571Y-96610952D01*
X129770952Y-96658571D01*
X129723333Y-96753809D01*
X129723333Y-96944285D01*
X129770952Y-97039523D01*
X129818571Y-97087142D01*
X129913809Y-97134761D01*
X163166666Y-92452380D02*
X163166666Y-93166666D01*
X163119047Y-93309523D01*
X163023809Y-93404761D01*
X162880952Y-93452380D01*
X162785714Y-93452380D01*
X163785714Y-92880952D02*
X163690476Y-92833333D01*
X163642857Y-92785714D01*
X163595238Y-92690476D01*
X163595238Y-92642857D01*
X163642857Y-92547619D01*
X163690476Y-92500000D01*
X163785714Y-92452380D01*
X163976190Y-92452380D01*
X164071428Y-92500000D01*
X164119047Y-92547619D01*
X164166666Y-92642857D01*
X164166666Y-92690476D01*
X164119047Y-92785714D01*
X164071428Y-92833333D01*
X163976190Y-92880952D01*
X163785714Y-92880952D01*
X163690476Y-92928571D01*
X163642857Y-92976190D01*
X163595238Y-93071428D01*
X163595238Y-93261904D01*
X163642857Y-93357142D01*
X163690476Y-93404761D01*
X163785714Y-93452380D01*
X163976190Y-93452380D01*
X164071428Y-93404761D01*
X164119047Y-93357142D01*
X164166666Y-93261904D01*
X164166666Y-93071428D01*
X164119047Y-92976190D01*
X164071428Y-92928571D01*
X163976190Y-92880952D01*
X151166666Y-65952380D02*
X151166666Y-66666666D01*
X151119047Y-66809523D01*
X151023809Y-66904761D01*
X150880952Y-66952380D01*
X150785714Y-66952380D01*
X151547619Y-65952380D02*
X152166666Y-65952380D01*
X151833333Y-66333333D01*
X151976190Y-66333333D01*
X152071428Y-66380952D01*
X152119047Y-66428571D01*
X152166666Y-66523809D01*
X152166666Y-66761904D01*
X152119047Y-66857142D01*
X152071428Y-66904761D01*
X151976190Y-66952380D01*
X151690476Y-66952380D01*
X151595238Y-66904761D01*
X151547619Y-66857142D01*
X146452380Y-60642857D02*
X145976190Y-60976190D01*
X146452380Y-61214285D02*
X145452380Y-61214285D01*
X145452380Y-60833333D01*
X145500000Y-60738095D01*
X145547619Y-60690476D01*
X145642857Y-60642857D01*
X145785714Y-60642857D01*
X145880952Y-60690476D01*
X145928571Y-60738095D01*
X145976190Y-60833333D01*
X145976190Y-61214285D01*
X146452380Y-59690476D02*
X146452380Y-60261904D01*
X146452380Y-59976190D02*
X145452380Y-59976190D01*
X145595238Y-60071428D01*
X145690476Y-60166666D01*
X145738095Y-60261904D01*
X145547619Y-59309523D02*
X145500000Y-59261904D01*
X145452380Y-59166666D01*
X145452380Y-58928571D01*
X145500000Y-58833333D01*
X145547619Y-58785714D01*
X145642857Y-58738095D01*
X145738095Y-58738095D01*
X145880952Y-58785714D01*
X146452380Y-59357142D01*
X146452380Y-58738095D01*
X157761904Y-74452380D02*
X157761904Y-73452380D01*
X158000000Y-73452380D01*
X158142857Y-73500000D01*
X158238095Y-73595238D01*
X158285714Y-73690476D01*
X158333333Y-73880952D01*
X158333333Y-74023809D01*
X158285714Y-74214285D01*
X158238095Y-74309523D01*
X158142857Y-74404761D01*
X158000000Y-74452380D01*
X157761904Y-74452380D01*
X159238095Y-73452380D02*
X158761904Y-73452380D01*
X158714285Y-73928571D01*
X158761904Y-73880952D01*
X158857142Y-73833333D01*
X159095238Y-73833333D01*
X159190476Y-73880952D01*
X159238095Y-73928571D01*
X159285714Y-74023809D01*
X159285714Y-74261904D01*
X159238095Y-74357142D01*
X159190476Y-74404761D01*
X159095238Y-74452380D01*
X158857142Y-74452380D01*
X158761904Y-74404761D01*
X158714285Y-74357142D01*
X80333333Y-109952380D02*
X80000000Y-109476190D01*
X79761904Y-109952380D02*
X79761904Y-108952380D01*
X80142857Y-108952380D01*
X80238095Y-109000000D01*
X80285714Y-109047619D01*
X80333333Y-109142857D01*
X80333333Y-109285714D01*
X80285714Y-109380952D01*
X80238095Y-109428571D01*
X80142857Y-109476190D01*
X79761904Y-109476190D01*
X80666666Y-108952380D02*
X81333333Y-108952380D01*
X80904761Y-109952380D01*
X91008333Y-80507142D02*
X90960714Y-80554761D01*
X90817857Y-80602380D01*
X90722619Y-80602380D01*
X90579761Y-80554761D01*
X90484523Y-80459523D01*
X90436904Y-80364285D01*
X90389285Y-80173809D01*
X90389285Y-80030952D01*
X90436904Y-79840476D01*
X90484523Y-79745238D01*
X90579761Y-79650000D01*
X90722619Y-79602380D01*
X90817857Y-79602380D01*
X90960714Y-79650000D01*
X91008333Y-79697619D01*
X91865476Y-79602380D02*
X91675000Y-79602380D01*
X91579761Y-79650000D01*
X91532142Y-79697619D01*
X91436904Y-79840476D01*
X91389285Y-80030952D01*
X91389285Y-80411904D01*
X91436904Y-80507142D01*
X91484523Y-80554761D01*
X91579761Y-80602380D01*
X91770238Y-80602380D01*
X91865476Y-80554761D01*
X91913095Y-80507142D01*
X91960714Y-80411904D01*
X91960714Y-80173809D01*
X91913095Y-80078571D01*
X91865476Y-80030952D01*
X91770238Y-79983333D01*
X91579761Y-79983333D01*
X91484523Y-80030952D01*
X91436904Y-80078571D01*
X91389285Y-80173809D01*
X80333333Y-105952380D02*
X80000000Y-105476190D01*
X79761904Y-105952380D02*
X79761904Y-104952380D01*
X80142857Y-104952380D01*
X80238095Y-105000000D01*
X80285714Y-105047619D01*
X80333333Y-105142857D01*
X80333333Y-105285714D01*
X80285714Y-105380952D01*
X80238095Y-105428571D01*
X80142857Y-105476190D01*
X79761904Y-105476190D01*
X81190476Y-104952380D02*
X81000000Y-104952380D01*
X80904761Y-105000000D01*
X80857142Y-105047619D01*
X80761904Y-105190476D01*
X80714285Y-105380952D01*
X80714285Y-105761904D01*
X80761904Y-105857142D01*
X80809523Y-105904761D01*
X80904761Y-105952380D01*
X81095238Y-105952380D01*
X81190476Y-105904761D01*
X81238095Y-105857142D01*
X81285714Y-105761904D01*
X81285714Y-105523809D01*
X81238095Y-105428571D01*
X81190476Y-105380952D01*
X81095238Y-105333333D01*
X80904761Y-105333333D01*
X80809523Y-105380952D01*
X80761904Y-105428571D01*
X80714285Y-105523809D01*
X78333333Y-73857142D02*
X78285714Y-73904761D01*
X78142857Y-73952380D01*
X78047619Y-73952380D01*
X77904761Y-73904761D01*
X77809523Y-73809523D01*
X77761904Y-73714285D01*
X77714285Y-73523809D01*
X77714285Y-73380952D01*
X77761904Y-73190476D01*
X77809523Y-73095238D01*
X77904761Y-73000000D01*
X78047619Y-72952380D01*
X78142857Y-72952380D01*
X78285714Y-73000000D01*
X78333333Y-73047619D01*
X79285714Y-73952380D02*
X78714285Y-73952380D01*
X79000000Y-73952380D02*
X79000000Y-72952380D01*
X78904761Y-73095238D01*
X78809523Y-73190476D01*
X78714285Y-73238095D01*
X86254642Y-91956666D02*
X86302261Y-92004285D01*
X86349880Y-92147142D01*
X86349880Y-92242380D01*
X86302261Y-92385238D01*
X86207023Y-92480476D01*
X86111785Y-92528095D01*
X85921309Y-92575714D01*
X85778452Y-92575714D01*
X85587976Y-92528095D01*
X85492738Y-92480476D01*
X85397500Y-92385238D01*
X85349880Y-92242380D01*
X85349880Y-92147142D01*
X85397500Y-92004285D01*
X85445119Y-91956666D01*
X85445119Y-91575714D02*
X85397500Y-91528095D01*
X85349880Y-91432857D01*
X85349880Y-91194761D01*
X85397500Y-91099523D01*
X85445119Y-91051904D01*
X85540357Y-91004285D01*
X85635595Y-91004285D01*
X85778452Y-91051904D01*
X86349880Y-91623333D01*
X86349880Y-91004285D01*
X86209642Y-87126666D02*
X86257261Y-87174285D01*
X86304880Y-87317142D01*
X86304880Y-87412380D01*
X86257261Y-87555238D01*
X86162023Y-87650476D01*
X86066785Y-87698095D01*
X85876309Y-87745714D01*
X85733452Y-87745714D01*
X85542976Y-87698095D01*
X85447738Y-87650476D01*
X85352500Y-87555238D01*
X85304880Y-87412380D01*
X85304880Y-87317142D01*
X85352500Y-87174285D01*
X85400119Y-87126666D01*
X85304880Y-86793333D02*
X85304880Y-86174285D01*
X85685833Y-86507619D01*
X85685833Y-86364761D01*
X85733452Y-86269523D01*
X85781071Y-86221904D01*
X85876309Y-86174285D01*
X86114404Y-86174285D01*
X86209642Y-86221904D01*
X86257261Y-86269523D01*
X86304880Y-86364761D01*
X86304880Y-86650476D01*
X86257261Y-86745714D01*
X86209642Y-86793333D01*
X97333333Y-75857142D02*
X97285714Y-75904761D01*
X97142857Y-75952380D01*
X97047619Y-75952380D01*
X96904761Y-75904761D01*
X96809523Y-75809523D01*
X96761904Y-75714285D01*
X96714285Y-75523809D01*
X96714285Y-75380952D01*
X96761904Y-75190476D01*
X96809523Y-75095238D01*
X96904761Y-75000000D01*
X97047619Y-74952380D01*
X97142857Y-74952380D01*
X97285714Y-75000000D01*
X97333333Y-75047619D01*
X98190476Y-75285714D02*
X98190476Y-75952380D01*
X97952380Y-74904761D02*
X97714285Y-75619047D01*
X98333333Y-75619047D01*
X112883333Y-95857142D02*
X112835714Y-95904761D01*
X112692857Y-95952380D01*
X112597619Y-95952380D01*
X112454761Y-95904761D01*
X112359523Y-95809523D01*
X112311904Y-95714285D01*
X112264285Y-95523809D01*
X112264285Y-95380952D01*
X112311904Y-95190476D01*
X112359523Y-95095238D01*
X112454761Y-95000000D01*
X112597619Y-94952380D01*
X112692857Y-94952380D01*
X112835714Y-95000000D01*
X112883333Y-95047619D01*
X113216666Y-94952380D02*
X113883333Y-94952380D01*
X113454761Y-95952380D01*
X97083333Y-79757142D02*
X97035714Y-79804761D01*
X96892857Y-79852380D01*
X96797619Y-79852380D01*
X96654761Y-79804761D01*
X96559523Y-79709523D01*
X96511904Y-79614285D01*
X96464285Y-79423809D01*
X96464285Y-79280952D01*
X96511904Y-79090476D01*
X96559523Y-78995238D01*
X96654761Y-78900000D01*
X96797619Y-78852380D01*
X96892857Y-78852380D01*
X97035714Y-78900000D01*
X97083333Y-78947619D01*
X97654761Y-79280952D02*
X97559523Y-79233333D01*
X97511904Y-79185714D01*
X97464285Y-79090476D01*
X97464285Y-79042857D01*
X97511904Y-78947619D01*
X97559523Y-78900000D01*
X97654761Y-78852380D01*
X97845238Y-78852380D01*
X97940476Y-78900000D01*
X97988095Y-78947619D01*
X98035714Y-79042857D01*
X98035714Y-79090476D01*
X97988095Y-79185714D01*
X97940476Y-79233333D01*
X97845238Y-79280952D01*
X97654761Y-79280952D01*
X97559523Y-79328571D01*
X97511904Y-79376190D01*
X97464285Y-79471428D01*
X97464285Y-79661904D01*
X97511904Y-79757142D01*
X97559523Y-79804761D01*
X97654761Y-79852380D01*
X97845238Y-79852380D01*
X97940476Y-79804761D01*
X97988095Y-79757142D01*
X98035714Y-79661904D01*
X98035714Y-79471428D01*
X97988095Y-79376190D01*
X97940476Y-79328571D01*
X97845238Y-79280952D01*
X112933333Y-87007142D02*
X112885714Y-87054761D01*
X112742857Y-87102380D01*
X112647619Y-87102380D01*
X112504761Y-87054761D01*
X112409523Y-86959523D01*
X112361904Y-86864285D01*
X112314285Y-86673809D01*
X112314285Y-86530952D01*
X112361904Y-86340476D01*
X112409523Y-86245238D01*
X112504761Y-86150000D01*
X112647619Y-86102380D01*
X112742857Y-86102380D01*
X112885714Y-86150000D01*
X112933333Y-86197619D01*
X113409523Y-87102380D02*
X113600000Y-87102380D01*
X113695238Y-87054761D01*
X113742857Y-87007142D01*
X113838095Y-86864285D01*
X113885714Y-86673809D01*
X113885714Y-86292857D01*
X113838095Y-86197619D01*
X113790476Y-86150000D01*
X113695238Y-86102380D01*
X113504761Y-86102380D01*
X113409523Y-86150000D01*
X113361904Y-86197619D01*
X113314285Y-86292857D01*
X113314285Y-86530952D01*
X113361904Y-86626190D01*
X113409523Y-86673809D01*
X113504761Y-86721428D01*
X113695238Y-86721428D01*
X113790476Y-86673809D01*
X113838095Y-86626190D01*
X113885714Y-86530952D01*
X85261904Y-71322380D02*
X85261904Y-70322380D01*
X85500000Y-70322380D01*
X85642857Y-70370000D01*
X85738095Y-70465238D01*
X85785714Y-70560476D01*
X85833333Y-70750952D01*
X85833333Y-70893809D01*
X85785714Y-71084285D01*
X85738095Y-71179523D01*
X85642857Y-71274761D01*
X85500000Y-71322380D01*
X85261904Y-71322380D01*
X86785714Y-71322380D02*
X86214285Y-71322380D01*
X86500000Y-71322380D02*
X86500000Y-70322380D01*
X86404761Y-70465238D01*
X86309523Y-70560476D01*
X86214285Y-70608095D01*
X78261904Y-95452380D02*
X78261904Y-94452380D01*
X78500000Y-94452380D01*
X78642857Y-94500000D01*
X78738095Y-94595238D01*
X78785714Y-94690476D01*
X78833333Y-94880952D01*
X78833333Y-95023809D01*
X78785714Y-95214285D01*
X78738095Y-95309523D01*
X78642857Y-95404761D01*
X78500000Y-95452380D01*
X78261904Y-95452380D01*
X79214285Y-94547619D02*
X79261904Y-94500000D01*
X79357142Y-94452380D01*
X79595238Y-94452380D01*
X79690476Y-94500000D01*
X79738095Y-94547619D01*
X79785714Y-94642857D01*
X79785714Y-94738095D01*
X79738095Y-94880952D01*
X79166666Y-95452380D01*
X79785714Y-95452380D01*
X77261904Y-77952380D02*
X77261904Y-76952380D01*
X77500000Y-76952380D01*
X77642857Y-77000000D01*
X77738095Y-77095238D01*
X77785714Y-77190476D01*
X77833333Y-77380952D01*
X77833333Y-77523809D01*
X77785714Y-77714285D01*
X77738095Y-77809523D01*
X77642857Y-77904761D01*
X77500000Y-77952380D01*
X77261904Y-77952380D01*
X78690476Y-77285714D02*
X78690476Y-77952380D01*
X78452380Y-76904761D02*
X78214285Y-77619047D01*
X78833333Y-77619047D01*
X126910714Y-86402380D02*
X126910714Y-85402380D01*
X127148809Y-85402380D01*
X127291666Y-85450000D01*
X127386904Y-85545238D01*
X127434523Y-85640476D01*
X127482142Y-85830952D01*
X127482142Y-85973809D01*
X127434523Y-86164285D01*
X127386904Y-86259523D01*
X127291666Y-86354761D01*
X127148809Y-86402380D01*
X126910714Y-86402380D01*
X128434523Y-86402380D02*
X127863095Y-86402380D01*
X128148809Y-86402380D02*
X128148809Y-85402380D01*
X128053571Y-85545238D01*
X127958333Y-85640476D01*
X127863095Y-85688095D01*
X129053571Y-85402380D02*
X129148809Y-85402380D01*
X129244047Y-85450000D01*
X129291666Y-85497619D01*
X129339285Y-85592857D01*
X129386904Y-85783333D01*
X129386904Y-86021428D01*
X129339285Y-86211904D01*
X129291666Y-86307142D01*
X129244047Y-86354761D01*
X129148809Y-86402380D01*
X129053571Y-86402380D01*
X128958333Y-86354761D01*
X128910714Y-86307142D01*
X128863095Y-86211904D01*
X128815476Y-86021428D01*
X128815476Y-85783333D01*
X128863095Y-85592857D01*
X128910714Y-85497619D01*
X128958333Y-85450000D01*
X129053571Y-85402380D01*
X75406666Y-61142380D02*
X75406666Y-61856666D01*
X75359047Y-61999523D01*
X75263809Y-62094761D01*
X75120952Y-62142380D01*
X75025714Y-62142380D01*
X76406666Y-62142380D02*
X75835238Y-62142380D01*
X76120952Y-62142380D02*
X76120952Y-61142380D01*
X76025714Y-61285238D01*
X75930476Y-61380476D01*
X75835238Y-61428095D01*
X78352380Y-138933333D02*
X79066666Y-138933333D01*
X79209523Y-138980952D01*
X79304761Y-139076190D01*
X79352380Y-139219047D01*
X79352380Y-139314285D01*
X78447619Y-138504761D02*
X78400000Y-138457142D01*
X78352380Y-138361904D01*
X78352380Y-138123809D01*
X78400000Y-138028571D01*
X78447619Y-137980952D01*
X78542857Y-137933333D01*
X78638095Y-137933333D01*
X78780952Y-137980952D01*
X79352380Y-138552380D01*
X79352380Y-137933333D01*
X106833333Y-73852380D02*
X106500000Y-73376190D01*
X106261904Y-73852380D02*
X106261904Y-72852380D01*
X106642857Y-72852380D01*
X106738095Y-72900000D01*
X106785714Y-72947619D01*
X106833333Y-73042857D01*
X106833333Y-73185714D01*
X106785714Y-73280952D01*
X106738095Y-73328571D01*
X106642857Y-73376190D01*
X106261904Y-73376190D01*
X107785714Y-73852380D02*
X107214285Y-73852380D01*
X107500000Y-73852380D02*
X107500000Y-72852380D01*
X107404761Y-72995238D01*
X107309523Y-73090476D01*
X107214285Y-73138095D01*
X110833333Y-73852380D02*
X110500000Y-73376190D01*
X110261904Y-73852380D02*
X110261904Y-72852380D01*
X110642857Y-72852380D01*
X110738095Y-72900000D01*
X110785714Y-72947619D01*
X110833333Y-73042857D01*
X110833333Y-73185714D01*
X110785714Y-73280952D01*
X110738095Y-73328571D01*
X110642857Y-73376190D01*
X110261904Y-73376190D01*
X111214285Y-72947619D02*
X111261904Y-72900000D01*
X111357142Y-72852380D01*
X111595238Y-72852380D01*
X111690476Y-72900000D01*
X111738095Y-72947619D01*
X111785714Y-73042857D01*
X111785714Y-73138095D01*
X111738095Y-73280952D01*
X111166666Y-73852380D01*
X111785714Y-73852380D01*
X78833333Y-100452380D02*
X78500000Y-99976190D01*
X78261904Y-100452380D02*
X78261904Y-99452380D01*
X78642857Y-99452380D01*
X78738095Y-99500000D01*
X78785714Y-99547619D01*
X78833333Y-99642857D01*
X78833333Y-99785714D01*
X78785714Y-99880952D01*
X78738095Y-99928571D01*
X78642857Y-99976190D01*
X78261904Y-99976190D01*
X79166666Y-99452380D02*
X79785714Y-99452380D01*
X79452380Y-99833333D01*
X79595238Y-99833333D01*
X79690476Y-99880952D01*
X79738095Y-99928571D01*
X79785714Y-100023809D01*
X79785714Y-100261904D01*
X79738095Y-100357142D01*
X79690476Y-100404761D01*
X79595238Y-100452380D01*
X79309523Y-100452380D01*
X79214285Y-100404761D01*
X79166666Y-100357142D01*
X108833333Y-100952380D02*
X108500000Y-100476190D01*
X108261904Y-100952380D02*
X108261904Y-99952380D01*
X108642857Y-99952380D01*
X108738095Y-100000000D01*
X108785714Y-100047619D01*
X108833333Y-100142857D01*
X108833333Y-100285714D01*
X108785714Y-100380952D01*
X108738095Y-100428571D01*
X108642857Y-100476190D01*
X108261904Y-100476190D01*
X109690476Y-100285714D02*
X109690476Y-100952380D01*
X109452380Y-99904761D02*
X109214285Y-100619047D01*
X109833333Y-100619047D01*
X85833333Y-77952380D02*
X85500000Y-77476190D01*
X85261904Y-77952380D02*
X85261904Y-76952380D01*
X85642857Y-76952380D01*
X85738095Y-77000000D01*
X85785714Y-77047619D01*
X85833333Y-77142857D01*
X85833333Y-77285714D01*
X85785714Y-77380952D01*
X85738095Y-77428571D01*
X85642857Y-77476190D01*
X85261904Y-77476190D01*
X86738095Y-76952380D02*
X86261904Y-76952380D01*
X86214285Y-77428571D01*
X86261904Y-77380952D01*
X86357142Y-77333333D01*
X86595238Y-77333333D01*
X86690476Y-77380952D01*
X86738095Y-77428571D01*
X86785714Y-77523809D01*
X86785714Y-77761904D01*
X86738095Y-77857142D01*
X86690476Y-77904761D01*
X86595238Y-77952380D01*
X86357142Y-77952380D01*
X86261904Y-77904761D01*
X86214285Y-77857142D01*
X89883333Y-138602380D02*
X89550000Y-138126190D01*
X89311904Y-138602380D02*
X89311904Y-137602380D01*
X89692857Y-137602380D01*
X89788095Y-137650000D01*
X89835714Y-137697619D01*
X89883333Y-137792857D01*
X89883333Y-137935714D01*
X89835714Y-138030952D01*
X89788095Y-138078571D01*
X89692857Y-138126190D01*
X89311904Y-138126190D01*
X90454761Y-138030952D02*
X90359523Y-137983333D01*
X90311904Y-137935714D01*
X90264285Y-137840476D01*
X90264285Y-137792857D01*
X90311904Y-137697619D01*
X90359523Y-137650000D01*
X90454761Y-137602380D01*
X90645238Y-137602380D01*
X90740476Y-137650000D01*
X90788095Y-137697619D01*
X90835714Y-137792857D01*
X90835714Y-137840476D01*
X90788095Y-137935714D01*
X90740476Y-137983333D01*
X90645238Y-138030952D01*
X90454761Y-138030952D01*
X90359523Y-138078571D01*
X90311904Y-138126190D01*
X90264285Y-138221428D01*
X90264285Y-138411904D01*
X90311904Y-138507142D01*
X90359523Y-138554761D01*
X90454761Y-138602380D01*
X90645238Y-138602380D01*
X90740476Y-138554761D01*
X90788095Y-138507142D01*
X90835714Y-138411904D01*
X90835714Y-138221428D01*
X90788095Y-138126190D01*
X90740476Y-138078571D01*
X90645238Y-138030952D01*
X94933333Y-138602380D02*
X94600000Y-138126190D01*
X94361904Y-138602380D02*
X94361904Y-137602380D01*
X94742857Y-137602380D01*
X94838095Y-137650000D01*
X94885714Y-137697619D01*
X94933333Y-137792857D01*
X94933333Y-137935714D01*
X94885714Y-138030952D01*
X94838095Y-138078571D01*
X94742857Y-138126190D01*
X94361904Y-138126190D01*
X95409523Y-138602380D02*
X95600000Y-138602380D01*
X95695238Y-138554761D01*
X95742857Y-138507142D01*
X95838095Y-138364285D01*
X95885714Y-138173809D01*
X95885714Y-137792857D01*
X95838095Y-137697619D01*
X95790476Y-137650000D01*
X95695238Y-137602380D01*
X95504761Y-137602380D01*
X95409523Y-137650000D01*
X95361904Y-137697619D01*
X95314285Y-137792857D01*
X95314285Y-138030952D01*
X95361904Y-138126190D01*
X95409523Y-138173809D01*
X95504761Y-138221428D01*
X95695238Y-138221428D01*
X95790476Y-138173809D01*
X95838095Y-138126190D01*
X95885714Y-138030952D01*
X138452380Y-60642857D02*
X137976190Y-60976190D01*
X138452380Y-61214285D02*
X137452380Y-61214285D01*
X137452380Y-60833333D01*
X137500000Y-60738095D01*
X137547619Y-60690476D01*
X137642857Y-60642857D01*
X137785714Y-60642857D01*
X137880952Y-60690476D01*
X137928571Y-60738095D01*
X137976190Y-60833333D01*
X137976190Y-61214285D01*
X138452380Y-59690476D02*
X138452380Y-60261904D01*
X138452380Y-59976190D02*
X137452380Y-59976190D01*
X137595238Y-60071428D01*
X137690476Y-60166666D01*
X137738095Y-60261904D01*
X137452380Y-59071428D02*
X137452380Y-58976190D01*
X137500000Y-58880952D01*
X137547619Y-58833333D01*
X137642857Y-58785714D01*
X137833333Y-58738095D01*
X138071428Y-58738095D01*
X138261904Y-58785714D01*
X138357142Y-58833333D01*
X138404761Y-58880952D01*
X138452380Y-58976190D01*
X138452380Y-59071428D01*
X138404761Y-59166666D01*
X138357142Y-59214285D01*
X138261904Y-59261904D01*
X138071428Y-59309523D01*
X137833333Y-59309523D01*
X137642857Y-59261904D01*
X137547619Y-59214285D01*
X137500000Y-59166666D01*
X137452380Y-59071428D01*
X142452380Y-60642857D02*
X141976190Y-60976190D01*
X142452380Y-61214285D02*
X141452380Y-61214285D01*
X141452380Y-60833333D01*
X141500000Y-60738095D01*
X141547619Y-60690476D01*
X141642857Y-60642857D01*
X141785714Y-60642857D01*
X141880952Y-60690476D01*
X141928571Y-60738095D01*
X141976190Y-60833333D01*
X141976190Y-61214285D01*
X142452380Y-59690476D02*
X142452380Y-60261904D01*
X142452380Y-59976190D02*
X141452380Y-59976190D01*
X141595238Y-60071428D01*
X141690476Y-60166666D01*
X141738095Y-60261904D01*
X142452380Y-58738095D02*
X142452380Y-59309523D01*
X142452380Y-59023809D02*
X141452380Y-59023809D01*
X141595238Y-59119047D01*
X141690476Y-59214285D01*
X141738095Y-59309523D01*
X127507142Y-82502380D02*
X127173809Y-82026190D01*
X126935714Y-82502380D02*
X126935714Y-81502380D01*
X127316666Y-81502380D01*
X127411904Y-81550000D01*
X127459523Y-81597619D01*
X127507142Y-81692857D01*
X127507142Y-81835714D01*
X127459523Y-81930952D01*
X127411904Y-81978571D01*
X127316666Y-82026190D01*
X126935714Y-82026190D01*
X128459523Y-82502380D02*
X127888095Y-82502380D01*
X128173809Y-82502380D02*
X128173809Y-81502380D01*
X128078571Y-81645238D01*
X127983333Y-81740476D01*
X127888095Y-81788095D01*
X128792857Y-81502380D02*
X129411904Y-81502380D01*
X129078571Y-81883333D01*
X129221428Y-81883333D01*
X129316666Y-81930952D01*
X129364285Y-81978571D01*
X129411904Y-82073809D01*
X129411904Y-82311904D01*
X129364285Y-82407142D01*
X129316666Y-82454761D01*
X129221428Y-82502380D01*
X128935714Y-82502380D01*
X128840476Y-82454761D01*
X128792857Y-82407142D01*
X157557142Y-86452380D02*
X157223809Y-85976190D01*
X156985714Y-86452380D02*
X156985714Y-85452380D01*
X157366666Y-85452380D01*
X157461904Y-85500000D01*
X157509523Y-85547619D01*
X157557142Y-85642857D01*
X157557142Y-85785714D01*
X157509523Y-85880952D01*
X157461904Y-85928571D01*
X157366666Y-85976190D01*
X156985714Y-85976190D01*
X158509523Y-86452380D02*
X157938095Y-86452380D01*
X158223809Y-86452380D02*
X158223809Y-85452380D01*
X158128571Y-85595238D01*
X158033333Y-85690476D01*
X157938095Y-85738095D01*
X159366666Y-85785714D02*
X159366666Y-86452380D01*
X159128571Y-85404761D02*
X158890476Y-86119047D01*
X159509523Y-86119047D01*
X79404761Y-125333333D02*
X79452380Y-125190476D01*
X79452380Y-124952380D01*
X79404761Y-124857142D01*
X79357142Y-124809523D01*
X79261904Y-124761904D01*
X79166666Y-124761904D01*
X79071428Y-124809523D01*
X79023809Y-124857142D01*
X78976190Y-124952380D01*
X78928571Y-125142857D01*
X78880952Y-125238095D01*
X78833333Y-125285714D01*
X78738095Y-125333333D01*
X78642857Y-125333333D01*
X78547619Y-125285714D01*
X78500000Y-125238095D01*
X78452380Y-125142857D01*
X78452380Y-124904761D01*
X78500000Y-124761904D01*
X78452380Y-124428571D02*
X79452380Y-124190476D01*
X78738095Y-124000000D01*
X79452380Y-123809523D01*
X78452380Y-123571428D01*
X79452380Y-122666666D02*
X79452380Y-123238095D01*
X79452380Y-122952380D02*
X78452380Y-122952380D01*
X78595238Y-123047619D01*
X78690476Y-123142857D01*
X78738095Y-123238095D01*
X91404761Y-117083333D02*
X91452380Y-116940476D01*
X91452380Y-116702380D01*
X91404761Y-116607142D01*
X91357142Y-116559523D01*
X91261904Y-116511904D01*
X91166666Y-116511904D01*
X91071428Y-116559523D01*
X91023809Y-116607142D01*
X90976190Y-116702380D01*
X90928571Y-116892857D01*
X90880952Y-116988095D01*
X90833333Y-117035714D01*
X90738095Y-117083333D01*
X90642857Y-117083333D01*
X90547619Y-117035714D01*
X90500000Y-116988095D01*
X90452380Y-116892857D01*
X90452380Y-116654761D01*
X90500000Y-116511904D01*
X90452380Y-116178571D02*
X91452380Y-115940476D01*
X90738095Y-115750000D01*
X91452380Y-115559523D01*
X90452380Y-115321428D01*
X90547619Y-114988095D02*
X90500000Y-114940476D01*
X90452380Y-114845238D01*
X90452380Y-114607142D01*
X90500000Y-114511904D01*
X90547619Y-114464285D01*
X90642857Y-114416666D01*
X90738095Y-114416666D01*
X90880952Y-114464285D01*
X91452380Y-115035714D01*
X91452380Y-114416666D01*
X91404761Y-130083333D02*
X91452380Y-129940476D01*
X91452380Y-129702380D01*
X91404761Y-129607142D01*
X91357142Y-129559523D01*
X91261904Y-129511904D01*
X91166666Y-129511904D01*
X91071428Y-129559523D01*
X91023809Y-129607142D01*
X90976190Y-129702380D01*
X90928571Y-129892857D01*
X90880952Y-129988095D01*
X90833333Y-130035714D01*
X90738095Y-130083333D01*
X90642857Y-130083333D01*
X90547619Y-130035714D01*
X90500000Y-129988095D01*
X90452380Y-129892857D01*
X90452380Y-129654761D01*
X90500000Y-129511904D01*
X90452380Y-129178571D02*
X91452380Y-128940476D01*
X90738095Y-128750000D01*
X91452380Y-128559523D01*
X90452380Y-128321428D01*
X90452380Y-128035714D02*
X90452380Y-127416666D01*
X90833333Y-127750000D01*
X90833333Y-127607142D01*
X90880952Y-127511904D01*
X90928571Y-127464285D01*
X91023809Y-127416666D01*
X91261904Y-127416666D01*
X91357142Y-127464285D01*
X91404761Y-127511904D01*
X91452380Y-127607142D01*
X91452380Y-127892857D01*
X91404761Y-127988095D01*
X91357142Y-128035714D01*
X104404761Y-130083333D02*
X104452380Y-129940476D01*
X104452380Y-129702380D01*
X104404761Y-129607142D01*
X104357142Y-129559523D01*
X104261904Y-129511904D01*
X104166666Y-129511904D01*
X104071428Y-129559523D01*
X104023809Y-129607142D01*
X103976190Y-129702380D01*
X103928571Y-129892857D01*
X103880952Y-129988095D01*
X103833333Y-130035714D01*
X103738095Y-130083333D01*
X103642857Y-130083333D01*
X103547619Y-130035714D01*
X103500000Y-129988095D01*
X103452380Y-129892857D01*
X103452380Y-129654761D01*
X103500000Y-129511904D01*
X103452380Y-129178571D02*
X104452380Y-128940476D01*
X103738095Y-128750000D01*
X104452380Y-128559523D01*
X103452380Y-128321428D01*
X103452380Y-127464285D02*
X103452380Y-127940476D01*
X103928571Y-127988095D01*
X103880952Y-127940476D01*
X103833333Y-127845238D01*
X103833333Y-127607142D01*
X103880952Y-127511904D01*
X103928571Y-127464285D01*
X104023809Y-127416666D01*
X104261904Y-127416666D01*
X104357142Y-127464285D01*
X104404761Y-127511904D01*
X104452380Y-127607142D01*
X104452380Y-127845238D01*
X104404761Y-127940476D01*
X104357142Y-127988095D01*
X135404761Y-116333333D02*
X135452380Y-116190476D01*
X135452380Y-115952380D01*
X135404761Y-115857142D01*
X135357142Y-115809523D01*
X135261904Y-115761904D01*
X135166666Y-115761904D01*
X135071428Y-115809523D01*
X135023809Y-115857142D01*
X134976190Y-115952380D01*
X134928571Y-116142857D01*
X134880952Y-116238095D01*
X134833333Y-116285714D01*
X134738095Y-116333333D01*
X134642857Y-116333333D01*
X134547619Y-116285714D01*
X134500000Y-116238095D01*
X134452380Y-116142857D01*
X134452380Y-115904761D01*
X134500000Y-115761904D01*
X134452380Y-115428571D02*
X135452380Y-115190476D01*
X134738095Y-115000000D01*
X135452380Y-114809523D01*
X134452380Y-114571428D01*
X134452380Y-113761904D02*
X134452380Y-113952380D01*
X134500000Y-114047619D01*
X134547619Y-114095238D01*
X134690476Y-114190476D01*
X134880952Y-114238095D01*
X135261904Y-114238095D01*
X135357142Y-114190476D01*
X135404761Y-114142857D01*
X135452380Y-114047619D01*
X135452380Y-113857142D01*
X135404761Y-113761904D01*
X135357142Y-113714285D01*
X135261904Y-113666666D01*
X135023809Y-113666666D01*
X134928571Y-113714285D01*
X134880952Y-113761904D01*
X134833333Y-113857142D01*
X134833333Y-114047619D01*
X134880952Y-114142857D01*
X134928571Y-114190476D01*
X135023809Y-114238095D01*
X135404761Y-129083333D02*
X135452380Y-128940476D01*
X135452380Y-128702380D01*
X135404761Y-128607142D01*
X135357142Y-128559523D01*
X135261904Y-128511904D01*
X135166666Y-128511904D01*
X135071428Y-128559523D01*
X135023809Y-128607142D01*
X134976190Y-128702380D01*
X134928571Y-128892857D01*
X134880952Y-128988095D01*
X134833333Y-129035714D01*
X134738095Y-129083333D01*
X134642857Y-129083333D01*
X134547619Y-129035714D01*
X134500000Y-128988095D01*
X134452380Y-128892857D01*
X134452380Y-128654761D01*
X134500000Y-128511904D01*
X134452380Y-128178571D02*
X135452380Y-127940476D01*
X134738095Y-127750000D01*
X135452380Y-127559523D01*
X134452380Y-127321428D01*
X134452380Y-127035714D02*
X134452380Y-126369047D01*
X135452380Y-126797619D01*
X148404761Y-116083333D02*
X148452380Y-115940476D01*
X148452380Y-115702380D01*
X148404761Y-115607142D01*
X148357142Y-115559523D01*
X148261904Y-115511904D01*
X148166666Y-115511904D01*
X148071428Y-115559523D01*
X148023809Y-115607142D01*
X147976190Y-115702380D01*
X147928571Y-115892857D01*
X147880952Y-115988095D01*
X147833333Y-116035714D01*
X147738095Y-116083333D01*
X147642857Y-116083333D01*
X147547619Y-116035714D01*
X147500000Y-115988095D01*
X147452380Y-115892857D01*
X147452380Y-115654761D01*
X147500000Y-115511904D01*
X147452380Y-115178571D02*
X148452380Y-114940476D01*
X147738095Y-114750000D01*
X148452380Y-114559523D01*
X147452380Y-114321428D01*
X147880952Y-113797619D02*
X147833333Y-113892857D01*
X147785714Y-113940476D01*
X147690476Y-113988095D01*
X147642857Y-113988095D01*
X147547619Y-113940476D01*
X147500000Y-113892857D01*
X147452380Y-113797619D01*
X147452380Y-113607142D01*
X147500000Y-113511904D01*
X147547619Y-113464285D01*
X147642857Y-113416666D01*
X147690476Y-113416666D01*
X147785714Y-113464285D01*
X147833333Y-113511904D01*
X147880952Y-113607142D01*
X147880952Y-113797619D01*
X147928571Y-113892857D01*
X147976190Y-113940476D01*
X148071428Y-113988095D01*
X148261904Y-113988095D01*
X148357142Y-113940476D01*
X148404761Y-113892857D01*
X148452380Y-113797619D01*
X148452380Y-113607142D01*
X148404761Y-113511904D01*
X148357142Y-113464285D01*
X148261904Y-113416666D01*
X148071428Y-113416666D01*
X147976190Y-113464285D01*
X147928571Y-113511904D01*
X147880952Y-113607142D01*
X148404761Y-129083333D02*
X148452380Y-128940476D01*
X148452380Y-128702380D01*
X148404761Y-128607142D01*
X148357142Y-128559523D01*
X148261904Y-128511904D01*
X148166666Y-128511904D01*
X148071428Y-128559523D01*
X148023809Y-128607142D01*
X147976190Y-128702380D01*
X147928571Y-128892857D01*
X147880952Y-128988095D01*
X147833333Y-129035714D01*
X147738095Y-129083333D01*
X147642857Y-129083333D01*
X147547619Y-129035714D01*
X147500000Y-128988095D01*
X147452380Y-128892857D01*
X147452380Y-128654761D01*
X147500000Y-128511904D01*
X147452380Y-128178571D02*
X148452380Y-127940476D01*
X147738095Y-127750000D01*
X148452380Y-127559523D01*
X147452380Y-127321428D01*
X148452380Y-126892857D02*
X148452380Y-126702380D01*
X148404761Y-126607142D01*
X148357142Y-126559523D01*
X148214285Y-126464285D01*
X148023809Y-126416666D01*
X147642857Y-126416666D01*
X147547619Y-126464285D01*
X147500000Y-126511904D01*
X147452380Y-126607142D01*
X147452380Y-126797619D01*
X147500000Y-126892857D01*
X147547619Y-126940476D01*
X147642857Y-126988095D01*
X147880952Y-126988095D01*
X147976190Y-126940476D01*
X148023809Y-126892857D01*
X148071428Y-126797619D01*
X148071428Y-126607142D01*
X148023809Y-126511904D01*
X147976190Y-126464285D01*
X147880952Y-126416666D01*
X108190476Y-137030761D02*
X108333333Y-137078380D01*
X108571428Y-137078380D01*
X108666666Y-137030761D01*
X108714285Y-136983142D01*
X108761904Y-136887904D01*
X108761904Y-136792666D01*
X108714285Y-136697428D01*
X108666666Y-136649809D01*
X108571428Y-136602190D01*
X108380952Y-136554571D01*
X108285714Y-136506952D01*
X108238095Y-136459333D01*
X108190476Y-136364095D01*
X108190476Y-136268857D01*
X108238095Y-136173619D01*
X108285714Y-136126000D01*
X108380952Y-136078380D01*
X108619047Y-136078380D01*
X108761904Y-136126000D01*
X109095238Y-136078380D02*
X109333333Y-137078380D01*
X109523809Y-136364095D01*
X109714285Y-137078380D01*
X109952380Y-136078380D01*
X110857142Y-137078380D02*
X110285714Y-137078380D01*
X110571428Y-137078380D02*
X110571428Y-136078380D01*
X110476190Y-136221238D01*
X110380952Y-136316476D01*
X110285714Y-136364095D01*
X111476190Y-136078380D02*
X111571428Y-136078380D01*
X111666666Y-136126000D01*
X111714285Y-136173619D01*
X111761904Y-136268857D01*
X111809523Y-136459333D01*
X111809523Y-136697428D01*
X111761904Y-136887904D01*
X111714285Y-136983142D01*
X111666666Y-137030761D01*
X111571428Y-137078380D01*
X111476190Y-137078380D01*
X111380952Y-137030761D01*
X111333333Y-136983142D01*
X111285714Y-136887904D01*
X111238095Y-136697428D01*
X111238095Y-136459333D01*
X111285714Y-136268857D01*
X111333333Y-136173619D01*
X111380952Y-136126000D01*
X111476190Y-136078380D01*
X99838095Y-89452380D02*
X99838095Y-90261904D01*
X99885714Y-90357142D01*
X99933333Y-90404761D01*
X100028571Y-90452380D01*
X100219047Y-90452380D01*
X100314285Y-90404761D01*
X100361904Y-90357142D01*
X100409523Y-90261904D01*
X100409523Y-89452380D01*
X101409523Y-90452380D02*
X100838095Y-90452380D01*
X101123809Y-90452380D02*
X101123809Y-89452380D01*
X101028571Y-89595238D01*
X100933333Y-89690476D01*
X100838095Y-89738095D01*
X127952380Y-72961904D02*
X128761904Y-72961904D01*
X128857142Y-72914285D01*
X128904761Y-72866666D01*
X128952380Y-72771428D01*
X128952380Y-72580952D01*
X128904761Y-72485714D01*
X128857142Y-72438095D01*
X128761904Y-72390476D01*
X127952380Y-72390476D01*
X128047619Y-71961904D02*
X128000000Y-71914285D01*
X127952380Y-71819047D01*
X127952380Y-71580952D01*
X128000000Y-71485714D01*
X128047619Y-71438095D01*
X128142857Y-71390476D01*
X128238095Y-71390476D01*
X128380952Y-71438095D01*
X128952380Y-72009523D01*
X128952380Y-71390476D01*
X87976190Y-89976190D02*
X88452380Y-89976190D01*
X87452380Y-90309523D02*
X87976190Y-89976190D01*
X87452380Y-89642857D01*
X88452380Y-88785714D02*
X88452380Y-89357142D01*
X88452380Y-89071428D02*
X87452380Y-89071428D01*
X87595238Y-89166666D01*
X87690476Y-89261904D01*
X87738095Y-89357142D01*
X72722380Y-150733333D02*
X73436666Y-150733333D01*
X73579523Y-150780952D01*
X73674761Y-150876190D01*
X73722380Y-151019047D01*
X73722380Y-151114285D01*
X72722380Y-150352380D02*
X72722380Y-149685714D01*
X73722380Y-150114285D01*
X140857142Y-82357142D02*
X140809523Y-82404761D01*
X140666666Y-82452380D01*
X140571428Y-82452380D01*
X140428571Y-82404761D01*
X140333333Y-82309523D01*
X140285714Y-82214285D01*
X140238095Y-82023809D01*
X140238095Y-81880952D01*
X140285714Y-81690476D01*
X140333333Y-81595238D01*
X140428571Y-81500000D01*
X140571428Y-81452380D01*
X140666666Y-81452380D01*
X140809523Y-81500000D01*
X140857142Y-81547619D01*
X141809523Y-82452380D02*
X141238095Y-82452380D01*
X141523809Y-82452380D02*
X141523809Y-81452380D01*
X141428571Y-81595238D01*
X141333333Y-81690476D01*
X141238095Y-81738095D01*
X142428571Y-81452380D02*
X142523809Y-81452380D01*
X142619047Y-81500000D01*
X142666666Y-81547619D01*
X142714285Y-81642857D01*
X142761904Y-81833333D01*
X142761904Y-82071428D01*
X142714285Y-82261904D01*
X142666666Y-82357142D01*
X142619047Y-82404761D01*
X142523809Y-82452380D01*
X142428571Y-82452380D01*
X142333333Y-82404761D01*
X142285714Y-82357142D01*
X142238095Y-82261904D01*
X142190476Y-82071428D01*
X142190476Y-81833333D01*
X142238095Y-81642857D01*
X142285714Y-81547619D01*
X142333333Y-81500000D01*
X142428571Y-81452380D01*
%LPC*%
D13*
X102380000Y-61940000D03*
X102380000Y-59400000D03*
X99840000Y-61940000D03*
X99840000Y-59400000D03*
X97300000Y-61940000D03*
X97300000Y-59400000D03*
X94760000Y-61940000D03*
X94760000Y-59400000D03*
X92220000Y-61940000D03*
X92220000Y-59400000D03*
X89680000Y-61940000D03*
X89680000Y-59400000D03*
X87140000Y-61940000D03*
X87140000Y-59400000D03*
X84600000Y-61940000D03*
D14*
X84600000Y-59400000D03*
D13*
X90960000Y-151040000D03*
X93500000Y-151040000D03*
X90960000Y-148500000D03*
D14*
X93500000Y-148500000D03*
D15*
X85100000Y-126270000D03*
D16*
X85100000Y-124550000D03*
X82900000Y-124550000D03*
X82900000Y-126450000D03*
D17*
X106000000Y-112500000D03*
X110500000Y-112500000D03*
X106000000Y-119000000D03*
X110500000Y-119000000D03*
G36*
G01*
X75695000Y-69149999D02*
X75695000Y-70050001D01*
G75*
G02*
X75445001Y-70300000I-249999J0D01*
G01*
X74794999Y-70300000D01*
G75*
G02*
X74545000Y-70050001I0J249999D01*
G01*
X74545000Y-69149999D01*
G75*
G02*
X74794999Y-68900000I249999J0D01*
G01*
X75445001Y-68900000D01*
G75*
G02*
X75695000Y-69149999I0J-249999D01*
G01*
G37*
G36*
G01*
X73645000Y-69149999D02*
X73645000Y-70050001D01*
G75*
G02*
X73395001Y-70300000I-249999J0D01*
G01*
X72744999Y-70300000D01*
G75*
G02*
X72495000Y-70050001I0J249999D01*
G01*
X72495000Y-69149999D01*
G75*
G02*
X72744999Y-68900000I249999J0D01*
G01*
X73395001Y-68900000D01*
G75*
G02*
X73645000Y-69149999I0J-249999D01*
G01*
G37*
G36*
G01*
X95512500Y-99925000D02*
X95512500Y-100875000D01*
G75*
G02*
X95262500Y-101125000I-250000J0D01*
G01*
X94587500Y-101125000D01*
G75*
G02*
X94337500Y-100875000I0J250000D01*
G01*
X94337500Y-99925000D01*
G75*
G02*
X94587500Y-99675000I250000J0D01*
G01*
X95262500Y-99675000D01*
G75*
G02*
X95512500Y-99925000I0J-250000D01*
G01*
G37*
G36*
G01*
X97587500Y-99925000D02*
X97587500Y-100875000D01*
G75*
G02*
X97337500Y-101125000I-250000J0D01*
G01*
X96662500Y-101125000D01*
G75*
G02*
X96412500Y-100875000I0J250000D01*
G01*
X96412500Y-99925000D01*
G75*
G02*
X96662500Y-99675000I250000J0D01*
G01*
X97337500Y-99675000D01*
G75*
G02*
X97587500Y-99925000I0J-250000D01*
G01*
G37*
G36*
G01*
X163600000Y-89549999D02*
X163600000Y-90450001D01*
G75*
G02*
X163350001Y-90700000I-249999J0D01*
G01*
X162649999Y-90700000D01*
G75*
G02*
X162400000Y-90450001I0J249999D01*
G01*
X162400000Y-89549999D01*
G75*
G02*
X162649999Y-89300000I249999J0D01*
G01*
X163350001Y-89300000D01*
G75*
G02*
X163600000Y-89549999I0J-249999D01*
G01*
G37*
G36*
G01*
X161600000Y-89549999D02*
X161600000Y-90450001D01*
G75*
G02*
X161350001Y-90700000I-249999J0D01*
G01*
X160649999Y-90700000D01*
G75*
G02*
X160400000Y-90450001I0J249999D01*
G01*
X160400000Y-89549999D01*
G75*
G02*
X160649999Y-89300000I249999J0D01*
G01*
X161350001Y-89300000D01*
G75*
G02*
X161600000Y-89549999I0J-249999D01*
G01*
G37*
D18*
X150540000Y-143080000D03*
X140380000Y-143080000D03*
D19*
X145460000Y-143080000D03*
D20*
X141650000Y-140540000D03*
X148000000Y-138000000D03*
D13*
X150000000Y-95960000D03*
X150000000Y-98500000D03*
X147460000Y-95960000D03*
X147460000Y-98500000D03*
X144920000Y-95960000D03*
X144920000Y-98500000D03*
X142380000Y-95960000D03*
X142380000Y-98500000D03*
X139840000Y-95960000D03*
X139840000Y-98500000D03*
X137300000Y-95960000D03*
X137300000Y-98500000D03*
X134760000Y-95960000D03*
X134760000Y-98500000D03*
X132220000Y-95960000D03*
D14*
X132220000Y-98500000D03*
D13*
X162460000Y-96000000D03*
D14*
X165000000Y-96000000D03*
D21*
X154850000Y-61960000D03*
D22*
X158300000Y-64260000D03*
X159320000Y-66800000D03*
X160340000Y-64260000D03*
X161360000Y-66800000D03*
X162380000Y-64260000D03*
D21*
X166850000Y-61960000D03*
D23*
X163400000Y-66800000D03*
G36*
G01*
X147549999Y-60400000D02*
X148450001Y-60400000D01*
G75*
G02*
X148700000Y-60649999I0J-249999D01*
G01*
X148700000Y-61350001D01*
G75*
G02*
X148450001Y-61600000I-249999J0D01*
G01*
X147549999Y-61600000D01*
G75*
G02*
X147300000Y-61350001I0J249999D01*
G01*
X147300000Y-60649999D01*
G75*
G02*
X147549999Y-60400000I249999J0D01*
G01*
G37*
G36*
G01*
X147549999Y-58400000D02*
X148450001Y-58400000D01*
G75*
G02*
X148700000Y-58649999I0J-249999D01*
G01*
X148700000Y-59350001D01*
G75*
G02*
X148450001Y-59600000I-249999J0D01*
G01*
X147549999Y-59600000D01*
G75*
G02*
X147300000Y-59350001I0J249999D01*
G01*
X147300000Y-58649999D01*
G75*
G02*
X147549999Y-58400000I249999J0D01*
G01*
G37*
D16*
X156300000Y-72850000D03*
X156300000Y-74750000D03*
X154100000Y-74750000D03*
D15*
X154100000Y-73030000D03*
G36*
G01*
X77400000Y-109950001D02*
X77400000Y-109049999D01*
G75*
G02*
X77649999Y-108800000I249999J0D01*
G01*
X78350001Y-108800000D01*
G75*
G02*
X78600000Y-109049999I0J-249999D01*
G01*
X78600000Y-109950001D01*
G75*
G02*
X78350001Y-110200000I-249999J0D01*
G01*
X77649999Y-110200000D01*
G75*
G02*
X77400000Y-109950001I0J249999D01*
G01*
G37*
G36*
G01*
X75400000Y-109950001D02*
X75400000Y-109049999D01*
G75*
G02*
X75649999Y-108800000I249999J0D01*
G01*
X76350001Y-108800000D01*
G75*
G02*
X76600000Y-109049999I0J-249999D01*
G01*
X76600000Y-109950001D01*
G75*
G02*
X76350001Y-110200000I-249999J0D01*
G01*
X75649999Y-110200000D01*
G75*
G02*
X75400000Y-109950001I0J249999D01*
G01*
G37*
G36*
G01*
X90612500Y-81625000D02*
X90612500Y-82575000D01*
G75*
G02*
X90362500Y-82825000I-250000J0D01*
G01*
X89687500Y-82825000D01*
G75*
G02*
X89437500Y-82575000I0J250000D01*
G01*
X89437500Y-81625000D01*
G75*
G02*
X89687500Y-81375000I250000J0D01*
G01*
X90362500Y-81375000D01*
G75*
G02*
X90612500Y-81625000I0J-250000D01*
G01*
G37*
G36*
G01*
X92687500Y-81625000D02*
X92687500Y-82575000D01*
G75*
G02*
X92437500Y-82825000I-250000J0D01*
G01*
X91762500Y-82825000D01*
G75*
G02*
X91512500Y-82575000I0J250000D01*
G01*
X91512500Y-81625000D01*
G75*
G02*
X91762500Y-81375000I250000J0D01*
G01*
X92437500Y-81375000D01*
G75*
G02*
X92687500Y-81625000I0J-250000D01*
G01*
G37*
G36*
G01*
X75400000Y-105950001D02*
X75400000Y-105049999D01*
G75*
G02*
X75649999Y-104800000I249999J0D01*
G01*
X76350001Y-104800000D01*
G75*
G02*
X76600000Y-105049999I0J-249999D01*
G01*
X76600000Y-105950001D01*
G75*
G02*
X76350001Y-106200000I-249999J0D01*
G01*
X75649999Y-106200000D01*
G75*
G02*
X75400000Y-105950001I0J249999D01*
G01*
G37*
G36*
G01*
X77400000Y-105950001D02*
X77400000Y-105049999D01*
G75*
G02*
X77649999Y-104800000I249999J0D01*
G01*
X78350001Y-104800000D01*
G75*
G02*
X78600000Y-105049999I0J-249999D01*
G01*
X78600000Y-105950001D01*
G75*
G02*
X78350001Y-106200000I-249999J0D01*
G01*
X77649999Y-106200000D01*
G75*
G02*
X77400000Y-105950001I0J249999D01*
G01*
G37*
G36*
G01*
X76825000Y-73174999D02*
X76825000Y-74025001D01*
G75*
G02*
X76575001Y-74275000I-249999J0D01*
G01*
X75499999Y-74275000D01*
G75*
G02*
X75250000Y-74025001I0J249999D01*
G01*
X75250000Y-73174999D01*
G75*
G02*
X75499999Y-72925000I249999J0D01*
G01*
X76575001Y-72925000D01*
G75*
G02*
X76825000Y-73174999I0J-249999D01*
G01*
G37*
G36*
G01*
X73950000Y-73174999D02*
X73950000Y-74025001D01*
G75*
G02*
X73700001Y-74275000I-249999J0D01*
G01*
X72624999Y-74275000D01*
G75*
G02*
X72375000Y-74025001I0J249999D01*
G01*
X72375000Y-73174999D01*
G75*
G02*
X72624999Y-72925000I249999J0D01*
G01*
X73700001Y-72925000D01*
G75*
G02*
X73950000Y-73174999I0J-249999D01*
G01*
G37*
G36*
G01*
X82550000Y-91325000D02*
X82550000Y-92275000D01*
G75*
G02*
X82300000Y-92525000I-250000J0D01*
G01*
X81625000Y-92525000D01*
G75*
G02*
X81375000Y-92275000I0J250000D01*
G01*
X81375000Y-91325000D01*
G75*
G02*
X81625000Y-91075000I250000J0D01*
G01*
X82300000Y-91075000D01*
G75*
G02*
X82550000Y-91325000I0J-250000D01*
G01*
G37*
G36*
G01*
X84625000Y-91325000D02*
X84625000Y-92275000D01*
G75*
G02*
X84375000Y-92525000I-250000J0D01*
G01*
X83700000Y-92525000D01*
G75*
G02*
X83450000Y-92275000I0J250000D01*
G01*
X83450000Y-91325000D01*
G75*
G02*
X83700000Y-91075000I250000J0D01*
G01*
X84375000Y-91075000D01*
G75*
G02*
X84625000Y-91325000I0J-250000D01*
G01*
G37*
G36*
G01*
X84625000Y-86525000D02*
X84625000Y-87475000D01*
G75*
G02*
X84375000Y-87725000I-250000J0D01*
G01*
X83700000Y-87725000D01*
G75*
G02*
X83450000Y-87475000I0J250000D01*
G01*
X83450000Y-86525000D01*
G75*
G02*
X83700000Y-86275000I250000J0D01*
G01*
X84375000Y-86275000D01*
G75*
G02*
X84625000Y-86525000I0J-250000D01*
G01*
G37*
G36*
G01*
X82550000Y-86525000D02*
X82550000Y-87475000D01*
G75*
G02*
X82300000Y-87725000I-250000J0D01*
G01*
X81625000Y-87725000D01*
G75*
G02*
X81375000Y-87475000I0J250000D01*
G01*
X81375000Y-86525000D01*
G75*
G02*
X81625000Y-86275000I250000J0D01*
G01*
X82300000Y-86275000D01*
G75*
G02*
X82550000Y-86525000I0J-250000D01*
G01*
G37*
G36*
G01*
X98775000Y-75875000D02*
X98775000Y-74925000D01*
G75*
G02*
X99025000Y-74675000I250000J0D01*
G01*
X99700000Y-74675000D01*
G75*
G02*
X99950000Y-74925000I0J-250000D01*
G01*
X99950000Y-75875000D01*
G75*
G02*
X99700000Y-76125000I-250000J0D01*
G01*
X99025000Y-76125000D01*
G75*
G02*
X98775000Y-75875000I0J250000D01*
G01*
G37*
G36*
G01*
X100850000Y-75875000D02*
X100850000Y-74925000D01*
G75*
G02*
X101100000Y-74675000I250000J0D01*
G01*
X101775000Y-74675000D01*
G75*
G02*
X102025000Y-74925000I0J-250000D01*
G01*
X102025000Y-75875000D01*
G75*
G02*
X101775000Y-76125000I-250000J0D01*
G01*
X101100000Y-76125000D01*
G75*
G02*
X100850000Y-75875000I0J250000D01*
G01*
G37*
G36*
G01*
X111475000Y-93997500D02*
X110525000Y-93997500D01*
G75*
G02*
X110275000Y-93747500I0J250000D01*
G01*
X110275000Y-93072500D01*
G75*
G02*
X110525000Y-92822500I250000J0D01*
G01*
X111475000Y-92822500D01*
G75*
G02*
X111725000Y-93072500I0J-250000D01*
G01*
X111725000Y-93747500D01*
G75*
G02*
X111475000Y-93997500I-250000J0D01*
G01*
G37*
G36*
G01*
X111475000Y-96072500D02*
X110525000Y-96072500D01*
G75*
G02*
X110275000Y-95822500I0J250000D01*
G01*
X110275000Y-95147500D01*
G75*
G02*
X110525000Y-94897500I250000J0D01*
G01*
X111475000Y-94897500D01*
G75*
G02*
X111725000Y-95147500I0J-250000D01*
G01*
X111725000Y-95822500D01*
G75*
G02*
X111475000Y-96072500I-250000J0D01*
G01*
G37*
G36*
G01*
X98775000Y-79875000D02*
X98775000Y-78925000D01*
G75*
G02*
X99025000Y-78675000I250000J0D01*
G01*
X99700000Y-78675000D01*
G75*
G02*
X99950000Y-78925000I0J-250000D01*
G01*
X99950000Y-79875000D01*
G75*
G02*
X99700000Y-80125000I-250000J0D01*
G01*
X99025000Y-80125000D01*
G75*
G02*
X98775000Y-79875000I0J250000D01*
G01*
G37*
G36*
G01*
X100850000Y-79875000D02*
X100850000Y-78925000D01*
G75*
G02*
X101100000Y-78675000I250000J0D01*
G01*
X101775000Y-78675000D01*
G75*
G02*
X102025000Y-78925000I0J-250000D01*
G01*
X102025000Y-79875000D01*
G75*
G02*
X101775000Y-80125000I-250000J0D01*
G01*
X101100000Y-80125000D01*
G75*
G02*
X100850000Y-79875000I0J250000D01*
G01*
G37*
G36*
G01*
X110525000Y-83775000D02*
X111475000Y-83775000D01*
G75*
G02*
X111725000Y-84025000I0J-250000D01*
G01*
X111725000Y-84700000D01*
G75*
G02*
X111475000Y-84950000I-250000J0D01*
G01*
X110525000Y-84950000D01*
G75*
G02*
X110275000Y-84700000I0J250000D01*
G01*
X110275000Y-84025000D01*
G75*
G02*
X110525000Y-83775000I250000J0D01*
G01*
G37*
G36*
G01*
X110525000Y-85850000D02*
X111475000Y-85850000D01*
G75*
G02*
X111725000Y-86100000I0J-250000D01*
G01*
X111725000Y-86775000D01*
G75*
G02*
X111475000Y-87025000I-250000J0D01*
G01*
X110525000Y-87025000D01*
G75*
G02*
X110275000Y-86775000I0J250000D01*
G01*
X110275000Y-86100000D01*
G75*
G02*
X110525000Y-85850000I250000J0D01*
G01*
G37*
D24*
X81630000Y-71900000D03*
D25*
X83350000Y-71900000D03*
X83350000Y-69700000D03*
X81450000Y-69700000D03*
D26*
X73350000Y-95000000D03*
X76650000Y-95000000D03*
G36*
G01*
X74650000Y-77850001D02*
X74650000Y-76949999D01*
G75*
G02*
X74899999Y-76700000I249999J0D01*
G01*
X75550001Y-76700000D01*
G75*
G02*
X75800000Y-76949999I0J-249999D01*
G01*
X75800000Y-77850001D01*
G75*
G02*
X75550001Y-78100000I-249999J0D01*
G01*
X74899999Y-78100000D01*
G75*
G02*
X74650000Y-77850001I0J249999D01*
G01*
G37*
G36*
G01*
X72600000Y-77850001D02*
X72600000Y-76949999D01*
G75*
G02*
X72849999Y-76700000I249999J0D01*
G01*
X73500001Y-76700000D01*
G75*
G02*
X73750000Y-76949999I0J-249999D01*
G01*
X73750000Y-77850001D01*
G75*
G02*
X73500001Y-78100000I-249999J0D01*
G01*
X72849999Y-78100000D01*
G75*
G02*
X72600000Y-77850001I0J249999D01*
G01*
G37*
G36*
G01*
X133575000Y-85549999D02*
X133575000Y-86450001D01*
G75*
G02*
X133325001Y-86700000I-249999J0D01*
G01*
X132674999Y-86700000D01*
G75*
G02*
X132425000Y-86450001I0J249999D01*
G01*
X132425000Y-85549999D01*
G75*
G02*
X132674999Y-85300000I249999J0D01*
G01*
X133325001Y-85300000D01*
G75*
G02*
X133575000Y-85549999I0J-249999D01*
G01*
G37*
G36*
G01*
X131525000Y-85549999D02*
X131525000Y-86450001D01*
G75*
G02*
X131275001Y-86700000I-249999J0D01*
G01*
X130624999Y-86700000D01*
G75*
G02*
X130375000Y-86450001I0J249999D01*
G01*
X130375000Y-85549999D01*
G75*
G02*
X130624999Y-85300000I249999J0D01*
G01*
X131275001Y-85300000D01*
G75*
G02*
X131525000Y-85549999I0J-249999D01*
G01*
G37*
D27*
X73900000Y-65100000D03*
D28*
X74700000Y-63500000D03*
X75500000Y-65100000D03*
X76300000Y-63500000D03*
X77100000Y-65100000D03*
D29*
X71950000Y-59100000D03*
X79050000Y-59100000D03*
D23*
X73000000Y-141600000D03*
D21*
X77840000Y-145050000D03*
D22*
X75540000Y-140580000D03*
X73000000Y-139560000D03*
X75540000Y-138540000D03*
X73000000Y-137520000D03*
X75540000Y-136500000D03*
D21*
X77840000Y-133050000D03*
D14*
X76000000Y-89000000D03*
D13*
X73460000Y-89000000D03*
X76000000Y-86460000D03*
X73460000Y-86460000D03*
X76000000Y-83920000D03*
X73460000Y-83920000D03*
G36*
G01*
X107450001Y-76000000D02*
X106549999Y-76000000D01*
G75*
G02*
X106300000Y-75750001I0J249999D01*
G01*
X106300000Y-75049999D01*
G75*
G02*
X106549999Y-74800000I249999J0D01*
G01*
X107450001Y-74800000D01*
G75*
G02*
X107700000Y-75049999I0J-249999D01*
G01*
X107700000Y-75750001D01*
G75*
G02*
X107450001Y-76000000I-249999J0D01*
G01*
G37*
G36*
G01*
X107450001Y-78000000D02*
X106549999Y-78000000D01*
G75*
G02*
X106300000Y-77750001I0J249999D01*
G01*
X106300000Y-77049999D01*
G75*
G02*
X106549999Y-76800000I249999J0D01*
G01*
X107450001Y-76800000D01*
G75*
G02*
X107700000Y-77049999I0J-249999D01*
G01*
X107700000Y-77750001D01*
G75*
G02*
X107450001Y-78000000I-249999J0D01*
G01*
G37*
G36*
G01*
X110549999Y-74800000D02*
X111450001Y-74800000D01*
G75*
G02*
X111700000Y-75049999I0J-249999D01*
G01*
X111700000Y-75750001D01*
G75*
G02*
X111450001Y-76000000I-249999J0D01*
G01*
X110549999Y-76000000D01*
G75*
G02*
X110300000Y-75750001I0J249999D01*
G01*
X110300000Y-75049999D01*
G75*
G02*
X110549999Y-74800000I249999J0D01*
G01*
G37*
G36*
G01*
X110549999Y-76800000D02*
X111450001Y-76800000D01*
G75*
G02*
X111700000Y-77049999I0J-249999D01*
G01*
X111700000Y-77750001D01*
G75*
G02*
X111450001Y-78000000I-249999J0D01*
G01*
X110549999Y-78000000D01*
G75*
G02*
X110300000Y-77750001I0J249999D01*
G01*
X110300000Y-77049999D01*
G75*
G02*
X110549999Y-76800000I249999J0D01*
G01*
G37*
G36*
G01*
X73900000Y-100450001D02*
X73900000Y-99549999D01*
G75*
G02*
X74149999Y-99300000I249999J0D01*
G01*
X74850001Y-99300000D01*
G75*
G02*
X75100000Y-99549999I0J-249999D01*
G01*
X75100000Y-100450001D01*
G75*
G02*
X74850001Y-100700000I-249999J0D01*
G01*
X74149999Y-100700000D01*
G75*
G02*
X73900000Y-100450001I0J249999D01*
G01*
G37*
G36*
G01*
X75900000Y-100450001D02*
X75900000Y-99549999D01*
G75*
G02*
X76149999Y-99300000I249999J0D01*
G01*
X76850001Y-99300000D01*
G75*
G02*
X77100000Y-99549999I0J-249999D01*
G01*
X77100000Y-100450001D01*
G75*
G02*
X76850001Y-100700000I-249999J0D01*
G01*
X76149999Y-100700000D01*
G75*
G02*
X75900000Y-100450001I0J249999D01*
G01*
G37*
G36*
G01*
X105300000Y-99949999D02*
X105300000Y-100850001D01*
G75*
G02*
X105050001Y-101100000I-249999J0D01*
G01*
X104349999Y-101100000D01*
G75*
G02*
X104100000Y-100850001I0J249999D01*
G01*
X104100000Y-99949999D01*
G75*
G02*
X104349999Y-99700000I249999J0D01*
G01*
X105050001Y-99700000D01*
G75*
G02*
X105300000Y-99949999I0J-249999D01*
G01*
G37*
G36*
G01*
X107300000Y-99949999D02*
X107300000Y-100850001D01*
G75*
G02*
X107050001Y-101100000I-249999J0D01*
G01*
X106349999Y-101100000D01*
G75*
G02*
X106100000Y-100850001I0J249999D01*
G01*
X106100000Y-99949999D01*
G75*
G02*
X106349999Y-99700000I249999J0D01*
G01*
X107050001Y-99700000D01*
G75*
G02*
X107300000Y-99949999I0J-249999D01*
G01*
G37*
G36*
G01*
X84000000Y-76949999D02*
X84000000Y-77850001D01*
G75*
G02*
X83750001Y-78100000I-249999J0D01*
G01*
X83049999Y-78100000D01*
G75*
G02*
X82800000Y-77850001I0J249999D01*
G01*
X82800000Y-76949999D01*
G75*
G02*
X83049999Y-76700000I249999J0D01*
G01*
X83750001Y-76700000D01*
G75*
G02*
X84000000Y-76949999I0J-249999D01*
G01*
G37*
G36*
G01*
X82000000Y-76949999D02*
X82000000Y-77850001D01*
G75*
G02*
X81750001Y-78100000I-249999J0D01*
G01*
X81049999Y-78100000D01*
G75*
G02*
X80800000Y-77850001I0J249999D01*
G01*
X80800000Y-76949999D01*
G75*
G02*
X81049999Y-76700000I249999J0D01*
G01*
X81750001Y-76700000D01*
G75*
G02*
X82000000Y-76949999I0J-249999D01*
G01*
G37*
G36*
G01*
X90450001Y-142600000D02*
X89549999Y-142600000D01*
G75*
G02*
X89300000Y-142350001I0J249999D01*
G01*
X89300000Y-141649999D01*
G75*
G02*
X89549999Y-141400000I249999J0D01*
G01*
X90450001Y-141400000D01*
G75*
G02*
X90700000Y-141649999I0J-249999D01*
G01*
X90700000Y-142350001D01*
G75*
G02*
X90450001Y-142600000I-249999J0D01*
G01*
G37*
G36*
G01*
X90450001Y-140600000D02*
X89549999Y-140600000D01*
G75*
G02*
X89300000Y-140350001I0J249999D01*
G01*
X89300000Y-139649999D01*
G75*
G02*
X89549999Y-139400000I249999J0D01*
G01*
X90450001Y-139400000D01*
G75*
G02*
X90700000Y-139649999I0J-249999D01*
G01*
X90700000Y-140350001D01*
G75*
G02*
X90450001Y-140600000I-249999J0D01*
G01*
G37*
G36*
G01*
X95450001Y-140600000D02*
X94549999Y-140600000D01*
G75*
G02*
X94300000Y-140350001I0J249999D01*
G01*
X94300000Y-139649999D01*
G75*
G02*
X94549999Y-139400000I249999J0D01*
G01*
X95450001Y-139400000D01*
G75*
G02*
X95700000Y-139649999I0J-249999D01*
G01*
X95700000Y-140350001D01*
G75*
G02*
X95450001Y-140600000I-249999J0D01*
G01*
G37*
G36*
G01*
X95450001Y-142600000D02*
X94549999Y-142600000D01*
G75*
G02*
X94300000Y-142350001I0J249999D01*
G01*
X94300000Y-141649999D01*
G75*
G02*
X94549999Y-141400000I249999J0D01*
G01*
X95450001Y-141400000D01*
G75*
G02*
X95700000Y-141649999I0J-249999D01*
G01*
X95700000Y-142350001D01*
G75*
G02*
X95450001Y-142600000I-249999J0D01*
G01*
G37*
G36*
G01*
X139649999Y-58400000D02*
X140550001Y-58400000D01*
G75*
G02*
X140800000Y-58649999I0J-249999D01*
G01*
X140800000Y-59350001D01*
G75*
G02*
X140550001Y-59600000I-249999J0D01*
G01*
X139649999Y-59600000D01*
G75*
G02*
X139400000Y-59350001I0J249999D01*
G01*
X139400000Y-58649999D01*
G75*
G02*
X139649999Y-58400000I249999J0D01*
G01*
G37*
G36*
G01*
X139649999Y-60400000D02*
X140550001Y-60400000D01*
G75*
G02*
X140800000Y-60649999I0J-249999D01*
G01*
X140800000Y-61350001D01*
G75*
G02*
X140550001Y-61600000I-249999J0D01*
G01*
X139649999Y-61600000D01*
G75*
G02*
X139400000Y-61350001I0J249999D01*
G01*
X139400000Y-60649999D01*
G75*
G02*
X139649999Y-60400000I249999J0D01*
G01*
G37*
G36*
G01*
X144450001Y-61600000D02*
X143549999Y-61600000D01*
G75*
G02*
X143300000Y-61350001I0J249999D01*
G01*
X143300000Y-60649999D01*
G75*
G02*
X143549999Y-60400000I249999J0D01*
G01*
X144450001Y-60400000D01*
G75*
G02*
X144700000Y-60649999I0J-249999D01*
G01*
X144700000Y-61350001D01*
G75*
G02*
X144450001Y-61600000I-249999J0D01*
G01*
G37*
G36*
G01*
X144450001Y-59600000D02*
X143549999Y-59600000D01*
G75*
G02*
X143300000Y-59350001I0J249999D01*
G01*
X143300000Y-58649999D01*
G75*
G02*
X143549999Y-58400000I249999J0D01*
G01*
X144450001Y-58400000D01*
G75*
G02*
X144700000Y-58649999I0J-249999D01*
G01*
X144700000Y-59350001D01*
G75*
G02*
X144450001Y-59600000I-249999J0D01*
G01*
G37*
G36*
G01*
X131600000Y-81549999D02*
X131600000Y-82450001D01*
G75*
G02*
X131350001Y-82700000I-249999J0D01*
G01*
X130649999Y-82700000D01*
G75*
G02*
X130400000Y-82450001I0J249999D01*
G01*
X130400000Y-81549999D01*
G75*
G02*
X130649999Y-81300000I249999J0D01*
G01*
X131350001Y-81300000D01*
G75*
G02*
X131600000Y-81549999I0J-249999D01*
G01*
G37*
G36*
G01*
X133600000Y-81549999D02*
X133600000Y-82450001D01*
G75*
G02*
X133350001Y-82700000I-249999J0D01*
G01*
X132649999Y-82700000D01*
G75*
G02*
X132400000Y-82450001I0J249999D01*
G01*
X132400000Y-81549999D01*
G75*
G02*
X132649999Y-81300000I249999J0D01*
G01*
X133350001Y-81300000D01*
G75*
G02*
X133600000Y-81549999I0J-249999D01*
G01*
G37*
G36*
G01*
X161600000Y-85549999D02*
X161600000Y-86450001D01*
G75*
G02*
X161350001Y-86700000I-249999J0D01*
G01*
X160649999Y-86700000D01*
G75*
G02*
X160400000Y-86450001I0J249999D01*
G01*
X160400000Y-85549999D01*
G75*
G02*
X160649999Y-85300000I249999J0D01*
G01*
X161350001Y-85300000D01*
G75*
G02*
X161600000Y-85549999I0J-249999D01*
G01*
G37*
G36*
G01*
X163600000Y-85549999D02*
X163600000Y-86450001D01*
G75*
G02*
X163350001Y-86700000I-249999J0D01*
G01*
X162649999Y-86700000D01*
G75*
G02*
X162400000Y-86450001I0J249999D01*
G01*
X162400000Y-85549999D01*
G75*
G02*
X162649999Y-85300000I249999J0D01*
G01*
X163350001Y-85300000D01*
G75*
G02*
X163600000Y-85549999I0J-249999D01*
G01*
G37*
D17*
X72500000Y-121100000D03*
X77000000Y-121100000D03*
X72500000Y-127600000D03*
X77000000Y-127600000D03*
X97500000Y-119000000D03*
X93000000Y-119000000D03*
X97500000Y-112500000D03*
X93000000Y-112500000D03*
X93000000Y-125500000D03*
X97500000Y-125500000D03*
X93000000Y-132000000D03*
X97500000Y-132000000D03*
X106000000Y-125500000D03*
X110500000Y-125500000D03*
X106000000Y-132000000D03*
X110500000Y-132000000D03*
X137000000Y-111500000D03*
X141500000Y-111500000D03*
X137000000Y-118000000D03*
X141500000Y-118000000D03*
X137000000Y-124500000D03*
X141500000Y-124500000D03*
X137000000Y-131000000D03*
X141500000Y-131000000D03*
X154500000Y-118000000D03*
X150000000Y-118000000D03*
X154500000Y-111500000D03*
X150000000Y-111500000D03*
X154500000Y-131000000D03*
X150000000Y-131000000D03*
X154500000Y-124500000D03*
X150000000Y-124500000D03*
D20*
X112540000Y-139420000D03*
X106190000Y-141960000D03*
D19*
X110000000Y-144500000D03*
D18*
X104920000Y-144500000D03*
X115080000Y-144500000D03*
D30*
X104450000Y-84210000D03*
X103650000Y-84210000D03*
X102850000Y-84210000D03*
X102050000Y-84210000D03*
X101250000Y-84210000D03*
X100450000Y-84210000D03*
X99650000Y-84210000D03*
X98850000Y-84210000D03*
X98050000Y-84210000D03*
X97250000Y-84210000D03*
X96450000Y-84210000D03*
D31*
X94750000Y-85910000D03*
X94750000Y-86710000D03*
X94750000Y-87510000D03*
X94750000Y-88310000D03*
X94750000Y-89110000D03*
X94750000Y-89910000D03*
X94750000Y-90710000D03*
X94750000Y-91510000D03*
X94750000Y-92310000D03*
X94750000Y-93110000D03*
X94750000Y-93910000D03*
D30*
X96450000Y-95610000D03*
X97250000Y-95610000D03*
X98050000Y-95610000D03*
X98850000Y-95610000D03*
X99650000Y-95610000D03*
X100450000Y-95610000D03*
X101250000Y-95610000D03*
X102050000Y-95610000D03*
X102850000Y-95610000D03*
X103650000Y-95610000D03*
X104450000Y-95610000D03*
D31*
X106150000Y-93910000D03*
X106150000Y-93110000D03*
X106150000Y-92310000D03*
X106150000Y-91510000D03*
X106150000Y-90710000D03*
X106150000Y-89910000D03*
X106150000Y-89110000D03*
X106150000Y-88310000D03*
X106150000Y-87510000D03*
X106150000Y-86710000D03*
X106150000Y-85910000D03*
G36*
G01*
X130995000Y-77875000D02*
X130695000Y-77875000D01*
G75*
G02*
X130545000Y-77725000I0J150000D01*
G01*
X130545000Y-75975000D01*
G75*
G02*
X130695000Y-75825000I150000J0D01*
G01*
X130995000Y-75825000D01*
G75*
G02*
X131145000Y-75975000I0J-150000D01*
G01*
X131145000Y-77725000D01*
G75*
G02*
X130995000Y-77875000I-150000J0D01*
G01*
G37*
G36*
G01*
X132265000Y-77875000D02*
X131965000Y-77875000D01*
G75*
G02*
X131815000Y-77725000I0J150000D01*
G01*
X131815000Y-75975000D01*
G75*
G02*
X131965000Y-75825000I150000J0D01*
G01*
X132265000Y-75825000D01*
G75*
G02*
X132415000Y-75975000I0J-150000D01*
G01*
X132415000Y-77725000D01*
G75*
G02*
X132265000Y-77875000I-150000J0D01*
G01*
G37*
G36*
G01*
X133535000Y-77875000D02*
X133235000Y-77875000D01*
G75*
G02*
X133085000Y-77725000I0J150000D01*
G01*
X133085000Y-75975000D01*
G75*
G02*
X133235000Y-75825000I150000J0D01*
G01*
X133535000Y-75825000D01*
G75*
G02*
X133685000Y-75975000I0J-150000D01*
G01*
X133685000Y-77725000D01*
G75*
G02*
X133535000Y-77875000I-150000J0D01*
G01*
G37*
G36*
G01*
X134805000Y-77875000D02*
X134505000Y-77875000D01*
G75*
G02*
X134355000Y-77725000I0J150000D01*
G01*
X134355000Y-75975000D01*
G75*
G02*
X134505000Y-75825000I150000J0D01*
G01*
X134805000Y-75825000D01*
G75*
G02*
X134955000Y-75975000I0J-150000D01*
G01*
X134955000Y-77725000D01*
G75*
G02*
X134805000Y-77875000I-150000J0D01*
G01*
G37*
G36*
G01*
X136075000Y-77875000D02*
X135775000Y-77875000D01*
G75*
G02*
X135625000Y-77725000I0J150000D01*
G01*
X135625000Y-75975000D01*
G75*
G02*
X135775000Y-75825000I150000J0D01*
G01*
X136075000Y-75825000D01*
G75*
G02*
X136225000Y-75975000I0J-150000D01*
G01*
X136225000Y-77725000D01*
G75*
G02*
X136075000Y-77875000I-150000J0D01*
G01*
G37*
G36*
G01*
X137345000Y-77875000D02*
X137045000Y-77875000D01*
G75*
G02*
X136895000Y-77725000I0J150000D01*
G01*
X136895000Y-75975000D01*
G75*
G02*
X137045000Y-75825000I150000J0D01*
G01*
X137345000Y-75825000D01*
G75*
G02*
X137495000Y-75975000I0J-150000D01*
G01*
X137495000Y-77725000D01*
G75*
G02*
X137345000Y-77875000I-150000J0D01*
G01*
G37*
G36*
G01*
X138615000Y-77875000D02*
X138315000Y-77875000D01*
G75*
G02*
X138165000Y-77725000I0J150000D01*
G01*
X138165000Y-75975000D01*
G75*
G02*
X138315000Y-75825000I150000J0D01*
G01*
X138615000Y-75825000D01*
G75*
G02*
X138765000Y-75975000I0J-150000D01*
G01*
X138765000Y-77725000D01*
G75*
G02*
X138615000Y-77875000I-150000J0D01*
G01*
G37*
G36*
G01*
X139885000Y-77875000D02*
X139585000Y-77875000D01*
G75*
G02*
X139435000Y-77725000I0J150000D01*
G01*
X139435000Y-75975000D01*
G75*
G02*
X139585000Y-75825000I150000J0D01*
G01*
X139885000Y-75825000D01*
G75*
G02*
X140035000Y-75975000I0J-150000D01*
G01*
X140035000Y-77725000D01*
G75*
G02*
X139885000Y-77875000I-150000J0D01*
G01*
G37*
G36*
G01*
X141155000Y-77875000D02*
X140855000Y-77875000D01*
G75*
G02*
X140705000Y-77725000I0J150000D01*
G01*
X140705000Y-75975000D01*
G75*
G02*
X140855000Y-75825000I150000J0D01*
G01*
X141155000Y-75825000D01*
G75*
G02*
X141305000Y-75975000I0J-150000D01*
G01*
X141305000Y-77725000D01*
G75*
G02*
X141155000Y-77875000I-150000J0D01*
G01*
G37*
G36*
G01*
X142425000Y-77875000D02*
X142125000Y-77875000D01*
G75*
G02*
X141975000Y-77725000I0J150000D01*
G01*
X141975000Y-75975000D01*
G75*
G02*
X142125000Y-75825000I150000J0D01*
G01*
X142425000Y-75825000D01*
G75*
G02*
X142575000Y-75975000I0J-150000D01*
G01*
X142575000Y-77725000D01*
G75*
G02*
X142425000Y-77875000I-150000J0D01*
G01*
G37*
G36*
G01*
X143695000Y-77875000D02*
X143395000Y-77875000D01*
G75*
G02*
X143245000Y-77725000I0J150000D01*
G01*
X143245000Y-75975000D01*
G75*
G02*
X143395000Y-75825000I150000J0D01*
G01*
X143695000Y-75825000D01*
G75*
G02*
X143845000Y-75975000I0J-150000D01*
G01*
X143845000Y-77725000D01*
G75*
G02*
X143695000Y-77875000I-150000J0D01*
G01*
G37*
G36*
G01*
X144965000Y-77875000D02*
X144665000Y-77875000D01*
G75*
G02*
X144515000Y-77725000I0J150000D01*
G01*
X144515000Y-75975000D01*
G75*
G02*
X144665000Y-75825000I150000J0D01*
G01*
X144965000Y-75825000D01*
G75*
G02*
X145115000Y-75975000I0J-150000D01*
G01*
X145115000Y-77725000D01*
G75*
G02*
X144965000Y-77875000I-150000J0D01*
G01*
G37*
G36*
G01*
X146235000Y-77875000D02*
X145935000Y-77875000D01*
G75*
G02*
X145785000Y-77725000I0J150000D01*
G01*
X145785000Y-75975000D01*
G75*
G02*
X145935000Y-75825000I150000J0D01*
G01*
X146235000Y-75825000D01*
G75*
G02*
X146385000Y-75975000I0J-150000D01*
G01*
X146385000Y-77725000D01*
G75*
G02*
X146235000Y-77875000I-150000J0D01*
G01*
G37*
G36*
G01*
X147505000Y-77875000D02*
X147205000Y-77875000D01*
G75*
G02*
X147055000Y-77725000I0J150000D01*
G01*
X147055000Y-75975000D01*
G75*
G02*
X147205000Y-75825000I150000J0D01*
G01*
X147505000Y-75825000D01*
G75*
G02*
X147655000Y-75975000I0J-150000D01*
G01*
X147655000Y-77725000D01*
G75*
G02*
X147505000Y-77875000I-150000J0D01*
G01*
G37*
G36*
G01*
X147505000Y-68575000D02*
X147205000Y-68575000D01*
G75*
G02*
X147055000Y-68425000I0J150000D01*
G01*
X147055000Y-66675000D01*
G75*
G02*
X147205000Y-66525000I150000J0D01*
G01*
X147505000Y-66525000D01*
G75*
G02*
X147655000Y-66675000I0J-150000D01*
G01*
X147655000Y-68425000D01*
G75*
G02*
X147505000Y-68575000I-150000J0D01*
G01*
G37*
G36*
G01*
X146235000Y-68575000D02*
X145935000Y-68575000D01*
G75*
G02*
X145785000Y-68425000I0J150000D01*
G01*
X145785000Y-66675000D01*
G75*
G02*
X145935000Y-66525000I150000J0D01*
G01*
X146235000Y-66525000D01*
G75*
G02*
X146385000Y-66675000I0J-150000D01*
G01*
X146385000Y-68425000D01*
G75*
G02*
X146235000Y-68575000I-150000J0D01*
G01*
G37*
G36*
G01*
X144965000Y-68575000D02*
X144665000Y-68575000D01*
G75*
G02*
X144515000Y-68425000I0J150000D01*
G01*
X144515000Y-66675000D01*
G75*
G02*
X144665000Y-66525000I150000J0D01*
G01*
X144965000Y-66525000D01*
G75*
G02*
X145115000Y-66675000I0J-150000D01*
G01*
X145115000Y-68425000D01*
G75*
G02*
X144965000Y-68575000I-150000J0D01*
G01*
G37*
G36*
G01*
X143695000Y-68575000D02*
X143395000Y-68575000D01*
G75*
G02*
X143245000Y-68425000I0J150000D01*
G01*
X143245000Y-66675000D01*
G75*
G02*
X143395000Y-66525000I150000J0D01*
G01*
X143695000Y-66525000D01*
G75*
G02*
X143845000Y-66675000I0J-150000D01*
G01*
X143845000Y-68425000D01*
G75*
G02*
X143695000Y-68575000I-150000J0D01*
G01*
G37*
G36*
G01*
X142425000Y-68575000D02*
X142125000Y-68575000D01*
G75*
G02*
X141975000Y-68425000I0J150000D01*
G01*
X141975000Y-66675000D01*
G75*
G02*
X142125000Y-66525000I150000J0D01*
G01*
X142425000Y-66525000D01*
G75*
G02*
X142575000Y-66675000I0J-150000D01*
G01*
X142575000Y-68425000D01*
G75*
G02*
X142425000Y-68575000I-150000J0D01*
G01*
G37*
G36*
G01*
X141155000Y-68575000D02*
X140855000Y-68575000D01*
G75*
G02*
X140705000Y-68425000I0J150000D01*
G01*
X140705000Y-66675000D01*
G75*
G02*
X140855000Y-66525000I150000J0D01*
G01*
X141155000Y-66525000D01*
G75*
G02*
X141305000Y-66675000I0J-150000D01*
G01*
X141305000Y-68425000D01*
G75*
G02*
X141155000Y-68575000I-150000J0D01*
G01*
G37*
G36*
G01*
X139885000Y-68575000D02*
X139585000Y-68575000D01*
G75*
G02*
X139435000Y-68425000I0J150000D01*
G01*
X139435000Y-66675000D01*
G75*
G02*
X139585000Y-66525000I150000J0D01*
G01*
X139885000Y-66525000D01*
G75*
G02*
X140035000Y-66675000I0J-150000D01*
G01*
X140035000Y-68425000D01*
G75*
G02*
X139885000Y-68575000I-150000J0D01*
G01*
G37*
G36*
G01*
X138615000Y-68575000D02*
X138315000Y-68575000D01*
G75*
G02*
X138165000Y-68425000I0J150000D01*
G01*
X138165000Y-66675000D01*
G75*
G02*
X138315000Y-66525000I150000J0D01*
G01*
X138615000Y-66525000D01*
G75*
G02*
X138765000Y-66675000I0J-150000D01*
G01*
X138765000Y-68425000D01*
G75*
G02*
X138615000Y-68575000I-150000J0D01*
G01*
G37*
G36*
G01*
X137345000Y-68575000D02*
X137045000Y-68575000D01*
G75*
G02*
X136895000Y-68425000I0J150000D01*
G01*
X136895000Y-66675000D01*
G75*
G02*
X137045000Y-66525000I150000J0D01*
G01*
X137345000Y-66525000D01*
G75*
G02*
X137495000Y-66675000I0J-150000D01*
G01*
X137495000Y-68425000D01*
G75*
G02*
X137345000Y-68575000I-150000J0D01*
G01*
G37*
G36*
G01*
X136075000Y-68575000D02*
X135775000Y-68575000D01*
G75*
G02*
X135625000Y-68425000I0J150000D01*
G01*
X135625000Y-66675000D01*
G75*
G02*
X135775000Y-66525000I150000J0D01*
G01*
X136075000Y-66525000D01*
G75*
G02*
X136225000Y-66675000I0J-150000D01*
G01*
X136225000Y-68425000D01*
G75*
G02*
X136075000Y-68575000I-150000J0D01*
G01*
G37*
G36*
G01*
X134805000Y-68575000D02*
X134505000Y-68575000D01*
G75*
G02*
X134355000Y-68425000I0J150000D01*
G01*
X134355000Y-66675000D01*
G75*
G02*
X134505000Y-66525000I150000J0D01*
G01*
X134805000Y-66525000D01*
G75*
G02*
X134955000Y-66675000I0J-150000D01*
G01*
X134955000Y-68425000D01*
G75*
G02*
X134805000Y-68575000I-150000J0D01*
G01*
G37*
G36*
G01*
X133535000Y-68575000D02*
X133235000Y-68575000D01*
G75*
G02*
X133085000Y-68425000I0J150000D01*
G01*
X133085000Y-66675000D01*
G75*
G02*
X133235000Y-66525000I150000J0D01*
G01*
X133535000Y-66525000D01*
G75*
G02*
X133685000Y-66675000I0J-150000D01*
G01*
X133685000Y-68425000D01*
G75*
G02*
X133535000Y-68575000I-150000J0D01*
G01*
G37*
G36*
G01*
X132265000Y-68575000D02*
X131965000Y-68575000D01*
G75*
G02*
X131815000Y-68425000I0J150000D01*
G01*
X131815000Y-66675000D01*
G75*
G02*
X131965000Y-66525000I150000J0D01*
G01*
X132265000Y-66525000D01*
G75*
G02*
X132415000Y-66675000I0J-150000D01*
G01*
X132415000Y-68425000D01*
G75*
G02*
X132265000Y-68575000I-150000J0D01*
G01*
G37*
G36*
G01*
X130995000Y-68575000D02*
X130695000Y-68575000D01*
G75*
G02*
X130545000Y-68425000I0J150000D01*
G01*
X130545000Y-66675000D01*
G75*
G02*
X130695000Y-66525000I150000J0D01*
G01*
X130995000Y-66525000D01*
G75*
G02*
X131145000Y-66675000I0J-150000D01*
G01*
X131145000Y-68425000D01*
G75*
G02*
X130995000Y-68575000I-150000J0D01*
G01*
G37*
D32*
X88190000Y-91840000D03*
X88190000Y-86960000D03*
D14*
X75600000Y-150400000D03*
D13*
X78140000Y-150400000D03*
G36*
G01*
X143375000Y-82475000D02*
X143375000Y-81525000D01*
G75*
G02*
X143625000Y-81275000I250000J0D01*
G01*
X144300000Y-81275000D01*
G75*
G02*
X144550000Y-81525000I0J-250000D01*
G01*
X144550000Y-82475000D01*
G75*
G02*
X144300000Y-82725000I-250000J0D01*
G01*
X143625000Y-82725000D01*
G75*
G02*
X143375000Y-82475000I0J250000D01*
G01*
G37*
G36*
G01*
X145450000Y-82475000D02*
X145450000Y-81525000D01*
G75*
G02*
X145700000Y-81275000I250000J0D01*
G01*
X146375000Y-81275000D01*
G75*
G02*
X146625000Y-81525000I0J-250000D01*
G01*
X146625000Y-82475000D01*
G75*
G02*
X146375000Y-82725000I-250000J0D01*
G01*
X145700000Y-82725000D01*
G75*
G02*
X145450000Y-82475000I0J250000D01*
G01*
G37*
M02*
