%TF.GenerationSoftware,KiCad,Pcbnew,5.1.10-1.fc34*%
%TF.CreationDate,2021-06-27T19:23:10+03:00*%
%TF.ProjectId,poc,706f632e-6b69-4636-9164-5f7063625858,rev?*%
%TF.SameCoordinates,Original*%
%TF.FileFunction,Paste,Top*%
%TF.FilePolarity,Positive*%
%FSLAX46Y46*%
G04 Gerber Fmt 4.6, Leading zero omitted, Abs format (unit mm)*
G04 Created by KiCad (PCBNEW 5.1.10-1.fc34) date 2021-06-27 19:23:10*
%MOMM*%
%LPD*%
G01*
G04 APERTURE LIST*
%ADD10R,1.400000X1.200000*%
%ADD11R,1.400000X1.000000*%
%ADD12R,1.200000X1.400000*%
%ADD13R,1.000000X1.400000*%
%ADD14R,0.900000X1.200000*%
%ADD15R,0.550000X1.500000*%
%ADD16R,1.500000X0.550000*%
G04 APERTURE END LIST*
D10*
X85100000Y-126270000D03*
D11*
X85100000Y-124550000D03*
X82900000Y-124550000D03*
X82900000Y-126450000D03*
G36*
G01*
X75695000Y-69149999D02*
X75695000Y-70050001D01*
G75*
G02*
X75445001Y-70300000I-249999J0D01*
G01*
X74794999Y-70300000D01*
G75*
G02*
X74545000Y-70050001I0J249999D01*
G01*
X74545000Y-69149999D01*
G75*
G02*
X74794999Y-68900000I249999J0D01*
G01*
X75445001Y-68900000D01*
G75*
G02*
X75695000Y-69149999I0J-249999D01*
G01*
G37*
G36*
G01*
X73645000Y-69149999D02*
X73645000Y-70050001D01*
G75*
G02*
X73395001Y-70300000I-249999J0D01*
G01*
X72744999Y-70300000D01*
G75*
G02*
X72495000Y-70050001I0J249999D01*
G01*
X72495000Y-69149999D01*
G75*
G02*
X72744999Y-68900000I249999J0D01*
G01*
X73395001Y-68900000D01*
G75*
G02*
X73645000Y-69149999I0J-249999D01*
G01*
G37*
G36*
G01*
X95512500Y-99925000D02*
X95512500Y-100875000D01*
G75*
G02*
X95262500Y-101125000I-250000J0D01*
G01*
X94587500Y-101125000D01*
G75*
G02*
X94337500Y-100875000I0J250000D01*
G01*
X94337500Y-99925000D01*
G75*
G02*
X94587500Y-99675000I250000J0D01*
G01*
X95262500Y-99675000D01*
G75*
G02*
X95512500Y-99925000I0J-250000D01*
G01*
G37*
G36*
G01*
X97587500Y-99925000D02*
X97587500Y-100875000D01*
G75*
G02*
X97337500Y-101125000I-250000J0D01*
G01*
X96662500Y-101125000D01*
G75*
G02*
X96412500Y-100875000I0J250000D01*
G01*
X96412500Y-99925000D01*
G75*
G02*
X96662500Y-99675000I250000J0D01*
G01*
X97337500Y-99675000D01*
G75*
G02*
X97587500Y-99925000I0J-250000D01*
G01*
G37*
G36*
G01*
X163600000Y-89549999D02*
X163600000Y-90450001D01*
G75*
G02*
X163350001Y-90700000I-249999J0D01*
G01*
X162649999Y-90700000D01*
G75*
G02*
X162400000Y-90450001I0J249999D01*
G01*
X162400000Y-89549999D01*
G75*
G02*
X162649999Y-89300000I249999J0D01*
G01*
X163350001Y-89300000D01*
G75*
G02*
X163600000Y-89549999I0J-249999D01*
G01*
G37*
G36*
G01*
X161600000Y-89549999D02*
X161600000Y-90450001D01*
G75*
G02*
X161350001Y-90700000I-249999J0D01*
G01*
X160649999Y-90700000D01*
G75*
G02*
X160400000Y-90450001I0J249999D01*
G01*
X160400000Y-89549999D01*
G75*
G02*
X160649999Y-89300000I249999J0D01*
G01*
X161350001Y-89300000D01*
G75*
G02*
X161600000Y-89549999I0J-249999D01*
G01*
G37*
G36*
G01*
X147549999Y-60400000D02*
X148450001Y-60400000D01*
G75*
G02*
X148700000Y-60649999I0J-249999D01*
G01*
X148700000Y-61350001D01*
G75*
G02*
X148450001Y-61600000I-249999J0D01*
G01*
X147549999Y-61600000D01*
G75*
G02*
X147300000Y-61350001I0J249999D01*
G01*
X147300000Y-60649999D01*
G75*
G02*
X147549999Y-60400000I249999J0D01*
G01*
G37*
G36*
G01*
X147549999Y-58400000D02*
X148450001Y-58400000D01*
G75*
G02*
X148700000Y-58649999I0J-249999D01*
G01*
X148700000Y-59350001D01*
G75*
G02*
X148450001Y-59600000I-249999J0D01*
G01*
X147549999Y-59600000D01*
G75*
G02*
X147300000Y-59350001I0J249999D01*
G01*
X147300000Y-58649999D01*
G75*
G02*
X147549999Y-58400000I249999J0D01*
G01*
G37*
X156300000Y-72850000D03*
X156300000Y-74750000D03*
X154100000Y-74750000D03*
D10*
X154100000Y-73030000D03*
G36*
G01*
X77400000Y-109950001D02*
X77400000Y-109049999D01*
G75*
G02*
X77649999Y-108800000I249999J0D01*
G01*
X78350001Y-108800000D01*
G75*
G02*
X78600000Y-109049999I0J-249999D01*
G01*
X78600000Y-109950001D01*
G75*
G02*
X78350001Y-110200000I-249999J0D01*
G01*
X77649999Y-110200000D01*
G75*
G02*
X77400000Y-109950001I0J249999D01*
G01*
G37*
G36*
G01*
X75400000Y-109950001D02*
X75400000Y-109049999D01*
G75*
G02*
X75649999Y-108800000I249999J0D01*
G01*
X76350001Y-108800000D01*
G75*
G02*
X76600000Y-109049999I0J-249999D01*
G01*
X76600000Y-109950001D01*
G75*
G02*
X76350001Y-110200000I-249999J0D01*
G01*
X75649999Y-110200000D01*
G75*
G02*
X75400000Y-109950001I0J249999D01*
G01*
G37*
G36*
G01*
X90612500Y-81625000D02*
X90612500Y-82575000D01*
G75*
G02*
X90362500Y-82825000I-250000J0D01*
G01*
X89687500Y-82825000D01*
G75*
G02*
X89437500Y-82575000I0J250000D01*
G01*
X89437500Y-81625000D01*
G75*
G02*
X89687500Y-81375000I250000J0D01*
G01*
X90362500Y-81375000D01*
G75*
G02*
X90612500Y-81625000I0J-250000D01*
G01*
G37*
G36*
G01*
X92687500Y-81625000D02*
X92687500Y-82575000D01*
G75*
G02*
X92437500Y-82825000I-250000J0D01*
G01*
X91762500Y-82825000D01*
G75*
G02*
X91512500Y-82575000I0J250000D01*
G01*
X91512500Y-81625000D01*
G75*
G02*
X91762500Y-81375000I250000J0D01*
G01*
X92437500Y-81375000D01*
G75*
G02*
X92687500Y-81625000I0J-250000D01*
G01*
G37*
G36*
G01*
X75400000Y-105950001D02*
X75400000Y-105049999D01*
G75*
G02*
X75649999Y-104800000I249999J0D01*
G01*
X76350001Y-104800000D01*
G75*
G02*
X76600000Y-105049999I0J-249999D01*
G01*
X76600000Y-105950001D01*
G75*
G02*
X76350001Y-106200000I-249999J0D01*
G01*
X75649999Y-106200000D01*
G75*
G02*
X75400000Y-105950001I0J249999D01*
G01*
G37*
G36*
G01*
X77400000Y-105950001D02*
X77400000Y-105049999D01*
G75*
G02*
X77649999Y-104800000I249999J0D01*
G01*
X78350001Y-104800000D01*
G75*
G02*
X78600000Y-105049999I0J-249999D01*
G01*
X78600000Y-105950001D01*
G75*
G02*
X78350001Y-106200000I-249999J0D01*
G01*
X77649999Y-106200000D01*
G75*
G02*
X77400000Y-105950001I0J249999D01*
G01*
G37*
G36*
G01*
X76825000Y-73174999D02*
X76825000Y-74025001D01*
G75*
G02*
X76575001Y-74275000I-249999J0D01*
G01*
X75499999Y-74275000D01*
G75*
G02*
X75250000Y-74025001I0J249999D01*
G01*
X75250000Y-73174999D01*
G75*
G02*
X75499999Y-72925000I249999J0D01*
G01*
X76575001Y-72925000D01*
G75*
G02*
X76825000Y-73174999I0J-249999D01*
G01*
G37*
G36*
G01*
X73950000Y-73174999D02*
X73950000Y-74025001D01*
G75*
G02*
X73700001Y-74275000I-249999J0D01*
G01*
X72624999Y-74275000D01*
G75*
G02*
X72375000Y-74025001I0J249999D01*
G01*
X72375000Y-73174999D01*
G75*
G02*
X72624999Y-72925000I249999J0D01*
G01*
X73700001Y-72925000D01*
G75*
G02*
X73950000Y-73174999I0J-249999D01*
G01*
G37*
G36*
G01*
X82550000Y-91325000D02*
X82550000Y-92275000D01*
G75*
G02*
X82300000Y-92525000I-250000J0D01*
G01*
X81625000Y-92525000D01*
G75*
G02*
X81375000Y-92275000I0J250000D01*
G01*
X81375000Y-91325000D01*
G75*
G02*
X81625000Y-91075000I250000J0D01*
G01*
X82300000Y-91075000D01*
G75*
G02*
X82550000Y-91325000I0J-250000D01*
G01*
G37*
G36*
G01*
X84625000Y-91325000D02*
X84625000Y-92275000D01*
G75*
G02*
X84375000Y-92525000I-250000J0D01*
G01*
X83700000Y-92525000D01*
G75*
G02*
X83450000Y-92275000I0J250000D01*
G01*
X83450000Y-91325000D01*
G75*
G02*
X83700000Y-91075000I250000J0D01*
G01*
X84375000Y-91075000D01*
G75*
G02*
X84625000Y-91325000I0J-250000D01*
G01*
G37*
G36*
G01*
X84625000Y-86525000D02*
X84625000Y-87475000D01*
G75*
G02*
X84375000Y-87725000I-250000J0D01*
G01*
X83700000Y-87725000D01*
G75*
G02*
X83450000Y-87475000I0J250000D01*
G01*
X83450000Y-86525000D01*
G75*
G02*
X83700000Y-86275000I250000J0D01*
G01*
X84375000Y-86275000D01*
G75*
G02*
X84625000Y-86525000I0J-250000D01*
G01*
G37*
G36*
G01*
X82550000Y-86525000D02*
X82550000Y-87475000D01*
G75*
G02*
X82300000Y-87725000I-250000J0D01*
G01*
X81625000Y-87725000D01*
G75*
G02*
X81375000Y-87475000I0J250000D01*
G01*
X81375000Y-86525000D01*
G75*
G02*
X81625000Y-86275000I250000J0D01*
G01*
X82300000Y-86275000D01*
G75*
G02*
X82550000Y-86525000I0J-250000D01*
G01*
G37*
G36*
G01*
X98775000Y-75875000D02*
X98775000Y-74925000D01*
G75*
G02*
X99025000Y-74675000I250000J0D01*
G01*
X99700000Y-74675000D01*
G75*
G02*
X99950000Y-74925000I0J-250000D01*
G01*
X99950000Y-75875000D01*
G75*
G02*
X99700000Y-76125000I-250000J0D01*
G01*
X99025000Y-76125000D01*
G75*
G02*
X98775000Y-75875000I0J250000D01*
G01*
G37*
G36*
G01*
X100850000Y-75875000D02*
X100850000Y-74925000D01*
G75*
G02*
X101100000Y-74675000I250000J0D01*
G01*
X101775000Y-74675000D01*
G75*
G02*
X102025000Y-74925000I0J-250000D01*
G01*
X102025000Y-75875000D01*
G75*
G02*
X101775000Y-76125000I-250000J0D01*
G01*
X101100000Y-76125000D01*
G75*
G02*
X100850000Y-75875000I0J250000D01*
G01*
G37*
G36*
G01*
X111475000Y-93997500D02*
X110525000Y-93997500D01*
G75*
G02*
X110275000Y-93747500I0J250000D01*
G01*
X110275000Y-93072500D01*
G75*
G02*
X110525000Y-92822500I250000J0D01*
G01*
X111475000Y-92822500D01*
G75*
G02*
X111725000Y-93072500I0J-250000D01*
G01*
X111725000Y-93747500D01*
G75*
G02*
X111475000Y-93997500I-250000J0D01*
G01*
G37*
G36*
G01*
X111475000Y-96072500D02*
X110525000Y-96072500D01*
G75*
G02*
X110275000Y-95822500I0J250000D01*
G01*
X110275000Y-95147500D01*
G75*
G02*
X110525000Y-94897500I250000J0D01*
G01*
X111475000Y-94897500D01*
G75*
G02*
X111725000Y-95147500I0J-250000D01*
G01*
X111725000Y-95822500D01*
G75*
G02*
X111475000Y-96072500I-250000J0D01*
G01*
G37*
G36*
G01*
X98775000Y-79875000D02*
X98775000Y-78925000D01*
G75*
G02*
X99025000Y-78675000I250000J0D01*
G01*
X99700000Y-78675000D01*
G75*
G02*
X99950000Y-78925000I0J-250000D01*
G01*
X99950000Y-79875000D01*
G75*
G02*
X99700000Y-80125000I-250000J0D01*
G01*
X99025000Y-80125000D01*
G75*
G02*
X98775000Y-79875000I0J250000D01*
G01*
G37*
G36*
G01*
X100850000Y-79875000D02*
X100850000Y-78925000D01*
G75*
G02*
X101100000Y-78675000I250000J0D01*
G01*
X101775000Y-78675000D01*
G75*
G02*
X102025000Y-78925000I0J-250000D01*
G01*
X102025000Y-79875000D01*
G75*
G02*
X101775000Y-80125000I-250000J0D01*
G01*
X101100000Y-80125000D01*
G75*
G02*
X100850000Y-79875000I0J250000D01*
G01*
G37*
G36*
G01*
X110525000Y-83775000D02*
X111475000Y-83775000D01*
G75*
G02*
X111725000Y-84025000I0J-250000D01*
G01*
X111725000Y-84700000D01*
G75*
G02*
X111475000Y-84950000I-250000J0D01*
G01*
X110525000Y-84950000D01*
G75*
G02*
X110275000Y-84700000I0J250000D01*
G01*
X110275000Y-84025000D01*
G75*
G02*
X110525000Y-83775000I250000J0D01*
G01*
G37*
G36*
G01*
X110525000Y-85850000D02*
X111475000Y-85850000D01*
G75*
G02*
X111725000Y-86100000I0J-250000D01*
G01*
X111725000Y-86775000D01*
G75*
G02*
X111475000Y-87025000I-250000J0D01*
G01*
X110525000Y-87025000D01*
G75*
G02*
X110275000Y-86775000I0J250000D01*
G01*
X110275000Y-86100000D01*
G75*
G02*
X110525000Y-85850000I250000J0D01*
G01*
G37*
D12*
X81630000Y-71900000D03*
D13*
X83350000Y-71900000D03*
X83350000Y-69700000D03*
X81450000Y-69700000D03*
D14*
X73350000Y-95000000D03*
X76650000Y-95000000D03*
G36*
G01*
X74650000Y-77850001D02*
X74650000Y-76949999D01*
G75*
G02*
X74899999Y-76700000I249999J0D01*
G01*
X75550001Y-76700000D01*
G75*
G02*
X75800000Y-76949999I0J-249999D01*
G01*
X75800000Y-77850001D01*
G75*
G02*
X75550001Y-78100000I-249999J0D01*
G01*
X74899999Y-78100000D01*
G75*
G02*
X74650000Y-77850001I0J249999D01*
G01*
G37*
G36*
G01*
X72600000Y-77850001D02*
X72600000Y-76949999D01*
G75*
G02*
X72849999Y-76700000I249999J0D01*
G01*
X73500001Y-76700000D01*
G75*
G02*
X73750000Y-76949999I0J-249999D01*
G01*
X73750000Y-77850001D01*
G75*
G02*
X73500001Y-78100000I-249999J0D01*
G01*
X72849999Y-78100000D01*
G75*
G02*
X72600000Y-77850001I0J249999D01*
G01*
G37*
G36*
G01*
X133575000Y-85549999D02*
X133575000Y-86450001D01*
G75*
G02*
X133325001Y-86700000I-249999J0D01*
G01*
X132674999Y-86700000D01*
G75*
G02*
X132425000Y-86450001I0J249999D01*
G01*
X132425000Y-85549999D01*
G75*
G02*
X132674999Y-85300000I249999J0D01*
G01*
X133325001Y-85300000D01*
G75*
G02*
X133575000Y-85549999I0J-249999D01*
G01*
G37*
G36*
G01*
X131525000Y-85549999D02*
X131525000Y-86450001D01*
G75*
G02*
X131275001Y-86700000I-249999J0D01*
G01*
X130624999Y-86700000D01*
G75*
G02*
X130375000Y-86450001I0J249999D01*
G01*
X130375000Y-85549999D01*
G75*
G02*
X130624999Y-85300000I249999J0D01*
G01*
X131275001Y-85300000D01*
G75*
G02*
X131525000Y-85549999I0J-249999D01*
G01*
G37*
G36*
G01*
X107450001Y-76000000D02*
X106549999Y-76000000D01*
G75*
G02*
X106300000Y-75750001I0J249999D01*
G01*
X106300000Y-75049999D01*
G75*
G02*
X106549999Y-74800000I249999J0D01*
G01*
X107450001Y-74800000D01*
G75*
G02*
X107700000Y-75049999I0J-249999D01*
G01*
X107700000Y-75750001D01*
G75*
G02*
X107450001Y-76000000I-249999J0D01*
G01*
G37*
G36*
G01*
X107450001Y-78000000D02*
X106549999Y-78000000D01*
G75*
G02*
X106300000Y-77750001I0J249999D01*
G01*
X106300000Y-77049999D01*
G75*
G02*
X106549999Y-76800000I249999J0D01*
G01*
X107450001Y-76800000D01*
G75*
G02*
X107700000Y-77049999I0J-249999D01*
G01*
X107700000Y-77750001D01*
G75*
G02*
X107450001Y-78000000I-249999J0D01*
G01*
G37*
G36*
G01*
X110549999Y-74800000D02*
X111450001Y-74800000D01*
G75*
G02*
X111700000Y-75049999I0J-249999D01*
G01*
X111700000Y-75750001D01*
G75*
G02*
X111450001Y-76000000I-249999J0D01*
G01*
X110549999Y-76000000D01*
G75*
G02*
X110300000Y-75750001I0J249999D01*
G01*
X110300000Y-75049999D01*
G75*
G02*
X110549999Y-74800000I249999J0D01*
G01*
G37*
G36*
G01*
X110549999Y-76800000D02*
X111450001Y-76800000D01*
G75*
G02*
X111700000Y-77049999I0J-249999D01*
G01*
X111700000Y-77750001D01*
G75*
G02*
X111450001Y-78000000I-249999J0D01*
G01*
X110549999Y-78000000D01*
G75*
G02*
X110300000Y-77750001I0J249999D01*
G01*
X110300000Y-77049999D01*
G75*
G02*
X110549999Y-76800000I249999J0D01*
G01*
G37*
G36*
G01*
X73900000Y-100450001D02*
X73900000Y-99549999D01*
G75*
G02*
X74149999Y-99300000I249999J0D01*
G01*
X74850001Y-99300000D01*
G75*
G02*
X75100000Y-99549999I0J-249999D01*
G01*
X75100000Y-100450001D01*
G75*
G02*
X74850001Y-100700000I-249999J0D01*
G01*
X74149999Y-100700000D01*
G75*
G02*
X73900000Y-100450001I0J249999D01*
G01*
G37*
G36*
G01*
X75900000Y-100450001D02*
X75900000Y-99549999D01*
G75*
G02*
X76149999Y-99300000I249999J0D01*
G01*
X76850001Y-99300000D01*
G75*
G02*
X77100000Y-99549999I0J-249999D01*
G01*
X77100000Y-100450001D01*
G75*
G02*
X76850001Y-100700000I-249999J0D01*
G01*
X76149999Y-100700000D01*
G75*
G02*
X75900000Y-100450001I0J249999D01*
G01*
G37*
G36*
G01*
X105300000Y-99949999D02*
X105300000Y-100850001D01*
G75*
G02*
X105050001Y-101100000I-249999J0D01*
G01*
X104349999Y-101100000D01*
G75*
G02*
X104100000Y-100850001I0J249999D01*
G01*
X104100000Y-99949999D01*
G75*
G02*
X104349999Y-99700000I249999J0D01*
G01*
X105050001Y-99700000D01*
G75*
G02*
X105300000Y-99949999I0J-249999D01*
G01*
G37*
G36*
G01*
X107300000Y-99949999D02*
X107300000Y-100850001D01*
G75*
G02*
X107050001Y-101100000I-249999J0D01*
G01*
X106349999Y-101100000D01*
G75*
G02*
X106100000Y-100850001I0J249999D01*
G01*
X106100000Y-99949999D01*
G75*
G02*
X106349999Y-99700000I249999J0D01*
G01*
X107050001Y-99700000D01*
G75*
G02*
X107300000Y-99949999I0J-249999D01*
G01*
G37*
G36*
G01*
X84000000Y-76949999D02*
X84000000Y-77850001D01*
G75*
G02*
X83750001Y-78100000I-249999J0D01*
G01*
X83049999Y-78100000D01*
G75*
G02*
X82800000Y-77850001I0J249999D01*
G01*
X82800000Y-76949999D01*
G75*
G02*
X83049999Y-76700000I249999J0D01*
G01*
X83750001Y-76700000D01*
G75*
G02*
X84000000Y-76949999I0J-249999D01*
G01*
G37*
G36*
G01*
X82000000Y-76949999D02*
X82000000Y-77850001D01*
G75*
G02*
X81750001Y-78100000I-249999J0D01*
G01*
X81049999Y-78100000D01*
G75*
G02*
X80800000Y-77850001I0J249999D01*
G01*
X80800000Y-76949999D01*
G75*
G02*
X81049999Y-76700000I249999J0D01*
G01*
X81750001Y-76700000D01*
G75*
G02*
X82000000Y-76949999I0J-249999D01*
G01*
G37*
G36*
G01*
X90450001Y-142600000D02*
X89549999Y-142600000D01*
G75*
G02*
X89300000Y-142350001I0J249999D01*
G01*
X89300000Y-141649999D01*
G75*
G02*
X89549999Y-141400000I249999J0D01*
G01*
X90450001Y-141400000D01*
G75*
G02*
X90700000Y-141649999I0J-249999D01*
G01*
X90700000Y-142350001D01*
G75*
G02*
X90450001Y-142600000I-249999J0D01*
G01*
G37*
G36*
G01*
X90450001Y-140600000D02*
X89549999Y-140600000D01*
G75*
G02*
X89300000Y-140350001I0J249999D01*
G01*
X89300000Y-139649999D01*
G75*
G02*
X89549999Y-139400000I249999J0D01*
G01*
X90450001Y-139400000D01*
G75*
G02*
X90700000Y-139649999I0J-249999D01*
G01*
X90700000Y-140350001D01*
G75*
G02*
X90450001Y-140600000I-249999J0D01*
G01*
G37*
G36*
G01*
X95450001Y-140600000D02*
X94549999Y-140600000D01*
G75*
G02*
X94300000Y-140350001I0J249999D01*
G01*
X94300000Y-139649999D01*
G75*
G02*
X94549999Y-139400000I249999J0D01*
G01*
X95450001Y-139400000D01*
G75*
G02*
X95700000Y-139649999I0J-249999D01*
G01*
X95700000Y-140350001D01*
G75*
G02*
X95450001Y-140600000I-249999J0D01*
G01*
G37*
G36*
G01*
X95450001Y-142600000D02*
X94549999Y-142600000D01*
G75*
G02*
X94300000Y-142350001I0J249999D01*
G01*
X94300000Y-141649999D01*
G75*
G02*
X94549999Y-141400000I249999J0D01*
G01*
X95450001Y-141400000D01*
G75*
G02*
X95700000Y-141649999I0J-249999D01*
G01*
X95700000Y-142350001D01*
G75*
G02*
X95450001Y-142600000I-249999J0D01*
G01*
G37*
G36*
G01*
X139649999Y-58400000D02*
X140550001Y-58400000D01*
G75*
G02*
X140800000Y-58649999I0J-249999D01*
G01*
X140800000Y-59350001D01*
G75*
G02*
X140550001Y-59600000I-249999J0D01*
G01*
X139649999Y-59600000D01*
G75*
G02*
X139400000Y-59350001I0J249999D01*
G01*
X139400000Y-58649999D01*
G75*
G02*
X139649999Y-58400000I249999J0D01*
G01*
G37*
G36*
G01*
X139649999Y-60400000D02*
X140550001Y-60400000D01*
G75*
G02*
X140800000Y-60649999I0J-249999D01*
G01*
X140800000Y-61350001D01*
G75*
G02*
X140550001Y-61600000I-249999J0D01*
G01*
X139649999Y-61600000D01*
G75*
G02*
X139400000Y-61350001I0J249999D01*
G01*
X139400000Y-60649999D01*
G75*
G02*
X139649999Y-60400000I249999J0D01*
G01*
G37*
G36*
G01*
X144450001Y-61600000D02*
X143549999Y-61600000D01*
G75*
G02*
X143300000Y-61350001I0J249999D01*
G01*
X143300000Y-60649999D01*
G75*
G02*
X143549999Y-60400000I249999J0D01*
G01*
X144450001Y-60400000D01*
G75*
G02*
X144700000Y-60649999I0J-249999D01*
G01*
X144700000Y-61350001D01*
G75*
G02*
X144450001Y-61600000I-249999J0D01*
G01*
G37*
G36*
G01*
X144450001Y-59600000D02*
X143549999Y-59600000D01*
G75*
G02*
X143300000Y-59350001I0J249999D01*
G01*
X143300000Y-58649999D01*
G75*
G02*
X143549999Y-58400000I249999J0D01*
G01*
X144450001Y-58400000D01*
G75*
G02*
X144700000Y-58649999I0J-249999D01*
G01*
X144700000Y-59350001D01*
G75*
G02*
X144450001Y-59600000I-249999J0D01*
G01*
G37*
G36*
G01*
X131600000Y-81549999D02*
X131600000Y-82450001D01*
G75*
G02*
X131350001Y-82700000I-249999J0D01*
G01*
X130649999Y-82700000D01*
G75*
G02*
X130400000Y-82450001I0J249999D01*
G01*
X130400000Y-81549999D01*
G75*
G02*
X130649999Y-81300000I249999J0D01*
G01*
X131350001Y-81300000D01*
G75*
G02*
X131600000Y-81549999I0J-249999D01*
G01*
G37*
G36*
G01*
X133600000Y-81549999D02*
X133600000Y-82450001D01*
G75*
G02*
X133350001Y-82700000I-249999J0D01*
G01*
X132649999Y-82700000D01*
G75*
G02*
X132400000Y-82450001I0J249999D01*
G01*
X132400000Y-81549999D01*
G75*
G02*
X132649999Y-81300000I249999J0D01*
G01*
X133350001Y-81300000D01*
G75*
G02*
X133600000Y-81549999I0J-249999D01*
G01*
G37*
G36*
G01*
X161600000Y-85549999D02*
X161600000Y-86450001D01*
G75*
G02*
X161350001Y-86700000I-249999J0D01*
G01*
X160649999Y-86700000D01*
G75*
G02*
X160400000Y-86450001I0J249999D01*
G01*
X160400000Y-85549999D01*
G75*
G02*
X160649999Y-85300000I249999J0D01*
G01*
X161350001Y-85300000D01*
G75*
G02*
X161600000Y-85549999I0J-249999D01*
G01*
G37*
G36*
G01*
X163600000Y-85549999D02*
X163600000Y-86450001D01*
G75*
G02*
X163350001Y-86700000I-249999J0D01*
G01*
X162649999Y-86700000D01*
G75*
G02*
X162400000Y-86450001I0J249999D01*
G01*
X162400000Y-85549999D01*
G75*
G02*
X162649999Y-85300000I249999J0D01*
G01*
X163350001Y-85300000D01*
G75*
G02*
X163600000Y-85549999I0J-249999D01*
G01*
G37*
D15*
X104450000Y-84210000D03*
X103650000Y-84210000D03*
X102850000Y-84210000D03*
X102050000Y-84210000D03*
X101250000Y-84210000D03*
X100450000Y-84210000D03*
X99650000Y-84210000D03*
X98850000Y-84210000D03*
X98050000Y-84210000D03*
X97250000Y-84210000D03*
X96450000Y-84210000D03*
D16*
X94750000Y-85910000D03*
X94750000Y-86710000D03*
X94750000Y-87510000D03*
X94750000Y-88310000D03*
X94750000Y-89110000D03*
X94750000Y-89910000D03*
X94750000Y-90710000D03*
X94750000Y-91510000D03*
X94750000Y-92310000D03*
X94750000Y-93110000D03*
X94750000Y-93910000D03*
D15*
X96450000Y-95610000D03*
X97250000Y-95610000D03*
X98050000Y-95610000D03*
X98850000Y-95610000D03*
X99650000Y-95610000D03*
X100450000Y-95610000D03*
X101250000Y-95610000D03*
X102050000Y-95610000D03*
X102850000Y-95610000D03*
X103650000Y-95610000D03*
X104450000Y-95610000D03*
D16*
X106150000Y-93910000D03*
X106150000Y-93110000D03*
X106150000Y-92310000D03*
X106150000Y-91510000D03*
X106150000Y-90710000D03*
X106150000Y-89910000D03*
X106150000Y-89110000D03*
X106150000Y-88310000D03*
X106150000Y-87510000D03*
X106150000Y-86710000D03*
X106150000Y-85910000D03*
G36*
G01*
X130995000Y-77875000D02*
X130695000Y-77875000D01*
G75*
G02*
X130545000Y-77725000I0J150000D01*
G01*
X130545000Y-75975000D01*
G75*
G02*
X130695000Y-75825000I150000J0D01*
G01*
X130995000Y-75825000D01*
G75*
G02*
X131145000Y-75975000I0J-150000D01*
G01*
X131145000Y-77725000D01*
G75*
G02*
X130995000Y-77875000I-150000J0D01*
G01*
G37*
G36*
G01*
X132265000Y-77875000D02*
X131965000Y-77875000D01*
G75*
G02*
X131815000Y-77725000I0J150000D01*
G01*
X131815000Y-75975000D01*
G75*
G02*
X131965000Y-75825000I150000J0D01*
G01*
X132265000Y-75825000D01*
G75*
G02*
X132415000Y-75975000I0J-150000D01*
G01*
X132415000Y-77725000D01*
G75*
G02*
X132265000Y-77875000I-150000J0D01*
G01*
G37*
G36*
G01*
X133535000Y-77875000D02*
X133235000Y-77875000D01*
G75*
G02*
X133085000Y-77725000I0J150000D01*
G01*
X133085000Y-75975000D01*
G75*
G02*
X133235000Y-75825000I150000J0D01*
G01*
X133535000Y-75825000D01*
G75*
G02*
X133685000Y-75975000I0J-150000D01*
G01*
X133685000Y-77725000D01*
G75*
G02*
X133535000Y-77875000I-150000J0D01*
G01*
G37*
G36*
G01*
X134805000Y-77875000D02*
X134505000Y-77875000D01*
G75*
G02*
X134355000Y-77725000I0J150000D01*
G01*
X134355000Y-75975000D01*
G75*
G02*
X134505000Y-75825000I150000J0D01*
G01*
X134805000Y-75825000D01*
G75*
G02*
X134955000Y-75975000I0J-150000D01*
G01*
X134955000Y-77725000D01*
G75*
G02*
X134805000Y-77875000I-150000J0D01*
G01*
G37*
G36*
G01*
X136075000Y-77875000D02*
X135775000Y-77875000D01*
G75*
G02*
X135625000Y-77725000I0J150000D01*
G01*
X135625000Y-75975000D01*
G75*
G02*
X135775000Y-75825000I150000J0D01*
G01*
X136075000Y-75825000D01*
G75*
G02*
X136225000Y-75975000I0J-150000D01*
G01*
X136225000Y-77725000D01*
G75*
G02*
X136075000Y-77875000I-150000J0D01*
G01*
G37*
G36*
G01*
X137345000Y-77875000D02*
X137045000Y-77875000D01*
G75*
G02*
X136895000Y-77725000I0J150000D01*
G01*
X136895000Y-75975000D01*
G75*
G02*
X137045000Y-75825000I150000J0D01*
G01*
X137345000Y-75825000D01*
G75*
G02*
X137495000Y-75975000I0J-150000D01*
G01*
X137495000Y-77725000D01*
G75*
G02*
X137345000Y-77875000I-150000J0D01*
G01*
G37*
G36*
G01*
X138615000Y-77875000D02*
X138315000Y-77875000D01*
G75*
G02*
X138165000Y-77725000I0J150000D01*
G01*
X138165000Y-75975000D01*
G75*
G02*
X138315000Y-75825000I150000J0D01*
G01*
X138615000Y-75825000D01*
G75*
G02*
X138765000Y-75975000I0J-150000D01*
G01*
X138765000Y-77725000D01*
G75*
G02*
X138615000Y-77875000I-150000J0D01*
G01*
G37*
G36*
G01*
X139885000Y-77875000D02*
X139585000Y-77875000D01*
G75*
G02*
X139435000Y-77725000I0J150000D01*
G01*
X139435000Y-75975000D01*
G75*
G02*
X139585000Y-75825000I150000J0D01*
G01*
X139885000Y-75825000D01*
G75*
G02*
X140035000Y-75975000I0J-150000D01*
G01*
X140035000Y-77725000D01*
G75*
G02*
X139885000Y-77875000I-150000J0D01*
G01*
G37*
G36*
G01*
X141155000Y-77875000D02*
X140855000Y-77875000D01*
G75*
G02*
X140705000Y-77725000I0J150000D01*
G01*
X140705000Y-75975000D01*
G75*
G02*
X140855000Y-75825000I150000J0D01*
G01*
X141155000Y-75825000D01*
G75*
G02*
X141305000Y-75975000I0J-150000D01*
G01*
X141305000Y-77725000D01*
G75*
G02*
X141155000Y-77875000I-150000J0D01*
G01*
G37*
G36*
G01*
X142425000Y-77875000D02*
X142125000Y-77875000D01*
G75*
G02*
X141975000Y-77725000I0J150000D01*
G01*
X141975000Y-75975000D01*
G75*
G02*
X142125000Y-75825000I150000J0D01*
G01*
X142425000Y-75825000D01*
G75*
G02*
X142575000Y-75975000I0J-150000D01*
G01*
X142575000Y-77725000D01*
G75*
G02*
X142425000Y-77875000I-150000J0D01*
G01*
G37*
G36*
G01*
X143695000Y-77875000D02*
X143395000Y-77875000D01*
G75*
G02*
X143245000Y-77725000I0J150000D01*
G01*
X143245000Y-75975000D01*
G75*
G02*
X143395000Y-75825000I150000J0D01*
G01*
X143695000Y-75825000D01*
G75*
G02*
X143845000Y-75975000I0J-150000D01*
G01*
X143845000Y-77725000D01*
G75*
G02*
X143695000Y-77875000I-150000J0D01*
G01*
G37*
G36*
G01*
X144965000Y-77875000D02*
X144665000Y-77875000D01*
G75*
G02*
X144515000Y-77725000I0J150000D01*
G01*
X144515000Y-75975000D01*
G75*
G02*
X144665000Y-75825000I150000J0D01*
G01*
X144965000Y-75825000D01*
G75*
G02*
X145115000Y-75975000I0J-150000D01*
G01*
X145115000Y-77725000D01*
G75*
G02*
X144965000Y-77875000I-150000J0D01*
G01*
G37*
G36*
G01*
X146235000Y-77875000D02*
X145935000Y-77875000D01*
G75*
G02*
X145785000Y-77725000I0J150000D01*
G01*
X145785000Y-75975000D01*
G75*
G02*
X145935000Y-75825000I150000J0D01*
G01*
X146235000Y-75825000D01*
G75*
G02*
X146385000Y-75975000I0J-150000D01*
G01*
X146385000Y-77725000D01*
G75*
G02*
X146235000Y-77875000I-150000J0D01*
G01*
G37*
G36*
G01*
X147505000Y-77875000D02*
X147205000Y-77875000D01*
G75*
G02*
X147055000Y-77725000I0J150000D01*
G01*
X147055000Y-75975000D01*
G75*
G02*
X147205000Y-75825000I150000J0D01*
G01*
X147505000Y-75825000D01*
G75*
G02*
X147655000Y-75975000I0J-150000D01*
G01*
X147655000Y-77725000D01*
G75*
G02*
X147505000Y-77875000I-150000J0D01*
G01*
G37*
G36*
G01*
X147505000Y-68575000D02*
X147205000Y-68575000D01*
G75*
G02*
X147055000Y-68425000I0J150000D01*
G01*
X147055000Y-66675000D01*
G75*
G02*
X147205000Y-66525000I150000J0D01*
G01*
X147505000Y-66525000D01*
G75*
G02*
X147655000Y-66675000I0J-150000D01*
G01*
X147655000Y-68425000D01*
G75*
G02*
X147505000Y-68575000I-150000J0D01*
G01*
G37*
G36*
G01*
X146235000Y-68575000D02*
X145935000Y-68575000D01*
G75*
G02*
X145785000Y-68425000I0J150000D01*
G01*
X145785000Y-66675000D01*
G75*
G02*
X145935000Y-66525000I150000J0D01*
G01*
X146235000Y-66525000D01*
G75*
G02*
X146385000Y-66675000I0J-150000D01*
G01*
X146385000Y-68425000D01*
G75*
G02*
X146235000Y-68575000I-150000J0D01*
G01*
G37*
G36*
G01*
X144965000Y-68575000D02*
X144665000Y-68575000D01*
G75*
G02*
X144515000Y-68425000I0J150000D01*
G01*
X144515000Y-66675000D01*
G75*
G02*
X144665000Y-66525000I150000J0D01*
G01*
X144965000Y-66525000D01*
G75*
G02*
X145115000Y-66675000I0J-150000D01*
G01*
X145115000Y-68425000D01*
G75*
G02*
X144965000Y-68575000I-150000J0D01*
G01*
G37*
G36*
G01*
X143695000Y-68575000D02*
X143395000Y-68575000D01*
G75*
G02*
X143245000Y-68425000I0J150000D01*
G01*
X143245000Y-66675000D01*
G75*
G02*
X143395000Y-66525000I150000J0D01*
G01*
X143695000Y-66525000D01*
G75*
G02*
X143845000Y-66675000I0J-150000D01*
G01*
X143845000Y-68425000D01*
G75*
G02*
X143695000Y-68575000I-150000J0D01*
G01*
G37*
G36*
G01*
X142425000Y-68575000D02*
X142125000Y-68575000D01*
G75*
G02*
X141975000Y-68425000I0J150000D01*
G01*
X141975000Y-66675000D01*
G75*
G02*
X142125000Y-66525000I150000J0D01*
G01*
X142425000Y-66525000D01*
G75*
G02*
X142575000Y-66675000I0J-150000D01*
G01*
X142575000Y-68425000D01*
G75*
G02*
X142425000Y-68575000I-150000J0D01*
G01*
G37*
G36*
G01*
X141155000Y-68575000D02*
X140855000Y-68575000D01*
G75*
G02*
X140705000Y-68425000I0J150000D01*
G01*
X140705000Y-66675000D01*
G75*
G02*
X140855000Y-66525000I150000J0D01*
G01*
X141155000Y-66525000D01*
G75*
G02*
X141305000Y-66675000I0J-150000D01*
G01*
X141305000Y-68425000D01*
G75*
G02*
X141155000Y-68575000I-150000J0D01*
G01*
G37*
G36*
G01*
X139885000Y-68575000D02*
X139585000Y-68575000D01*
G75*
G02*
X139435000Y-68425000I0J150000D01*
G01*
X139435000Y-66675000D01*
G75*
G02*
X139585000Y-66525000I150000J0D01*
G01*
X139885000Y-66525000D01*
G75*
G02*
X140035000Y-66675000I0J-150000D01*
G01*
X140035000Y-68425000D01*
G75*
G02*
X139885000Y-68575000I-150000J0D01*
G01*
G37*
G36*
G01*
X138615000Y-68575000D02*
X138315000Y-68575000D01*
G75*
G02*
X138165000Y-68425000I0J150000D01*
G01*
X138165000Y-66675000D01*
G75*
G02*
X138315000Y-66525000I150000J0D01*
G01*
X138615000Y-66525000D01*
G75*
G02*
X138765000Y-66675000I0J-150000D01*
G01*
X138765000Y-68425000D01*
G75*
G02*
X138615000Y-68575000I-150000J0D01*
G01*
G37*
G36*
G01*
X137345000Y-68575000D02*
X137045000Y-68575000D01*
G75*
G02*
X136895000Y-68425000I0J150000D01*
G01*
X136895000Y-66675000D01*
G75*
G02*
X137045000Y-66525000I150000J0D01*
G01*
X137345000Y-66525000D01*
G75*
G02*
X137495000Y-66675000I0J-150000D01*
G01*
X137495000Y-68425000D01*
G75*
G02*
X137345000Y-68575000I-150000J0D01*
G01*
G37*
G36*
G01*
X136075000Y-68575000D02*
X135775000Y-68575000D01*
G75*
G02*
X135625000Y-68425000I0J150000D01*
G01*
X135625000Y-66675000D01*
G75*
G02*
X135775000Y-66525000I150000J0D01*
G01*
X136075000Y-66525000D01*
G75*
G02*
X136225000Y-66675000I0J-150000D01*
G01*
X136225000Y-68425000D01*
G75*
G02*
X136075000Y-68575000I-150000J0D01*
G01*
G37*
G36*
G01*
X134805000Y-68575000D02*
X134505000Y-68575000D01*
G75*
G02*
X134355000Y-68425000I0J150000D01*
G01*
X134355000Y-66675000D01*
G75*
G02*
X134505000Y-66525000I150000J0D01*
G01*
X134805000Y-66525000D01*
G75*
G02*
X134955000Y-66675000I0J-150000D01*
G01*
X134955000Y-68425000D01*
G75*
G02*
X134805000Y-68575000I-150000J0D01*
G01*
G37*
G36*
G01*
X133535000Y-68575000D02*
X133235000Y-68575000D01*
G75*
G02*
X133085000Y-68425000I0J150000D01*
G01*
X133085000Y-66675000D01*
G75*
G02*
X133235000Y-66525000I150000J0D01*
G01*
X133535000Y-66525000D01*
G75*
G02*
X133685000Y-66675000I0J-150000D01*
G01*
X133685000Y-68425000D01*
G75*
G02*
X133535000Y-68575000I-150000J0D01*
G01*
G37*
G36*
G01*
X132265000Y-68575000D02*
X131965000Y-68575000D01*
G75*
G02*
X131815000Y-68425000I0J150000D01*
G01*
X131815000Y-66675000D01*
G75*
G02*
X131965000Y-66525000I150000J0D01*
G01*
X132265000Y-66525000D01*
G75*
G02*
X132415000Y-66675000I0J-150000D01*
G01*
X132415000Y-68425000D01*
G75*
G02*
X132265000Y-68575000I-150000J0D01*
G01*
G37*
G36*
G01*
X130995000Y-68575000D02*
X130695000Y-68575000D01*
G75*
G02*
X130545000Y-68425000I0J150000D01*
G01*
X130545000Y-66675000D01*
G75*
G02*
X130695000Y-66525000I150000J0D01*
G01*
X130995000Y-66525000D01*
G75*
G02*
X131145000Y-66675000I0J-150000D01*
G01*
X131145000Y-68425000D01*
G75*
G02*
X130995000Y-68575000I-150000J0D01*
G01*
G37*
G36*
G01*
X143375000Y-82475000D02*
X143375000Y-81525000D01*
G75*
G02*
X143625000Y-81275000I250000J0D01*
G01*
X144300000Y-81275000D01*
G75*
G02*
X144550000Y-81525000I0J-250000D01*
G01*
X144550000Y-82475000D01*
G75*
G02*
X144300000Y-82725000I-250000J0D01*
G01*
X143625000Y-82725000D01*
G75*
G02*
X143375000Y-82475000I0J250000D01*
G01*
G37*
G36*
G01*
X145450000Y-82475000D02*
X145450000Y-81525000D01*
G75*
G02*
X145700000Y-81275000I250000J0D01*
G01*
X146375000Y-81275000D01*
G75*
G02*
X146625000Y-81525000I0J-250000D01*
G01*
X146625000Y-82475000D01*
G75*
G02*
X146375000Y-82725000I-250000J0D01*
G01*
X145700000Y-82725000D01*
G75*
G02*
X145450000Y-82475000I0J250000D01*
G01*
G37*
M02*
