M48
; DRILL file {KiCad 5.1.10-1.fc34} date Sun Jun 27 19:24:15 2021
; FORMAT={-:-/ absolute / metric / decimal}
; #@! TF.CreationDate,2021-06-27T19:24:15+03:00
; #@! TF.GenerationSoftware,Kicad,Pcbnew,5.1.10-1.fc34
; #@! TF.FileFunction,Plated,1,2,PTH
FMAT,2
METRIC
T1C0.400
T2C0.700
T3C0.800
T4C1.000
T5C1.100
T6C1.500
%
G90
G05
T1
X72.5Y-105.5
X73.2Y-75.6
X74.5Y-105.5
X77.77Y-79.77
X77.8Y-84.8
X78.0Y-69.6
X78.9Y-112.0
X79.1Y-130.0
X79.6Y-80.4
X79.6Y-83.4
X80.0Y-69.6
X80.0Y-71.8
X81.2Y-112.0
X81.4Y-89.4
X81.5Y-130.0
X83.5Y-129.0
X84.0Y-84.6
X84.0Y-89.4
X84.0Y-94.2
X88.6Y-82.1
X90.5Y-91.5
X90.8Y-86.7
X92.4Y-140.6
X92.4Y-143.0
X94.9Y-84.2
X95.0Y-97.6
X96.4Y-86.7
X100.4Y-77.6
X100.4Y-85.8
X102.5Y-111.3
X102.95Y-77.45
X106.7Y-98.3
X107.4Y-82.3
X108.1Y-127.8
X108.9Y-80.7
X112.3Y-94.5
X112.5Y-85.4
X119.4Y-116.7
X119.4Y-129.7
X130.0Y-112.7
X130.0Y-125.6
X130.9Y-79.7
X133.0Y-88.9
X143.15Y-91.05
X145.5Y-88.7
X148.8Y-82.0
X150.0Y-91.5
X150.3Y-60.5
X154.1Y-70.6
X156.3Y-65.5
X156.3Y-67.9
X162.9Y-71.9
X164.2Y-70.8
T2
X73.9Y-65.1
X74.7Y-63.5
X75.5Y-65.1
X76.3Y-63.5
X77.1Y-65.1
T3
X73.0Y-137.52
X73.0Y-139.56
X73.0Y-141.6
X75.54Y-136.5
X75.54Y-138.54
X75.54Y-140.58
X88.19Y-86.96
X88.19Y-91.84
X158.3Y-64.26
X159.32Y-66.8
X160.34Y-64.26
X161.36Y-66.8
X162.38Y-64.26
X163.4Y-66.8
T4
X73.46Y-83.92
X73.46Y-86.46
X73.46Y-89.0
X75.6Y-150.4
X76.0Y-83.92
X76.0Y-86.46
X76.0Y-89.0
X78.14Y-150.4
X84.6Y-59.4
X84.6Y-61.94
X87.14Y-59.4
X87.14Y-61.94
X89.68Y-59.4
X89.68Y-61.94
X90.96Y-148.5
X90.96Y-151.04
X92.22Y-59.4
X92.22Y-61.94
X93.5Y-148.5
X93.5Y-151.04
X94.76Y-59.4
X94.76Y-61.94
X97.3Y-59.4
X97.3Y-61.94
X99.84Y-59.4
X99.84Y-61.94
X102.38Y-59.4
X102.38Y-61.94
X132.22Y-95.96
X132.22Y-98.5
X134.76Y-95.96
X134.76Y-98.5
X137.3Y-95.96
X137.3Y-98.5
X139.84Y-95.96
X139.84Y-98.5
X142.38Y-95.96
X142.38Y-98.5
X144.92Y-95.96
X144.92Y-98.5
X147.46Y-95.96
X147.46Y-98.5
X150.0Y-95.96
X150.0Y-98.5
X162.46Y-96.0
X165.0Y-96.0
T5
X72.5Y-121.1
X72.5Y-127.6
X77.0Y-121.1
X77.0Y-127.6
X93.0Y-112.5
X93.0Y-119.0
X93.0Y-125.5
X93.0Y-132.0
X97.5Y-112.5
X97.5Y-119.0
X97.5Y-125.5
X97.5Y-132.0
X106.0Y-112.5
X106.0Y-119.0
X106.0Y-125.5
X106.0Y-132.0
X110.5Y-112.5
X110.5Y-119.0
X110.5Y-125.5
X110.5Y-132.0
X137.0Y-111.5
X137.0Y-118.0
X137.0Y-124.5
X137.0Y-131.0
X141.5Y-111.5
X141.5Y-118.0
X141.5Y-124.5
X141.5Y-131.0
X150.0Y-111.5
X150.0Y-118.0
X150.0Y-124.5
X150.0Y-131.0
X154.5Y-111.5
X154.5Y-118.0
X154.5Y-124.5
X154.5Y-131.0
T6
X106.19Y-141.96
X112.54Y-139.42
X141.65Y-140.54
X148.0Y-138.0
T2
X71.95Y-58.45G85X71.95Y-59.75
G05
X79.05Y-58.45G85X79.05Y-59.75
G05
T0
M30
