  0
SECTION
  2
HEADER
  9
$ACADVER
  1
AC1009
  9
$EXTMIN
 10
0.0
 20
0.0
 30
0.0
  9
$EXTMAX
 10
1000.0
 20
1000.0
 30
0.0
  9
$FILLMODE
 70
 0
  9
$SPLFRAME
 70
 1
  0
ENDSEC
  0
SECTION
  2
TABLES
  0
TABLE
  2
LAYER
 70
1
  0
LAYER
  2
0
 70
     0
 62
     7
  6
CONTINUOUS
  0
ENDTAB
  0
ENDSEC
  0
SECTION
  2
ENTITIES
  0
LINE
  8
0
 62
     0
 10
0.0950846
 20
114.558
 30
0.0
 11
400.145
 21
114.558
 31
0.0
  0
LINE
  8
0
 62
     0
 10
400.145
 20
114.558
 30
0.0
 11
400.145
 21
0.257693
 31
0.0
  0
LINE
  8
0
 62
     0
 10
400.145
 20
0.257693
 30
0.0
 11
0.0950846
 21
0.257693
 31
0.0
  0
LINE
  8
0
 62
     0
 10
0.0950846
 20
0.257693
 30
0.0
 11
0.0950846
 21
114.558
 31
0.0
  0
LINE
  8
0
 62
     0
 10
238.362
 20
16.7845
 30
0.0
 11
238.362
 21
12.0826
 31
0.0
  0
LINE
  8
0
 62
     0
 10
238.362
 20
12.0826
 30
0.0
 11
236.838
 21
12.0826
 31
0.0
  0
LINE
  8
0
 62
     0
 10
236.838
 20
12.0826
 30
0.0
 11
236.838
 21
15.3142
 31
0.0
  0
LINE
  8
0
 62
     0
 10
236.838
 20
15.3142
 30
0.0
 11
230.087
 21
15.3142
 31
0.0
  0
LINE
  8
0
 62
     0
 10
230.087
 20
15.3142
 30
0.0
 11
230.087
 21
12.0826
 31
0.0
  0
LINE
  8
0
 62
     0
 10
230.087
 20
12.0826
 30
0.0
 11
229.263
 21
12.0826
 31
0.0
  0
LINE
  8
0
 62
     0
 10
229.263
 20
12.0826
 30
0.0
 11
229.263
 21
9.28384
 31
0.0
  0
LINE
  8
0
 62
     0
 10
229.263
 20
9.28384
 30
0.0
 11
230.087
 21
9.28384
 31
0.0
  0
LINE
  8
0
 62
     0
 10
230.087
 20
9.28384
 30
0.0
 11
230.087
 21
3.01377
 31
0.0
  0
LINE
  8
0
 62
     0
 10
230.087
 20
3.01377
 30
0.0
 11
231.812
 21
3.01377
 31
0.0
  0
LINE
  8
0
 62
     0
 10
231.812
 20
3.01377
 30
0.0
 11
231.812
 21
1.81488
 31
0.0
  0
LINE
  8
0
 62
     0
 10
231.812
 20
1.81488
 30
0.0
 11
235.113
 21
1.81488
 31
0.0
  0
LINE
  8
0
 62
     0
 10
235.113
 20
1.81488
 30
0.0
 11
235.113
 21
3.01377
 31
0.0
  0
LINE
  8
0
 62
     0
 10
235.113
 20
3.01377
 30
0.0
 11
236.838
 21
3.01377
 31
0.0
  0
LINE
  8
0
 62
     0
 10
236.838
 20
3.01377
 30
0.0
 11
236.838
 21
7.48411
 31
0.0
  0
LINE
  8
0
 62
     0
 10
236.838
 20
7.48411
 30
0.0
 11
238.362
 21
7.48411
 31
0.0
  0
LINE
  8
0
 62
     0
 10
238.362
 20
7.48411
 30
0.0
 11
238.362
 21
2.78364
 31
0.0
  0
LINE
  8
0
 62
     0
 10
238.362
 20
2.78364
 30
0.0
 11
252.361
 21
2.78364
 31
0.0
  0
LINE
  8
0
 62
     0
 10
252.361
 20
2.78364
 30
0.0
 11
252.361
 21
7.48411
 31
0.0
  0
LINE
  8
0
 62
     0
 10
252.361
 20
7.48411
 30
0.0
 11
253.887
 21
7.48411
 31
0.0
  0
LINE
  8
0
 62
     0
 10
253.887
 20
7.48411
 30
0.0
 11
253.887
 21
3.01377
 31
0.0
  0
LINE
  8
0
 62
     0
 10
253.887
 20
3.01377
 30
0.0
 11
255.611
 21
3.01377
 31
0.0
  0
LINE
  8
0
 62
     0
 10
255.611
 20
3.01377
 30
0.0
 11
255.611
 21
1.81488
 31
0.0
  0
LINE
  8
0
 62
     0
 10
255.611
 20
1.81488
 30
0.0
 11
258.913
 21
1.81488
 31
0.0
  0
LINE
  8
0
 62
     0
 10
258.913
 20
1.81488
 30
0.0
 11
258.913
 21
3.01377
 31
0.0
  0
LINE
  8
0
 62
     0
 10
258.913
 20
3.01377
 30
0.0
 11
260.638
 21
3.01377
 31
0.0
  0
LINE
  8
0
 62
     0
 10
260.638
 20
3.01377
 30
0.0
 11
260.638
 21
9.28384
 31
0.0
  0
LINE
  8
0
 62
     0
 10
260.638
 20
9.28384
 30
0.0
 11
261.462
 21
9.28384
 31
0.0
  0
LINE
  8
0
 62
     0
 10
261.462
 20
9.28384
 30
0.0
 11
261.462
 21
12.0826
 31
0.0
  0
LINE
  8
0
 62
     0
 10
261.462
 20
12.0826
 30
0.0
 11
260.638
 21
12.0826
 31
0.0
  0
LINE
  8
0
 62
     0
 10
260.638
 20
12.0826
 30
0.0
 11
260.638
 21
15.3142
 31
0.0
  0
LINE
  8
0
 62
     0
 10
260.638
 20
15.3142
 30
0.0
 11
253.887
 21
15.3142
 31
0.0
  0
LINE
  8
0
 62
     0
 10
253.887
 20
15.3142
 30
0.0
 11
253.887
 21
12.0826
 31
0.0
  0
LINE
  8
0
 62
     0
 10
253.887
 20
12.0826
 30
0.0
 11
252.361
 21
12.0826
 31
0.0
  0
LINE
  8
0
 62
     0
 10
252.361
 20
12.0826
 30
0.0
 11
252.361
 21
16.7845
 31
0.0
  0
LINE
  8
0
 62
     0
 10
252.361
 20
16.7845
 30
0.0
 11
238.362
 21
16.7845
 31
0.0
  0
LINE
  8
0
 62
     0
 10
109.776
 20
16.7845
 30
0.0
 11
109.776
 21
12.0826
 31
0.0
  0
LINE
  8
0
 62
     0
 10
109.776
 20
12.0826
 30
0.0
 11
108.251
 21
12.0826
 31
0.0
  0
LINE
  8
0
 62
     0
 10
108.251
 20
12.0826
 30
0.0
 11
108.251
 21
15.3142
 31
0.0
  0
LINE
  8
0
 62
     0
 10
108.251
 20
15.3142
 30
0.0
 11
101.501
 21
15.3142
 31
0.0
  0
LINE
  8
0
 62
     0
 10
101.501
 20
15.3142
 30
0.0
 11
101.501
 21
12.0826
 31
0.0
  0
LINE
  8
0
 62
     0
 10
101.501
 20
12.0826
 30
0.0
 11
100.675
 21
12.0826
 31
0.0
  0
LINE
  8
0
 62
     0
 10
100.675
 20
12.0826
 30
0.0
 11
100.675
 21
9.28384
 31
0.0
  0
LINE
  8
0
 62
     0
 10
100.675
 20
9.28384
 30
0.0
 11
101.501
 21
9.28384
 31
0.0
  0
LINE
  8
0
 62
     0
 10
101.501
 20
9.28384
 30
0.0
 11
101.501
 21
3.01377
 31
0.0
  0
LINE
  8
0
 62
     0
 10
101.501
 20
3.01377
 30
0.0
 11
103.226
 21
3.01377
 31
0.0
  0
LINE
  8
0
 62
     0
 10
103.226
 20
3.01377
 30
0.0
 11
103.226
 21
1.81488
 31
0.0
  0
LINE
  8
0
 62
     0
 10
103.226
 20
1.81488
 30
0.0
 11
106.525
 21
1.81488
 31
0.0
  0
LINE
  8
0
 62
     0
 10
106.525
 20
1.81488
 30
0.0
 11
106.525
 21
3.01377
 31
0.0
  0
LINE
  8
0
 62
     0
 10
106.525
 20
3.01377
 30
0.0
 11
108.251
 21
3.01377
 31
0.0
  0
LINE
  8
0
 62
     0
 10
108.251
 20
3.01377
 30
0.0
 11
108.251
 21
7.48411
 31
0.0
  0
LINE
  8
0
 62
     0
 10
108.251
 20
7.48411
 30
0.0
 11
109.776
 21
7.48411
 31
0.0
  0
LINE
  8
0
 62
     0
 10
109.776
 20
7.48411
 30
0.0
 11
109.776
 21
2.78364
 31
0.0
  0
LINE
  8
0
 62
     0
 10
109.776
 20
2.78364
 30
0.0
 11
123.775
 21
2.78364
 31
0.0
  0
LINE
  8
0
 62
     0
 10
123.775
 20
2.78364
 30
0.0
 11
123.775
 21
7.48411
 31
0.0
  0
LINE
  8
0
 62
     0
 10
123.775
 20
7.48411
 30
0.0
 11
125.3
 21
7.48411
 31
0.0
  0
LINE
  8
0
 62
     0
 10
125.3
 20
7.48411
 30
0.0
 11
125.3
 21
3.01377
 31
0.0
  0
LINE
  8
0
 62
     0
 10
125.3
 20
3.01377
 30
0.0
 11
127.025
 21
3.01377
 31
0.0
  0
LINE
  8
0
 62
     0
 10
127.025
 20
3.01377
 30
0.0
 11
127.025
 21
1.81488
 31
0.0
  0
LINE
  8
0
 62
     0
 10
127.025
 20
1.81488
 30
0.0
 11
130.325
 21
1.81488
 31
0.0
  0
LINE
  8
0
 62
     0
 10
130.325
 20
1.81488
 30
0.0
 11
130.325
 21
3.01377
 31
0.0
  0
LINE
  8
0
 62
     0
 10
130.325
 20
3.01377
 30
0.0
 11
132.05
 21
3.01377
 31
0.0
  0
LINE
  8
0
 62
     0
 10
132.05
 20
3.01377
 30
0.0
 11
132.05
 21
9.28384
 31
0.0
  0
LINE
  8
0
 62
     0
 10
132.05
 20
9.28384
 30
0.0
 11
132.876
 21
9.28384
 31
0.0
  0
LINE
  8
0
 62
     0
 10
132.876
 20
9.28384
 30
0.0
 11
132.876
 21
12.0826
 31
0.0
  0
LINE
  8
0
 62
     0
 10
132.876
 20
12.0826
 30
0.0
 11
132.05
 21
12.0826
 31
0.0
  0
LINE
  8
0
 62
     0
 10
132.05
 20
12.0826
 30
0.0
 11
132.05
 21
15.3142
 31
0.0
  0
LINE
  8
0
 62
     0
 10
132.05
 20
15.3142
 30
0.0
 11
125.3
 21
15.3142
 31
0.0
  0
LINE
  8
0
 62
     0
 10
125.3
 20
15.3142
 30
0.0
 11
125.3
 21
12.0826
 31
0.0
  0
LINE
  8
0
 62
     0
 10
125.3
 20
12.0826
 30
0.0
 11
123.775
 21
12.0826
 31
0.0
  0
LINE
  8
0
 62
     0
 10
123.775
 20
12.0826
 30
0.0
 11
123.775
 21
16.7845
 31
0.0
  0
LINE
  8
0
 62
     0
 10
123.775
 20
16.7845
 30
0.0
 11
109.776
 21
16.7845
 31
0.0
  0
LINE
  8
0
 62
     0
 10
383.621
 20
16.7845
 30
0.0
 11
397.619
 21
16.7845
 31
0.0
  0
LINE
  8
0
 62
     0
 10
397.619
 20
16.7845
 30
0.0
 11
397.619
 21
2.78364
 31
0.0
  0
LINE
  8
0
 62
     0
 10
397.619
 20
2.78364
 30
0.0
 11
383.621
 21
2.78364
 31
0.0
  0
LINE
  8
0
 62
     0
 10
383.621
 20
2.78364
 30
0.0
 11
383.621
 21
16.7845
 31
0.0
  0
LINE
  8
0
 62
     0
 10
364.571
 20
16.7845
 30
0.0
 11
378.569
 21
16.7845
 31
0.0
  0
LINE
  8
0
 62
     0
 10
378.569
 20
16.7845
 30
0.0
 11
378.569
 21
2.78364
 31
0.0
  0
LINE
  8
0
 62
     0
 10
378.569
 20
2.78364
 30
0.0
 11
364.571
 21
2.78364
 31
0.0
  0
LINE
  8
0
 62
     0
 10
364.571
 20
2.78364
 30
0.0
 11
364.571
 21
16.7845
 31
0.0
  0
LINE
  8
0
 62
     0
 10
345.52
 20
16.7845
 30
0.0
 11
359.519
 21
16.7845
 31
0.0
  0
LINE
  8
0
 62
     0
 10
359.519
 20
16.7845
 30
0.0
 11
359.519
 21
2.78364
 31
0.0
  0
LINE
  8
0
 62
     0
 10
359.519
 20
2.78364
 30
0.0
 11
345.52
 21
2.78364
 31
0.0
  0
LINE
  8
0
 62
     0
 10
345.52
 20
2.78364
 30
0.0
 11
345.52
 21
16.7845
 31
0.0
  0
LINE
  8
0
 62
     0
 10
326.47
 20
16.7845
 30
0.0
 11
340.469
 21
16.7845
 31
0.0
  0
LINE
  8
0
 62
     0
 10
340.469
 20
16.7845
 30
0.0
 11
340.469
 21
2.78364
 31
0.0
  0
LINE
  8
0
 62
     0
 10
340.469
 20
2.78364
 30
0.0
 11
326.47
 21
2.78364
 31
0.0
  0
LINE
  8
0
 62
     0
 10
326.47
 20
2.78364
 30
0.0
 11
326.47
 21
16.7845
 31
0.0
  0
LINE
  8
0
 62
     0
 10
307.42
 20
16.7845
 30
0.0
 11
321.419
 21
16.7845
 31
0.0
  0
LINE
  8
0
 62
     0
 10
321.419
 20
16.7845
 30
0.0
 11
321.419
 21
2.78364
 31
0.0
  0
LINE
  8
0
 62
     0
 10
321.419
 20
2.78364
 30
0.0
 11
307.42
 21
2.78364
 31
0.0
  0
LINE
  8
0
 62
     0
 10
307.42
 20
2.78364
 30
0.0
 11
307.42
 21
16.7845
 31
0.0
  0
LINE
  8
0
 62
     0
 10
288.37
 20
16.7845
 30
0.0
 11
302.369
 21
16.7845
 31
0.0
  0
LINE
  8
0
 62
     0
 10
302.369
 20
16.7845
 30
0.0
 11
302.369
 21
2.78364
 31
0.0
  0
LINE
  8
0
 62
     0
 10
302.369
 20
2.78364
 30
0.0
 11
288.37
 21
2.78364
 31
0.0
  0
LINE
  8
0
 62
     0
 10
288.37
 20
2.78364
 30
0.0
 11
288.37
 21
16.7845
 31
0.0
  0
LINE
  8
0
 62
     0
 10
269.32
 20
16.7845
 30
0.0
 11
283.319
 21
16.7845
 31
0.0
  0
LINE
  8
0
 62
     0
 10
283.319
 20
16.7845
 30
0.0
 11
283.319
 21
2.78364
 31
0.0
  0
LINE
  8
0
 62
     0
 10
283.319
 20
2.78364
 30
0.0
 11
269.32
 21
2.78364
 31
0.0
  0
LINE
  8
0
 62
     0
 10
269.32
 20
2.78364
 30
0.0
 11
269.32
 21
16.7845
 31
0.0
  0
LINE
  8
0
 62
     0
 10
74.0572
 20
16.7845
 30
0.0
 11
88.0565
 21
16.7845
 31
0.0
  0
LINE
  8
0
 62
     0
 10
88.0565
 20
16.7845
 30
0.0
 11
88.0565
 21
2.78364
 31
0.0
  0
LINE
  8
0
 62
     0
 10
88.0565
 20
2.78364
 30
0.0
 11
74.0572
 21
2.78364
 31
0.0
  0
LINE
  8
0
 62
     0
 10
74.0572
 20
2.78364
 30
0.0
 11
74.0572
 21
16.7845
 31
0.0
  0
LINE
  8
0
 62
     0
 10
52.626
 20
16.7845
 30
0.0
 11
66.6253
 21
16.7845
 31
0.0
  0
LINE
  8
0
 62
     0
 10
66.6253
 20
16.7845
 30
0.0
 11
66.6253
 21
2.78364
 31
0.0
  0
LINE
  8
0
 62
     0
 10
66.6253
 20
2.78364
 30
0.0
 11
52.626
 21
2.78364
 31
0.0
  0
LINE
  8
0
 62
     0
 10
52.626
 20
2.78364
 30
0.0
 11
52.626
 21
16.7845
 31
0.0
  0
LINE
  8
0
 62
     0
 10
28.812
 20
16.7845
 30
0.0
 11
42.8128
 21
16.7845
 31
0.0
  0
LINE
  8
0
 62
     0
 10
42.8128
 20
16.7845
 30
0.0
 11
42.8128
 21
2.78364
 31
0.0
  0
LINE
  8
0
 62
     0
 10
42.8128
 20
2.78364
 30
0.0
 11
28.812
 21
2.78364
 31
0.0
  0
LINE
  8
0
 62
     0
 10
28.812
 20
2.78364
 30
0.0
 11
28.812
 21
16.7845
 31
0.0
  0
LINE
  8
0
 62
     0
 10
5.00091
 20
16.7845
 30
0.0
 11
19.0004
 21
16.7845
 31
0.0
  0
LINE
  8
0
 62
     0
 10
19.0004
 20
16.7845
 30
0.0
 11
19.0004
 21
2.78364
 31
0.0
  0
LINE
  8
0
 62
     0
 10
19.0004
 20
2.78364
 30
0.0
 11
5.00091
 21
2.78364
 31
0.0
  0
LINE
  8
0
 62
     0
 10
5.00091
 20
2.78364
 30
0.0
 11
5.00091
 21
16.7845
 31
0.0
  0
LINE
  8
0
 62
     0
 10
14.5259
 20
35.833
 30
0.0
 11
14.5259
 21
31.1326
 31
0.0
  0
LINE
  8
0
 62
     0
 10
14.5259
 20
31.1326
 30
0.0
 11
13.0004
 21
31.1326
 31
0.0
  0
LINE
  8
0
 62
     0
 10
13.0004
 20
31.1326
 30
0.0
 11
13.0004
 21
34.3628
 31
0.0
  0
LINE
  8
0
 62
     0
 10
13.0004
 20
34.3628
 30
0.0
 11
6.2508
 21
34.3628
 31
0.0
  0
LINE
  8
0
 62
     0
 10
6.2508
 20
34.3628
 30
0.0
 11
6.2508
 21
31.1326
 31
0.0
  0
LINE
  8
0
 62
     0
 10
6.2508
 20
31.1326
 30
0.0
 11
5.42533
 21
31.1326
 31
0.0
  0
LINE
  8
0
 62
     0
 10
5.42533
 20
31.1326
 30
0.0
 11
5.42533
 21
28.3338
 31
0.0
  0
LINE
  8
0
 62
     0
 10
5.42533
 20
28.3338
 30
0.0
 11
6.2508
 21
28.3338
 31
0.0
  0
LINE
  8
0
 62
     0
 10
6.2508
 20
28.3338
 30
0.0
 11
6.2508
 21
22.0638
 31
0.0
  0
LINE
  8
0
 62
     0
 10
6.2508
 20
22.0638
 30
0.0
 11
7.97609
 21
22.0638
 31
0.0
  0
LINE
  8
0
 62
     0
 10
7.97609
 20
22.0638
 30
0.0
 11
7.97609
 21
20.8635
 31
0.0
  0
LINE
  8
0
 62
     0
 10
7.97609
 20
20.8635
 30
0.0
 11
11.2751
 21
20.8635
 31
0.0
  0
LINE
  8
0
 62
     0
 10
11.2751
 20
20.8635
 30
0.0
 11
11.2751
 21
22.0638
 31
0.0
  0
LINE
  8
0
 62
     0
 10
11.2751
 20
22.0638
 30
0.0
 11
13.0004
 21
22.0638
 31
0.0
  0
LINE
  8
0
 62
     0
 10
13.0004
 20
22.0638
 30
0.0
 11
13.0004
 21
26.5341
 31
0.0
  0
LINE
  8
0
 62
     0
 10
13.0004
 20
26.5341
 30
0.0
 11
14.5259
 21
26.5341
 31
0.0
  0
LINE
  8
0
 62
     0
 10
14.5259
 20
26.5341
 30
0.0
 11
14.5259
 21
21.8336
 31
0.0
  0
LINE
  8
0
 62
     0
 10
14.5259
 20
21.8336
 30
0.0
 11
28.5254
 21
21.8336
 31
0.0
  0
LINE
  8
0
 62
     0
 10
28.5254
 20
21.8336
 30
0.0
 11
28.5254
 21
26.5341
 31
0.0
  0
LINE
  8
0
 62
     0
 10
28.5254
 20
26.5341
 30
0.0
 11
30.0509
 21
26.5341
 31
0.0
  0
LINE
  8
0
 62
     0
 10
30.0509
 20
26.5341
 30
0.0
 11
30.0509
 21
22.0638
 31
0.0
  0
LINE
  8
0
 62
     0
 10
30.0509
 20
22.0638
 30
0.0
 11
31.7748
 21
22.0638
 31
0.0
  0
LINE
  8
0
 62
     0
 10
31.7748
 20
22.0638
 30
0.0
 11
31.7748
 21
20.8635
 31
0.0
  0
LINE
  8
0
 62
     0
 10
31.7748
 20
20.8635
 30
0.0
 11
35.0752
 21
20.8635
 31
0.0
  0
LINE
  8
0
 62
     0
 10
35.0752
 20
20.8635
 30
0.0
 11
35.0752
 21
22.0638
 31
0.0
  0
LINE
  8
0
 62
     0
 10
35.0752
 20
22.0638
 30
0.0
 11
36.8004
 21
22.0638
 31
0.0
  0
LINE
  8
0
 62
     0
 10
36.8004
 20
22.0638
 30
0.0
 11
36.8004
 21
28.3338
 31
0.0
  0
LINE
  8
0
 62
     0
 10
36.8004
 20
28.3338
 30
0.0
 11
37.6259
 21
28.3338
 31
0.0
  0
LINE
  8
0
 62
     0
 10
37.6259
 20
28.3338
 30
0.0
 11
37.6259
 21
31.1326
 31
0.0
  0
LINE
  8
0
 62
     0
 10
37.6259
 20
31.1326
 30
0.0
 11
36.8004
 21
31.1326
 31
0.0
  0
LINE
  8
0
 62
     0
 10
36.8004
 20
31.1326
 30
0.0
 11
36.8004
 21
34.3628
 31
0.0
  0
LINE
  8
0
 62
     0
 10
36.8004
 20
34.3628
 30
0.0
 11
30.0509
 21
34.3628
 31
0.0
  0
LINE
  8
0
 62
     0
 10
30.0509
 20
34.3628
 30
0.0
 11
30.0509
 21
31.1326
 31
0.0
  0
LINE
  8
0
 62
     0
 10
30.0509
 20
31.1326
 30
0.0
 11
28.5254
 21
31.1326
 31
0.0
  0
LINE
  8
0
 62
     0
 10
28.5254
 20
31.1326
 30
0.0
 11
28.5254
 21
35.833
 31
0.0
  0
LINE
  8
0
 62
     0
 10
28.5254
 20
35.833
 30
0.0
 11
14.5259
 21
35.833
 31
0.0
  0
LINE
  8
0
 62
     0
 10
383.621
 20
35.833
 30
0.0
 11
397.619
 21
35.833
 31
0.0
  0
LINE
  8
0
 62
     0
 10
397.619
 20
35.833
 30
0.0
 11
397.619
 21
21.8336
 31
0.0
  0
LINE
  8
0
 62
     0
 10
397.619
 20
21.8336
 30
0.0
 11
383.621
 21
21.8336
 31
0.0
  0
LINE
  8
0
 62
     0
 10
383.621
 20
21.8336
 30
0.0
 11
383.621
 21
35.833
 31
0.0
  0
LINE
  8
0
 62
     0
 10
364.571
 20
35.833
 30
0.0
 11
378.569
 21
35.833
 31
0.0
  0
LINE
  8
0
 62
     0
 10
378.569
 20
35.833
 30
0.0
 11
378.569
 21
21.8336
 31
0.0
  0
LINE
  8
0
 62
     0
 10
378.569
 20
21.8336
 30
0.0
 11
364.571
 21
21.8336
 31
0.0
  0
LINE
  8
0
 62
     0
 10
364.571
 20
21.8336
 30
0.0
 11
364.571
 21
35.833
 31
0.0
  0
LINE
  8
0
 62
     0
 10
338.376
 20
35.833
 30
0.0
 11
352.375
 21
35.833
 31
0.0
  0
LINE
  8
0
 62
     0
 10
352.375
 20
35.833
 30
0.0
 11
352.375
 21
21.8336
 31
0.0
  0
LINE
  8
0
 62
     0
 10
352.375
 20
21.8336
 30
0.0
 11
338.376
 21
21.8336
 31
0.0
  0
LINE
  8
0
 62
     0
 10
338.376
 20
21.8336
 30
0.0
 11
338.376
 21
35.833
 31
0.0
  0
LINE
  8
0
 62
     0
 10
312.182
 20
35.833
 30
0.0
 11
326.182
 21
35.833
 31
0.0
  0
LINE
  8
0
 62
     0
 10
326.182
 20
35.833
 30
0.0
 11
326.182
 21
21.8336
 31
0.0
  0
LINE
  8
0
 62
     0
 10
326.182
 20
21.8336
 30
0.0
 11
312.182
 21
21.8336
 31
0.0
  0
LINE
  8
0
 62
     0
 10
312.182
 20
21.8336
 30
0.0
 11
312.182
 21
35.833
 31
0.0
  0
LINE
  8
0
 62
     0
 10
293.132
 20
35.833
 30
0.0
 11
307.132
 21
35.833
 31
0.0
  0
LINE
  8
0
 62
     0
 10
307.132
 20
35.833
 30
0.0
 11
307.132
 21
21.8336
 31
0.0
  0
LINE
  8
0
 62
     0
 10
307.132
 20
21.8336
 30
0.0
 11
293.132
 21
21.8336
 31
0.0
  0
LINE
  8
0
 62
     0
 10
293.132
 20
21.8336
 30
0.0
 11
293.132
 21
35.833
 31
0.0
  0
LINE
  8
0
 62
     0
 10
274.082
 20
35.833
 30
0.0
 11
288.082
 21
35.833
 31
0.0
  0
LINE
  8
0
 62
     0
 10
288.082
 20
35.833
 30
0.0
 11
288.082
 21
21.8336
 31
0.0
  0
LINE
  8
0
 62
     0
 10
288.082
 20
21.8336
 30
0.0
 11
274.082
 21
21.8336
 31
0.0
  0
LINE
  8
0
 62
     0
 10
274.082
 20
21.8336
 30
0.0
 11
274.082
 21
35.833
 31
0.0
  0
LINE
  8
0
 62
     0
 10
255.032
 20
35.833
 30
0.0
 11
269.032
 21
35.833
 31
0.0
  0
LINE
  8
0
 62
     0
 10
269.032
 20
35.833
 30
0.0
 11
269.032
 21
21.8336
 31
0.0
  0
LINE
  8
0
 62
     0
 10
269.032
 20
21.8336
 30
0.0
 11
255.032
 21
21.8336
 31
0.0
  0
LINE
  8
0
 62
     0
 10
255.032
 20
21.8336
 30
0.0
 11
255.032
 21
35.833
 31
0.0
  0
LINE
  8
0
 62
     0
 10
235.982
 20
35.833
 30
0.0
 11
249.982
 21
35.833
 31
0.0
  0
LINE
  8
0
 62
     0
 10
249.982
 20
35.833
 30
0.0
 11
249.982
 21
21.8336
 31
0.0
  0
LINE
  8
0
 62
     0
 10
249.982
 20
21.8336
 30
0.0
 11
235.982
 21
21.8336
 31
0.0
  0
LINE
  8
0
 62
     0
 10
235.982
 20
21.8336
 30
0.0
 11
235.982
 21
35.833
 31
0.0
  0
LINE
  8
0
 62
     0
 10
121.682
 20
35.833
 30
0.0
 11
135.682
 21
35.833
 31
0.0
  0
LINE
  8
0
 62
     0
 10
135.682
 20
35.833
 30
0.0
 11
135.682
 21
21.8336
 31
0.0
  0
LINE
  8
0
 62
     0
 10
135.682
 20
21.8336
 30
0.0
 11
121.682
 21
21.8336
 31
0.0
  0
LINE
  8
0
 62
     0
 10
121.682
 20
21.8336
 30
0.0
 11
121.682
 21
35.833
 31
0.0
  0
LINE
  8
0
 62
     0
 10
102.632
 20
35.833
 30
0.0
 11
116.632
 21
35.833
 31
0.0
  0
LINE
  8
0
 62
     0
 10
116.632
 20
35.833
 30
0.0
 11
116.632
 21
21.8336
 31
0.0
  0
LINE
  8
0
 62
     0
 10
116.632
 20
21.8336
 30
0.0
 11
102.632
 21
21.8336
 31
0.0
  0
LINE
  8
0
 62
     0
 10
102.632
 20
21.8336
 30
0.0
 11
102.632
 21
35.833
 31
0.0
  0
LINE
  8
0
 62
     0
 10
83.5822
 20
35.833
 30
0.0
 11
97.5815
 21
35.833
 31
0.0
  0
LINE
  8
0
 62
     0
 10
97.5815
 20
35.833
 30
0.0
 11
97.5815
 21
21.8336
 31
0.0
  0
LINE
  8
0
 62
     0
 10
97.5815
 20
21.8336
 30
0.0
 11
83.5822
 21
21.8336
 31
0.0
  0
LINE
  8
0
 62
     0
 10
83.5822
 20
21.8336
 30
0.0
 11
83.5822
 21
35.833
 31
0.0
  0
LINE
  8
0
 62
     0
 10
64.5322
 20
35.833
 30
0.0
 11
78.5315
 21
35.833
 31
0.0
  0
LINE
  8
0
 62
     0
 10
78.5315
 20
35.833
 30
0.0
 11
78.5315
 21
21.8336
 31
0.0
  0
LINE
  8
0
 62
     0
 10
78.5315
 20
21.8336
 30
0.0
 11
64.5322
 21
21.8336
 31
0.0
  0
LINE
  8
0
 62
     0
 10
64.5322
 20
21.8336
 30
0.0
 11
64.5322
 21
35.833
 31
0.0
  0
LINE
  8
0
 62
     0
 10
45.4822
 20
35.833
 30
0.0
 11
59.4815
 21
35.833
 31
0.0
  0
LINE
  8
0
 62
     0
 10
59.4815
 20
35.833
 30
0.0
 11
59.4815
 21
21.8336
 31
0.0
  0
LINE
  8
0
 62
     0
 10
59.4815
 20
21.8336
 30
0.0
 11
45.4822
 21
21.8336
 31
0.0
  0
LINE
  8
0
 62
     0
 10
45.4822
 20
21.8336
 30
0.0
 11
45.4822
 21
35.833
 31
0.0
  0
LINE
  8
0
 62
     0
 10
352.662
 20
54.8831
 30
0.0
 11
352.662
 21
50.1826
 31
0.0
  0
LINE
  8
0
 62
     0
 10
352.662
 20
50.1826
 30
0.0
 11
351.138
 21
50.1826
 31
0.0
  0
LINE
  8
0
 62
     0
 10
351.138
 20
50.1826
 30
0.0
 11
351.138
 21
53.4127
 31
0.0
  0
LINE
  8
0
 62
     0
 10
351.138
 20
53.4127
 30
0.0
 11
344.387
 21
53.4127
 31
0.0
  0
LINE
  8
0
 62
     0
 10
344.387
 20
53.4127
 30
0.0
 11
344.387
 21
50.1826
 31
0.0
  0
LINE
  8
0
 62
     0
 10
344.387
 20
50.1826
 30
0.0
 11
343.563
 21
50.1826
 31
0.0
  0
LINE
  8
0
 62
     0
 10
343.563
 20
50.1826
 30
0.0
 11
343.563
 21
47.3837
 31
0.0
  0
LINE
  8
0
 62
     0
 10
343.563
 20
47.3837
 30
0.0
 11
344.387
 21
47.3837
 31
0.0
  0
LINE
  8
0
 62
     0
 10
344.387
 20
47.3837
 30
0.0
 11
344.387
 21
41.1138
 31
0.0
  0
LINE
  8
0
 62
     0
 10
344.387
 20
41.1138
 30
0.0
 11
346.112
 21
41.1138
 31
0.0
  0
LINE
  8
0
 62
     0
 10
346.112
 20
41.1138
 30
0.0
 11
346.112
 21
39.9136
 31
0.0
  0
LINE
  8
0
 62
     0
 10
346.112
 20
39.9136
 30
0.0
 11
349.413
 21
39.9136
 31
0.0
  0
LINE
  8
0
 62
     0
 10
349.413
 20
39.9136
 30
0.0
 11
349.413
 21
41.1138
 31
0.0
  0
LINE
  8
0
 62
     0
 10
349.413
 20
41.1138
 30
0.0
 11
351.138
 21
41.1138
 31
0.0
  0
LINE
  8
0
 62
     0
 10
351.138
 20
41.1138
 30
0.0
 11
351.138
 21
45.5828
 31
0.0
  0
LINE
  8
0
 62
     0
 10
351.138
 20
45.5828
 30
0.0
 11
352.662
 21
45.5828
 31
0.0
  0
LINE
  8
0
 62
     0
 10
352.662
 20
45.5828
 30
0.0
 11
352.662
 21
40.8838
 31
0.0
  0
LINE
  8
0
 62
     0
 10
352.662
 20
40.8838
 30
0.0
 11
366.663
 21
40.8838
 31
0.0
  0
LINE
  8
0
 62
     0
 10
366.663
 20
40.8838
 30
0.0
 11
366.663
 21
45.5828
 31
0.0
  0
LINE
  8
0
 62
     0
 10
366.663
 20
45.5828
 30
0.0
 11
368.187
 21
45.5828
 31
0.0
  0
LINE
  8
0
 62
     0
 10
368.187
 20
45.5828
 30
0.0
 11
368.187
 21
41.1138
 31
0.0
  0
LINE
  8
0
 62
     0
 10
368.187
 20
41.1138
 30
0.0
 11
369.912
 21
41.1138
 31
0.0
  0
LINE
  8
0
 62
     0
 10
369.912
 20
41.1138
 30
0.0
 11
369.912
 21
39.9136
 31
0.0
  0
LINE
  8
0
 62
     0
 10
369.912
 20
39.9136
 30
0.0
 11
373.214
 21
39.9136
 31
0.0
  0
LINE
  8
0
 62
     0
 10
373.214
 20
39.9136
 30
0.0
 11
373.214
 21
41.1138
 31
0.0
  0
LINE
  8
0
 62
     0
 10
373.214
 20
41.1138
 30
0.0
 11
374.939
 21
41.1138
 31
0.0
  0
LINE
  8
0
 62
     0
 10
374.939
 20
41.1138
 30
0.0
 11
374.939
 21
47.3837
 31
0.0
  0
LINE
  8
0
 62
     0
 10
374.939
 20
47.3837
 30
0.0
 11
375.761
 21
47.3837
 31
0.0
  0
LINE
  8
0
 62
     0
 10
375.761
 20
47.3837
 30
0.0
 11
375.761
 21
50.1826
 31
0.0
  0
LINE
  8
0
 62
     0
 10
375.761
 20
50.1826
 30
0.0
 11
374.939
 21
50.1826
 31
0.0
  0
LINE
  8
0
 62
     0
 10
374.939
 20
50.1826
 30
0.0
 11
374.939
 21
53.4127
 31
0.0
  0
LINE
  8
0
 62
     0
 10
374.939
 20
53.4127
 30
0.0
 11
368.187
 21
53.4127
 31
0.0
  0
LINE
  8
0
 62
     0
 10
368.187
 20
53.4127
 30
0.0
 11
368.187
 21
50.1826
 31
0.0
  0
LINE
  8
0
 62
     0
 10
368.187
 20
50.1826
 30
0.0
 11
366.663
 21
50.1826
 31
0.0
  0
LINE
  8
0
 62
     0
 10
366.663
 20
50.1826
 30
0.0
 11
366.663
 21
54.8831
 31
0.0
  0
LINE
  8
0
 62
     0
 10
366.663
 20
54.8831
 30
0.0
 11
352.662
 21
54.8831
 31
0.0
  0
LINE
  8
0
 62
     0
 10
383.621
 20
54.8831
 30
0.0
 11
397.619
 21
54.8831
 31
0.0
  0
LINE
  8
0
 62
     0
 10
397.619
 20
54.8831
 30
0.0
 11
397.619
 21
40.8838
 31
0.0
  0
LINE
  8
0
 62
     0
 10
397.619
 20
40.8838
 30
0.0
 11
383.621
 21
40.8838
 31
0.0
  0
LINE
  8
0
 62
     0
 10
383.621
 20
40.8838
 30
0.0
 11
383.621
 21
54.8831
 31
0.0
  0
LINE
  8
0
 62
     0
 10
321.707
 20
54.8831
 30
0.0
 11
335.707
 21
54.8831
 31
0.0
  0
LINE
  8
0
 62
     0
 10
335.707
 20
54.8831
 30
0.0
 11
335.707
 21
40.8838
 31
0.0
  0
LINE
  8
0
 62
     0
 10
335.707
 20
40.8838
 30
0.0
 11
321.707
 21
40.8838
 31
0.0
  0
LINE
  8
0
 62
     0
 10
321.707
 20
40.8838
 30
0.0
 11
321.707
 21
54.8831
 31
0.0
  0
LINE
  8
0
 62
     0
 10
302.657
 20
54.8831
 30
0.0
 11
316.657
 21
54.8831
 31
0.0
  0
LINE
  8
0
 62
     0
 10
316.657
 20
54.8831
 30
0.0
 11
316.657
 21
40.8838
 31
0.0
  0
LINE
  8
0
 62
     0
 10
316.657
 20
40.8838
 30
0.0
 11
302.657
 21
40.8838
 31
0.0
  0
LINE
  8
0
 62
     0
 10
302.657
 20
40.8838
 30
0.0
 11
302.657
 21
54.8831
 31
0.0
  0
LINE
  8
0
 62
     0
 10
283.607
 20
54.8831
 30
0.0
 11
297.607
 21
54.8831
 31
0.0
  0
LINE
  8
0
 62
     0
 10
297.607
 20
54.8831
 30
0.0
 11
297.607
 21
40.8838
 31
0.0
  0
LINE
  8
0
 62
     0
 10
297.607
 20
40.8838
 30
0.0
 11
283.607
 21
40.8838
 31
0.0
  0
LINE
  8
0
 62
     0
 10
283.607
 20
40.8838
 30
0.0
 11
283.607
 21
54.8831
 31
0.0
  0
LINE
  8
0
 62
     0
 10
264.557
 20
54.8831
 30
0.0
 11
278.557
 21
54.8831
 31
0.0
  0
LINE
  8
0
 62
     0
 10
278.557
 20
54.8831
 30
0.0
 11
278.557
 21
40.8838
 31
0.0
  0
LINE
  8
0
 62
     0
 10
278.557
 20
40.8838
 30
0.0
 11
264.557
 21
40.8838
 31
0.0
  0
LINE
  8
0
 62
     0
 10
264.557
 20
40.8838
 30
0.0
 11
264.557
 21
54.8831
 31
0.0
  0
LINE
  8
0
 62
     0
 10
245.507
 20
54.8831
 30
0.0
 11
259.507
 21
54.8831
 31
0.0
  0
LINE
  8
0
 62
     0
 10
259.507
 20
54.8831
 30
0.0
 11
259.507
 21
40.8838
 31
0.0
  0
LINE
  8
0
 62
     0
 10
259.507
 20
40.8838
 30
0.0
 11
245.507
 21
40.8838
 31
0.0
  0
LINE
  8
0
 62
     0
 10
245.507
 20
40.8838
 30
0.0
 11
245.507
 21
54.8831
 31
0.0
  0
LINE
  8
0
 62
     0
 10
226.457
 20
54.8831
 30
0.0
 11
240.457
 21
54.8831
 31
0.0
  0
LINE
  8
0
 62
     0
 10
240.457
 20
54.8831
 30
0.0
 11
240.457
 21
40.8838
 31
0.0
  0
LINE
  8
0
 62
     0
 10
240.457
 20
40.8838
 30
0.0
 11
226.457
 21
40.8838
 31
0.0
  0
LINE
  8
0
 62
     0
 10
226.457
 20
40.8838
 30
0.0
 11
226.457
 21
54.8831
 31
0.0
  0
LINE
  8
0
 62
     0
 10
112.157
 20
54.8831
 30
0.0
 11
126.157
 21
54.8831
 31
0.0
  0
LINE
  8
0
 62
     0
 10
126.157
 20
54.8831
 30
0.0
 11
126.157
 21
40.8838
 31
0.0
  0
LINE
  8
0
 62
     0
 10
126.157
 20
40.8838
 30
0.0
 11
112.157
 21
40.8838
 31
0.0
  0
LINE
  8
0
 62
     0
 10
112.157
 20
40.8838
 30
0.0
 11
112.157
 21
54.8831
 31
0.0
  0
LINE
  8
0
 62
     0
 10
93.1072
 20
54.8831
 30
0.0
 11
107.107
 21
54.8831
 31
0.0
  0
LINE
  8
0
 62
     0
 10
107.107
 20
54.8831
 30
0.0
 11
107.107
 21
40.8838
 31
0.0
  0
LINE
  8
0
 62
     0
 10
107.107
 20
40.8838
 30
0.0
 11
93.1072
 21
40.8838
 31
0.0
  0
LINE
  8
0
 62
     0
 10
93.1072
 20
40.8838
 30
0.0
 11
93.1072
 21
54.8831
 31
0.0
  0
LINE
  8
0
 62
     0
 10
74.0572
 20
54.8831
 30
0.0
 11
88.0565
 21
54.8831
 31
0.0
  0
LINE
  8
0
 62
     0
 10
88.0565
 20
54.8831
 30
0.0
 11
88.0565
 21
40.8838
 31
0.0
  0
LINE
  8
0
 62
     0
 10
88.0565
 20
40.8838
 30
0.0
 11
74.0572
 21
40.8838
 31
0.0
  0
LINE
  8
0
 62
     0
 10
74.0572
 20
40.8838
 30
0.0
 11
74.0572
 21
54.8831
 31
0.0
  0
LINE
  8
0
 62
     0
 10
55.0072
 20
54.8831
 30
0.0
 11
69.0065
 21
54.8831
 31
0.0
  0
LINE
  8
0
 62
     0
 10
69.0065
 20
54.8831
 30
0.0
 11
69.0065
 21
40.8838
 31
0.0
  0
LINE
  8
0
 62
     0
 10
69.0065
 20
40.8838
 30
0.0
 11
55.0072
 21
40.8838
 31
0.0
  0
LINE
  8
0
 62
     0
 10
55.0072
 20
40.8838
 30
0.0
 11
55.0072
 21
54.8831
 31
0.0
  0
LINE
  8
0
 62
     0
 10
35.9572
 20
54.8831
 30
0.0
 11
49.9565
 21
54.8831
 31
0.0
  0
LINE
  8
0
 62
     0
 10
49.9565
 20
54.8831
 30
0.0
 11
49.9565
 21
40.8838
 31
0.0
  0
LINE
  8
0
 62
     0
 10
49.9565
 20
40.8838
 30
0.0
 11
35.9572
 21
40.8838
 31
0.0
  0
LINE
  8
0
 62
     0
 10
35.9572
 20
40.8838
 30
0.0
 11
35.9572
 21
54.8831
 31
0.0
  0
LINE
  8
0
 62
     0
 10
9.76203
 20
54.8831
 30
0.0
 11
23.7629
 21
54.8831
 31
0.0
  0
LINE
  8
0
 62
     0
 10
23.7629
 20
54.8831
 30
0.0
 11
23.7629
 21
40.8838
 31
0.0
  0
LINE
  8
0
 62
     0
 10
23.7629
 20
40.8838
 30
0.0
 11
9.76203
 21
40.8838
 31
0.0
  0
LINE
  8
0
 62
     0
 10
9.76203
 20
40.8838
 30
0.0
 11
9.76203
 21
54.8831
 31
0.0
  0
LINE
  8
0
 62
     0
 10
383.621
 20
73.9331
 30
0.0
 11
397.619
 21
73.9331
 31
0.0
  0
LINE
  8
0
 62
     0
 10
397.619
 20
73.9331
 30
0.0
 11
397.619
 21
59.9338
 31
0.0
  0
LINE
  8
0
 62
     0
 10
397.619
 20
59.9338
 30
0.0
 11
383.621
 21
59.9338
 31
0.0
  0
LINE
  8
0
 62
     0
 10
383.621
 20
59.9338
 30
0.0
 11
383.621
 21
73.9331
 31
0.0
  0
LINE
  8
0
 62
     0
 10
359.809
 20
73.9331
 30
0.0
 11
373.807
 21
73.9331
 31
0.0
  0
LINE
  8
0
 62
     0
 10
373.807
 20
73.9331
 30
0.0
 11
373.807
 21
59.9338
 31
0.0
  0
LINE
  8
0
 62
     0
 10
373.807
 20
59.9338
 30
0.0
 11
359.809
 21
59.9338
 31
0.0
  0
LINE
  8
0
 62
     0
 10
359.809
 20
59.9338
 30
0.0
 11
359.809
 21
73.9331
 31
0.0
  0
LINE
  8
0
 62
     0
 10
335.995
 20
73.9331
 30
0.0
 11
349.994
 21
73.9331
 31
0.0
  0
LINE
  8
0
 62
     0
 10
349.994
 20
73.9331
 30
0.0
 11
349.994
 21
59.9338
 31
0.0
  0
LINE
  8
0
 62
     0
 10
349.994
 20
59.9338
 30
0.0
 11
335.995
 21
59.9338
 31
0.0
  0
LINE
  8
0
 62
     0
 10
335.995
 20
59.9338
 30
0.0
 11
335.995
 21
73.9331
 31
0.0
  0
LINE
  8
0
 62
     0
 10
316.945
 20
73.9331
 30
0.0
 11
330.944
 21
73.9331
 31
0.0
  0
LINE
  8
0
 62
     0
 10
330.944
 20
73.9331
 30
0.0
 11
330.944
 21
59.9338
 31
0.0
  0
LINE
  8
0
 62
     0
 10
330.944
 20
59.9338
 30
0.0
 11
316.945
 21
59.9338
 31
0.0
  0
LINE
  8
0
 62
     0
 10
316.945
 20
59.9338
 30
0.0
 11
316.945
 21
73.9331
 31
0.0
  0
LINE
  8
0
 62
     0
 10
297.895
 20
73.9331
 30
0.0
 11
311.894
 21
73.9331
 31
0.0
  0
LINE
  8
0
 62
     0
 10
311.894
 20
73.9331
 30
0.0
 11
311.894
 21
59.9338
 31
0.0
  0
LINE
  8
0
 62
     0
 10
311.894
 20
59.9338
 30
0.0
 11
297.895
 21
59.9338
 31
0.0
  0
LINE
  8
0
 62
     0
 10
297.895
 20
59.9338
 30
0.0
 11
297.895
 21
73.9331
 31
0.0
  0
LINE
  8
0
 62
     0
 10
278.845
 20
73.9331
 30
0.0
 11
292.844
 21
73.9331
 31
0.0
  0
LINE
  8
0
 62
     0
 10
292.844
 20
73.9331
 30
0.0
 11
292.844
 21
59.9338
 31
0.0
  0
LINE
  8
0
 62
     0
 10
292.844
 20
59.9338
 30
0.0
 11
278.845
 21
59.9338
 31
0.0
  0
LINE
  8
0
 62
     0
 10
278.845
 20
59.9338
 30
0.0
 11
278.845
 21
73.9331
 31
0.0
  0
LINE
  8
0
 62
     0
 10
259.795
 20
73.9331
 30
0.0
 11
273.794
 21
73.9331
 31
0.0
  0
LINE
  8
0
 62
     0
 10
273.794
 20
73.9331
 30
0.0
 11
273.794
 21
59.9338
 31
0.0
  0
LINE
  8
0
 62
     0
 10
273.794
 20
59.9338
 30
0.0
 11
259.795
 21
59.9338
 31
0.0
  0
LINE
  8
0
 62
     0
 10
259.795
 20
59.9338
 30
0.0
 11
259.795
 21
73.9331
 31
0.0
  0
LINE
  8
0
 62
     0
 10
240.745
 20
73.9331
 30
0.0
 11
254.744
 21
73.9331
 31
0.0
  0
LINE
  8
0
 62
     0
 10
254.744
 20
73.9331
 30
0.0
 11
254.744
 21
59.9338
 31
0.0
  0
LINE
  8
0
 62
     0
 10
254.744
 20
59.9338
 30
0.0
 11
240.745
 21
59.9338
 31
0.0
  0
LINE
  8
0
 62
     0
 10
240.745
 20
59.9338
 30
0.0
 11
240.745
 21
73.9331
 31
0.0
  0
LINE
  8
0
 62
     0
 10
221.695
 20
73.9331
 30
0.0
 11
235.694
 21
73.9331
 31
0.0
  0
LINE
  8
0
 62
     0
 10
235.694
 20
73.9331
 30
0.0
 11
235.694
 21
59.9338
 31
0.0
  0
LINE
  8
0
 62
     0
 10
235.694
 20
59.9338
 30
0.0
 11
221.695
 21
59.9338
 31
0.0
  0
LINE
  8
0
 62
     0
 10
221.695
 20
59.9338
 30
0.0
 11
221.695
 21
73.9331
 31
0.0
  0
LINE
  8
0
 62
     0
 10
107.395
 20
73.9331
 30
0.0
 11
121.394
 21
73.9331
 31
0.0
  0
LINE
  8
0
 62
     0
 10
121.394
 20
73.9331
 30
0.0
 11
121.394
 21
59.9338
 31
0.0
  0
LINE
  8
0
 62
     0
 10
121.394
 20
59.9338
 30
0.0
 11
107.395
 21
59.9338
 31
0.0
  0
LINE
  8
0
 62
     0
 10
107.395
 20
59.9338
 30
0.0
 11
107.395
 21
73.9331
 31
0.0
  0
LINE
  8
0
 62
     0
 10
88.3447
 20
73.9331
 30
0.0
 11
102.344
 21
73.9331
 31
0.0
  0
LINE
  8
0
 62
     0
 10
102.344
 20
73.9331
 30
0.0
 11
102.344
 21
59.9338
 31
0.0
  0
LINE
  8
0
 62
     0
 10
102.344
 20
59.9338
 30
0.0
 11
88.3447
 21
59.9338
 31
0.0
  0
LINE
  8
0
 62
     0
 10
88.3447
 20
59.9338
 30
0.0
 11
88.3447
 21
73.9331
 31
0.0
  0
LINE
  8
0
 62
     0
 10
69.2947
 20
73.9331
 30
0.0
 11
83.294
 21
73.9331
 31
0.0
  0
LINE
  8
0
 62
     0
 10
83.294
 20
73.9331
 30
0.0
 11
83.294
 21
59.9338
 31
0.0
  0
LINE
  8
0
 62
     0
 10
83.294
 20
59.9338
 30
0.0
 11
69.2947
 21
59.9338
 31
0.0
  0
LINE
  8
0
 62
     0
 10
69.2947
 20
59.9338
 30
0.0
 11
69.2947
 21
73.9331
 31
0.0
  0
LINE
  8
0
 62
     0
 10
50.2447
 20
73.9331
 30
0.0
 11
64.244
 21
73.9331
 31
0.0
  0
LINE
  8
0
 62
     0
 10
64.244
 20
73.9331
 30
0.0
 11
64.244
 21
59.9338
 31
0.0
  0
LINE
  8
0
 62
     0
 10
64.244
 20
59.9338
 30
0.0
 11
50.2447
 21
59.9338
 31
0.0
  0
LINE
  8
0
 62
     0
 10
50.2447
 20
59.9338
 30
0.0
 11
50.2447
 21
73.9331
 31
0.0
  0
LINE
  8
0
 62
     0
 10
31.1947
 20
73.9331
 30
0.0
 11
45.194
 21
73.9331
 31
0.0
  0
LINE
  8
0
 62
     0
 10
45.194
 20
73.9331
 30
0.0
 11
45.194
 21
59.9338
 31
0.0
  0
LINE
  8
0
 62
     0
 10
45.194
 20
59.9338
 30
0.0
 11
31.1947
 21
59.9338
 31
0.0
  0
LINE
  8
0
 62
     0
 10
31.1947
 20
59.9338
 30
0.0
 11
31.1947
 21
73.9331
 31
0.0
  0
LINE
  8
0
 62
     0
 10
7.38216
 20
73.9331
 30
0.0
 11
21.3817
 21
73.9331
 31
0.0
  0
LINE
  8
0
 62
     0
 10
21.3817
 20
73.9331
 30
0.0
 11
21.3817
 21
59.9338
 31
0.0
  0
LINE
  8
0
 62
     0
 10
21.3817
 20
59.9338
 30
0.0
 11
7.38216
 21
59.9338
 31
0.0
  0
LINE
  8
0
 62
     0
 10
7.38216
 20
59.9338
 30
0.0
 11
7.38216
 21
73.9331
 31
0.0
  0
LINE
  8
0
 62
     0
 10
355.046
 20
92.9831
 30
0.0
 11
355.046
 21
88.2826
 31
0.0
  0
LINE
  8
0
 62
     0
 10
355.046
 20
88.2826
 30
0.0
 11
353.519
 21
88.2826
 31
0.0
  0
LINE
  8
0
 62
     0
 10
353.519
 20
88.2826
 30
0.0
 11
353.519
 21
91.5127
 31
0.0
  0
LINE
  8
0
 62
     0
 10
353.519
 20
91.5127
 30
0.0
 11
346.77
 21
91.5127
 31
0.0
  0
LINE
  8
0
 62
     0
 10
346.77
 20
91.5127
 30
0.0
 11
346.77
 21
88.2826
 31
0.0
  0
LINE
  8
0
 62
     0
 10
346.77
 20
88.2826
 30
0.0
 11
345.944
 21
88.2826
 31
0.0
  0
LINE
  8
0
 62
     0
 10
345.944
 20
88.2826
 30
0.0
 11
345.944
 21
85.4837
 31
0.0
  0
LINE
  8
0
 62
     0
 10
345.944
 20
85.4837
 30
0.0
 11
346.77
 21
85.4837
 31
0.0
  0
LINE
  8
0
 62
     0
 10
346.77
 20
85.4837
 30
0.0
 11
346.77
 21
79.2138
 31
0.0
  0
LINE
  8
0
 62
     0
 10
346.77
 20
79.2138
 30
0.0
 11
348.495
 21
79.2138
 31
0.0
  0
LINE
  8
0
 62
     0
 10
348.495
 20
79.2138
 30
0.0
 11
348.495
 21
78.0136
 31
0.0
  0
LINE
  8
0
 62
     0
 10
348.495
 20
78.0136
 30
0.0
 11
351.794
 21
78.0136
 31
0.0
  0
LINE
  8
0
 62
     0
 10
351.794
 20
78.0136
 30
0.0
 11
351.794
 21
79.2138
 31
0.0
  0
LINE
  8
0
 62
     0
 10
351.794
 20
79.2138
 30
0.0
 11
353.519
 21
79.2138
 31
0.0
  0
LINE
  8
0
 62
     0
 10
353.519
 20
79.2138
 30
0.0
 11
353.519
 21
83.6828
 31
0.0
  0
LINE
  8
0
 62
     0
 10
353.519
 20
83.6828
 30
0.0
 11
355.046
 21
83.6828
 31
0.0
  0
LINE
  8
0
 62
     0
 10
355.046
 20
83.6828
 30
0.0
 11
355.046
 21
78.9838
 31
0.0
  0
LINE
  8
0
 62
     0
 10
355.046
 20
78.9838
 30
0.0
 11
369.044
 21
78.9838
 31
0.0
  0
LINE
  8
0
 62
     0
 10
369.044
 20
78.9838
 30
0.0
 11
369.044
 21
83.6828
 31
0.0
  0
LINE
  8
0
 62
     0
 10
369.044
 20
83.6828
 30
0.0
 11
370.568
 21
83.6828
 31
0.0
  0
LINE
  8
0
 62
     0
 10
370.568
 20
83.6828
 30
0.0
 11
370.568
 21
79.2138
 31
0.0
  0
LINE
  8
0
 62
     0
 10
370.568
 20
79.2138
 30
0.0
 11
372.293
 21
79.2138
 31
0.0
  0
LINE
  8
0
 62
     0
 10
372.293
 20
79.2138
 30
0.0
 11
372.293
 21
78.0136
 31
0.0
  0
LINE
  8
0
 62
     0
 10
372.293
 20
78.0136
 30
0.0
 11
375.595
 21
78.0136
 31
0.0
  0
LINE
  8
0
 62
     0
 10
375.595
 20
78.0136
 30
0.0
 11
375.595
 21
79.2138
 31
0.0
  0
LINE
  8
0
 62
     0
 10
375.595
 20
79.2138
 30
0.0
 11
377.321
 21
79.2138
 31
0.0
  0
LINE
  8
0
 62
     0
 10
377.321
 20
79.2138
 30
0.0
 11
377.321
 21
85.4837
 31
0.0
  0
LINE
  8
0
 62
     0
 10
377.321
 20
85.4837
 30
0.0
 11
378.146
 21
85.4837
 31
0.0
  0
LINE
  8
0
 62
     0
 10
378.146
 20
85.4837
 30
0.0
 11
378.146
 21
88.2826
 31
0.0
  0
LINE
  8
0
 62
     0
 10
378.146
 20
88.2826
 30
0.0
 11
377.321
 21
88.2826
 31
0.0
  0
LINE
  8
0
 62
     0
 10
377.321
 20
88.2826
 30
0.0
 11
377.321
 21
91.5127
 31
0.0
  0
LINE
  8
0
 62
     0
 10
377.321
 20
91.5127
 30
0.0
 11
370.568
 21
91.5127
 31
0.0
  0
LINE
  8
0
 62
     0
 10
370.568
 20
91.5127
 30
0.0
 11
370.568
 21
88.2826
 31
0.0
  0
LINE
  8
0
 62
     0
 10
370.568
 20
88.2826
 30
0.0
 11
369.044
 21
88.2826
 31
0.0
  0
LINE
  8
0
 62
     0
 10
369.044
 20
88.2826
 30
0.0
 11
369.044
 21
92.9831
 31
0.0
  0
LINE
  8
0
 62
     0
 10
369.044
 20
92.9831
 30
0.0
 11
355.046
 21
92.9831
 31
0.0
  0
LINE
  8
0
 62
     0
 10
383.621
 20
92.9831
 30
0.0
 11
397.619
 21
92.9831
 31
0.0
  0
LINE
  8
0
 62
     0
 10
397.619
 20
92.9831
 30
0.0
 11
397.619
 21
78.9838
 31
0.0
  0
LINE
  8
0
 62
     0
 10
397.619
 20
78.9838
 30
0.0
 11
383.621
 21
78.9838
 31
0.0
  0
LINE
  8
0
 62
     0
 10
383.621
 20
78.9838
 30
0.0
 11
383.621
 21
92.9831
 31
0.0
  0
LINE
  8
0
 62
     0
 10
326.47
 20
92.9831
 30
0.0
 11
340.469
 21
92.9831
 31
0.0
  0
LINE
  8
0
 62
     0
 10
340.469
 20
92.9831
 30
0.0
 11
340.469
 21
78.9838
 31
0.0
  0
LINE
  8
0
 62
     0
 10
340.469
 20
78.9838
 30
0.0
 11
326.47
 21
78.9838
 31
0.0
  0
LINE
  8
0
 62
     0
 10
326.47
 20
78.9838
 30
0.0
 11
326.47
 21
92.9831
 31
0.0
  0
LINE
  8
0
 62
     0
 10
307.42
 20
92.9831
 30
0.0
 11
321.419
 21
92.9831
 31
0.0
  0
LINE
  8
0
 62
     0
 10
321.419
 20
92.9831
 30
0.0
 11
321.419
 21
78.9838
 31
0.0
  0
LINE
  8
0
 62
     0
 10
321.419
 20
78.9838
 30
0.0
 11
307.42
 21
78.9838
 31
0.0
  0
LINE
  8
0
 62
     0
 10
307.42
 20
78.9838
 30
0.0
 11
307.42
 21
92.9831
 31
0.0
  0
LINE
  8
0
 62
     0
 10
288.37
 20
92.9831
 30
0.0
 11
302.369
 21
92.9831
 31
0.0
  0
LINE
  8
0
 62
     0
 10
302.369
 20
92.9831
 30
0.0
 11
302.369
 21
78.9838
 31
0.0
  0
LINE
  8
0
 62
     0
 10
302.369
 20
78.9838
 30
0.0
 11
288.37
 21
78.9838
 31
0.0
  0
LINE
  8
0
 62
     0
 10
288.37
 20
78.9838
 30
0.0
 11
288.37
 21
92.9831
 31
0.0
  0
LINE
  8
0
 62
     0
 10
269.32
 20
92.9831
 30
0.0
 11
283.319
 21
92.9831
 31
0.0
  0
LINE
  8
0
 62
     0
 10
283.319
 20
92.9831
 30
0.0
 11
283.319
 21
78.9838
 31
0.0
  0
LINE
  8
0
 62
     0
 10
283.319
 20
78.9838
 30
0.0
 11
269.32
 21
78.9838
 31
0.0
  0
LINE
  8
0
 62
     0
 10
269.32
 20
78.9838
 30
0.0
 11
269.32
 21
92.9831
 31
0.0
  0
LINE
  8
0
 62
     0
 10
250.27
 20
92.9831
 30
0.0
 11
264.269
 21
92.9831
 31
0.0
  0
LINE
  8
0
 62
     0
 10
264.269
 20
92.9831
 30
0.0
 11
264.269
 21
78.9838
 31
0.0
  0
LINE
  8
0
 62
     0
 10
264.269
 20
78.9838
 30
0.0
 11
250.27
 21
78.9838
 31
0.0
  0
LINE
  8
0
 62
     0
 10
250.27
 20
78.9838
 30
0.0
 11
250.27
 21
92.9831
 31
0.0
  0
LINE
  8
0
 62
     0
 10
231.22
 20
92.9831
 30
0.0
 11
245.219
 21
92.9831
 31
0.0
  0
LINE
  8
0
 62
     0
 10
245.219
 20
92.9831
 30
0.0
 11
245.219
 21
78.9838
 31
0.0
  0
LINE
  8
0
 62
     0
 10
245.219
 20
78.9838
 30
0.0
 11
231.22
 21
78.9838
 31
0.0
  0
LINE
  8
0
 62
     0
 10
231.22
 20
78.9838
 30
0.0
 11
231.22
 21
92.9831
 31
0.0
  0
LINE
  8
0
 62
     0
 10
116.918
 20
92.9831
 30
0.0
 11
130.919
 21
92.9831
 31
0.0
  0
LINE
  8
0
 62
     0
 10
130.919
 20
92.9831
 30
0.0
 11
130.919
 21
78.9838
 31
0.0
  0
LINE
  8
0
 62
     0
 10
130.919
 20
78.9838
 30
0.0
 11
116.918
 21
78.9838
 31
0.0
  0
LINE
  8
0
 62
     0
 10
116.918
 20
78.9838
 30
0.0
 11
116.918
 21
92.9831
 31
0.0
  0
LINE
  8
0
 62
     0
 10
97.8683
 20
92.9831
 30
0.0
 11
111.869
 21
92.9831
 31
0.0
  0
LINE
  8
0
 62
     0
 10
111.869
 20
92.9831
 30
0.0
 11
111.869
 21
78.9838
 31
0.0
  0
LINE
  8
0
 62
     0
 10
111.869
 20
78.9838
 30
0.0
 11
97.8683
 21
78.9838
 31
0.0
  0
LINE
  8
0
 62
     0
 10
97.8683
 20
78.9838
 30
0.0
 11
97.8683
 21
92.9831
 31
0.0
  0
LINE
  8
0
 62
     0
 10
78.8197
 20
92.9831
 30
0.0
 11
92.819
 21
92.9831
 31
0.0
  0
LINE
  8
0
 62
     0
 10
92.819
 20
92.9831
 30
0.0
 11
92.819
 21
78.9838
 31
0.0
  0
LINE
  8
0
 62
     0
 10
92.819
 20
78.9838
 30
0.0
 11
78.8197
 21
78.9838
 31
0.0
  0
LINE
  8
0
 62
     0
 10
78.8197
 20
78.9838
 30
0.0
 11
78.8197
 21
92.9831
 31
0.0
  0
LINE
  8
0
 62
     0
 10
59.7697
 20
92.9831
 30
0.0
 11
73.769
 21
92.9831
 31
0.0
  0
LINE
  8
0
 62
     0
 10
73.769
 20
92.9831
 30
0.0
 11
73.769
 21
78.9838
 31
0.0
  0
LINE
  8
0
 62
     0
 10
73.769
 20
78.9838
 30
0.0
 11
59.7697
 21
78.9838
 31
0.0
  0
LINE
  8
0
 62
     0
 10
59.7697
 20
78.9838
 30
0.0
 11
59.7697
 21
92.9831
 31
0.0
  0
LINE
  8
0
 62
     0
 10
40.7197
 20
92.9831
 30
0.0
 11
54.719
 21
92.9831
 31
0.0
  0
LINE
  8
0
 62
     0
 10
54.719
 20
92.9831
 30
0.0
 11
54.719
 21
78.9838
 31
0.0
  0
LINE
  8
0
 62
     0
 10
54.719
 20
78.9838
 30
0.0
 11
40.7197
 21
78.9838
 31
0.0
  0
LINE
  8
0
 62
     0
 10
40.7197
 20
78.9838
 30
0.0
 11
40.7197
 21
92.9831
 31
0.0
  0
LINE
  8
0
 62
     0
 10
21.6697
 20
92.9831
 30
0.0
 11
35.669
 21
92.9831
 31
0.0
  0
LINE
  8
0
 62
     0
 10
35.669
 20
92.9831
 30
0.0
 11
35.669
 21
78.9838
 31
0.0
  0
LINE
  8
0
 62
     0
 10
35.669
 20
78.9838
 30
0.0
 11
21.6697
 21
78.9838
 31
0.0
  0
LINE
  8
0
 62
     0
 10
21.6697
 20
78.9838
 30
0.0
 11
21.6697
 21
92.9831
 31
0.0
  0
LINE
  8
0
 62
     0
 10
2.61965
 20
92.9831
 30
0.0
 11
16.6192
 21
92.9831
 31
0.0
  0
LINE
  8
0
 62
     0
 10
16.6192
 20
92.9831
 30
0.0
 11
16.6192
 21
78.9838
 31
0.0
  0
LINE
  8
0
 62
     0
 10
16.6192
 20
78.9838
 30
0.0
 11
2.61965
 21
78.9838
 31
0.0
  0
LINE
  8
0
 62
     0
 10
2.61965
 20
78.9838
 30
0.0
 11
2.61965
 21
92.9831
 31
0.0
  0
LINE
  8
0
 62
     0
 10
383.621
 20
112.033
 30
0.0
 11
397.619
 21
112.033
 31
0.0
  0
LINE
  8
0
 62
     0
 10
397.619
 20
112.033
 30
0.0
 11
397.619
 21
98.0338
 31
0.0
  0
LINE
  8
0
 62
     0
 10
397.619
 20
98.0338
 30
0.0
 11
383.621
 21
98.0338
 31
0.0
  0
LINE
  8
0
 62
     0
 10
383.621
 20
98.0338
 30
0.0
 11
383.621
 21
112.033
 31
0.0
  0
LINE
  8
0
 62
     0
 10
364.571
 20
112.033
 30
0.0
 11
378.569
 21
112.033
 31
0.0
  0
LINE
  8
0
 62
     0
 10
378.569
 20
112.033
 30
0.0
 11
378.569
 21
98.0338
 31
0.0
  0
LINE
  8
0
 62
     0
 10
378.569
 20
98.0338
 30
0.0
 11
364.571
 21
98.0338
 31
0.0
  0
LINE
  8
0
 62
     0
 10
364.571
 20
98.0338
 30
0.0
 11
364.571
 21
112.033
 31
0.0
  0
LINE
  8
0
 62
     0
 10
345.52
 20
112.033
 30
0.0
 11
359.519
 21
112.033
 31
0.0
  0
LINE
  8
0
 62
     0
 10
359.519
 20
112.033
 30
0.0
 11
359.519
 21
98.0338
 31
0.0
  0
LINE
  8
0
 62
     0
 10
359.519
 20
98.0338
 30
0.0
 11
345.52
 21
98.0338
 31
0.0
  0
LINE
  8
0
 62
     0
 10
345.52
 20
98.0338
 30
0.0
 11
345.52
 21
112.033
 31
0.0
  0
LINE
  8
0
 62
     0
 10
326.47
 20
112.033
 30
0.0
 11
340.469
 21
112.033
 31
0.0
  0
LINE
  8
0
 62
     0
 10
340.469
 20
112.033
 30
0.0
 11
340.469
 21
98.0338
 31
0.0
  0
LINE
  8
0
 62
     0
 10
340.469
 20
98.0338
 30
0.0
 11
326.47
 21
98.0338
 31
0.0
  0
LINE
  8
0
 62
     0
 10
326.47
 20
98.0338
 30
0.0
 11
326.47
 21
112.033
 31
0.0
  0
LINE
  8
0
 62
     0
 10
307.42
 20
112.033
 30
0.0
 11
321.419
 21
112.033
 31
0.0
  0
LINE
  8
0
 62
     0
 10
321.419
 20
112.033
 30
0.0
 11
321.419
 21
98.0338
 31
0.0
  0
LINE
  8
0
 62
     0
 10
321.419
 20
98.0338
 30
0.0
 11
307.42
 21
98.0338
 31
0.0
  0
LINE
  8
0
 62
     0
 10
307.42
 20
98.0338
 30
0.0
 11
307.42
 21
112.033
 31
0.0
  0
LINE
  8
0
 62
     0
 10
288.37
 20
112.033
 30
0.0
 11
302.369
 21
112.033
 31
0.0
  0
LINE
  8
0
 62
     0
 10
302.369
 20
112.033
 30
0.0
 11
302.369
 21
98.0338
 31
0.0
  0
LINE
  8
0
 62
     0
 10
302.369
 20
98.0338
 30
0.0
 11
288.37
 21
98.0338
 31
0.0
  0
LINE
  8
0
 62
     0
 10
288.37
 20
98.0338
 30
0.0
 11
288.37
 21
112.033
 31
0.0
  0
LINE
  8
0
 62
     0
 10
269.32
 20
112.033
 30
0.0
 11
283.319
 21
112.033
 31
0.0
  0
LINE
  8
0
 62
     0
 10
283.319
 20
112.033
 30
0.0
 11
283.319
 21
98.0338
 31
0.0
  0
LINE
  8
0
 62
     0
 10
283.319
 20
98.0338
 30
0.0
 11
269.32
 21
98.0338
 31
0.0
  0
LINE
  8
0
 62
     0
 10
269.32
 20
98.0338
 30
0.0
 11
269.32
 21
112.033
 31
0.0
  0
LINE
  8
0
 62
     0
 10
250.27
 20
112.033
 30
0.0
 11
264.269
 21
112.033
 31
0.0
  0
LINE
  8
0
 62
     0
 10
264.269
 20
112.033
 30
0.0
 11
264.269
 21
98.0338
 31
0.0
  0
LINE
  8
0
 62
     0
 10
264.269
 20
98.0338
 30
0.0
 11
250.27
 21
98.0338
 31
0.0
  0
LINE
  8
0
 62
     0
 10
250.27
 20
98.0338
 30
0.0
 11
250.27
 21
112.033
 31
0.0
  0
LINE
  8
0
 62
     0
 10
231.22
 20
112.033
 30
0.0
 11
245.219
 21
112.033
 31
0.0
  0
LINE
  8
0
 62
     0
 10
245.219
 20
112.033
 30
0.0
 11
245.219
 21
98.0338
 31
0.0
  0
LINE
  8
0
 62
     0
 10
245.219
 20
98.0338
 30
0.0
 11
231.22
 21
98.0338
 31
0.0
  0
LINE
  8
0
 62
     0
 10
231.22
 20
98.0338
 30
0.0
 11
231.22
 21
112.033
 31
0.0
  0
LINE
  8
0
 62
     0
 10
116.918
 20
112.033
 30
0.0
 11
130.919
 21
112.033
 31
0.0
  0
LINE
  8
0
 62
     0
 10
130.919
 20
112.033
 30
0.0
 11
130.919
 21
98.0338
 31
0.0
  0
LINE
  8
0
 62
     0
 10
130.919
 20
98.0338
 30
0.0
 11
116.918
 21
98.0338
 31
0.0
  0
LINE
  8
0
 62
     0
 10
116.918
 20
98.0338
 30
0.0
 11
116.918
 21
112.033
 31
0.0
  0
LINE
  8
0
 62
     0
 10
97.8683
 20
112.033
 30
0.0
 11
111.869
 21
112.033
 31
0.0
  0
LINE
  8
0
 62
     0
 10
111.869
 20
112.033
 30
0.0
 11
111.869
 21
98.0338
 31
0.0
  0
LINE
  8
0
 62
     0
 10
111.869
 20
98.0338
 30
0.0
 11
97.8683
 21
98.0338
 31
0.0
  0
LINE
  8
0
 62
     0
 10
97.8683
 20
98.0338
 30
0.0
 11
97.8683
 21
112.033
 31
0.0
  0
LINE
  8
0
 62
     0
 10
78.8197
 20
112.033
 30
0.0
 11
92.819
 21
112.033
 31
0.0
  0
LINE
  8
0
 62
     0
 10
92.819
 20
112.033
 30
0.0
 11
92.819
 21
98.0338
 31
0.0
  0
LINE
  8
0
 62
     0
 10
92.819
 20
98.0338
 30
0.0
 11
78.8197
 21
98.0338
 31
0.0
  0
LINE
  8
0
 62
     0
 10
78.8197
 20
98.0338
 30
0.0
 11
78.8197
 21
112.033
 31
0.0
  0
LINE
  8
0
 62
     0
 10
59.7697
 20
112.033
 30
0.0
 11
73.769
 21
112.033
 31
0.0
  0
LINE
  8
0
 62
     0
 10
73.769
 20
112.033
 30
0.0
 11
73.769
 21
98.0338
 31
0.0
  0
LINE
  8
0
 62
     0
 10
73.769
 20
98.0338
 30
0.0
 11
59.7697
 21
98.0338
 31
0.0
  0
LINE
  8
0
 62
     0
 10
59.7697
 20
98.0338
 30
0.0
 11
59.7697
 21
112.033
 31
0.0
  0
LINE
  8
0
 62
     0
 10
40.7197
 20
112.033
 30
0.0
 11
54.719
 21
112.033
 31
0.0
  0
LINE
  8
0
 62
     0
 10
54.719
 20
112.033
 30
0.0
 11
54.719
 21
98.0338
 31
0.0
  0
LINE
  8
0
 62
     0
 10
54.719
 20
98.0338
 30
0.0
 11
40.7197
 21
98.0338
 31
0.0
  0
LINE
  8
0
 62
     0
 10
40.7197
 20
98.0338
 30
0.0
 11
40.7197
 21
112.033
 31
0.0
  0
LINE
  8
0
 62
     0
 10
21.6697
 20
112.033
 30
0.0
 11
35.669
 21
112.033
 31
0.0
  0
LINE
  8
0
 62
     0
 10
35.669
 20
112.033
 30
0.0
 11
35.669
 21
98.0338
 31
0.0
  0
LINE
  8
0
 62
     0
 10
35.669
 20
98.0338
 30
0.0
 11
21.6697
 21
98.0338
 31
0.0
  0
LINE
  8
0
 62
     0
 10
21.6697
 20
98.0338
 30
0.0
 11
21.6697
 21
112.033
 31
0.0
  0
LINE
  8
0
 62
     0
 10
2.61965
 20
112.033
 30
0.0
 11
16.6192
 21
112.033
 31
0.0
  0
LINE
  8
0
 62
     0
 10
16.6192
 20
112.033
 30
0.0
 11
16.6192
 21
98.0338
 31
0.0
  0
LINE
  8
0
 62
     0
 10
16.6192
 20
98.0338
 30
0.0
 11
2.61965
 21
98.0338
 31
0.0
  0
LINE
  8
0
 62
     0
 10
2.61965
 20
98.0338
 30
0.0
 11
2.61965
 21
112.033
 31
0.0
  0
ENDSEC
  0
EOF
