  0
SECTION
  2
HEADER
  9
$ACADVER
  1
AC1009
  9
$EXTMIN
 10
0.0
 20
0.0
 30
0.0
  9
$EXTMAX
 10
1000.0
 20
1000.0
 30
0.0
  9
$FILLMODE
 70
 0
  9
$SPLFRAME
 70
 1
  0
ENDSEC
  0
SECTION
  2
TABLES
  0
TABLE
  2
LAYER
 70
1
  0
LAYER
  2
0
 70
     0
 62
     7
  6
CONTINUOUS
  0
ENDTAB
  0
ENDSEC
  0
SECTION
  2
ENTITIES
  0
LINE
  8
0
 62
     0
 10
0.0950846
 20
119.496
 30
0.0
 11
362.045
 21
119.496
 31
0.0
  0
LINE
  8
0
 62
     0
 10
362.045
 20
119.496
 30
0.0
 11
362.045
 21
0.432703
 31
0.0
  0
LINE
  8
0
 62
     0
 10
362.045
 20
0.432703
 30
0.0
 11
0.0950846
 21
0.432703
 31
0.0
  0
LINE
  8
0
 62
     0
 10
0.0950846
 20
0.432703
 30
0.0
 11
0.0950846
 21
119.496
 31
0.0
  0
LINE
  8
0
 62
     0
 10
345.518
 20
16.9595
 30
0.0
 11
359.519
 21
16.9595
 31
0.0
  0
LINE
  8
0
 62
     0
 10
359.519
 20
16.9595
 30
0.0
 11
359.519
 21
2.95865
 31
0.0
  0
LINE
  8
0
 62
     0
 10
359.519
 20
2.95865
 30
0.0
 11
345.518
 21
2.95865
 31
0.0
  0
LINE
  8
0
 62
     0
 10
345.518
 20
2.95865
 30
0.0
 11
345.518
 21
16.9595
 31
0.0
  0
LINE
  8
0
 62
     0
 10
326.468
 20
16.9595
 30
0.0
 11
340.469
 21
16.9595
 31
0.0
  0
LINE
  8
0
 62
     0
 10
340.469
 20
16.9595
 30
0.0
 11
340.469
 21
2.95865
 31
0.0
  0
LINE
  8
0
 62
     0
 10
340.469
 20
2.95865
 30
0.0
 11
326.468
 21
2.95865
 31
0.0
  0
LINE
  8
0
 62
     0
 10
326.468
 20
2.95865
 30
0.0
 11
326.468
 21
16.9595
 31
0.0
  0
LINE
  8
0
 62
     0
 10
307.418
 20
16.9595
 30
0.0
 11
321.419
 21
16.9595
 31
0.0
  0
LINE
  8
0
 62
     0
 10
321.419
 20
16.9595
 30
0.0
 11
321.419
 21
2.95865
 31
0.0
  0
LINE
  8
0
 62
     0
 10
321.419
 20
2.95865
 30
0.0
 11
307.418
 21
2.95865
 31
0.0
  0
LINE
  8
0
 62
     0
 10
307.418
 20
2.95865
 30
0.0
 11
307.418
 21
16.9595
 31
0.0
  0
LINE
  8
0
 62
     0
 10
274.082
 20
16.9595
 30
0.0
 11
288.082
 21
16.9595
 31
0.0
  0
LINE
  8
0
 62
     0
 10
288.082
 20
16.9595
 30
0.0
 11
288.082
 21
2.95865
 31
0.0
  0
LINE
  8
0
 62
     0
 10
288.082
 20
2.95865
 30
0.0
 11
274.082
 21
2.95865
 31
0.0
  0
LINE
  8
0
 62
     0
 10
274.082
 20
2.95865
 30
0.0
 11
274.082
 21
16.9595
 31
0.0
  0
LINE
  8
0
 62
     0
 10
252.65
 20
16.9595
 30
0.0
 11
266.65
 21
16.9595
 31
0.0
  0
LINE
  8
0
 62
     0
 10
266.65
 20
16.9595
 30
0.0
 11
266.65
 21
2.95865
 31
0.0
  0
LINE
  8
0
 62
     0
 10
266.65
 20
2.95865
 30
0.0
 11
252.65
 21
2.95865
 31
0.0
  0
LINE
  8
0
 62
     0
 10
252.65
 20
2.95865
 30
0.0
 11
252.65
 21
16.9595
 31
0.0
  0
LINE
  8
0
 62
     0
 10
231.22
 20
16.9595
 30
0.0
 11
245.219
 21
16.9595
 31
0.0
  0
LINE
  8
0
 62
     0
 10
245.219
 20
16.9595
 30
0.0
 11
245.219
 21
2.95865
 31
0.0
  0
LINE
  8
0
 62
     0
 10
245.219
 20
2.95865
 30
0.0
 11
231.22
 21
2.95865
 31
0.0
  0
LINE
  8
0
 62
     0
 10
231.22
 20
2.95865
 30
0.0
 11
231.22
 21
16.9595
 31
0.0
  0
LINE
  8
0
 62
     0
 10
209.787
 20
16.9595
 30
0.0
 11
223.788
 21
16.9595
 31
0.0
  0
LINE
  8
0
 62
     0
 10
223.788
 20
16.9595
 30
0.0
 11
223.788
 21
2.95865
 31
0.0
  0
LINE
  8
0
 62
     0
 10
223.788
 20
2.95865
 30
0.0
 11
209.787
 21
2.95865
 31
0.0
  0
LINE
  8
0
 62
     0
 10
209.787
 20
2.95865
 30
0.0
 11
209.787
 21
16.9595
 31
0.0
  0
LINE
  8
0
 62
     0
 10
183.595
 20
16.9595
 30
0.0
 11
197.594
 21
16.9595
 31
0.0
  0
LINE
  8
0
 62
     0
 10
197.594
 20
16.9595
 30
0.0
 11
197.594
 21
2.95865
 31
0.0
  0
LINE
  8
0
 62
     0
 10
197.594
 20
2.95865
 30
0.0
 11
183.595
 21
2.95865
 31
0.0
  0
LINE
  8
0
 62
     0
 10
183.595
 20
2.95865
 30
0.0
 11
183.595
 21
16.9595
 31
0.0
  0
LINE
  8
0
 62
     0
 10
164.545
 20
16.9595
 30
0.0
 11
178.544
 21
16.9595
 31
0.0
  0
LINE
  8
0
 62
     0
 10
178.544
 20
16.9595
 30
0.0
 11
178.544
 21
2.95865
 31
0.0
  0
LINE
  8
0
 62
     0
 10
178.544
 20
2.95865
 30
0.0
 11
164.545
 21
2.95865
 31
0.0
  0
LINE
  8
0
 62
     0
 10
164.545
 20
2.95865
 30
0.0
 11
164.545
 21
16.9595
 31
0.0
  0
LINE
  8
0
 62
     0
 10
112.157
 20
16.9595
 30
0.0
 11
126.157
 21
16.9595
 31
0.0
  0
LINE
  8
0
 62
     0
 10
126.157
 20
16.9595
 30
0.0
 11
126.157
 21
2.95865
 31
0.0
  0
LINE
  8
0
 62
     0
 10
126.157
 20
2.95865
 30
0.0
 11
112.157
 21
2.95865
 31
0.0
  0
LINE
  8
0
 62
     0
 10
112.157
 20
2.95865
 30
0.0
 11
112.157
 21
16.9595
 31
0.0
  0
LINE
  8
0
 62
     0
 10
93.1072
 20
16.9595
 30
0.0
 11
107.107
 21
16.9595
 31
0.0
  0
LINE
  8
0
 62
     0
 10
107.107
 20
16.9595
 30
0.0
 11
107.107
 21
2.95865
 31
0.0
  0
LINE
  8
0
 62
     0
 10
107.107
 20
2.95865
 30
0.0
 11
93.1072
 21
2.95865
 31
0.0
  0
LINE
  8
0
 62
     0
 10
93.1072
 20
2.95865
 30
0.0
 11
93.1072
 21
16.9595
 31
0.0
  0
LINE
  8
0
 62
     0
 10
57.3871
 20
16.9595
 30
0.0
 11
71.3878
 21
16.9595
 31
0.0
  0
LINE
  8
0
 62
     0
 10
71.3878
 20
16.9595
 30
0.0
 11
71.3878
 21
2.95865
 31
0.0
  0
LINE
  8
0
 62
     0
 10
71.3878
 20
2.95865
 30
0.0
 11
57.3871
 21
2.95865
 31
0.0
  0
LINE
  8
0
 62
     0
 10
57.3871
 20
2.95865
 30
0.0
 11
57.3871
 21
16.9595
 31
0.0
  0
LINE
  8
0
 62
     0
 10
33.5759
 20
16.9595
 30
0.0
 11
47.5753
 21
16.9595
 31
0.0
  0
LINE
  8
0
 62
     0
 10
47.5753
 20
16.9595
 30
0.0
 11
47.5753
 21
2.95865
 31
0.0
  0
LINE
  8
0
 62
     0
 10
47.5753
 20
2.95865
 30
0.0
 11
33.5759
 21
2.95865
 31
0.0
  0
LINE
  8
0
 62
     0
 10
33.5759
 20
2.95865
 30
0.0
 11
33.5759
 21
16.9595
 31
0.0
  0
LINE
  8
0
 62
     0
 10
9.76203
 20
16.9595
 30
0.0
 11
23.7629
 21
16.9595
 31
0.0
  0
LINE
  8
0
 62
     0
 10
23.7629
 20
16.9595
 30
0.0
 11
23.7629
 21
2.95865
 31
0.0
  0
LINE
  8
0
 62
     0
 10
23.7629
 20
2.95865
 30
0.0
 11
9.76203
 21
2.95865
 31
0.0
  0
LINE
  8
0
 62
     0
 10
9.76203
 20
2.95865
 30
0.0
 11
9.76203
 21
16.9595
 31
0.0
  0
LINE
  8
0
 62
     0
 10
271.701
 20
36.0094
 30
0.0
 11
271.701
 21
31.309
 31
0.0
  0
LINE
  8
0
 62
     0
 10
271.701
 20
31.309
 30
0.0
 11
270.176
 21
31.309
 31
0.0
  0
LINE
  8
0
 62
     0
 10
270.176
 20
31.309
 30
0.0
 11
270.176
 21
34.5392
 31
0.0
  0
LINE
  8
0
 62
     0
 10
270.176
 20
34.5392
 30
0.0
 11
263.426
 21
34.5392
 31
0.0
  0
LINE
  8
0
 62
     0
 10
263.426
 20
34.5392
 30
0.0
 11
263.426
 21
31.309
 31
0.0
  0
LINE
  8
0
 62
     0
 10
263.426
 20
31.309
 30
0.0
 11
262.6
 21
31.309
 31
0.0
  0
LINE
  8
0
 62
     0
 10
262.6
 20
31.309
 30
0.0
 11
262.6
 21
28.5089
 31
0.0
  0
LINE
  8
0
 62
     0
 10
262.6
 20
28.5089
 30
0.0
 11
263.426
 21
28.5089
 31
0.0
  0
LINE
  8
0
 62
     0
 10
263.426
 20
28.5089
 30
0.0
 11
263.426
 21
22.2388
 31
0.0
  0
LINE
  8
0
 62
     0
 10
263.426
 20
22.2388
 30
0.0
 11
265.151
 21
22.2388
 31
0.0
  0
LINE
  8
0
 62
     0
 10
265.151
 20
22.2388
 30
0.0
 11
265.151
 21
21.0385
 31
0.0
  0
LINE
  8
0
 62
     0
 10
265.151
 20
21.0385
 30
0.0
 11
268.45
 21
21.0385
 31
0.0
  0
LINE
  8
0
 62
     0
 10
268.45
 20
21.0385
 30
0.0
 11
268.45
 21
22.2388
 31
0.0
  0
LINE
  8
0
 62
     0
 10
268.45
 20
22.2388
 30
0.0
 11
270.176
 21
22.2388
 31
0.0
  0
LINE
  8
0
 62
     0
 10
270.176
 20
22.2388
 30
0.0
 11
270.176
 21
26.7091
 31
0.0
  0
LINE
  8
0
 62
     0
 10
270.176
 20
26.7091
 30
0.0
 11
271.701
 21
26.7091
 31
0.0
  0
LINE
  8
0
 62
     0
 10
271.701
 20
26.7091
 30
0.0
 11
271.701
 21
22.0086
 31
0.0
  0
LINE
  8
0
 62
     0
 10
271.701
 20
22.0086
 30
0.0
 11
285.7
 21
22.0086
 31
0.0
  0
LINE
  8
0
 62
     0
 10
285.7
 20
22.0086
 30
0.0
 11
285.7
 21
26.7091
 31
0.0
  0
LINE
  8
0
 62
     0
 10
285.7
 20
26.7091
 30
0.0
 11
287.226
 21
26.7091
 31
0.0
  0
LINE
  8
0
 62
     0
 10
287.226
 20
26.7091
 30
0.0
 11
287.226
 21
22.2388
 31
0.0
  0
LINE
  8
0
 62
     0
 10
287.226
 20
22.2388
 30
0.0
 11
288.951
 21
22.2388
 31
0.0
  0
LINE
  8
0
 62
     0
 10
288.951
 20
22.2388
 30
0.0
 11
288.951
 21
21.0385
 31
0.0
  0
LINE
  8
0
 62
     0
 10
288.951
 20
21.0385
 30
0.0
 11
292.25
 21
21.0385
 31
0.0
  0
LINE
  8
0
 62
     0
 10
292.25
 20
21.0385
 30
0.0
 11
292.25
 21
22.2388
 31
0.0
  0
LINE
  8
0
 62
     0
 10
292.25
 20
22.2388
 30
0.0
 11
293.975
 21
22.2388
 31
0.0
  0
LINE
  8
0
 62
     0
 10
293.975
 20
22.2388
 30
0.0
 11
293.975
 21
28.5089
 31
0.0
  0
LINE
  8
0
 62
     0
 10
293.975
 20
28.5089
 30
0.0
 11
294.801
 21
28.5089
 31
0.0
  0
LINE
  8
0
 62
     0
 10
294.801
 20
28.5089
 30
0.0
 11
294.801
 21
31.309
 31
0.0
  0
LINE
  8
0
 62
     0
 10
294.801
 20
31.309
 30
0.0
 11
293.975
 21
31.309
 31
0.0
  0
LINE
  8
0
 62
     0
 10
293.975
 20
31.309
 30
0.0
 11
293.975
 21
34.5392
 31
0.0
  0
LINE
  8
0
 62
     0
 10
293.975
 20
34.5392
 30
0.0
 11
287.226
 21
34.5392
 31
0.0
  0
LINE
  8
0
 62
     0
 10
287.226
 20
34.5392
 30
0.0
 11
287.226
 21
31.309
 31
0.0
  0
LINE
  8
0
 62
     0
 10
287.226
 20
31.309
 30
0.0
 11
285.7
 21
31.309
 31
0.0
  0
LINE
  8
0
 62
     0
 10
285.7
 20
31.309
 30
0.0
 11
285.7
 21
36.0094
 31
0.0
  0
LINE
  8
0
 62
     0
 10
285.7
 20
36.0094
 30
0.0
 11
271.701
 21
36.0094
 31
0.0
  0
LINE
  8
0
 62
     0
 10
326.47
 20
36.0094
 30
0.0
 11
340.469
 21
36.0094
 31
0.0
  0
LINE
  8
0
 62
     0
 10
340.469
 20
36.0094
 30
0.0
 11
340.469
 21
22.0086
 31
0.0
  0
LINE
  8
0
 62
     0
 10
340.469
 20
22.0086
 30
0.0
 11
326.47
 21
22.0086
 31
0.0
  0
LINE
  8
0
 62
     0
 10
326.47
 20
22.0086
 30
0.0
 11
326.47
 21
36.0094
 31
0.0
  0
LINE
  8
0
 62
     0
 10
240.745
 20
36.0094
 30
0.0
 11
254.744
 21
36.0094
 31
0.0
  0
LINE
  8
0
 62
     0
 10
254.744
 20
36.0094
 30
0.0
 11
254.744
 21
22.0086
 31
0.0
  0
LINE
  8
0
 62
     0
 10
254.744
 20
22.0086
 30
0.0
 11
240.745
 21
22.0086
 31
0.0
  0
LINE
  8
0
 62
     0
 10
240.745
 20
22.0086
 30
0.0
 11
240.745
 21
36.0094
 31
0.0
  0
LINE
  8
0
 62
     0
 10
221.695
 20
36.0094
 30
0.0
 11
235.694
 21
36.0094
 31
0.0
  0
LINE
  8
0
 62
     0
 10
235.694
 20
36.0094
 30
0.0
 11
235.694
 21
22.0086
 31
0.0
  0
LINE
  8
0
 62
     0
 10
235.694
 20
22.0086
 30
0.0
 11
221.695
 21
22.0086
 31
0.0
  0
LINE
  8
0
 62
     0
 10
221.695
 20
22.0086
 30
0.0
 11
221.695
 21
36.0094
 31
0.0
  0
LINE
  8
0
 62
     0
 10
202.645
 20
36.0094
 30
0.0
 11
216.644
 21
36.0094
 31
0.0
  0
LINE
  8
0
 62
     0
 10
216.644
 20
36.0094
 30
0.0
 11
216.644
 21
22.0086
 31
0.0
  0
LINE
  8
0
 62
     0
 10
216.644
 20
22.0086
 30
0.0
 11
202.645
 21
22.0086
 31
0.0
  0
LINE
  8
0
 62
     0
 10
202.645
 20
22.0086
 30
0.0
 11
202.645
 21
36.0094
 31
0.0
  0
LINE
  8
0
 62
     0
 10
183.595
 20
36.0094
 30
0.0
 11
197.594
 21
36.0094
 31
0.0
  0
LINE
  8
0
 62
     0
 10
197.594
 20
36.0094
 30
0.0
 11
197.594
 21
22.0086
 31
0.0
  0
LINE
  8
0
 62
     0
 10
197.594
 20
22.0086
 30
0.0
 11
183.595
 21
22.0086
 31
0.0
  0
LINE
  8
0
 62
     0
 10
183.595
 20
22.0086
 30
0.0
 11
183.595
 21
36.0094
 31
0.0
  0
LINE
  8
0
 62
     0
 10
164.545
 20
36.0094
 30
0.0
 11
178.544
 21
36.0094
 31
0.0
  0
LINE
  8
0
 62
     0
 10
178.544
 20
36.0094
 30
0.0
 11
178.544
 21
22.0086
 31
0.0
  0
LINE
  8
0
 62
     0
 10
178.544
 20
22.0086
 30
0.0
 11
164.545
 21
22.0086
 31
0.0
  0
LINE
  8
0
 62
     0
 10
164.545
 20
22.0086
 30
0.0
 11
164.545
 21
36.0094
 31
0.0
  0
LINE
  8
0
 62
     0
 10
112.157
 20
36.0094
 30
0.0
 11
126.157
 21
36.0094
 31
0.0
  0
LINE
  8
0
 62
     0
 10
126.157
 20
36.0094
 30
0.0
 11
126.157
 21
22.0086
 31
0.0
  0
LINE
  8
0
 62
     0
 10
126.157
 20
22.0086
 30
0.0
 11
112.157
 21
22.0086
 31
0.0
  0
LINE
  8
0
 62
     0
 10
112.157
 20
22.0086
 30
0.0
 11
112.157
 21
36.0094
 31
0.0
  0
LINE
  8
0
 62
     0
 10
93.1072
 20
36.0094
 30
0.0
 11
107.107
 21
36.0094
 31
0.0
  0
LINE
  8
0
 62
     0
 10
107.107
 20
36.0094
 30
0.0
 11
107.107
 21
22.0086
 31
0.0
  0
LINE
  8
0
 62
     0
 10
107.107
 20
22.0086
 30
0.0
 11
93.1072
 21
22.0086
 31
0.0
  0
LINE
  8
0
 62
     0
 10
93.1072
 20
22.0086
 30
0.0
 11
93.1072
 21
36.0094
 31
0.0
  0
LINE
  8
0
 62
     0
 10
74.0572
 20
36.0094
 30
0.0
 11
88.0565
 21
36.0094
 31
0.0
  0
LINE
  8
0
 62
     0
 10
88.0565
 20
36.0094
 30
0.0
 11
88.0565
 21
22.0086
 31
0.0
  0
LINE
  8
0
 62
     0
 10
88.0565
 20
22.0086
 30
0.0
 11
74.0572
 21
22.0086
 31
0.0
  0
LINE
  8
0
 62
     0
 10
74.0572
 20
22.0086
 30
0.0
 11
74.0572
 21
36.0094
 31
0.0
  0
LINE
  8
0
 62
     0
 10
55.0072
 20
36.0094
 30
0.0
 11
69.0065
 21
36.0094
 31
0.0
  0
LINE
  8
0
 62
     0
 10
69.0065
 20
36.0094
 30
0.0
 11
69.0065
 21
22.0086
 31
0.0
  0
LINE
  8
0
 62
     0
 10
69.0065
 20
22.0086
 30
0.0
 11
55.0072
 21
22.0086
 31
0.0
  0
LINE
  8
0
 62
     0
 10
55.0072
 20
22.0086
 30
0.0
 11
55.0072
 21
36.0094
 31
0.0
  0
LINE
  8
0
 62
     0
 10
35.9572
 20
36.0094
 30
0.0
 11
49.9565
 21
36.0094
 31
0.0
  0
LINE
  8
0
 62
     0
 10
49.9565
 20
36.0094
 30
0.0
 11
49.9565
 21
22.0086
 31
0.0
  0
LINE
  8
0
 62
     0
 10
49.9565
 20
22.0086
 30
0.0
 11
35.9572
 21
22.0086
 31
0.0
  0
LINE
  8
0
 62
     0
 10
35.9572
 20
22.0086
 30
0.0
 11
35.9572
 21
36.0094
 31
0.0
  0
LINE
  8
0
 62
     0
 10
9.76203
 20
36.0094
 30
0.0
 11
23.7629
 21
36.0094
 31
0.0
  0
LINE
  8
0
 62
     0
 10
23.7629
 20
36.0094
 30
0.0
 11
23.7629
 21
22.0086
 31
0.0
  0
LINE
  8
0
 62
     0
 10
23.7629
 20
22.0086
 30
0.0
 11
9.76203
 21
22.0086
 31
0.0
  0
LINE
  8
0
 62
     0
 10
9.76203
 20
22.0086
 30
0.0
 11
9.76203
 21
36.0094
 31
0.0
  0
LINE
  8
0
 62
     0
 10
345.52
 20
55.0594
 30
0.0
 11
359.519
 21
55.0594
 31
0.0
  0
LINE
  8
0
 62
     0
 10
359.519
 20
55.0594
 30
0.0
 11
359.519
 21
41.0587
 31
0.0
  0
LINE
  8
0
 62
     0
 10
359.519
 20
41.0587
 30
0.0
 11
345.52
 21
41.0587
 31
0.0
  0
LINE
  8
0
 62
     0
 10
345.52
 20
41.0587
 30
0.0
 11
345.52
 21
55.0594
 31
0.0
  0
LINE
  8
0
 62
     0
 10
326.47
 20
55.0594
 30
0.0
 11
340.469
 21
55.0594
 31
0.0
  0
LINE
  8
0
 62
     0
 10
340.469
 20
55.0594
 30
0.0
 11
340.469
 21
41.0587
 31
0.0
  0
LINE
  8
0
 62
     0
 10
340.469
 20
41.0587
 30
0.0
 11
326.47
 21
41.0587
 31
0.0
  0
LINE
  8
0
 62
     0
 10
326.47
 20
41.0587
 30
0.0
 11
326.47
 21
55.0594
 31
0.0
  0
LINE
  8
0
 62
     0
 10
285.987
 20
55.0594
 30
0.0
 11
299.988
 21
55.0594
 31
0.0
  0
LINE
  8
0
 62
     0
 10
299.988
 20
55.0594
 30
0.0
 11
299.988
 21
41.0587
 31
0.0
  0
LINE
  8
0
 62
     0
 10
299.988
 20
41.0587
 30
0.0
 11
285.987
 21
41.0587
 31
0.0
  0
LINE
  8
0
 62
     0
 10
285.987
 20
41.0587
 30
0.0
 11
285.987
 21
55.0594
 31
0.0
  0
LINE
  8
0
 62
     0
 10
259.795
 20
55.0594
 30
0.0
 11
273.794
 21
55.0594
 31
0.0
  0
LINE
  8
0
 62
     0
 10
273.794
 20
55.0594
 30
0.0
 11
273.794
 21
41.0587
 31
0.0
  0
LINE
  8
0
 62
     0
 10
273.794
 20
41.0587
 30
0.0
 11
259.795
 21
41.0587
 31
0.0
  0
LINE
  8
0
 62
     0
 10
259.795
 20
41.0587
 30
0.0
 11
259.795
 21
55.0594
 31
0.0
  0
LINE
  8
0
 62
     0
 10
240.745
 20
55.0594
 30
0.0
 11
254.744
 21
55.0594
 31
0.0
  0
LINE
  8
0
 62
     0
 10
254.744
 20
55.0594
 30
0.0
 11
254.744
 21
41.0587
 31
0.0
  0
LINE
  8
0
 62
     0
 10
254.744
 20
41.0587
 30
0.0
 11
240.745
 21
41.0587
 31
0.0
  0
LINE
  8
0
 62
     0
 10
240.745
 20
41.0587
 30
0.0
 11
240.745
 21
55.0594
 31
0.0
  0
LINE
  8
0
 62
     0
 10
221.695
 20
55.0594
 30
0.0
 11
235.694
 21
55.0594
 31
0.0
  0
LINE
  8
0
 62
     0
 10
235.694
 20
55.0594
 30
0.0
 11
235.694
 21
41.0587
 31
0.0
  0
LINE
  8
0
 62
     0
 10
235.694
 20
41.0587
 30
0.0
 11
221.695
 21
41.0587
 31
0.0
  0
LINE
  8
0
 62
     0
 10
221.695
 20
41.0587
 30
0.0
 11
221.695
 21
55.0594
 31
0.0
  0
LINE
  8
0
 62
     0
 10
202.645
 20
55.0594
 30
0.0
 11
216.644
 21
55.0594
 31
0.0
  0
LINE
  8
0
 62
     0
 10
216.644
 20
55.0594
 30
0.0
 11
216.644
 21
41.0587
 31
0.0
  0
LINE
  8
0
 62
     0
 10
216.644
 20
41.0587
 30
0.0
 11
202.645
 21
41.0587
 31
0.0
  0
LINE
  8
0
 62
     0
 10
202.645
 20
41.0587
 30
0.0
 11
202.645
 21
55.0594
 31
0.0
  0
LINE
  8
0
 62
     0
 10
183.595
 20
55.0594
 30
0.0
 11
197.594
 21
55.0594
 31
0.0
  0
LINE
  8
0
 62
     0
 10
197.594
 20
55.0594
 30
0.0
 11
197.594
 21
41.0587
 31
0.0
  0
LINE
  8
0
 62
     0
 10
197.594
 20
41.0587
 30
0.0
 11
183.595
 21
41.0587
 31
0.0
  0
LINE
  8
0
 62
     0
 10
183.595
 20
41.0587
 30
0.0
 11
183.595
 21
55.0594
 31
0.0
  0
LINE
  8
0
 62
     0
 10
164.545
 20
55.0594
 30
0.0
 11
178.544
 21
55.0594
 31
0.0
  0
LINE
  8
0
 62
     0
 10
178.544
 20
55.0594
 30
0.0
 11
178.544
 21
41.0587
 31
0.0
  0
LINE
  8
0
 62
     0
 10
178.544
 20
41.0587
 30
0.0
 11
164.545
 21
41.0587
 31
0.0
  0
LINE
  8
0
 62
     0
 10
164.545
 20
41.0587
 30
0.0
 11
164.545
 21
55.0594
 31
0.0
  0
LINE
  8
0
 62
     0
 10
112.157
 20
55.0594
 30
0.0
 11
126.157
 21
55.0594
 31
0.0
  0
LINE
  8
0
 62
     0
 10
126.157
 20
55.0594
 30
0.0
 11
126.157
 21
41.0587
 31
0.0
  0
LINE
  8
0
 62
     0
 10
126.157
 20
41.0587
 30
0.0
 11
112.157
 21
41.0587
 31
0.0
  0
LINE
  8
0
 62
     0
 10
112.157
 20
41.0587
 30
0.0
 11
112.157
 21
55.0594
 31
0.0
  0
LINE
  8
0
 62
     0
 10
93.1072
 20
55.0594
 30
0.0
 11
107.107
 21
55.0594
 31
0.0
  0
LINE
  8
0
 62
     0
 10
107.107
 20
55.0594
 30
0.0
 11
107.107
 21
41.0587
 31
0.0
  0
LINE
  8
0
 62
     0
 10
107.107
 20
41.0587
 30
0.0
 11
93.1072
 21
41.0587
 31
0.0
  0
LINE
  8
0
 62
     0
 10
93.1072
 20
41.0587
 30
0.0
 11
93.1072
 21
55.0594
 31
0.0
  0
LINE
  8
0
 62
     0
 10
74.0572
 20
55.0594
 30
0.0
 11
88.0565
 21
55.0594
 31
0.0
  0
LINE
  8
0
 62
     0
 10
88.0565
 20
55.0594
 30
0.0
 11
88.0565
 21
41.0587
 31
0.0
  0
LINE
  8
0
 62
     0
 10
88.0565
 20
41.0587
 30
0.0
 11
74.0572
 21
41.0587
 31
0.0
  0
LINE
  8
0
 62
     0
 10
74.0572
 20
41.0587
 30
0.0
 11
74.0572
 21
55.0594
 31
0.0
  0
LINE
  8
0
 62
     0
 10
55.0072
 20
55.0594
 30
0.0
 11
69.0065
 21
55.0594
 31
0.0
  0
LINE
  8
0
 62
     0
 10
69.0065
 20
55.0594
 30
0.0
 11
69.0065
 21
41.0587
 31
0.0
  0
LINE
  8
0
 62
     0
 10
69.0065
 20
41.0587
 30
0.0
 11
55.0072
 21
41.0587
 31
0.0
  0
LINE
  8
0
 62
     0
 10
55.0072
 20
41.0587
 30
0.0
 11
55.0072
 21
55.0594
 31
0.0
  0
LINE
  8
0
 62
     0
 10
35.9572
 20
55.0594
 30
0.0
 11
49.9565
 21
55.0594
 31
0.0
  0
LINE
  8
0
 62
     0
 10
49.9565
 20
55.0594
 30
0.0
 11
49.9565
 21
41.0587
 31
0.0
  0
LINE
  8
0
 62
     0
 10
49.9565
 20
41.0587
 30
0.0
 11
35.9572
 21
41.0587
 31
0.0
  0
LINE
  8
0
 62
     0
 10
35.9572
 20
41.0587
 30
0.0
 11
35.9572
 21
55.0594
 31
0.0
  0
LINE
  8
0
 62
     0
 10
9.76203
 20
55.0594
 30
0.0
 11
23.7629
 21
55.0594
 31
0.0
  0
LINE
  8
0
 62
     0
 10
23.7629
 20
55.0594
 30
0.0
 11
23.7629
 21
41.0587
 31
0.0
  0
LINE
  8
0
 62
     0
 10
23.7629
 20
41.0587
 30
0.0
 11
9.76203
 21
41.0587
 31
0.0
  0
LINE
  8
0
 62
     0
 10
9.76203
 20
41.0587
 30
0.0
 11
9.76203
 21
55.0594
 31
0.0
  0
LINE
  8
0
 62
     0
 10
345.52
 20
74.1094
 30
0.0
 11
359.519
 21
74.1094
 31
0.0
  0
LINE
  8
0
 62
     0
 10
359.519
 20
74.1094
 30
0.0
 11
359.519
 21
60.1087
 31
0.0
  0
LINE
  8
0
 62
     0
 10
359.519
 20
60.1087
 30
0.0
 11
345.52
 21
60.1087
 31
0.0
  0
LINE
  8
0
 62
     0
 10
345.52
 20
60.1087
 30
0.0
 11
345.52
 21
74.1094
 31
0.0
  0
LINE
  8
0
 62
     0
 10
326.47
 20
74.1094
 30
0.0
 11
340.469
 21
74.1094
 31
0.0
  0
LINE
  8
0
 62
     0
 10
340.469
 20
74.1094
 30
0.0
 11
340.469
 21
60.1087
 31
0.0
  0
LINE
  8
0
 62
     0
 10
340.469
 20
60.1087
 30
0.0
 11
326.47
 21
60.1087
 31
0.0
  0
LINE
  8
0
 62
     0
 10
326.47
 20
60.1087
 30
0.0
 11
326.47
 21
74.1094
 31
0.0
  0
LINE
  8
0
 62
     0
 10
297.895
 20
74.1094
 30
0.0
 11
311.894
 21
74.1094
 31
0.0
  0
LINE
  8
0
 62
     0
 10
311.894
 20
74.1094
 30
0.0
 11
311.894
 21
60.1087
 31
0.0
  0
LINE
  8
0
 62
     0
 10
311.894
 20
60.1087
 30
0.0
 11
297.895
 21
60.1087
 31
0.0
  0
LINE
  8
0
 62
     0
 10
297.895
 20
60.1087
 30
0.0
 11
297.895
 21
74.1094
 31
0.0
  0
LINE
  8
0
 62
     0
 10
278.845
 20
74.1094
 30
0.0
 11
292.844
 21
74.1094
 31
0.0
  0
LINE
  8
0
 62
     0
 10
292.844
 20
74.1094
 30
0.0
 11
292.844
 21
60.1087
 31
0.0
  0
LINE
  8
0
 62
     0
 10
292.844
 20
60.1087
 30
0.0
 11
278.845
 21
60.1087
 31
0.0
  0
LINE
  8
0
 62
     0
 10
278.845
 20
60.1087
 30
0.0
 11
278.845
 21
74.1094
 31
0.0
  0
LINE
  8
0
 62
     0
 10
259.795
 20
74.1094
 30
0.0
 11
273.794
 21
74.1094
 31
0.0
  0
LINE
  8
0
 62
     0
 10
273.794
 20
74.1094
 30
0.0
 11
273.794
 21
60.1087
 31
0.0
  0
LINE
  8
0
 62
     0
 10
273.794
 20
60.1087
 30
0.0
 11
259.795
 21
60.1087
 31
0.0
  0
LINE
  8
0
 62
     0
 10
259.795
 20
60.1087
 30
0.0
 11
259.795
 21
74.1094
 31
0.0
  0
LINE
  8
0
 62
     0
 10
240.745
 20
74.1094
 30
0.0
 11
254.744
 21
74.1094
 31
0.0
  0
LINE
  8
0
 62
     0
 10
254.744
 20
74.1094
 30
0.0
 11
254.744
 21
60.1087
 31
0.0
  0
LINE
  8
0
 62
     0
 10
254.744
 20
60.1087
 30
0.0
 11
240.745
 21
60.1087
 31
0.0
  0
LINE
  8
0
 62
     0
 10
240.745
 20
60.1087
 30
0.0
 11
240.745
 21
74.1094
 31
0.0
  0
LINE
  8
0
 62
     0
 10
221.695
 20
74.1094
 30
0.0
 11
235.694
 21
74.1094
 31
0.0
  0
LINE
  8
0
 62
     0
 10
235.694
 20
74.1094
 30
0.0
 11
235.694
 21
60.1087
 31
0.0
  0
LINE
  8
0
 62
     0
 10
235.694
 20
60.1087
 30
0.0
 11
221.695
 21
60.1087
 31
0.0
  0
LINE
  8
0
 62
     0
 10
221.695
 20
60.1087
 30
0.0
 11
221.695
 21
74.1094
 31
0.0
  0
LINE
  8
0
 62
     0
 10
202.645
 20
74.1094
 30
0.0
 11
216.644
 21
74.1094
 31
0.0
  0
LINE
  8
0
 62
     0
 10
216.644
 20
74.1094
 30
0.0
 11
216.644
 21
60.1087
 31
0.0
  0
LINE
  8
0
 62
     0
 10
216.644
 20
60.1087
 30
0.0
 11
202.645
 21
60.1087
 31
0.0
  0
LINE
  8
0
 62
     0
 10
202.645
 20
60.1087
 30
0.0
 11
202.645
 21
74.1094
 31
0.0
  0
LINE
  8
0
 62
     0
 10
183.595
 20
74.1094
 30
0.0
 11
197.594
 21
74.1094
 31
0.0
  0
LINE
  8
0
 62
     0
 10
197.594
 20
74.1094
 30
0.0
 11
197.594
 21
60.1087
 31
0.0
  0
LINE
  8
0
 62
     0
 10
197.594
 20
60.1087
 30
0.0
 11
183.595
 21
60.1087
 31
0.0
  0
LINE
  8
0
 62
     0
 10
183.595
 20
60.1087
 30
0.0
 11
183.595
 21
74.1094
 31
0.0
  0
LINE
  8
0
 62
     0
 10
164.545
 20
74.1094
 30
0.0
 11
178.544
 21
74.1094
 31
0.0
  0
LINE
  8
0
 62
     0
 10
178.544
 20
74.1094
 30
0.0
 11
178.544
 21
60.1087
 31
0.0
  0
LINE
  8
0
 62
     0
 10
178.544
 20
60.1087
 30
0.0
 11
164.545
 21
60.1087
 31
0.0
  0
LINE
  8
0
 62
     0
 10
164.545
 20
60.1087
 30
0.0
 11
164.545
 21
74.1094
 31
0.0
  0
LINE
  8
0
 62
     0
 10
112.157
 20
74.1094
 30
0.0
 11
126.157
 21
74.1094
 31
0.0
  0
LINE
  8
0
 62
     0
 10
126.157
 20
74.1094
 30
0.0
 11
126.157
 21
60.1087
 31
0.0
  0
LINE
  8
0
 62
     0
 10
126.157
 20
60.1087
 30
0.0
 11
112.157
 21
60.1087
 31
0.0
  0
LINE
  8
0
 62
     0
 10
112.157
 20
60.1087
 30
0.0
 11
112.157
 21
74.1094
 31
0.0
  0
LINE
  8
0
 62
     0
 10
93.1072
 20
74.1094
 30
0.0
 11
107.107
 21
74.1094
 31
0.0
  0
LINE
  8
0
 62
     0
 10
107.107
 20
74.1094
 30
0.0
 11
107.107
 21
60.1087
 31
0.0
  0
LINE
  8
0
 62
     0
 10
107.107
 20
60.1087
 30
0.0
 11
93.1072
 21
60.1087
 31
0.0
  0
LINE
  8
0
 62
     0
 10
93.1072
 20
60.1087
 30
0.0
 11
93.1072
 21
74.1094
 31
0.0
  0
LINE
  8
0
 62
     0
 10
74.0572
 20
74.1094
 30
0.0
 11
88.0565
 21
74.1094
 31
0.0
  0
LINE
  8
0
 62
     0
 10
88.0565
 20
74.1094
 30
0.0
 11
88.0565
 21
60.1087
 31
0.0
  0
LINE
  8
0
 62
     0
 10
88.0565
 20
60.1087
 30
0.0
 11
74.0572
 21
60.1087
 31
0.0
  0
LINE
  8
0
 62
     0
 10
74.0572
 20
60.1087
 30
0.0
 11
74.0572
 21
74.1094
 31
0.0
  0
LINE
  8
0
 62
     0
 10
55.0072
 20
74.1094
 30
0.0
 11
69.0065
 21
74.1094
 31
0.0
  0
LINE
  8
0
 62
     0
 10
69.0065
 20
74.1094
 30
0.0
 11
69.0065
 21
60.1087
 31
0.0
  0
LINE
  8
0
 62
     0
 10
69.0065
 20
60.1087
 30
0.0
 11
55.0072
 21
60.1087
 31
0.0
  0
LINE
  8
0
 62
     0
 10
55.0072
 20
60.1087
 30
0.0
 11
55.0072
 21
74.1094
 31
0.0
  0
LINE
  8
0
 62
     0
 10
35.9572
 20
74.1094
 30
0.0
 11
49.9565
 21
74.1094
 31
0.0
  0
LINE
  8
0
 62
     0
 10
49.9565
 20
74.1094
 30
0.0
 11
49.9565
 21
60.1087
 31
0.0
  0
LINE
  8
0
 62
     0
 10
49.9565
 20
60.1087
 30
0.0
 11
35.9572
 21
60.1087
 31
0.0
  0
LINE
  8
0
 62
     0
 10
35.9572
 20
60.1087
 30
0.0
 11
35.9572
 21
74.1094
 31
0.0
  0
LINE
  8
0
 62
     0
 10
12.1447
 20
74.1094
 30
0.0
 11
26.1441
 21
74.1094
 31
0.0
  0
LINE
  8
0
 62
     0
 10
26.1441
 20
74.1094
 30
0.0
 11
26.1441
 21
60.1087
 31
0.0
  0
LINE
  8
0
 62
     0
 10
26.1441
 20
60.1087
 30
0.0
 11
12.1447
 21
60.1087
 31
0.0
  0
LINE
  8
0
 62
     0
 10
12.1447
 20
60.1087
 30
0.0
 11
12.1447
 21
74.1094
 31
0.0
  0
LINE
  8
0
 62
     0
 10
345.52
 20
93.1594
 30
0.0
 11
359.519
 21
93.1594
 31
0.0
  0
LINE
  8
0
 62
     0
 10
359.519
 20
93.1594
 30
0.0
 11
359.519
 21
79.1587
 31
0.0
  0
LINE
  8
0
 62
     0
 10
359.519
 20
79.1587
 30
0.0
 11
345.52
 21
79.1587
 31
0.0
  0
LINE
  8
0
 62
     0
 10
345.52
 20
79.1587
 30
0.0
 11
345.52
 21
93.1594
 31
0.0
  0
LINE
  8
0
 62
     0
 10
326.47
 20
93.1594
 30
0.0
 11
340.469
 21
93.1594
 31
0.0
  0
LINE
  8
0
 62
     0
 10
340.469
 20
93.1594
 30
0.0
 11
340.469
 21
79.1587
 31
0.0
  0
LINE
  8
0
 62
     0
 10
340.469
 20
79.1587
 30
0.0
 11
326.47
 21
79.1587
 31
0.0
  0
LINE
  8
0
 62
     0
 10
326.47
 20
79.1587
 30
0.0
 11
326.47
 21
93.1594
 31
0.0
  0
LINE
  8
0
 62
     0
 10
297.895
 20
93.1594
 30
0.0
 11
311.894
 21
93.1594
 31
0.0
  0
LINE
  8
0
 62
     0
 10
311.894
 20
93.1594
 30
0.0
 11
311.894
 21
79.1587
 31
0.0
  0
LINE
  8
0
 62
     0
 10
311.894
 20
79.1587
 30
0.0
 11
297.895
 21
79.1587
 31
0.0
  0
LINE
  8
0
 62
     0
 10
297.895
 20
79.1587
 30
0.0
 11
297.895
 21
93.1594
 31
0.0
  0
LINE
  8
0
 62
     0
 10
278.845
 20
93.1594
 30
0.0
 11
292.844
 21
93.1594
 31
0.0
  0
LINE
  8
0
 62
     0
 10
292.844
 20
93.1594
 30
0.0
 11
292.844
 21
79.1587
 31
0.0
  0
LINE
  8
0
 62
     0
 10
292.844
 20
79.1587
 30
0.0
 11
278.845
 21
79.1587
 31
0.0
  0
LINE
  8
0
 62
     0
 10
278.845
 20
79.1587
 30
0.0
 11
278.845
 21
93.1594
 31
0.0
  0
LINE
  8
0
 62
     0
 10
259.795
 20
93.1594
 30
0.0
 11
273.794
 21
93.1594
 31
0.0
  0
LINE
  8
0
 62
     0
 10
273.794
 20
93.1594
 30
0.0
 11
273.794
 21
79.1587
 31
0.0
  0
LINE
  8
0
 62
     0
 10
273.794
 20
79.1587
 30
0.0
 11
259.795
 21
79.1587
 31
0.0
  0
LINE
  8
0
 62
     0
 10
259.795
 20
79.1587
 30
0.0
 11
259.795
 21
93.1594
 31
0.0
  0
LINE
  8
0
 62
     0
 10
240.745
 20
93.1594
 30
0.0
 11
254.744
 21
93.1594
 31
0.0
  0
LINE
  8
0
 62
     0
 10
254.744
 20
93.1594
 30
0.0
 11
254.744
 21
79.1587
 31
0.0
  0
LINE
  8
0
 62
     0
 10
254.744
 20
79.1587
 30
0.0
 11
240.745
 21
79.1587
 31
0.0
  0
LINE
  8
0
 62
     0
 10
240.745
 20
79.1587
 30
0.0
 11
240.745
 21
93.1594
 31
0.0
  0
LINE
  8
0
 62
     0
 10
221.695
 20
93.1594
 30
0.0
 11
235.694
 21
93.1594
 31
0.0
  0
LINE
  8
0
 62
     0
 10
235.694
 20
93.1594
 30
0.0
 11
235.694
 21
79.1587
 31
0.0
  0
LINE
  8
0
 62
     0
 10
235.694
 20
79.1587
 30
0.0
 11
221.695
 21
79.1587
 31
0.0
  0
LINE
  8
0
 62
     0
 10
221.695
 20
79.1587
 30
0.0
 11
221.695
 21
93.1594
 31
0.0
  0
LINE
  8
0
 62
     0
 10
202.645
 20
93.1594
 30
0.0
 11
216.644
 21
93.1594
 31
0.0
  0
LINE
  8
0
 62
     0
 10
216.644
 20
93.1594
 30
0.0
 11
216.644
 21
79.1587
 31
0.0
  0
LINE
  8
0
 62
     0
 10
216.644
 20
79.1587
 30
0.0
 11
202.645
 21
79.1587
 31
0.0
  0
LINE
  8
0
 62
     0
 10
202.645
 20
79.1587
 30
0.0
 11
202.645
 21
93.1594
 31
0.0
  0
LINE
  8
0
 62
     0
 10
183.595
 20
93.1594
 30
0.0
 11
197.594
 21
93.1594
 31
0.0
  0
LINE
  8
0
 62
     0
 10
197.594
 20
93.1594
 30
0.0
 11
197.594
 21
79.1587
 31
0.0
  0
LINE
  8
0
 62
     0
 10
197.594
 20
79.1587
 30
0.0
 11
183.595
 21
79.1587
 31
0.0
  0
LINE
  8
0
 62
     0
 10
183.595
 20
79.1587
 30
0.0
 11
183.595
 21
93.1594
 31
0.0
  0
LINE
  8
0
 62
     0
 10
164.545
 20
93.1594
 30
0.0
 11
178.544
 21
93.1594
 31
0.0
  0
LINE
  8
0
 62
     0
 10
178.544
 20
93.1594
 30
0.0
 11
178.544
 21
79.1587
 31
0.0
  0
LINE
  8
0
 62
     0
 10
178.544
 20
79.1587
 30
0.0
 11
164.545
 21
79.1587
 31
0.0
  0
LINE
  8
0
 62
     0
 10
164.545
 20
79.1587
 30
0.0
 11
164.545
 21
93.1594
 31
0.0
  0
LINE
  8
0
 62
     0
 10
112.157
 20
93.1594
 30
0.0
 11
126.157
 21
93.1594
 31
0.0
  0
LINE
  8
0
 62
     0
 10
126.157
 20
93.1594
 30
0.0
 11
126.157
 21
79.1587
 31
0.0
  0
LINE
  8
0
 62
     0
 10
126.157
 20
79.1587
 30
0.0
 11
112.157
 21
79.1587
 31
0.0
  0
LINE
  8
0
 62
     0
 10
112.157
 20
79.1587
 30
0.0
 11
112.157
 21
93.1594
 31
0.0
  0
LINE
  8
0
 62
     0
 10
93.1072
 20
93.1594
 30
0.0
 11
107.107
 21
93.1594
 31
0.0
  0
LINE
  8
0
 62
     0
 10
107.107
 20
93.1594
 30
0.0
 11
107.107
 21
79.1587
 31
0.0
  0
LINE
  8
0
 62
     0
 10
107.107
 20
79.1587
 30
0.0
 11
93.1072
 21
79.1587
 31
0.0
  0
LINE
  8
0
 62
     0
 10
93.1072
 20
79.1587
 30
0.0
 11
93.1072
 21
93.1594
 31
0.0
  0
LINE
  8
0
 62
     0
 10
74.0572
 20
93.1594
 30
0.0
 11
88.0565
 21
93.1594
 31
0.0
  0
LINE
  8
0
 62
     0
 10
88.0565
 20
93.1594
 30
0.0
 11
88.0565
 21
79.1587
 31
0.0
  0
LINE
  8
0
 62
     0
 10
88.0565
 20
79.1587
 30
0.0
 11
74.0572
 21
79.1587
 31
0.0
  0
LINE
  8
0
 62
     0
 10
74.0572
 20
79.1587
 30
0.0
 11
74.0572
 21
93.1594
 31
0.0
  0
LINE
  8
0
 62
     0
 10
55.0072
 20
93.1594
 30
0.0
 11
69.0065
 21
93.1594
 31
0.0
  0
LINE
  8
0
 62
     0
 10
69.0065
 20
93.1594
 30
0.0
 11
69.0065
 21
79.1587
 31
0.0
  0
LINE
  8
0
 62
     0
 10
69.0065
 20
79.1587
 30
0.0
 11
55.0072
 21
79.1587
 31
0.0
  0
LINE
  8
0
 62
     0
 10
55.0072
 20
79.1587
 30
0.0
 11
55.0072
 21
93.1594
 31
0.0
  0
LINE
  8
0
 62
     0
 10
35.9572
 20
93.1594
 30
0.0
 11
49.9565
 21
93.1594
 31
0.0
  0
LINE
  8
0
 62
     0
 10
49.9565
 20
93.1594
 30
0.0
 11
49.9565
 21
79.1587
 31
0.0
  0
LINE
  8
0
 62
     0
 10
49.9565
 20
79.1587
 30
0.0
 11
35.9572
 21
79.1587
 31
0.0
  0
LINE
  8
0
 62
     0
 10
35.9572
 20
79.1587
 30
0.0
 11
35.9572
 21
93.1594
 31
0.0
  0
LINE
  8
0
 62
     0
 10
16.9072
 20
93.1594
 30
0.0
 11
30.9066
 21
93.1594
 31
0.0
  0
LINE
  8
0
 62
     0
 10
30.9066
 20
93.1594
 30
0.0
 11
30.9066
 21
79.1587
 31
0.0
  0
LINE
  8
0
 62
     0
 10
30.9066
 20
79.1587
 30
0.0
 11
16.9072
 21
79.1587
 31
0.0
  0
LINE
  8
0
 62
     0
 10
16.9072
 20
79.1587
 30
0.0
 11
16.9072
 21
93.1594
 31
0.0
  0
LINE
  8
0
 62
     0
 10
345.52
 20
116.971
 30
0.0
 11
359.519
 21
116.971
 31
0.0
  0
LINE
  8
0
 62
     0
 10
359.519
 20
116.971
 30
0.0
 11
359.519
 21
102.971
 31
0.0
  0
LINE
  8
0
 62
     0
 10
359.519
 20
102.971
 30
0.0
 11
345.52
 21
102.971
 31
0.0
  0
LINE
  8
0
 62
     0
 10
345.52
 20
102.971
 30
0.0
 11
345.52
 21
116.971
 31
0.0
  0
LINE
  8
0
 62
     0
 10
326.47
 20
116.971
 30
0.0
 11
340.469
 21
116.971
 31
0.0
  0
LINE
  8
0
 62
     0
 10
340.469
 20
116.971
 30
0.0
 11
340.469
 21
102.971
 31
0.0
  0
LINE
  8
0
 62
     0
 10
340.469
 20
102.971
 30
0.0
 11
326.47
 21
102.971
 31
0.0
  0
LINE
  8
0
 62
     0
 10
326.47
 20
102.971
 30
0.0
 11
326.47
 21
116.971
 31
0.0
  0
LINE
  8
0
 62
     0
 10
307.42
 20
116.971
 30
0.0
 11
321.419
 21
116.971
 31
0.0
  0
LINE
  8
0
 62
     0
 10
321.419
 20
116.971
 30
0.0
 11
321.419
 21
102.971
 31
0.0
  0
LINE
  8
0
 62
     0
 10
321.419
 20
102.971
 30
0.0
 11
307.42
 21
102.971
 31
0.0
  0
LINE
  8
0
 62
     0
 10
307.42
 20
102.971
 30
0.0
 11
307.42
 21
116.971
 31
0.0
  0
LINE
  8
0
 62
     0
 10
283.607
 20
116.971
 30
0.0
 11
297.607
 21
116.971
 31
0.0
  0
LINE
  8
0
 62
     0
 10
297.607
 20
116.971
 30
0.0
 11
297.607
 21
102.971
 31
0.0
  0
LINE
  8
0
 62
     0
 10
297.607
 20
102.971
 30
0.0
 11
283.607
 21
102.971
 31
0.0
  0
LINE
  8
0
 62
     0
 10
283.607
 20
102.971
 30
0.0
 11
283.607
 21
116.971
 31
0.0
  0
LINE
  8
0
 62
     0
 10
264.557
 20
116.971
 30
0.0
 11
278.557
 21
116.971
 31
0.0
  0
LINE
  8
0
 62
     0
 10
278.557
 20
116.971
 30
0.0
 11
278.557
 21
102.971
 31
0.0
  0
LINE
  8
0
 62
     0
 10
278.557
 20
102.971
 30
0.0
 11
264.557
 21
102.971
 31
0.0
  0
LINE
  8
0
 62
     0
 10
264.557
 20
102.971
 30
0.0
 11
264.557
 21
116.971
 31
0.0
  0
LINE
  8
0
 62
     0
 10
245.507
 20
116.971
 30
0.0
 11
259.507
 21
116.971
 31
0.0
  0
LINE
  8
0
 62
     0
 10
259.507
 20
116.971
 30
0.0
 11
259.507
 21
102.971
 31
0.0
  0
LINE
  8
0
 62
     0
 10
259.507
 20
102.971
 30
0.0
 11
245.507
 21
102.971
 31
0.0
  0
LINE
  8
0
 62
     0
 10
245.507
 20
102.971
 30
0.0
 11
245.507
 21
116.971
 31
0.0
  0
LINE
  8
0
 62
     0
 10
226.457
 20
116.971
 30
0.0
 11
240.457
 21
116.971
 31
0.0
  0
LINE
  8
0
 62
     0
 10
240.457
 20
116.971
 30
0.0
 11
240.457
 21
102.971
 31
0.0
  0
LINE
  8
0
 62
     0
 10
240.457
 20
102.971
 30
0.0
 11
226.457
 21
102.971
 31
0.0
  0
LINE
  8
0
 62
     0
 10
226.457
 20
102.971
 30
0.0
 11
226.457
 21
116.971
 31
0.0
  0
LINE
  8
0
 62
     0
 10
202.645
 20
116.971
 30
0.0
 11
216.644
 21
116.971
 31
0.0
  0
LINE
  8
0
 62
     0
 10
216.644
 20
116.971
 30
0.0
 11
216.644
 21
102.971
 31
0.0
  0
LINE
  8
0
 62
     0
 10
216.644
 20
102.971
 30
0.0
 11
202.645
 21
102.971
 31
0.0
  0
LINE
  8
0
 62
     0
 10
202.645
 20
102.971
 30
0.0
 11
202.645
 21
116.971
 31
0.0
  0
LINE
  8
0
 62
     0
 10
183.595
 20
116.971
 30
0.0
 11
197.594
 21
116.971
 31
0.0
  0
LINE
  8
0
 62
     0
 10
197.594
 20
116.971
 30
0.0
 11
197.594
 21
102.971
 31
0.0
  0
LINE
  8
0
 62
     0
 10
197.594
 20
102.971
 30
0.0
 11
183.595
 21
102.971
 31
0.0
  0
LINE
  8
0
 62
     0
 10
183.595
 20
102.971
 30
0.0
 11
183.595
 21
116.971
 31
0.0
  0
LINE
  8
0
 62
     0
 10
164.545
 20
116.971
 30
0.0
 11
178.544
 21
116.971
 31
0.0
  0
LINE
  8
0
 62
     0
 10
178.544
 20
116.971
 30
0.0
 11
178.544
 21
102.971
 31
0.0
  0
LINE
  8
0
 62
     0
 10
178.544
 20
102.971
 30
0.0
 11
164.545
 21
102.971
 31
0.0
  0
LINE
  8
0
 62
     0
 10
164.545
 20
102.971
 30
0.0
 11
164.545
 21
116.971
 31
0.0
  0
LINE
  8
0
 62
     0
 10
112.157
 20
116.971
 30
0.0
 11
126.157
 21
116.971
 31
0.0
  0
LINE
  8
0
 62
     0
 10
126.157
 20
116.971
 30
0.0
 11
126.157
 21
102.971
 31
0.0
  0
LINE
  8
0
 62
     0
 10
126.157
 20
102.971
 30
0.0
 11
112.157
 21
102.971
 31
0.0
  0
LINE
  8
0
 62
     0
 10
112.157
 20
102.971
 30
0.0
 11
112.157
 21
116.971
 31
0.0
  0
LINE
  8
0
 62
     0
 10
88.3447
 20
116.971
 30
0.0
 11
102.344
 21
116.971
 31
0.0
  0
LINE
  8
0
 62
     0
 10
102.344
 20
116.971
 30
0.0
 11
102.344
 21
102.971
 31
0.0
  0
LINE
  8
0
 62
     0
 10
102.344
 20
102.971
 30
0.0
 11
88.3447
 21
102.971
 31
0.0
  0
LINE
  8
0
 62
     0
 10
88.3447
 20
102.971
 30
0.0
 11
88.3447
 21
116.971
 31
0.0
  0
LINE
  8
0
 62
     0
 10
69.2947
 20
116.971
 30
0.0
 11
83.294
 21
116.971
 31
0.0
  0
LINE
  8
0
 62
     0
 10
83.294
 20
116.971
 30
0.0
 11
83.294
 21
102.971
 31
0.0
  0
LINE
  8
0
 62
     0
 10
83.294
 20
102.971
 30
0.0
 11
69.2947
 21
102.971
 31
0.0
  0
LINE
  8
0
 62
     0
 10
69.2947
 20
102.971
 30
0.0
 11
69.2947
 21
116.971
 31
0.0
  0
LINE
  8
0
 62
     0
 10
50.2447
 20
116.971
 30
0.0
 11
64.244
 21
116.971
 31
0.0
  0
LINE
  8
0
 62
     0
 10
64.244
 20
116.971
 30
0.0
 11
64.244
 21
102.971
 31
0.0
  0
LINE
  8
0
 62
     0
 10
64.244
 20
102.971
 30
0.0
 11
50.2447
 21
102.971
 31
0.0
  0
LINE
  8
0
 62
     0
 10
50.2447
 20
102.971
 30
0.0
 11
50.2447
 21
116.971
 31
0.0
  0
LINE
  8
0
 62
     0
 10
31.1947
 20
116.971
 30
0.0
 11
45.194
 21
116.971
 31
0.0
  0
LINE
  8
0
 62
     0
 10
45.194
 20
116.971
 30
0.0
 11
45.194
 21
102.971
 31
0.0
  0
LINE
  8
0
 62
     0
 10
45.194
 20
102.971
 30
0.0
 11
31.1947
 21
102.971
 31
0.0
  0
LINE
  8
0
 62
     0
 10
31.1947
 20
102.971
 30
0.0
 11
31.1947
 21
116.971
 31
0.0
  0
LINE
  8
0
 62
     0
 10
7.38216
 20
116.971
 30
0.0
 11
21.3817
 21
116.971
 31
0.0
  0
LINE
  8
0
 62
     0
 10
21.3817
 20
116.971
 30
0.0
 11
21.3817
 21
102.971
 31
0.0
  0
LINE
  8
0
 62
     0
 10
21.3817
 20
102.971
 30
0.0
 11
7.38216
 21
102.971
 31
0.0
  0
LINE
  8
0
 62
     0
 10
7.38216
 20
102.971
 30
0.0
 11
7.38216
 21
116.971
 31
0.0
  0
ENDSEC
  0
EOF
