M48
; DRILL file {KiCad 5.1.12-1.fc34} date Sun 19 Dec 2021 19:02:47
; FORMAT={-:-/ absolute / metric / decimal}
; #@! TF.CreationDate,2021-12-19T19:02:47+02:00
; #@! TF.GenerationSoftware,Kicad,Pcbnew,5.1.12-1.fc34
; #@! TF.FileFunction,NonPlated,1,2,NPTH
FMAT,2
METRIC
T1C1.702
T2C2.500
T3C3.000
T4C3.988
%
G90
G05
T1
X33.02Y-33.337
X35.401Y-95.25
X35.401Y-114.3
X35.401Y-133.35
X37.782Y-76.2
X42.545Y-57.15
X43.18Y-33.337
X45.561Y-95.25
X45.561Y-114.3
X45.561Y-133.35
X47.942Y-76.2
X52.705Y-57.15
X56.832Y-33.337
X59.214Y-133.35
X61.595Y-57.15
X61.595Y-76.2
X61.595Y-95.25
X61.595Y-114.3
X66.992Y-33.337
X69.374Y-133.35
X71.755Y-57.15
X71.755Y-76.2
X71.755Y-95.25
X71.755Y-114.3
X75.882Y-33.337
X80.645Y-57.15
X80.645Y-76.2
X80.645Y-95.25
X80.645Y-114.3
X83.026Y-133.35
X86.042Y-33.337
X90.805Y-57.15
X90.805Y-76.2
X90.805Y-95.25
X90.805Y-114.3
X93.186Y-133.35
X94.932Y-33.337
X99.695Y-57.15
X99.695Y-76.2
X99.695Y-95.25
X99.695Y-114.3
X105.093Y-33.337
X109.855Y-57.15
X109.855Y-76.2
X109.855Y-95.25
X109.855Y-114.3
X113.983Y-33.337
X118.745Y-57.15
X118.745Y-76.2
X118.745Y-95.25
X118.745Y-114.3
X118.745Y-133.35
X124.142Y-33.337
X128.905Y-57.15
X128.905Y-76.2
X128.905Y-95.25
X128.905Y-114.3
X128.905Y-133.35
X137.795Y-33.337
X137.795Y-57.15
X137.795Y-76.2
X137.795Y-95.25
X137.795Y-114.3
X137.795Y-133.35
X147.955Y-33.337
X147.955Y-57.15
X147.955Y-76.2
X147.955Y-95.25
X147.955Y-114.3
X147.955Y-133.35
T2
X163.77Y-28.39
X163.77Y-40.39
T3
X34.29Y-30.797
X36.671Y-92.71
X36.671Y-111.76
X36.671Y-130.81
X39.052Y-73.66
X40.64Y-28.258
X43.021Y-90.17
X43.021Y-109.22
X43.021Y-128.27
X43.815Y-54.61
X45.402Y-71.12
X50.165Y-52.07
X58.102Y-30.797
X60.484Y-130.81
X62.865Y-54.61
X62.865Y-73.66
X62.865Y-92.71
X62.865Y-111.76
X64.453Y-28.258
X66.834Y-128.27
X69.215Y-52.07
X69.215Y-71.12
X69.215Y-90.17
X69.215Y-109.22
X77.153Y-30.797
X81.915Y-54.61
X81.915Y-73.66
X81.915Y-92.71
X81.915Y-111.76
X83.502Y-28.258
X84.296Y-130.81
X88.265Y-52.07
X88.265Y-71.12
X88.265Y-90.17
X88.265Y-109.22
X90.646Y-128.27
X96.203Y-30.797
X100.965Y-54.61
X100.965Y-73.66
X100.965Y-92.71
X100.965Y-111.76
X102.552Y-28.258
X107.315Y-52.07
X107.315Y-71.12
X107.315Y-90.17
X107.315Y-109.22
X115.252Y-30.797
X120.015Y-54.61
X120.015Y-73.66
X120.015Y-92.71
X120.015Y-111.76
X120.015Y-130.81
X121.602Y-28.258
X126.365Y-52.07
X126.365Y-71.12
X126.365Y-90.17
X126.365Y-109.22
X126.365Y-128.27
X139.065Y-30.797
X139.065Y-54.61
X139.065Y-73.66
X139.065Y-92.71
X139.065Y-111.76
X139.065Y-130.81
X145.415Y-28.258
X145.415Y-52.07
X145.415Y-71.12
X145.415Y-90.17
X145.415Y-109.22
X145.415Y-128.27
T4
X38.1Y-33.337
X40.481Y-95.25
X40.481Y-114.3
X40.481Y-133.35
X42.862Y-76.2
X47.625Y-57.15
X61.912Y-33.337
X64.294Y-133.35
X66.675Y-57.15
X66.675Y-76.2
X66.675Y-95.25
X66.675Y-114.3
X80.962Y-33.337
X85.725Y-57.15
X85.725Y-76.2
X85.725Y-95.25
X85.725Y-114.3
X88.106Y-133.35
X100.012Y-33.337
X104.775Y-57.15
X104.775Y-76.2
X104.775Y-95.25
X104.775Y-114.3
X119.062Y-33.337
X123.825Y-57.15
X123.825Y-76.2
X123.825Y-95.25
X123.825Y-114.3
X123.825Y-133.35
X142.875Y-33.337
X142.875Y-57.15
X142.875Y-76.2
X142.875Y-95.25
X142.875Y-114.3
X142.875Y-133.35
T0
M30
