M48
; DRILL file {KiCad 5.1.12-1.fc34} date Sun 19 Dec 2021 19:02:47
; FORMAT={-:-/ absolute / metric / decimal}
; #@! TF.CreationDate,2021-12-19T19:02:47+02:00
; #@! TF.GenerationSoftware,Kicad,Pcbnew,5.1.12-1.fc34
; #@! TF.FileFunction,Plated,1,2,PTH
FMAT,2
METRIC
T1C0.400
T2C0.800
%
G90
G05
T1
X30.956Y-28.575
X31.7Y-77.15
X31.78Y-70.8
X33.337Y-90.487
X33.337Y-109.537
X33.337Y-128.588
X35.719Y-71.438
X40.481Y-52.387
X54.769Y-28.575
X57.15Y-128.588
X59.531Y-52.387
X59.531Y-71.438
X59.531Y-90.487
X59.531Y-109.537
X73.819Y-28.575
X78.581Y-52.387
X78.581Y-71.438
X78.581Y-90.487
X78.581Y-109.537
X80.962Y-128.588
X92.869Y-28.575
X97.631Y-52.387
X97.631Y-71.438
X97.631Y-90.487
X97.631Y-109.537
X111.919Y-28.575
X116.681Y-52.387
X116.681Y-71.438
X116.681Y-90.487
X116.681Y-109.537
X116.681Y-128.588
X121.36Y-37.85
X125.21Y-49.03
X126.51Y-48.93
X128.219Y-48.941
X128.99Y-31.43
X129.554Y-49.146
X130.93Y-49.38
X132.26Y-49.52
X133.13Y-40.15
X134.79Y-33.76
X135.731Y-52.387
X135.731Y-71.438
X135.731Y-90.487
X135.731Y-109.537
X135.731Y-128.588
X145.21Y-47.1
X146.86Y-43.62
X150.57Y-42.0
X157.865Y-40.455
X159.89Y-42.36
X159.92Y-22.28
X166.06Y-25.18
T2
X158.93Y-32.86
X158.93Y-34.9
X158.93Y-36.94
X161.47Y-31.84
X161.47Y-33.88
X161.47Y-35.92
T0
M30
