%FSLAX45Y45*%
G04 Gerber Fmt 4.5, Leading zero omitted, Abs format (unit mm)*
G04 Created by KiCad (PCBNEW 5.1.12-1.fc34) date 2021-12-19 19:02:48*
%MOMM*%
%LPD*%
G01*
G04 APERTURE LIST*
%TA.AperFunction,Profile*%
%ADD10C,0.200000*%
%TD*%
%ADD11C,0.200000*%
%ADD12C,0.300000*%
G04 APERTURE END LIST*
D10*
X16993410Y-2435765D02*
X16993410Y-4195765D01*
X16693410Y-4495765D02*
X15288410Y-4495765D01*
X16993410Y-4195765D02*
G75*
G02*
X16693410Y-4495765I-300000J0D01*
G01*
X2810926Y-14137000D02*
X2810926Y-2435765D01*
X16693410Y-1435765D02*
G75*
G02*
X16993410Y-1735765I0J-300000D01*
G01*
X16993410Y-1735765D02*
X16993410Y-2435765D01*
X15288410Y-14137000D02*
X2810926Y-14137000D01*
X15088410Y-1735765D02*
X15088410Y-2435765D01*
X2810926Y-2435765D02*
X15088410Y-2435765D01*
X16693410Y-1435765D02*
X15388410Y-1435765D01*
X15088410Y-1735765D02*
G75*
G02*
X15388410Y-1435765I300000J0D01*
G01*
X15288410Y-4495765D02*
X15288410Y-14137000D01*
D11*
X3075625Y-2837500D02*
X3115625Y-2877500D01*
X3115625Y-2837500D02*
X3075625Y-2877500D01*
X3150000Y-7695000D02*
X3190000Y-7735000D01*
X3190000Y-7695000D02*
X3150000Y-7735000D01*
X3158000Y-7060000D02*
X3198000Y-7100000D01*
X3198000Y-7060000D02*
X3158000Y-7100000D01*
X3313750Y-9028750D02*
X3353750Y-9068750D01*
X3353750Y-9028750D02*
X3313750Y-9068750D01*
X3313750Y-10933750D02*
X3353750Y-10973750D01*
X3353750Y-10933750D02*
X3313750Y-10973750D01*
X3313750Y-12838750D02*
X3353750Y-12878750D01*
X3353750Y-12838750D02*
X3313750Y-12878750D01*
X3551875Y-7123750D02*
X3591875Y-7163750D01*
X3591875Y-7123750D02*
X3551875Y-7163750D01*
X4028125Y-5218750D02*
X4068125Y-5258750D01*
X4068125Y-5218750D02*
X4028125Y-5258750D01*
X5456875Y-2837500D02*
X5496875Y-2877500D01*
X5496875Y-2837500D02*
X5456875Y-2877500D01*
X5695000Y-12838750D02*
X5735000Y-12878750D01*
X5735000Y-12838750D02*
X5695000Y-12878750D01*
X5933125Y-5218750D02*
X5973125Y-5258750D01*
X5973125Y-5218750D02*
X5933125Y-5258750D01*
X5933125Y-7123750D02*
X5973125Y-7163750D01*
X5973125Y-7123750D02*
X5933125Y-7163750D01*
X5933125Y-9028750D02*
X5973125Y-9068750D01*
X5973125Y-9028750D02*
X5933125Y-9068750D01*
X5933125Y-10933750D02*
X5973125Y-10973750D01*
X5973125Y-10933750D02*
X5933125Y-10973750D01*
X7361875Y-2837500D02*
X7401875Y-2877500D01*
X7401875Y-2837500D02*
X7361875Y-2877500D01*
X7838125Y-5218750D02*
X7878125Y-5258750D01*
X7878125Y-5218750D02*
X7838125Y-5258750D01*
X7838125Y-7123750D02*
X7878125Y-7163750D01*
X7878125Y-7123750D02*
X7838125Y-7163750D01*
X7838125Y-9028750D02*
X7878125Y-9068750D01*
X7878125Y-9028750D02*
X7838125Y-9068750D01*
X7838125Y-10933750D02*
X7878125Y-10973750D01*
X7878125Y-10933750D02*
X7838125Y-10973750D01*
X8076250Y-12838750D02*
X8116250Y-12878750D01*
X8116250Y-12838750D02*
X8076250Y-12878750D01*
X9266875Y-2837500D02*
X9306875Y-2877500D01*
X9306875Y-2837500D02*
X9266875Y-2877500D01*
X9743125Y-5218750D02*
X9783125Y-5258750D01*
X9783125Y-5218750D02*
X9743125Y-5258750D01*
X9743125Y-7123750D02*
X9783125Y-7163750D01*
X9783125Y-7123750D02*
X9743125Y-7163750D01*
X9743125Y-9028750D02*
X9783125Y-9068750D01*
X9783125Y-9028750D02*
X9743125Y-9068750D01*
X9743125Y-10933750D02*
X9783125Y-10973750D01*
X9783125Y-10933750D02*
X9743125Y-10973750D01*
X11171875Y-2837500D02*
X11211875Y-2877500D01*
X11211875Y-2837500D02*
X11171875Y-2877500D01*
X11648125Y-5218750D02*
X11688125Y-5258750D01*
X11688125Y-5218750D02*
X11648125Y-5258750D01*
X11648125Y-7123750D02*
X11688125Y-7163750D01*
X11688125Y-7123750D02*
X11648125Y-7163750D01*
X11648125Y-9028750D02*
X11688125Y-9068750D01*
X11688125Y-9028750D02*
X11648125Y-9068750D01*
X11648125Y-10933750D02*
X11688125Y-10973750D01*
X11688125Y-10933750D02*
X11648125Y-10973750D01*
X11648125Y-12838750D02*
X11688125Y-12878750D01*
X11688125Y-12838750D02*
X11648125Y-12878750D01*
X12116000Y-3765000D02*
X12156000Y-3805000D01*
X12156000Y-3765000D02*
X12116000Y-3805000D01*
X12501000Y-4883000D02*
X12541000Y-4923000D01*
X12541000Y-4883000D02*
X12501000Y-4923000D01*
X12631000Y-4873000D02*
X12671000Y-4913000D01*
X12671000Y-4873000D02*
X12631000Y-4913000D01*
X12801853Y-4874147D02*
X12841853Y-4914147D01*
X12841853Y-4874147D02*
X12801853Y-4914147D01*
X12879000Y-3123000D02*
X12919000Y-3163000D01*
X12919000Y-3123000D02*
X12879000Y-3163000D01*
X12935421Y-4894579D02*
X12975421Y-4934579D01*
X12975421Y-4894579D02*
X12935421Y-4934579D01*
X13073000Y-4918000D02*
X13113000Y-4958000D01*
X13113000Y-4918000D02*
X13073000Y-4958000D01*
X13206000Y-4932000D02*
X13246000Y-4972000D01*
X13246000Y-4932000D02*
X13206000Y-4972000D01*
X13293000Y-3995000D02*
X13333000Y-4035000D01*
X13333000Y-3995000D02*
X13293000Y-4035000D01*
X13459000Y-3356000D02*
X13499000Y-3396000D01*
X13499000Y-3356000D02*
X13459000Y-3396000D01*
X13553125Y-5218750D02*
X13593125Y-5258750D01*
X13593125Y-5218750D02*
X13553125Y-5258750D01*
X13553125Y-7123750D02*
X13593125Y-7163750D01*
X13593125Y-7123750D02*
X13553125Y-7163750D01*
X13553125Y-9028750D02*
X13593125Y-9068750D01*
X13593125Y-9028750D02*
X13553125Y-9068750D01*
X13553125Y-10933750D02*
X13593125Y-10973750D01*
X13593125Y-10933750D02*
X13553125Y-10973750D01*
X13553125Y-12838750D02*
X13593125Y-12878750D01*
X13593125Y-12838750D02*
X13553125Y-12878750D01*
X14501000Y-4690000D02*
X14541000Y-4730000D01*
X14541000Y-4690000D02*
X14501000Y-4730000D01*
X14666000Y-4342000D02*
X14706000Y-4382000D01*
X14706000Y-4342000D02*
X14666000Y-4382000D01*
X15037000Y-4180000D02*
X15077000Y-4220000D01*
X15077000Y-4180000D02*
X15037000Y-4220000D01*
X15766497Y-4025503D02*
X15806497Y-4065503D01*
X15806497Y-4025503D02*
X15766497Y-4065503D01*
X15969000Y-4216000D02*
X16009000Y-4256000D01*
X16009000Y-4216000D02*
X15969000Y-4256000D01*
X15972000Y-2208000D02*
X16012000Y-2248000D01*
X16012000Y-2208000D02*
X15972000Y-2248000D01*
X16586000Y-2498000D02*
X16626000Y-2538000D01*
X16626000Y-2498000D02*
X16586000Y-2538000D01*
X15933000Y-3286000D02*
G75*
G03*
X15933000Y-3286000I-40000J0D01*
G01*
X15933000Y-3490000D02*
G75*
G03*
X15933000Y-3490000I-40000J0D01*
G01*
X15933000Y-3694000D02*
G75*
G03*
X15933000Y-3694000I-40000J0D01*
G01*
X16187000Y-3184000D02*
G75*
G03*
X16187000Y-3184000I-40000J0D01*
G01*
X16187000Y-3388000D02*
G75*
G03*
X16187000Y-3388000I-40000J0D01*
G01*
X16187000Y-3592000D02*
G75*
G03*
X16187000Y-3592000I-40000J0D01*
G01*
D12*
X3087354Y-14612714D02*
X3087354Y-14312714D01*
X3158783Y-14312714D01*
X3201640Y-14327000D01*
X3230212Y-14355571D01*
X3244497Y-14384143D01*
X3258783Y-14441286D01*
X3258783Y-14484143D01*
X3244497Y-14541286D01*
X3230212Y-14569857D01*
X3201640Y-14598429D01*
X3158783Y-14612714D01*
X3087354Y-14612714D01*
X3387354Y-14612714D02*
X3387354Y-14412714D01*
X3387354Y-14469857D02*
X3401640Y-14441286D01*
X3415926Y-14427000D01*
X3444497Y-14412714D01*
X3473069Y-14412714D01*
X3573069Y-14612714D02*
X3573069Y-14412714D01*
X3573069Y-14312714D02*
X3558783Y-14327000D01*
X3573069Y-14341286D01*
X3587354Y-14327000D01*
X3573069Y-14312714D01*
X3573069Y-14341286D01*
X3758783Y-14612714D02*
X3730212Y-14598429D01*
X3715926Y-14569857D01*
X3715926Y-14312714D01*
X3915926Y-14612714D02*
X3887354Y-14598429D01*
X3873069Y-14569857D01*
X3873069Y-14312714D01*
X4258783Y-14612714D02*
X4258783Y-14312714D01*
X4358783Y-14527000D01*
X4458783Y-14312714D01*
X4458783Y-14612714D01*
X4730212Y-14612714D02*
X4730212Y-14455571D01*
X4715926Y-14427000D01*
X4687354Y-14412714D01*
X4630212Y-14412714D01*
X4601640Y-14427000D01*
X4730212Y-14598429D02*
X4701640Y-14612714D01*
X4630212Y-14612714D01*
X4601640Y-14598429D01*
X4587354Y-14569857D01*
X4587354Y-14541286D01*
X4601640Y-14512714D01*
X4630212Y-14498429D01*
X4701640Y-14498429D01*
X4730212Y-14484143D01*
X4873069Y-14412714D02*
X4873069Y-14712714D01*
X4873069Y-14427000D02*
X4901640Y-14412714D01*
X4958783Y-14412714D01*
X4987354Y-14427000D01*
X5001640Y-14441286D01*
X5015926Y-14469857D01*
X5015926Y-14555571D01*
X5001640Y-14584143D01*
X4987354Y-14598429D01*
X4958783Y-14612714D01*
X4901640Y-14612714D01*
X4873069Y-14598429D01*
X5144497Y-14584143D02*
X5158783Y-14598429D01*
X5144497Y-14612714D01*
X5130212Y-14598429D01*
X5144497Y-14584143D01*
X5144497Y-14612714D01*
X5144497Y-14427000D02*
X5158783Y-14441286D01*
X5144497Y-14455571D01*
X5130212Y-14441286D01*
X5144497Y-14427000D01*
X5144497Y-14455571D01*
X2760926Y-15087000D02*
X2800926Y-15127000D01*
X2800926Y-15087000D02*
X2760926Y-15127000D01*
X3144497Y-14942714D02*
X3173069Y-14942714D01*
X3201640Y-14957000D01*
X3215926Y-14971286D01*
X3230212Y-14999857D01*
X3244497Y-15057000D01*
X3244497Y-15128429D01*
X3230212Y-15185571D01*
X3215926Y-15214143D01*
X3201640Y-15228429D01*
X3173069Y-15242714D01*
X3144497Y-15242714D01*
X3115926Y-15228429D01*
X3101640Y-15214143D01*
X3087354Y-15185571D01*
X3073069Y-15128429D01*
X3073069Y-15057000D01*
X3087354Y-14999857D01*
X3101640Y-14971286D01*
X3115926Y-14957000D01*
X3144497Y-14942714D01*
X3373069Y-15214143D02*
X3387354Y-15228429D01*
X3373069Y-15242714D01*
X3358783Y-15228429D01*
X3373069Y-15214143D01*
X3373069Y-15242714D01*
X3644497Y-15042714D02*
X3644497Y-15242714D01*
X3573069Y-14928429D02*
X3501640Y-15142714D01*
X3687354Y-15142714D01*
X3858783Y-14942714D02*
X3887354Y-14942714D01*
X3915926Y-14957000D01*
X3930212Y-14971286D01*
X3944497Y-14999857D01*
X3958783Y-15057000D01*
X3958783Y-15128429D01*
X3944497Y-15185571D01*
X3930212Y-15214143D01*
X3915926Y-15228429D01*
X3887354Y-15242714D01*
X3858783Y-15242714D01*
X3830212Y-15228429D01*
X3815926Y-15214143D01*
X3801640Y-15185571D01*
X3787354Y-15128429D01*
X3787354Y-15057000D01*
X3801640Y-14999857D01*
X3815926Y-14971286D01*
X3830212Y-14957000D01*
X3858783Y-14942714D01*
X4144497Y-14942714D02*
X4173069Y-14942714D01*
X4201640Y-14957000D01*
X4215926Y-14971286D01*
X4230212Y-14999857D01*
X4244497Y-15057000D01*
X4244497Y-15128429D01*
X4230212Y-15185571D01*
X4215926Y-15214143D01*
X4201640Y-15228429D01*
X4173069Y-15242714D01*
X4144497Y-15242714D01*
X4115926Y-15228429D01*
X4101640Y-15214143D01*
X4087354Y-15185571D01*
X4073069Y-15128429D01*
X4073069Y-15057000D01*
X4087354Y-14999857D01*
X4101640Y-14971286D01*
X4115926Y-14957000D01*
X4144497Y-14942714D01*
X4373069Y-15242714D02*
X4373069Y-15042714D01*
X4373069Y-15071286D02*
X4387354Y-15057000D01*
X4415926Y-15042714D01*
X4458783Y-15042714D01*
X4487354Y-15057000D01*
X4501640Y-15085571D01*
X4501640Y-15242714D01*
X4501640Y-15085571D02*
X4515926Y-15057000D01*
X4544497Y-15042714D01*
X4587354Y-15042714D01*
X4615926Y-15057000D01*
X4630212Y-15085571D01*
X4630212Y-15242714D01*
X4773069Y-15242714D02*
X4773069Y-15042714D01*
X4773069Y-15071286D02*
X4787354Y-15057000D01*
X4815926Y-15042714D01*
X4858783Y-15042714D01*
X4887354Y-15057000D01*
X4901640Y-15085571D01*
X4901640Y-15242714D01*
X4901640Y-15085571D02*
X4915926Y-15057000D01*
X4944497Y-15042714D01*
X4987354Y-15042714D01*
X5015926Y-15057000D01*
X5030212Y-15085571D01*
X5030212Y-15242714D01*
X5615926Y-14928429D02*
X5358783Y-15314143D01*
X6001640Y-14942714D02*
X6030212Y-14942714D01*
X6058783Y-14957000D01*
X6073069Y-14971286D01*
X6087354Y-14999857D01*
X6101640Y-15057000D01*
X6101640Y-15128429D01*
X6087354Y-15185571D01*
X6073069Y-15214143D01*
X6058783Y-15228429D01*
X6030212Y-15242714D01*
X6001640Y-15242714D01*
X5973069Y-15228429D01*
X5958783Y-15214143D01*
X5944497Y-15185571D01*
X5930212Y-15128429D01*
X5930212Y-15057000D01*
X5944497Y-14999857D01*
X5958783Y-14971286D01*
X5973069Y-14957000D01*
X6001640Y-14942714D01*
X6230212Y-15214143D02*
X6244497Y-15228429D01*
X6230212Y-15242714D01*
X6215926Y-15228429D01*
X6230212Y-15214143D01*
X6230212Y-15242714D01*
X6430212Y-14942714D02*
X6458783Y-14942714D01*
X6487354Y-14957000D01*
X6501640Y-14971286D01*
X6515926Y-14999857D01*
X6530212Y-15057000D01*
X6530212Y-15128429D01*
X6515926Y-15185571D01*
X6501640Y-15214143D01*
X6487354Y-15228429D01*
X6458783Y-15242714D01*
X6430212Y-15242714D01*
X6401640Y-15228429D01*
X6387354Y-15214143D01*
X6373069Y-15185571D01*
X6358783Y-15128429D01*
X6358783Y-15057000D01*
X6373069Y-14999857D01*
X6387354Y-14971286D01*
X6401640Y-14957000D01*
X6430212Y-14942714D01*
X6815926Y-15242714D02*
X6644497Y-15242714D01*
X6730212Y-15242714D02*
X6730212Y-14942714D01*
X6701640Y-14985571D01*
X6673069Y-15014143D01*
X6644497Y-15028429D01*
X7087354Y-14942714D02*
X6944497Y-14942714D01*
X6930212Y-15085571D01*
X6944497Y-15071286D01*
X6973069Y-15057000D01*
X7044497Y-15057000D01*
X7073069Y-15071286D01*
X7087354Y-15085571D01*
X7101640Y-15114143D01*
X7101640Y-15185571D01*
X7087354Y-15214143D01*
X7073069Y-15228429D01*
X7044497Y-15242714D01*
X6973069Y-15242714D01*
X6944497Y-15228429D01*
X6930212Y-15214143D01*
X7201640Y-14942714D02*
X7401640Y-14942714D01*
X7273069Y-15242714D01*
X7501640Y-14942714D02*
X7501640Y-14999857D01*
X7615926Y-14942714D02*
X7615926Y-14999857D01*
X8058783Y-15357000D02*
X8044497Y-15342714D01*
X8015926Y-15299857D01*
X8001640Y-15271286D01*
X7987354Y-15228429D01*
X7973069Y-15157000D01*
X7973069Y-15099857D01*
X7987354Y-15028429D01*
X8001640Y-14985571D01*
X8015926Y-14957000D01*
X8044497Y-14914143D01*
X8058783Y-14899857D01*
X8315926Y-14942714D02*
X8173069Y-14942714D01*
X8158783Y-15085571D01*
X8173069Y-15071286D01*
X8201640Y-15057000D01*
X8273069Y-15057000D01*
X8301640Y-15071286D01*
X8315926Y-15085571D01*
X8330212Y-15114143D01*
X8330212Y-15185571D01*
X8315926Y-15214143D01*
X8301640Y-15228429D01*
X8273069Y-15242714D01*
X8201640Y-15242714D01*
X8173069Y-15228429D01*
X8158783Y-15214143D01*
X8430212Y-14942714D02*
X8615926Y-14942714D01*
X8515926Y-15057000D01*
X8558783Y-15057000D01*
X8587354Y-15071286D01*
X8601640Y-15085571D01*
X8615926Y-15114143D01*
X8615926Y-15185571D01*
X8601640Y-15214143D01*
X8587354Y-15228429D01*
X8558783Y-15242714D01*
X8473069Y-15242714D01*
X8444497Y-15228429D01*
X8430212Y-15214143D01*
X8973069Y-15242714D02*
X8973069Y-14942714D01*
X9101640Y-15242714D02*
X9101640Y-15085571D01*
X9087354Y-15057000D01*
X9058783Y-15042714D01*
X9015926Y-15042714D01*
X8987354Y-15057000D01*
X8973069Y-15071286D01*
X9287354Y-15242714D02*
X9258783Y-15228429D01*
X9244497Y-15214143D01*
X9230212Y-15185571D01*
X9230212Y-15099857D01*
X9244497Y-15071286D01*
X9258783Y-15057000D01*
X9287354Y-15042714D01*
X9330212Y-15042714D01*
X9358783Y-15057000D01*
X9373069Y-15071286D01*
X9387354Y-15099857D01*
X9387354Y-15185571D01*
X9373069Y-15214143D01*
X9358783Y-15228429D01*
X9330212Y-15242714D01*
X9287354Y-15242714D01*
X9558783Y-15242714D02*
X9530212Y-15228429D01*
X9515926Y-15199857D01*
X9515926Y-14942714D01*
X9787354Y-15228429D02*
X9758783Y-15242714D01*
X9701640Y-15242714D01*
X9673069Y-15228429D01*
X9658783Y-15199857D01*
X9658783Y-15085571D01*
X9673069Y-15057000D01*
X9701640Y-15042714D01*
X9758783Y-15042714D01*
X9787354Y-15057000D01*
X9801640Y-15085571D01*
X9801640Y-15114143D01*
X9658783Y-15142714D01*
X9915926Y-15228429D02*
X9944497Y-15242714D01*
X10001640Y-15242714D01*
X10030212Y-15228429D01*
X10044497Y-15199857D01*
X10044497Y-15185571D01*
X10030212Y-15157000D01*
X10001640Y-15142714D01*
X9958783Y-15142714D01*
X9930212Y-15128429D01*
X9915926Y-15099857D01*
X9915926Y-15085571D01*
X9930212Y-15057000D01*
X9958783Y-15042714D01*
X10001640Y-15042714D01*
X10030212Y-15057000D01*
X10144497Y-15357000D02*
X10158783Y-15342714D01*
X10187354Y-15299857D01*
X10201640Y-15271286D01*
X10215926Y-15228429D01*
X10230212Y-15157000D01*
X10230212Y-15099857D01*
X10215926Y-15028429D01*
X10201640Y-14985571D01*
X10187354Y-14957000D01*
X10158783Y-14914143D01*
X10144497Y-14899857D01*
X2800926Y-15503000D02*
G75*
G03*
X2800926Y-15503000I-40000J0D01*
G01*
X3144497Y-15338714D02*
X3173069Y-15338714D01*
X3201640Y-15353000D01*
X3215926Y-15367286D01*
X3230212Y-15395857D01*
X3244497Y-15453000D01*
X3244497Y-15524429D01*
X3230212Y-15581571D01*
X3215926Y-15610143D01*
X3201640Y-15624429D01*
X3173069Y-15638714D01*
X3144497Y-15638714D01*
X3115926Y-15624429D01*
X3101640Y-15610143D01*
X3087354Y-15581571D01*
X3073069Y-15524429D01*
X3073069Y-15453000D01*
X3087354Y-15395857D01*
X3101640Y-15367286D01*
X3115926Y-15353000D01*
X3144497Y-15338714D01*
X3373069Y-15610143D02*
X3387354Y-15624429D01*
X3373069Y-15638714D01*
X3358783Y-15624429D01*
X3373069Y-15610143D01*
X3373069Y-15638714D01*
X3558783Y-15467286D02*
X3530212Y-15453000D01*
X3515926Y-15438714D01*
X3501640Y-15410143D01*
X3501640Y-15395857D01*
X3515926Y-15367286D01*
X3530212Y-15353000D01*
X3558783Y-15338714D01*
X3615926Y-15338714D01*
X3644497Y-15353000D01*
X3658783Y-15367286D01*
X3673069Y-15395857D01*
X3673069Y-15410143D01*
X3658783Y-15438714D01*
X3644497Y-15453000D01*
X3615926Y-15467286D01*
X3558783Y-15467286D01*
X3530212Y-15481571D01*
X3515926Y-15495857D01*
X3501640Y-15524429D01*
X3501640Y-15581571D01*
X3515926Y-15610143D01*
X3530212Y-15624429D01*
X3558783Y-15638714D01*
X3615926Y-15638714D01*
X3644497Y-15624429D01*
X3658783Y-15610143D01*
X3673069Y-15581571D01*
X3673069Y-15524429D01*
X3658783Y-15495857D01*
X3644497Y-15481571D01*
X3615926Y-15467286D01*
X3858783Y-15338714D02*
X3887354Y-15338714D01*
X3915926Y-15353000D01*
X3930212Y-15367286D01*
X3944497Y-15395857D01*
X3958783Y-15453000D01*
X3958783Y-15524429D01*
X3944497Y-15581571D01*
X3930212Y-15610143D01*
X3915926Y-15624429D01*
X3887354Y-15638714D01*
X3858783Y-15638714D01*
X3830212Y-15624429D01*
X3815926Y-15610143D01*
X3801640Y-15581571D01*
X3787354Y-15524429D01*
X3787354Y-15453000D01*
X3801640Y-15395857D01*
X3815926Y-15367286D01*
X3830212Y-15353000D01*
X3858783Y-15338714D01*
X4144497Y-15338714D02*
X4173069Y-15338714D01*
X4201640Y-15353000D01*
X4215926Y-15367286D01*
X4230212Y-15395857D01*
X4244497Y-15453000D01*
X4244497Y-15524429D01*
X4230212Y-15581571D01*
X4215926Y-15610143D01*
X4201640Y-15624429D01*
X4173069Y-15638714D01*
X4144497Y-15638714D01*
X4115926Y-15624429D01*
X4101640Y-15610143D01*
X4087354Y-15581571D01*
X4073069Y-15524429D01*
X4073069Y-15453000D01*
X4087354Y-15395857D01*
X4101640Y-15367286D01*
X4115926Y-15353000D01*
X4144497Y-15338714D01*
X4373069Y-15638714D02*
X4373069Y-15438714D01*
X4373069Y-15467286D02*
X4387354Y-15453000D01*
X4415926Y-15438714D01*
X4458783Y-15438714D01*
X4487354Y-15453000D01*
X4501640Y-15481571D01*
X4501640Y-15638714D01*
X4501640Y-15481571D02*
X4515926Y-15453000D01*
X4544497Y-15438714D01*
X4587354Y-15438714D01*
X4615926Y-15453000D01*
X4630212Y-15481571D01*
X4630212Y-15638714D01*
X4773069Y-15638714D02*
X4773069Y-15438714D01*
X4773069Y-15467286D02*
X4787354Y-15453000D01*
X4815926Y-15438714D01*
X4858783Y-15438714D01*
X4887354Y-15453000D01*
X4901640Y-15481571D01*
X4901640Y-15638714D01*
X4901640Y-15481571D02*
X4915926Y-15453000D01*
X4944497Y-15438714D01*
X4987354Y-15438714D01*
X5015926Y-15453000D01*
X5030212Y-15481571D01*
X5030212Y-15638714D01*
X5615926Y-15324429D02*
X5358783Y-15710143D01*
X6001640Y-15338714D02*
X6030212Y-15338714D01*
X6058783Y-15353000D01*
X6073069Y-15367286D01*
X6087354Y-15395857D01*
X6101640Y-15453000D01*
X6101640Y-15524429D01*
X6087354Y-15581571D01*
X6073069Y-15610143D01*
X6058783Y-15624429D01*
X6030212Y-15638714D01*
X6001640Y-15638714D01*
X5973069Y-15624429D01*
X5958783Y-15610143D01*
X5944497Y-15581571D01*
X5930212Y-15524429D01*
X5930212Y-15453000D01*
X5944497Y-15395857D01*
X5958783Y-15367286D01*
X5973069Y-15353000D01*
X6001640Y-15338714D01*
X6230212Y-15610143D02*
X6244497Y-15624429D01*
X6230212Y-15638714D01*
X6215926Y-15624429D01*
X6230212Y-15610143D01*
X6230212Y-15638714D01*
X6430212Y-15338714D02*
X6458783Y-15338714D01*
X6487354Y-15353000D01*
X6501640Y-15367286D01*
X6515926Y-15395857D01*
X6530212Y-15453000D01*
X6530212Y-15524429D01*
X6515926Y-15581571D01*
X6501640Y-15610143D01*
X6487354Y-15624429D01*
X6458783Y-15638714D01*
X6430212Y-15638714D01*
X6401640Y-15624429D01*
X6387354Y-15610143D01*
X6373069Y-15581571D01*
X6358783Y-15524429D01*
X6358783Y-15453000D01*
X6373069Y-15395857D01*
X6387354Y-15367286D01*
X6401640Y-15353000D01*
X6430212Y-15338714D01*
X6630212Y-15338714D02*
X6815926Y-15338714D01*
X6715926Y-15453000D01*
X6758783Y-15453000D01*
X6787354Y-15467286D01*
X6801640Y-15481571D01*
X6815926Y-15510143D01*
X6815926Y-15581571D01*
X6801640Y-15610143D01*
X6787354Y-15624429D01*
X6758783Y-15638714D01*
X6673069Y-15638714D01*
X6644497Y-15624429D01*
X6630212Y-15610143D01*
X7101640Y-15638714D02*
X6930212Y-15638714D01*
X7015926Y-15638714D02*
X7015926Y-15338714D01*
X6987354Y-15381571D01*
X6958783Y-15410143D01*
X6930212Y-15424429D01*
X7373069Y-15338714D02*
X7230212Y-15338714D01*
X7215926Y-15481571D01*
X7230212Y-15467286D01*
X7258783Y-15453000D01*
X7330212Y-15453000D01*
X7358783Y-15467286D01*
X7373069Y-15481571D01*
X7387354Y-15510143D01*
X7387354Y-15581571D01*
X7373069Y-15610143D01*
X7358783Y-15624429D01*
X7330212Y-15638714D01*
X7258783Y-15638714D01*
X7230212Y-15624429D01*
X7215926Y-15610143D01*
X7501640Y-15338714D02*
X7501640Y-15395857D01*
X7615926Y-15338714D02*
X7615926Y-15395857D01*
X8058783Y-15753000D02*
X8044497Y-15738714D01*
X8015926Y-15695857D01*
X8001640Y-15667286D01*
X7987354Y-15624429D01*
X7973069Y-15553000D01*
X7973069Y-15495857D01*
X7987354Y-15424429D01*
X8001640Y-15381571D01*
X8015926Y-15353000D01*
X8044497Y-15310143D01*
X8058783Y-15295857D01*
X8301640Y-15338714D02*
X8244497Y-15338714D01*
X8215926Y-15353000D01*
X8201640Y-15367286D01*
X8173069Y-15410143D01*
X8158783Y-15467286D01*
X8158783Y-15581571D01*
X8173069Y-15610143D01*
X8187354Y-15624429D01*
X8215926Y-15638714D01*
X8273069Y-15638714D01*
X8301640Y-15624429D01*
X8315926Y-15610143D01*
X8330212Y-15581571D01*
X8330212Y-15510143D01*
X8315926Y-15481571D01*
X8301640Y-15467286D01*
X8273069Y-15453000D01*
X8215926Y-15453000D01*
X8187354Y-15467286D01*
X8173069Y-15481571D01*
X8158783Y-15510143D01*
X8687354Y-15638714D02*
X8687354Y-15338714D01*
X8815926Y-15638714D02*
X8815926Y-15481571D01*
X8801640Y-15453000D01*
X8773069Y-15438714D01*
X8730212Y-15438714D01*
X8701640Y-15453000D01*
X8687354Y-15467286D01*
X9001640Y-15638714D02*
X8973069Y-15624429D01*
X8958783Y-15610143D01*
X8944497Y-15581571D01*
X8944497Y-15495857D01*
X8958783Y-15467286D01*
X8973069Y-15453000D01*
X9001640Y-15438714D01*
X9044497Y-15438714D01*
X9073069Y-15453000D01*
X9087354Y-15467286D01*
X9101640Y-15495857D01*
X9101640Y-15581571D01*
X9087354Y-15610143D01*
X9073069Y-15624429D01*
X9044497Y-15638714D01*
X9001640Y-15638714D01*
X9273069Y-15638714D02*
X9244497Y-15624429D01*
X9230212Y-15595857D01*
X9230212Y-15338714D01*
X9501640Y-15624429D02*
X9473069Y-15638714D01*
X9415926Y-15638714D01*
X9387354Y-15624429D01*
X9373069Y-15595857D01*
X9373069Y-15481571D01*
X9387354Y-15453000D01*
X9415926Y-15438714D01*
X9473069Y-15438714D01*
X9501640Y-15453000D01*
X9515926Y-15481571D01*
X9515926Y-15510143D01*
X9373069Y-15538714D01*
X9630212Y-15624429D02*
X9658783Y-15638714D01*
X9715926Y-15638714D01*
X9744497Y-15624429D01*
X9758783Y-15595857D01*
X9758783Y-15581571D01*
X9744497Y-15553000D01*
X9715926Y-15538714D01*
X9673069Y-15538714D01*
X9644497Y-15524429D01*
X9630212Y-15495857D01*
X9630212Y-15481571D01*
X9644497Y-15453000D01*
X9673069Y-15438714D01*
X9715926Y-15438714D01*
X9744497Y-15453000D01*
X9858783Y-15753000D02*
X9873069Y-15738714D01*
X9901640Y-15695857D01*
X9915926Y-15667286D01*
X9930212Y-15624429D01*
X9944497Y-15553000D01*
X9944497Y-15495857D01*
X9930212Y-15424429D01*
X9915926Y-15381571D01*
X9901640Y-15353000D01*
X9873069Y-15310143D01*
X9858783Y-15295857D01*
M02*
