G04 #@! TF.GenerationSoftware,KiCad,Pcbnew,5.1.12-1.fc34*
G04 #@! TF.CreationDate,2021-12-19T19:02:19+02:00*
G04 #@! TF.ProjectId,slash_left,736c6173-685f-46c6-9566-742e6b696361,rev?*
G04 #@! TF.SameCoordinates,Original*
G04 #@! TF.FileFunction,Soldermask,Bot*
G04 #@! TF.FilePolarity,Negative*
%FSLAX46Y46*%
G04 Gerber Fmt 4.6, Leading zero omitted, Abs format (unit mm)*
G04 Created by KiCad (PCBNEW 5.1.12-1.fc34) date 2021-12-19 19:02:19*
%MOMM*%
%LPD*%
G01*
G04 APERTURE LIST*
%ADD10R,2.550000X2.500000*%
%ADD11C,1.701800*%
%ADD12C,3.987800*%
%ADD13C,3.000000*%
%ADD14R,1.520000X1.520000*%
%ADD15C,2.500000*%
%ADD16C,1.520000*%
%ADD17R,1.200000X0.900000*%
%ADD18R,0.900000X1.200000*%
G04 APERTURE END LIST*
D10*
X97215000Y-92710000D03*
D11*
X99695000Y-95250000D03*
X109855000Y-95250000D03*
D12*
X104775000Y-95250000D03*
D13*
X100965000Y-92710000D03*
X107315000Y-90170000D03*
D10*
X111065000Y-90170000D03*
G36*
G01*
X122535000Y-46105000D02*
X122835000Y-46105000D01*
G75*
G02*
X122985000Y-46255000I0J-150000D01*
G01*
X122985000Y-48005000D01*
G75*
G02*
X122835000Y-48155000I-150000J0D01*
G01*
X122535000Y-48155000D01*
G75*
G02*
X122385000Y-48005000I0J150000D01*
G01*
X122385000Y-46255000D01*
G75*
G02*
X122535000Y-46105000I150000J0D01*
G01*
G37*
G36*
G01*
X123805000Y-46105000D02*
X124105000Y-46105000D01*
G75*
G02*
X124255000Y-46255000I0J-150000D01*
G01*
X124255000Y-48005000D01*
G75*
G02*
X124105000Y-48155000I-150000J0D01*
G01*
X123805000Y-48155000D01*
G75*
G02*
X123655000Y-48005000I0J150000D01*
G01*
X123655000Y-46255000D01*
G75*
G02*
X123805000Y-46105000I150000J0D01*
G01*
G37*
G36*
G01*
X125075000Y-46105000D02*
X125375000Y-46105000D01*
G75*
G02*
X125525000Y-46255000I0J-150000D01*
G01*
X125525000Y-48005000D01*
G75*
G02*
X125375000Y-48155000I-150000J0D01*
G01*
X125075000Y-48155000D01*
G75*
G02*
X124925000Y-48005000I0J150000D01*
G01*
X124925000Y-46255000D01*
G75*
G02*
X125075000Y-46105000I150000J0D01*
G01*
G37*
G36*
G01*
X126345000Y-46105000D02*
X126645000Y-46105000D01*
G75*
G02*
X126795000Y-46255000I0J-150000D01*
G01*
X126795000Y-48005000D01*
G75*
G02*
X126645000Y-48155000I-150000J0D01*
G01*
X126345000Y-48155000D01*
G75*
G02*
X126195000Y-48005000I0J150000D01*
G01*
X126195000Y-46255000D01*
G75*
G02*
X126345000Y-46105000I150000J0D01*
G01*
G37*
G36*
G01*
X127615000Y-46105000D02*
X127915000Y-46105000D01*
G75*
G02*
X128065000Y-46255000I0J-150000D01*
G01*
X128065000Y-48005000D01*
G75*
G02*
X127915000Y-48155000I-150000J0D01*
G01*
X127615000Y-48155000D01*
G75*
G02*
X127465000Y-48005000I0J150000D01*
G01*
X127465000Y-46255000D01*
G75*
G02*
X127615000Y-46105000I150000J0D01*
G01*
G37*
G36*
G01*
X128885000Y-46105000D02*
X129185000Y-46105000D01*
G75*
G02*
X129335000Y-46255000I0J-150000D01*
G01*
X129335000Y-48005000D01*
G75*
G02*
X129185000Y-48155000I-150000J0D01*
G01*
X128885000Y-48155000D01*
G75*
G02*
X128735000Y-48005000I0J150000D01*
G01*
X128735000Y-46255000D01*
G75*
G02*
X128885000Y-46105000I150000J0D01*
G01*
G37*
G36*
G01*
X130155000Y-46105000D02*
X130455000Y-46105000D01*
G75*
G02*
X130605000Y-46255000I0J-150000D01*
G01*
X130605000Y-48005000D01*
G75*
G02*
X130455000Y-48155000I-150000J0D01*
G01*
X130155000Y-48155000D01*
G75*
G02*
X130005000Y-48005000I0J150000D01*
G01*
X130005000Y-46255000D01*
G75*
G02*
X130155000Y-46105000I150000J0D01*
G01*
G37*
G36*
G01*
X131425000Y-46105000D02*
X131725000Y-46105000D01*
G75*
G02*
X131875000Y-46255000I0J-150000D01*
G01*
X131875000Y-48005000D01*
G75*
G02*
X131725000Y-48155000I-150000J0D01*
G01*
X131425000Y-48155000D01*
G75*
G02*
X131275000Y-48005000I0J150000D01*
G01*
X131275000Y-46255000D01*
G75*
G02*
X131425000Y-46105000I150000J0D01*
G01*
G37*
G36*
G01*
X132695000Y-46105000D02*
X132995000Y-46105000D01*
G75*
G02*
X133145000Y-46255000I0J-150000D01*
G01*
X133145000Y-48005000D01*
G75*
G02*
X132995000Y-48155000I-150000J0D01*
G01*
X132695000Y-48155000D01*
G75*
G02*
X132545000Y-48005000I0J150000D01*
G01*
X132545000Y-46255000D01*
G75*
G02*
X132695000Y-46105000I150000J0D01*
G01*
G37*
G36*
G01*
X133965000Y-46105000D02*
X134265000Y-46105000D01*
G75*
G02*
X134415000Y-46255000I0J-150000D01*
G01*
X134415000Y-48005000D01*
G75*
G02*
X134265000Y-48155000I-150000J0D01*
G01*
X133965000Y-48155000D01*
G75*
G02*
X133815000Y-48005000I0J150000D01*
G01*
X133815000Y-46255000D01*
G75*
G02*
X133965000Y-46105000I150000J0D01*
G01*
G37*
G36*
G01*
X135235000Y-46105000D02*
X135535000Y-46105000D01*
G75*
G02*
X135685000Y-46255000I0J-150000D01*
G01*
X135685000Y-48005000D01*
G75*
G02*
X135535000Y-48155000I-150000J0D01*
G01*
X135235000Y-48155000D01*
G75*
G02*
X135085000Y-48005000I0J150000D01*
G01*
X135085000Y-46255000D01*
G75*
G02*
X135235000Y-46105000I150000J0D01*
G01*
G37*
G36*
G01*
X136505000Y-46105000D02*
X136805000Y-46105000D01*
G75*
G02*
X136955000Y-46255000I0J-150000D01*
G01*
X136955000Y-48005000D01*
G75*
G02*
X136805000Y-48155000I-150000J0D01*
G01*
X136505000Y-48155000D01*
G75*
G02*
X136355000Y-48005000I0J150000D01*
G01*
X136355000Y-46255000D01*
G75*
G02*
X136505000Y-46105000I150000J0D01*
G01*
G37*
G36*
G01*
X137775000Y-46105000D02*
X138075000Y-46105000D01*
G75*
G02*
X138225000Y-46255000I0J-150000D01*
G01*
X138225000Y-48005000D01*
G75*
G02*
X138075000Y-48155000I-150000J0D01*
G01*
X137775000Y-48155000D01*
G75*
G02*
X137625000Y-48005000I0J150000D01*
G01*
X137625000Y-46255000D01*
G75*
G02*
X137775000Y-46105000I150000J0D01*
G01*
G37*
G36*
G01*
X139045000Y-46105000D02*
X139345000Y-46105000D01*
G75*
G02*
X139495000Y-46255000I0J-150000D01*
G01*
X139495000Y-48005000D01*
G75*
G02*
X139345000Y-48155000I-150000J0D01*
G01*
X139045000Y-48155000D01*
G75*
G02*
X138895000Y-48005000I0J150000D01*
G01*
X138895000Y-46255000D01*
G75*
G02*
X139045000Y-46105000I150000J0D01*
G01*
G37*
G36*
G01*
X139045000Y-36805000D02*
X139345000Y-36805000D01*
G75*
G02*
X139495000Y-36955000I0J-150000D01*
G01*
X139495000Y-38705000D01*
G75*
G02*
X139345000Y-38855000I-150000J0D01*
G01*
X139045000Y-38855000D01*
G75*
G02*
X138895000Y-38705000I0J150000D01*
G01*
X138895000Y-36955000D01*
G75*
G02*
X139045000Y-36805000I150000J0D01*
G01*
G37*
G36*
G01*
X137775000Y-36805000D02*
X138075000Y-36805000D01*
G75*
G02*
X138225000Y-36955000I0J-150000D01*
G01*
X138225000Y-38705000D01*
G75*
G02*
X138075000Y-38855000I-150000J0D01*
G01*
X137775000Y-38855000D01*
G75*
G02*
X137625000Y-38705000I0J150000D01*
G01*
X137625000Y-36955000D01*
G75*
G02*
X137775000Y-36805000I150000J0D01*
G01*
G37*
G36*
G01*
X136505000Y-36805000D02*
X136805000Y-36805000D01*
G75*
G02*
X136955000Y-36955000I0J-150000D01*
G01*
X136955000Y-38705000D01*
G75*
G02*
X136805000Y-38855000I-150000J0D01*
G01*
X136505000Y-38855000D01*
G75*
G02*
X136355000Y-38705000I0J150000D01*
G01*
X136355000Y-36955000D01*
G75*
G02*
X136505000Y-36805000I150000J0D01*
G01*
G37*
G36*
G01*
X135235000Y-36805000D02*
X135535000Y-36805000D01*
G75*
G02*
X135685000Y-36955000I0J-150000D01*
G01*
X135685000Y-38705000D01*
G75*
G02*
X135535000Y-38855000I-150000J0D01*
G01*
X135235000Y-38855000D01*
G75*
G02*
X135085000Y-38705000I0J150000D01*
G01*
X135085000Y-36955000D01*
G75*
G02*
X135235000Y-36805000I150000J0D01*
G01*
G37*
G36*
G01*
X133965000Y-36805000D02*
X134265000Y-36805000D01*
G75*
G02*
X134415000Y-36955000I0J-150000D01*
G01*
X134415000Y-38705000D01*
G75*
G02*
X134265000Y-38855000I-150000J0D01*
G01*
X133965000Y-38855000D01*
G75*
G02*
X133815000Y-38705000I0J150000D01*
G01*
X133815000Y-36955000D01*
G75*
G02*
X133965000Y-36805000I150000J0D01*
G01*
G37*
G36*
G01*
X132695000Y-36805000D02*
X132995000Y-36805000D01*
G75*
G02*
X133145000Y-36955000I0J-150000D01*
G01*
X133145000Y-38705000D01*
G75*
G02*
X132995000Y-38855000I-150000J0D01*
G01*
X132695000Y-38855000D01*
G75*
G02*
X132545000Y-38705000I0J150000D01*
G01*
X132545000Y-36955000D01*
G75*
G02*
X132695000Y-36805000I150000J0D01*
G01*
G37*
G36*
G01*
X131425000Y-36805000D02*
X131725000Y-36805000D01*
G75*
G02*
X131875000Y-36955000I0J-150000D01*
G01*
X131875000Y-38705000D01*
G75*
G02*
X131725000Y-38855000I-150000J0D01*
G01*
X131425000Y-38855000D01*
G75*
G02*
X131275000Y-38705000I0J150000D01*
G01*
X131275000Y-36955000D01*
G75*
G02*
X131425000Y-36805000I150000J0D01*
G01*
G37*
G36*
G01*
X130155000Y-36805000D02*
X130455000Y-36805000D01*
G75*
G02*
X130605000Y-36955000I0J-150000D01*
G01*
X130605000Y-38705000D01*
G75*
G02*
X130455000Y-38855000I-150000J0D01*
G01*
X130155000Y-38855000D01*
G75*
G02*
X130005000Y-38705000I0J150000D01*
G01*
X130005000Y-36955000D01*
G75*
G02*
X130155000Y-36805000I150000J0D01*
G01*
G37*
G36*
G01*
X128885000Y-36805000D02*
X129185000Y-36805000D01*
G75*
G02*
X129335000Y-36955000I0J-150000D01*
G01*
X129335000Y-38705000D01*
G75*
G02*
X129185000Y-38855000I-150000J0D01*
G01*
X128885000Y-38855000D01*
G75*
G02*
X128735000Y-38705000I0J150000D01*
G01*
X128735000Y-36955000D01*
G75*
G02*
X128885000Y-36805000I150000J0D01*
G01*
G37*
G36*
G01*
X127615000Y-36805000D02*
X127915000Y-36805000D01*
G75*
G02*
X128065000Y-36955000I0J-150000D01*
G01*
X128065000Y-38705000D01*
G75*
G02*
X127915000Y-38855000I-150000J0D01*
G01*
X127615000Y-38855000D01*
G75*
G02*
X127465000Y-38705000I0J150000D01*
G01*
X127465000Y-36955000D01*
G75*
G02*
X127615000Y-36805000I150000J0D01*
G01*
G37*
G36*
G01*
X126345000Y-36805000D02*
X126645000Y-36805000D01*
G75*
G02*
X126795000Y-36955000I0J-150000D01*
G01*
X126795000Y-38705000D01*
G75*
G02*
X126645000Y-38855000I-150000J0D01*
G01*
X126345000Y-38855000D01*
G75*
G02*
X126195000Y-38705000I0J150000D01*
G01*
X126195000Y-36955000D01*
G75*
G02*
X126345000Y-36805000I150000J0D01*
G01*
G37*
G36*
G01*
X125075000Y-36805000D02*
X125375000Y-36805000D01*
G75*
G02*
X125525000Y-36955000I0J-150000D01*
G01*
X125525000Y-38705000D01*
G75*
G02*
X125375000Y-38855000I-150000J0D01*
G01*
X125075000Y-38855000D01*
G75*
G02*
X124925000Y-38705000I0J150000D01*
G01*
X124925000Y-36955000D01*
G75*
G02*
X125075000Y-36805000I150000J0D01*
G01*
G37*
G36*
G01*
X123805000Y-36805000D02*
X124105000Y-36805000D01*
G75*
G02*
X124255000Y-36955000I0J-150000D01*
G01*
X124255000Y-38705000D01*
G75*
G02*
X124105000Y-38855000I-150000J0D01*
G01*
X123805000Y-38855000D01*
G75*
G02*
X123655000Y-38705000I0J150000D01*
G01*
X123655000Y-36955000D01*
G75*
G02*
X123805000Y-36805000I150000J0D01*
G01*
G37*
G36*
G01*
X122535000Y-36805000D02*
X122835000Y-36805000D01*
G75*
G02*
X122985000Y-36955000I0J-150000D01*
G01*
X122985000Y-38705000D01*
G75*
G02*
X122835000Y-38855000I-150000J0D01*
G01*
X122535000Y-38855000D01*
G75*
G02*
X122385000Y-38705000I0J150000D01*
G01*
X122385000Y-36955000D01*
G75*
G02*
X122535000Y-36805000I150000J0D01*
G01*
G37*
X135315000Y-130810000D03*
D11*
X137795000Y-133350000D03*
X147955000Y-133350000D03*
D12*
X142875000Y-133350000D03*
D13*
X139065000Y-130810000D03*
X145415000Y-128270000D03*
D10*
X149165000Y-128270000D03*
X116265000Y-130810000D03*
D11*
X118745000Y-133350000D03*
X128905000Y-133350000D03*
D12*
X123825000Y-133350000D03*
D13*
X120015000Y-130810000D03*
X126365000Y-128270000D03*
D10*
X130115000Y-128270000D03*
X80546250Y-130810000D03*
D11*
X83026250Y-133350000D03*
X93186250Y-133350000D03*
D12*
X88106250Y-133350000D03*
D13*
X84296250Y-130810000D03*
X90646250Y-128270000D03*
D10*
X94396250Y-128270000D03*
X56733750Y-130810000D03*
D11*
X59213750Y-133350000D03*
X69373750Y-133350000D03*
D12*
X64293750Y-133350000D03*
D13*
X60483750Y-130810000D03*
X66833750Y-128270000D03*
D10*
X70583750Y-128270000D03*
X32921250Y-130810000D03*
D11*
X35401250Y-133350000D03*
X45561250Y-133350000D03*
D12*
X40481250Y-133350000D03*
D13*
X36671250Y-130810000D03*
X43021250Y-128270000D03*
D10*
X46771250Y-128270000D03*
X135315000Y-111760000D03*
D11*
X137795000Y-114300000D03*
X147955000Y-114300000D03*
D12*
X142875000Y-114300000D03*
D13*
X139065000Y-111760000D03*
X145415000Y-109220000D03*
D10*
X149165000Y-109220000D03*
X116265000Y-111760000D03*
D11*
X118745000Y-114300000D03*
X128905000Y-114300000D03*
D12*
X123825000Y-114300000D03*
D13*
X120015000Y-111760000D03*
X126365000Y-109220000D03*
D10*
X130115000Y-109220000D03*
X97215000Y-111760000D03*
D11*
X99695000Y-114300000D03*
X109855000Y-114300000D03*
D12*
X104775000Y-114300000D03*
D13*
X100965000Y-111760000D03*
X107315000Y-109220000D03*
D10*
X111065000Y-109220000D03*
X78165000Y-111760000D03*
D11*
X80645000Y-114300000D03*
X90805000Y-114300000D03*
D12*
X85725000Y-114300000D03*
D13*
X81915000Y-111760000D03*
X88265000Y-109220000D03*
D10*
X92015000Y-109220000D03*
X59115000Y-111760000D03*
D11*
X61595000Y-114300000D03*
X71755000Y-114300000D03*
D12*
X66675000Y-114300000D03*
D13*
X62865000Y-111760000D03*
X69215000Y-109220000D03*
D10*
X72965000Y-109220000D03*
X32921250Y-111760000D03*
D11*
X35401250Y-114300000D03*
X45561250Y-114300000D03*
D12*
X40481250Y-114300000D03*
D13*
X36671250Y-111760000D03*
X43021250Y-109220000D03*
D10*
X46771250Y-109220000D03*
X135315000Y-92710000D03*
D11*
X137795000Y-95250000D03*
X147955000Y-95250000D03*
D12*
X142875000Y-95250000D03*
D13*
X139065000Y-92710000D03*
X145415000Y-90170000D03*
D10*
X149165000Y-90170000D03*
X116265000Y-92710000D03*
D11*
X118745000Y-95250000D03*
X128905000Y-95250000D03*
D12*
X123825000Y-95250000D03*
D13*
X120015000Y-92710000D03*
X126365000Y-90170000D03*
D10*
X130115000Y-90170000D03*
X78165000Y-92710000D03*
D11*
X80645000Y-95250000D03*
X90805000Y-95250000D03*
D12*
X85725000Y-95250000D03*
D13*
X81915000Y-92710000D03*
X88265000Y-90170000D03*
D10*
X92015000Y-90170000D03*
X59115000Y-92710000D03*
D11*
X61595000Y-95250000D03*
X71755000Y-95250000D03*
D12*
X66675000Y-95250000D03*
D13*
X62865000Y-92710000D03*
X69215000Y-90170000D03*
D10*
X72965000Y-90170000D03*
X32921250Y-92710000D03*
D11*
X35401250Y-95250000D03*
X45561250Y-95250000D03*
D12*
X40481250Y-95250000D03*
D13*
X36671250Y-92710000D03*
X43021250Y-90170000D03*
D10*
X46771250Y-90170000D03*
X135315000Y-73660000D03*
D11*
X137795000Y-76200000D03*
X147955000Y-76200000D03*
D12*
X142875000Y-76200000D03*
D13*
X139065000Y-73660000D03*
X145415000Y-71120000D03*
D10*
X149165000Y-71120000D03*
X116265000Y-73660000D03*
D11*
X118745000Y-76200000D03*
X128905000Y-76200000D03*
D12*
X123825000Y-76200000D03*
D13*
X120015000Y-73660000D03*
X126365000Y-71120000D03*
D10*
X130115000Y-71120000D03*
X97215000Y-73660000D03*
D11*
X99695000Y-76200000D03*
X109855000Y-76200000D03*
D12*
X104775000Y-76200000D03*
D13*
X100965000Y-73660000D03*
X107315000Y-71120000D03*
D10*
X111065000Y-71120000D03*
X78165000Y-73660000D03*
D11*
X80645000Y-76200000D03*
X90805000Y-76200000D03*
D12*
X85725000Y-76200000D03*
D13*
X81915000Y-73660000D03*
X88265000Y-71120000D03*
D10*
X92015000Y-71120000D03*
X59115000Y-73660000D03*
D11*
X61595000Y-76200000D03*
X71755000Y-76200000D03*
D12*
X66675000Y-76200000D03*
D13*
X62865000Y-73660000D03*
X69215000Y-71120000D03*
D10*
X72965000Y-71120000D03*
X35302500Y-73660000D03*
D11*
X37782500Y-76200000D03*
X47942500Y-76200000D03*
D12*
X42862500Y-76200000D03*
D13*
X39052500Y-73660000D03*
X45402500Y-71120000D03*
D10*
X49152500Y-71120000D03*
X135315000Y-54610000D03*
D11*
X137795000Y-57150000D03*
X147955000Y-57150000D03*
D12*
X142875000Y-57150000D03*
D13*
X139065000Y-54610000D03*
X145415000Y-52070000D03*
D10*
X149165000Y-52070000D03*
X116265000Y-54610000D03*
D11*
X118745000Y-57150000D03*
X128905000Y-57150000D03*
D12*
X123825000Y-57150000D03*
D13*
X120015000Y-54610000D03*
X126365000Y-52070000D03*
D10*
X130115000Y-52070000D03*
X97215000Y-54610000D03*
D11*
X99695000Y-57150000D03*
X109855000Y-57150000D03*
D12*
X104775000Y-57150000D03*
D13*
X100965000Y-54610000D03*
X107315000Y-52070000D03*
D10*
X111065000Y-52070000D03*
X78165000Y-54610000D03*
D11*
X80645000Y-57150000D03*
X90805000Y-57150000D03*
D12*
X85725000Y-57150000D03*
D13*
X81915000Y-54610000D03*
X88265000Y-52070000D03*
D10*
X92015000Y-52070000D03*
X59115000Y-54610000D03*
D11*
X61595000Y-57150000D03*
X71755000Y-57150000D03*
D12*
X66675000Y-57150000D03*
D13*
X62865000Y-54610000D03*
X69215000Y-52070000D03*
D10*
X72965000Y-52070000D03*
X40065000Y-54610000D03*
D11*
X42545000Y-57150000D03*
X52705000Y-57150000D03*
D12*
X47625000Y-57150000D03*
D13*
X43815000Y-54610000D03*
X50165000Y-52070000D03*
D10*
X53915000Y-52070000D03*
X135315000Y-30797500D03*
D11*
X137795000Y-33337500D03*
X147955000Y-33337500D03*
D12*
X142875000Y-33337500D03*
D13*
X139065000Y-30797500D03*
X145415000Y-28257500D03*
D10*
X149165000Y-28257500D03*
X111502500Y-30797500D03*
D11*
X113982500Y-33337500D03*
X124142500Y-33337500D03*
D12*
X119062500Y-33337500D03*
D13*
X115252500Y-30797500D03*
X121602500Y-28257500D03*
D10*
X125352500Y-28257500D03*
X92452500Y-30797500D03*
D11*
X94932500Y-33337500D03*
X105092500Y-33337500D03*
D12*
X100012500Y-33337500D03*
D13*
X96202500Y-30797500D03*
X102552500Y-28257500D03*
D10*
X106302500Y-28257500D03*
X73402500Y-30797500D03*
D11*
X75882500Y-33337500D03*
X86042500Y-33337500D03*
D12*
X80962500Y-33337500D03*
D13*
X77152500Y-30797500D03*
X83502500Y-28257500D03*
D10*
X87252500Y-28257500D03*
X54352500Y-30797500D03*
D11*
X56832500Y-33337500D03*
X66992500Y-33337500D03*
D12*
X61912500Y-33337500D03*
D13*
X58102500Y-30797500D03*
X64452500Y-28257500D03*
D10*
X68202500Y-28257500D03*
X30540000Y-30797500D03*
D11*
X33020000Y-33337500D03*
X43180000Y-33337500D03*
D12*
X38100000Y-33337500D03*
D13*
X34290000Y-30797500D03*
X40640000Y-28257500D03*
D10*
X44390000Y-28257500D03*
D14*
X158930000Y-36940000D03*
D15*
X163770000Y-40390000D03*
D16*
X161470000Y-35920000D03*
X158930000Y-34900000D03*
X161470000Y-33880000D03*
X158930000Y-32860000D03*
X161470000Y-31840000D03*
D15*
X163770000Y-28390000D03*
D17*
X150018750Y-136462500D03*
X150018750Y-139762500D03*
X130968750Y-136462500D03*
X130968750Y-139762500D03*
X95250000Y-136462500D03*
X95250000Y-139762500D03*
X71437500Y-136462500D03*
X71437500Y-139762500D03*
X47625000Y-136462500D03*
X47625000Y-139762500D03*
X150018750Y-117412500D03*
X150018750Y-120712500D03*
X130968750Y-117412500D03*
X130968750Y-120712500D03*
X111918750Y-117412500D03*
X111918750Y-120712500D03*
X92868750Y-117412500D03*
X92868750Y-120712500D03*
X73818750Y-117412500D03*
X73818750Y-120712500D03*
X47625000Y-117412500D03*
X47625000Y-120712500D03*
X150018750Y-98362500D03*
X150018750Y-101662500D03*
X130968750Y-98362500D03*
X130968750Y-101662500D03*
X111918750Y-98362500D03*
X111918750Y-101662500D03*
X92868750Y-98362500D03*
X92868750Y-101662500D03*
X73818750Y-98362500D03*
X73818750Y-101662500D03*
X47625000Y-98362500D03*
X47625000Y-101662500D03*
X150018750Y-79312500D03*
X150018750Y-82612500D03*
X130968750Y-79312500D03*
X130968750Y-82612500D03*
X111918750Y-79312500D03*
X111918750Y-82612500D03*
X92868750Y-79312500D03*
X92868750Y-82612500D03*
X73818750Y-79312500D03*
X73818750Y-82612500D03*
X50006250Y-79312500D03*
X50006250Y-82612500D03*
X150018750Y-60262500D03*
X150018750Y-63562500D03*
X130968750Y-60262500D03*
X130968750Y-63562500D03*
X111918750Y-60262500D03*
X111918750Y-63562500D03*
X92868750Y-60262500D03*
X92868750Y-63562500D03*
X73818750Y-60262500D03*
X73818750Y-63562500D03*
X54768750Y-60262500D03*
X54768750Y-63562500D03*
D18*
X133020000Y-26530000D03*
X129720000Y-26530000D03*
D17*
X116681250Y-36450000D03*
X116681250Y-39750000D03*
X107156250Y-36450000D03*
X107156250Y-39750000D03*
X88106250Y-36450000D03*
X88106250Y-39750000D03*
X69056250Y-36450000D03*
X69056250Y-39750000D03*
X45243750Y-36450000D03*
X45243750Y-39750000D03*
G36*
G01*
X129560000Y-32685000D02*
X129560000Y-33635000D01*
G75*
G02*
X129310000Y-33885000I-250000J0D01*
G01*
X128635000Y-33885000D01*
G75*
G02*
X128385000Y-33635000I0J250000D01*
G01*
X128385000Y-32685000D01*
G75*
G02*
X128635000Y-32435000I250000J0D01*
G01*
X129310000Y-32435000D01*
G75*
G02*
X129560000Y-32685000I0J-250000D01*
G01*
G37*
G36*
G01*
X131635000Y-32685000D02*
X131635000Y-33635000D01*
G75*
G02*
X131385000Y-33885000I-250000J0D01*
G01*
X130710000Y-33885000D01*
G75*
G02*
X130460000Y-33635000I0J250000D01*
G01*
X130460000Y-32685000D01*
G75*
G02*
X130710000Y-32435000I250000J0D01*
G01*
X131385000Y-32435000D01*
G75*
G02*
X131635000Y-32685000I0J-250000D01*
G01*
G37*
M02*
