G04 #@! TF.GenerationSoftware,KiCad,Pcbnew,5.1.12-1.fc34*
G04 #@! TF.CreationDate,2021-12-19T19:02:19+02:00*
G04 #@! TF.ProjectId,slash_left,736c6173-685f-46c6-9566-742e6b696361,rev?*
G04 #@! TF.SameCoordinates,Original*
G04 #@! TF.FileFunction,Paste,Top*
G04 #@! TF.FilePolarity,Positive*
%FSLAX46Y46*%
G04 Gerber Fmt 4.6, Leading zero omitted, Abs format (unit mm)*
G04 Created by KiCad (PCBNEW 5.1.12-1.fc34) date 2021-12-19 19:02:19*
%MOMM*%
%LPD*%
G01*
G04 APERTURE LIST*
%ADD10R,1.400000X1.000000*%
%ADD11R,1.400000X1.200000*%
G04 APERTURE END LIST*
G36*
G01*
X148400000Y-47450001D02*
X148400000Y-46549999D01*
G75*
G02*
X148649999Y-46300000I249999J0D01*
G01*
X149350001Y-46300000D01*
G75*
G02*
X149600000Y-46549999I0J-249999D01*
G01*
X149600000Y-47450001D01*
G75*
G02*
X149350001Y-47700000I-249999J0D01*
G01*
X148649999Y-47700000D01*
G75*
G02*
X148400000Y-47450001I0J249999D01*
G01*
G37*
G36*
G01*
X146400000Y-47450001D02*
X146400000Y-46549999D01*
G75*
G02*
X146649999Y-46300000I249999J0D01*
G01*
X147350001Y-46300000D01*
G75*
G02*
X147600000Y-46549999I0J-249999D01*
G01*
X147600000Y-47450001D01*
G75*
G02*
X147350001Y-47700000I-249999J0D01*
G01*
X146649999Y-47700000D01*
G75*
G02*
X146400000Y-47450001I0J249999D01*
G01*
G37*
G36*
G01*
X148400000Y-42450001D02*
X148400000Y-41549999D01*
G75*
G02*
X148649999Y-41300000I249999J0D01*
G01*
X149350001Y-41300000D01*
G75*
G02*
X149600000Y-41549999I0J-249999D01*
G01*
X149600000Y-42450001D01*
G75*
G02*
X149350001Y-42700000I-249999J0D01*
G01*
X148649999Y-42700000D01*
G75*
G02*
X148400000Y-42450001I0J249999D01*
G01*
G37*
G36*
G01*
X146400000Y-42450001D02*
X146400000Y-41549999D01*
G75*
G02*
X146649999Y-41300000I249999J0D01*
G01*
X147350001Y-41300000D01*
G75*
G02*
X147600000Y-41549999I0J-249999D01*
G01*
X147600000Y-42450001D01*
G75*
G02*
X147350001Y-42700000I-249999J0D01*
G01*
X146649999Y-42700000D01*
G75*
G02*
X146400000Y-42450001I0J249999D01*
G01*
G37*
G36*
G01*
X166440000Y-18970001D02*
X166440000Y-18069999D01*
G75*
G02*
X166689999Y-17820000I249999J0D01*
G01*
X167390001Y-17820000D01*
G75*
G02*
X167640000Y-18069999I0J-249999D01*
G01*
X167640000Y-18970001D01*
G75*
G02*
X167390001Y-19220000I-249999J0D01*
G01*
X166689999Y-19220000D01*
G75*
G02*
X166440000Y-18970001I0J249999D01*
G01*
G37*
G36*
G01*
X164440000Y-18970001D02*
X164440000Y-18069999D01*
G75*
G02*
X164689999Y-17820000I249999J0D01*
G01*
X165390001Y-17820000D01*
G75*
G02*
X165640000Y-18069999I0J-249999D01*
G01*
X165640000Y-18970001D01*
G75*
G02*
X165390001Y-19220000I-249999J0D01*
G01*
X164689999Y-19220000D01*
G75*
G02*
X164440000Y-18970001I0J249999D01*
G01*
G37*
G36*
G01*
X166430000Y-23470001D02*
X166430000Y-22569999D01*
G75*
G02*
X166679999Y-22320000I249999J0D01*
G01*
X167330001Y-22320000D01*
G75*
G02*
X167580000Y-22569999I0J-249999D01*
G01*
X167580000Y-23470001D01*
G75*
G02*
X167330001Y-23720000I-249999J0D01*
G01*
X166679999Y-23720000D01*
G75*
G02*
X166430000Y-23470001I0J249999D01*
G01*
G37*
G36*
G01*
X164380000Y-23470001D02*
X164380000Y-22569999D01*
G75*
G02*
X164629999Y-22320000I249999J0D01*
G01*
X165280001Y-22320000D01*
G75*
G02*
X165530000Y-22569999I0J-249999D01*
G01*
X165530000Y-23470001D01*
G75*
G02*
X165280001Y-23720000I-249999J0D01*
G01*
X164629999Y-23720000D01*
G75*
G02*
X164380000Y-23470001I0J249999D01*
G01*
G37*
D10*
X158240000Y-22280000D03*
X158240000Y-24180000D03*
X156040000Y-24180000D03*
D11*
X156040000Y-22460000D03*
M02*
