%FSLAX45Y45*%
G04 Gerber Fmt 4.5, Leading zero omitted, Abs format (unit mm)*
G04 Created by KiCad (PCBNEW 5.1.12-1.fc34) date 2021-12-19 19:02:48*
%MOMM*%
%LPD*%
G01*
G04 APERTURE LIST*
%TA.AperFunction,Profile*%
%ADD10C,0.200000*%
%TD*%
%ADD11C,0.200000*%
%ADD12C,0.300000*%
G04 APERTURE END LIST*
D10*
X16993410Y-2435765D02*
X16993410Y-4195765D01*
X16693410Y-4495765D02*
X15288410Y-4495765D01*
X16993410Y-4195765D02*
G75*
G02*
X16693410Y-4495765I-300000J0D01*
G01*
X2810926Y-14137000D02*
X2810926Y-2435765D01*
X16693410Y-1435765D02*
G75*
G02*
X16993410Y-1735765I0J-300000D01*
G01*
X16993410Y-1735765D02*
X16993410Y-2435765D01*
X15288410Y-14137000D02*
X2810926Y-14137000D01*
X15088410Y-1735765D02*
X15088410Y-2435765D01*
X2810926Y-2435765D02*
X15088410Y-2435765D01*
X16693410Y-1435765D02*
X15388410Y-1435765D01*
X15088410Y-1735765D02*
G75*
G02*
X15388410Y-1435765I300000J0D01*
G01*
X15288410Y-4495765D02*
X15288410Y-14137000D01*
D11*
X3216910Y-3248660D02*
X3387090Y-3418840D01*
X3387090Y-3248660D02*
X3216910Y-3418840D01*
X3455035Y-9439910D02*
X3625215Y-9610090D01*
X3625215Y-9439910D02*
X3455035Y-9610090D01*
X3455035Y-11344910D02*
X3625215Y-11515090D01*
X3625215Y-11344910D02*
X3455035Y-11515090D01*
X3455035Y-13249910D02*
X3625215Y-13420090D01*
X3625215Y-13249910D02*
X3455035Y-13420090D01*
X3693160Y-7534910D02*
X3863340Y-7705090D01*
X3863340Y-7534910D02*
X3693160Y-7705090D01*
X4169410Y-5629910D02*
X4339590Y-5800090D01*
X4339590Y-5629910D02*
X4169410Y-5800090D01*
X4232910Y-3248660D02*
X4403090Y-3418840D01*
X4403090Y-3248660D02*
X4232910Y-3418840D01*
X4471035Y-9439910D02*
X4641215Y-9610090D01*
X4641215Y-9439910D02*
X4471035Y-9610090D01*
X4471035Y-11344910D02*
X4641215Y-11515090D01*
X4641215Y-11344910D02*
X4471035Y-11515090D01*
X4471035Y-13249910D02*
X4641215Y-13420090D01*
X4641215Y-13249910D02*
X4471035Y-13420090D01*
X4709160Y-7534910D02*
X4879340Y-7705090D01*
X4879340Y-7534910D02*
X4709160Y-7705090D01*
X5185410Y-5629910D02*
X5355590Y-5800090D01*
X5355590Y-5629910D02*
X5185410Y-5800090D01*
X5598160Y-3248660D02*
X5768340Y-3418840D01*
X5768340Y-3248660D02*
X5598160Y-3418840D01*
X5836285Y-13249910D02*
X6006465Y-13420090D01*
X6006465Y-13249910D02*
X5836285Y-13420090D01*
X6074410Y-5629910D02*
X6244590Y-5800090D01*
X6244590Y-5629910D02*
X6074410Y-5800090D01*
X6074410Y-7534910D02*
X6244590Y-7705090D01*
X6244590Y-7534910D02*
X6074410Y-7705090D01*
X6074410Y-9439910D02*
X6244590Y-9610090D01*
X6244590Y-9439910D02*
X6074410Y-9610090D01*
X6074410Y-11344910D02*
X6244590Y-11515090D01*
X6244590Y-11344910D02*
X6074410Y-11515090D01*
X6614160Y-3248660D02*
X6784340Y-3418840D01*
X6784340Y-3248660D02*
X6614160Y-3418840D01*
X6852285Y-13249910D02*
X7022465Y-13420090D01*
X7022465Y-13249910D02*
X6852285Y-13420090D01*
X7090410Y-5629910D02*
X7260590Y-5800090D01*
X7260590Y-5629910D02*
X7090410Y-5800090D01*
X7090410Y-7534910D02*
X7260590Y-7705090D01*
X7260590Y-7534910D02*
X7090410Y-7705090D01*
X7090410Y-9439910D02*
X7260590Y-9610090D01*
X7260590Y-9439910D02*
X7090410Y-9610090D01*
X7090410Y-11344910D02*
X7260590Y-11515090D01*
X7260590Y-11344910D02*
X7090410Y-11515090D01*
X7503160Y-3248660D02*
X7673340Y-3418840D01*
X7673340Y-3248660D02*
X7503160Y-3418840D01*
X7979410Y-5629910D02*
X8149590Y-5800090D01*
X8149590Y-5629910D02*
X7979410Y-5800090D01*
X7979410Y-7534910D02*
X8149590Y-7705090D01*
X8149590Y-7534910D02*
X7979410Y-7705090D01*
X7979410Y-9439910D02*
X8149590Y-9610090D01*
X8149590Y-9439910D02*
X7979410Y-9610090D01*
X7979410Y-11344910D02*
X8149590Y-11515090D01*
X8149590Y-11344910D02*
X7979410Y-11515090D01*
X8217535Y-13249910D02*
X8387715Y-13420090D01*
X8387715Y-13249910D02*
X8217535Y-13420090D01*
X8519160Y-3248660D02*
X8689340Y-3418840D01*
X8689340Y-3248660D02*
X8519160Y-3418840D01*
X8995410Y-5629910D02*
X9165590Y-5800090D01*
X9165590Y-5629910D02*
X8995410Y-5800090D01*
X8995410Y-7534910D02*
X9165590Y-7705090D01*
X9165590Y-7534910D02*
X8995410Y-7705090D01*
X8995410Y-9439910D02*
X9165590Y-9610090D01*
X9165590Y-9439910D02*
X8995410Y-9610090D01*
X8995410Y-11344910D02*
X9165590Y-11515090D01*
X9165590Y-11344910D02*
X8995410Y-11515090D01*
X9233535Y-13249910D02*
X9403715Y-13420090D01*
X9403715Y-13249910D02*
X9233535Y-13420090D01*
X9408160Y-3248660D02*
X9578340Y-3418840D01*
X9578340Y-3248660D02*
X9408160Y-3418840D01*
X9884410Y-5629910D02*
X10054590Y-5800090D01*
X10054590Y-5629910D02*
X9884410Y-5800090D01*
X9884410Y-7534910D02*
X10054590Y-7705090D01*
X10054590Y-7534910D02*
X9884410Y-7705090D01*
X9884410Y-9439910D02*
X10054590Y-9610090D01*
X10054590Y-9439910D02*
X9884410Y-9610090D01*
X9884410Y-11344910D02*
X10054590Y-11515090D01*
X10054590Y-11344910D02*
X9884410Y-11515090D01*
X10424160Y-3248660D02*
X10594340Y-3418840D01*
X10594340Y-3248660D02*
X10424160Y-3418840D01*
X10900410Y-5629910D02*
X11070590Y-5800090D01*
X11070590Y-5629910D02*
X10900410Y-5800090D01*
X10900410Y-7534910D02*
X11070590Y-7705090D01*
X11070590Y-7534910D02*
X10900410Y-7705090D01*
X10900410Y-9439910D02*
X11070590Y-9610090D01*
X11070590Y-9439910D02*
X10900410Y-9610090D01*
X10900410Y-11344910D02*
X11070590Y-11515090D01*
X11070590Y-11344910D02*
X10900410Y-11515090D01*
X11313160Y-3248660D02*
X11483340Y-3418840D01*
X11483340Y-3248660D02*
X11313160Y-3418840D01*
X11789410Y-5629910D02*
X11959590Y-5800090D01*
X11959590Y-5629910D02*
X11789410Y-5800090D01*
X11789410Y-7534910D02*
X11959590Y-7705090D01*
X11959590Y-7534910D02*
X11789410Y-7705090D01*
X11789410Y-9439910D02*
X11959590Y-9610090D01*
X11959590Y-9439910D02*
X11789410Y-9610090D01*
X11789410Y-11344910D02*
X11959590Y-11515090D01*
X11959590Y-11344910D02*
X11789410Y-11515090D01*
X11789410Y-13249910D02*
X11959590Y-13420090D01*
X11959590Y-13249910D02*
X11789410Y-13420090D01*
X12329160Y-3248660D02*
X12499340Y-3418840D01*
X12499340Y-3248660D02*
X12329160Y-3418840D01*
X12805410Y-5629910D02*
X12975590Y-5800090D01*
X12975590Y-5629910D02*
X12805410Y-5800090D01*
X12805410Y-7534910D02*
X12975590Y-7705090D01*
X12975590Y-7534910D02*
X12805410Y-7705090D01*
X12805410Y-9439910D02*
X12975590Y-9610090D01*
X12975590Y-9439910D02*
X12805410Y-9610090D01*
X12805410Y-11344910D02*
X12975590Y-11515090D01*
X12975590Y-11344910D02*
X12805410Y-11515090D01*
X12805410Y-13249910D02*
X12975590Y-13420090D01*
X12975590Y-13249910D02*
X12805410Y-13420090D01*
X13694410Y-3248660D02*
X13864590Y-3418840D01*
X13864590Y-3248660D02*
X13694410Y-3418840D01*
X13694410Y-5629910D02*
X13864590Y-5800090D01*
X13864590Y-5629910D02*
X13694410Y-5800090D01*
X13694410Y-7534910D02*
X13864590Y-7705090D01*
X13864590Y-7534910D02*
X13694410Y-7705090D01*
X13694410Y-9439910D02*
X13864590Y-9610090D01*
X13864590Y-9439910D02*
X13694410Y-9610090D01*
X13694410Y-11344910D02*
X13864590Y-11515090D01*
X13864590Y-11344910D02*
X13694410Y-11515090D01*
X13694410Y-13249910D02*
X13864590Y-13420090D01*
X13864590Y-13249910D02*
X13694410Y-13420090D01*
X14710410Y-3248660D02*
X14880590Y-3418840D01*
X14880590Y-3248660D02*
X14710410Y-3418840D01*
X14710410Y-5629910D02*
X14880590Y-5800090D01*
X14880590Y-5629910D02*
X14710410Y-5800090D01*
X14710410Y-7534910D02*
X14880590Y-7705090D01*
X14880590Y-7534910D02*
X14710410Y-7705090D01*
X14710410Y-9439910D02*
X14880590Y-9610090D01*
X14880590Y-9439910D02*
X14710410Y-9610090D01*
X14710410Y-11344910D02*
X14880590Y-11515090D01*
X14880590Y-11344910D02*
X14710410Y-11515090D01*
X14710410Y-13249910D02*
X14880590Y-13420090D01*
X14880590Y-13249910D02*
X14710410Y-13420090D01*
X16502000Y-2839000D02*
G75*
G03*
X16502000Y-2839000I-125000J0D01*
G01*
X16502000Y-4039000D02*
G75*
G03*
X16502000Y-4039000I-125000J0D01*
G01*
X3429000Y-2929750D02*
X3429000Y-3229750D01*
X3279000Y-3079750D02*
X3579000Y-3079750D01*
X3667125Y-9121000D02*
X3667125Y-9421000D01*
X3517125Y-9271000D02*
X3817125Y-9271000D01*
X3667125Y-11026000D02*
X3667125Y-11326000D01*
X3517125Y-11176000D02*
X3817125Y-11176000D01*
X3667125Y-12931000D02*
X3667125Y-13231000D01*
X3517125Y-13081000D02*
X3817125Y-13081000D01*
X3905250Y-7216000D02*
X3905250Y-7516000D01*
X3755250Y-7366000D02*
X4055250Y-7366000D01*
X4064000Y-2675750D02*
X4064000Y-2975750D01*
X3914000Y-2825750D02*
X4214000Y-2825750D01*
X4302125Y-8867000D02*
X4302125Y-9167000D01*
X4152125Y-9017000D02*
X4452125Y-9017000D01*
X4302125Y-10772000D02*
X4302125Y-11072000D01*
X4152125Y-10922000D02*
X4452125Y-10922000D01*
X4302125Y-12677000D02*
X4302125Y-12977000D01*
X4152125Y-12827000D02*
X4452125Y-12827000D01*
X4381500Y-5311000D02*
X4381500Y-5611000D01*
X4231500Y-5461000D02*
X4531500Y-5461000D01*
X4540250Y-6962000D02*
X4540250Y-7262000D01*
X4390250Y-7112000D02*
X4690250Y-7112000D01*
X5016500Y-5057000D02*
X5016500Y-5357000D01*
X4866500Y-5207000D02*
X5166500Y-5207000D01*
X5810250Y-2929750D02*
X5810250Y-3229750D01*
X5660250Y-3079750D02*
X5960250Y-3079750D01*
X6048375Y-12931000D02*
X6048375Y-13231000D01*
X5898375Y-13081000D02*
X6198375Y-13081000D01*
X6286500Y-5311000D02*
X6286500Y-5611000D01*
X6136500Y-5461000D02*
X6436500Y-5461000D01*
X6286500Y-7216000D02*
X6286500Y-7516000D01*
X6136500Y-7366000D02*
X6436500Y-7366000D01*
X6286500Y-9121000D02*
X6286500Y-9421000D01*
X6136500Y-9271000D02*
X6436500Y-9271000D01*
X6286500Y-11026000D02*
X6286500Y-11326000D01*
X6136500Y-11176000D02*
X6436500Y-11176000D01*
X6445250Y-2675750D02*
X6445250Y-2975750D01*
X6295250Y-2825750D02*
X6595250Y-2825750D01*
X6683375Y-12677000D02*
X6683375Y-12977000D01*
X6533375Y-12827000D02*
X6833375Y-12827000D01*
X6921500Y-5057000D02*
X6921500Y-5357000D01*
X6771500Y-5207000D02*
X7071500Y-5207000D01*
X6921500Y-6962000D02*
X6921500Y-7262000D01*
X6771500Y-7112000D02*
X7071500Y-7112000D01*
X6921500Y-8867000D02*
X6921500Y-9167000D01*
X6771500Y-9017000D02*
X7071500Y-9017000D01*
X6921500Y-10772000D02*
X6921500Y-11072000D01*
X6771500Y-10922000D02*
X7071500Y-10922000D01*
X7715250Y-2929750D02*
X7715250Y-3229750D01*
X7565250Y-3079750D02*
X7865250Y-3079750D01*
X8191500Y-5311000D02*
X8191500Y-5611000D01*
X8041500Y-5461000D02*
X8341500Y-5461000D01*
X8191500Y-7216000D02*
X8191500Y-7516000D01*
X8041500Y-7366000D02*
X8341500Y-7366000D01*
X8191500Y-9121000D02*
X8191500Y-9421000D01*
X8041500Y-9271000D02*
X8341500Y-9271000D01*
X8191500Y-11026000D02*
X8191500Y-11326000D01*
X8041500Y-11176000D02*
X8341500Y-11176000D01*
X8350250Y-2675750D02*
X8350250Y-2975750D01*
X8200250Y-2825750D02*
X8500250Y-2825750D01*
X8429625Y-12931000D02*
X8429625Y-13231000D01*
X8279625Y-13081000D02*
X8579625Y-13081000D01*
X8826500Y-5057000D02*
X8826500Y-5357000D01*
X8676500Y-5207000D02*
X8976500Y-5207000D01*
X8826500Y-6962000D02*
X8826500Y-7262000D01*
X8676500Y-7112000D02*
X8976500Y-7112000D01*
X8826500Y-8867000D02*
X8826500Y-9167000D01*
X8676500Y-9017000D02*
X8976500Y-9017000D01*
X8826500Y-10772000D02*
X8826500Y-11072000D01*
X8676500Y-10922000D02*
X8976500Y-10922000D01*
X9064625Y-12677000D02*
X9064625Y-12977000D01*
X8914625Y-12827000D02*
X9214625Y-12827000D01*
X9620250Y-2929750D02*
X9620250Y-3229750D01*
X9470250Y-3079750D02*
X9770250Y-3079750D01*
X10096500Y-5311000D02*
X10096500Y-5611000D01*
X9946500Y-5461000D02*
X10246500Y-5461000D01*
X10096500Y-7216000D02*
X10096500Y-7516000D01*
X9946500Y-7366000D02*
X10246500Y-7366000D01*
X10096500Y-9121000D02*
X10096500Y-9421000D01*
X9946500Y-9271000D02*
X10246500Y-9271000D01*
X10096500Y-11026000D02*
X10096500Y-11326000D01*
X9946500Y-11176000D02*
X10246500Y-11176000D01*
X10255250Y-2675750D02*
X10255250Y-2975750D01*
X10105250Y-2825750D02*
X10405250Y-2825750D01*
X10731500Y-5057000D02*
X10731500Y-5357000D01*
X10581500Y-5207000D02*
X10881500Y-5207000D01*
X10731500Y-6962000D02*
X10731500Y-7262000D01*
X10581500Y-7112000D02*
X10881500Y-7112000D01*
X10731500Y-8867000D02*
X10731500Y-9167000D01*
X10581500Y-9017000D02*
X10881500Y-9017000D01*
X10731500Y-10772000D02*
X10731500Y-11072000D01*
X10581500Y-10922000D02*
X10881500Y-10922000D01*
X11525250Y-2929750D02*
X11525250Y-3229750D01*
X11375250Y-3079750D02*
X11675250Y-3079750D01*
X12001500Y-5311000D02*
X12001500Y-5611000D01*
X11851500Y-5461000D02*
X12151500Y-5461000D01*
X12001500Y-7216000D02*
X12001500Y-7516000D01*
X11851500Y-7366000D02*
X12151500Y-7366000D01*
X12001500Y-9121000D02*
X12001500Y-9421000D01*
X11851500Y-9271000D02*
X12151500Y-9271000D01*
X12001500Y-11026000D02*
X12001500Y-11326000D01*
X11851500Y-11176000D02*
X12151500Y-11176000D01*
X12001500Y-12931000D02*
X12001500Y-13231000D01*
X11851500Y-13081000D02*
X12151500Y-13081000D01*
X12160250Y-2675750D02*
X12160250Y-2975750D01*
X12010250Y-2825750D02*
X12310250Y-2825750D01*
X12636500Y-5057000D02*
X12636500Y-5357000D01*
X12486500Y-5207000D02*
X12786500Y-5207000D01*
X12636500Y-6962000D02*
X12636500Y-7262000D01*
X12486500Y-7112000D02*
X12786500Y-7112000D01*
X12636500Y-8867000D02*
X12636500Y-9167000D01*
X12486500Y-9017000D02*
X12786500Y-9017000D01*
X12636500Y-10772000D02*
X12636500Y-11072000D01*
X12486500Y-10922000D02*
X12786500Y-10922000D01*
X12636500Y-12677000D02*
X12636500Y-12977000D01*
X12486500Y-12827000D02*
X12786500Y-12827000D01*
X13906500Y-2929750D02*
X13906500Y-3229750D01*
X13756500Y-3079750D02*
X14056500Y-3079750D01*
X13906500Y-5311000D02*
X13906500Y-5611000D01*
X13756500Y-5461000D02*
X14056500Y-5461000D01*
X13906500Y-7216000D02*
X13906500Y-7516000D01*
X13756500Y-7366000D02*
X14056500Y-7366000D01*
X13906500Y-9121000D02*
X13906500Y-9421000D01*
X13756500Y-9271000D02*
X14056500Y-9271000D01*
X13906500Y-11026000D02*
X13906500Y-11326000D01*
X13756500Y-11176000D02*
X14056500Y-11176000D01*
X13906500Y-12931000D02*
X13906500Y-13231000D01*
X13756500Y-13081000D02*
X14056500Y-13081000D01*
X14541500Y-2675750D02*
X14541500Y-2975750D01*
X14391500Y-2825750D02*
X14691500Y-2825750D01*
X14541500Y-5057000D02*
X14541500Y-5357000D01*
X14391500Y-5207000D02*
X14691500Y-5207000D01*
X14541500Y-6962000D02*
X14541500Y-7262000D01*
X14391500Y-7112000D02*
X14691500Y-7112000D01*
X14541500Y-8867000D02*
X14541500Y-9167000D01*
X14391500Y-9017000D02*
X14691500Y-9017000D01*
X14541500Y-10772000D02*
X14541500Y-11072000D01*
X14391500Y-10922000D02*
X14691500Y-10922000D01*
X14541500Y-12677000D02*
X14541500Y-12977000D01*
X14391500Y-12827000D02*
X14691500Y-12827000D01*
X3950991Y-3474741D02*
X3950991Y-3192759D01*
X3669009Y-3192759D01*
X3669009Y-3474741D01*
X3950991Y-3474741D01*
X4189116Y-9665991D02*
X4189116Y-9384009D01*
X3907134Y-9384009D01*
X3907134Y-9665991D01*
X4189116Y-9665991D01*
X4189116Y-11570991D02*
X4189116Y-11289009D01*
X3907134Y-11289009D01*
X3907134Y-11570991D01*
X4189116Y-11570991D01*
X4189116Y-13475991D02*
X4189116Y-13194009D01*
X3907134Y-13194009D01*
X3907134Y-13475991D01*
X4189116Y-13475991D01*
X4427241Y-7760991D02*
X4427241Y-7479009D01*
X4145259Y-7479009D01*
X4145259Y-7760991D01*
X4427241Y-7760991D01*
X4903491Y-5855991D02*
X4903491Y-5574009D01*
X4621509Y-5574009D01*
X4621509Y-5855991D01*
X4903491Y-5855991D01*
X6332241Y-3474741D02*
X6332241Y-3192759D01*
X6050259Y-3192759D01*
X6050259Y-3474741D01*
X6332241Y-3474741D01*
X6570366Y-13475991D02*
X6570366Y-13194009D01*
X6288384Y-13194009D01*
X6288384Y-13475991D01*
X6570366Y-13475991D01*
X6808491Y-5855991D02*
X6808491Y-5574009D01*
X6526509Y-5574009D01*
X6526509Y-5855991D01*
X6808491Y-5855991D01*
X6808491Y-7760991D02*
X6808491Y-7479009D01*
X6526509Y-7479009D01*
X6526509Y-7760991D01*
X6808491Y-7760991D01*
X6808491Y-9665991D02*
X6808491Y-9384009D01*
X6526509Y-9384009D01*
X6526509Y-9665991D01*
X6808491Y-9665991D01*
X6808491Y-11570991D02*
X6808491Y-11289009D01*
X6526509Y-11289009D01*
X6526509Y-11570991D01*
X6808491Y-11570991D01*
X8237241Y-3474741D02*
X8237241Y-3192759D01*
X7955259Y-3192759D01*
X7955259Y-3474741D01*
X8237241Y-3474741D01*
X8713491Y-5855991D02*
X8713491Y-5574009D01*
X8431509Y-5574009D01*
X8431509Y-5855991D01*
X8713491Y-5855991D01*
X8713491Y-7760991D02*
X8713491Y-7479009D01*
X8431509Y-7479009D01*
X8431509Y-7760991D01*
X8713491Y-7760991D01*
X8713491Y-9665991D02*
X8713491Y-9384009D01*
X8431509Y-9384009D01*
X8431509Y-9665991D01*
X8713491Y-9665991D01*
X8713491Y-11570991D02*
X8713491Y-11289009D01*
X8431509Y-11289009D01*
X8431509Y-11570991D01*
X8713491Y-11570991D01*
X8951616Y-13475991D02*
X8951616Y-13194009D01*
X8669634Y-13194009D01*
X8669634Y-13475991D01*
X8951616Y-13475991D01*
X10142241Y-3474741D02*
X10142241Y-3192759D01*
X9860259Y-3192759D01*
X9860259Y-3474741D01*
X10142241Y-3474741D01*
X10618491Y-5855991D02*
X10618491Y-5574009D01*
X10336509Y-5574009D01*
X10336509Y-5855991D01*
X10618491Y-5855991D01*
X10618491Y-7760991D02*
X10618491Y-7479009D01*
X10336509Y-7479009D01*
X10336509Y-7760991D01*
X10618491Y-7760991D01*
X10618491Y-9665991D02*
X10618491Y-9384009D01*
X10336509Y-9384009D01*
X10336509Y-9665991D01*
X10618491Y-9665991D01*
X10618491Y-11570991D02*
X10618491Y-11289009D01*
X10336509Y-11289009D01*
X10336509Y-11570991D01*
X10618491Y-11570991D01*
X12047241Y-3474741D02*
X12047241Y-3192759D01*
X11765259Y-3192759D01*
X11765259Y-3474741D01*
X12047241Y-3474741D01*
X12523491Y-5855991D02*
X12523491Y-5574009D01*
X12241509Y-5574009D01*
X12241509Y-5855991D01*
X12523491Y-5855991D01*
X12523491Y-7760991D02*
X12523491Y-7479009D01*
X12241509Y-7479009D01*
X12241509Y-7760991D01*
X12523491Y-7760991D01*
X12523491Y-9665991D02*
X12523491Y-9384009D01*
X12241509Y-9384009D01*
X12241509Y-9665991D01*
X12523491Y-9665991D01*
X12523491Y-11570991D02*
X12523491Y-11289009D01*
X12241509Y-11289009D01*
X12241509Y-11570991D01*
X12523491Y-11570991D01*
X12523491Y-13475991D02*
X12523491Y-13194009D01*
X12241509Y-13194009D01*
X12241509Y-13475991D01*
X12523491Y-13475991D01*
X14428491Y-3474741D02*
X14428491Y-3192759D01*
X14146509Y-3192759D01*
X14146509Y-3474741D01*
X14428491Y-3474741D01*
X14428491Y-5855991D02*
X14428491Y-5574009D01*
X14146509Y-5574009D01*
X14146509Y-5855991D01*
X14428491Y-5855991D01*
X14428491Y-7760991D02*
X14428491Y-7479009D01*
X14146509Y-7479009D01*
X14146509Y-7760991D01*
X14428491Y-7760991D01*
X14428491Y-9665991D02*
X14428491Y-9384009D01*
X14146509Y-9384009D01*
X14146509Y-9665991D01*
X14428491Y-9665991D01*
X14428491Y-11570991D02*
X14428491Y-11289009D01*
X14146509Y-11289009D01*
X14146509Y-11570991D01*
X14428491Y-11570991D01*
X14428491Y-13475991D02*
X14428491Y-13194009D01*
X14146509Y-13194009D01*
X14146509Y-13475991D01*
X14428491Y-13475991D01*
D12*
X3087354Y-14612714D02*
X3087354Y-14312714D01*
X3158783Y-14312714D01*
X3201640Y-14327000D01*
X3230212Y-14355571D01*
X3244497Y-14384143D01*
X3258783Y-14441286D01*
X3258783Y-14484143D01*
X3244497Y-14541286D01*
X3230212Y-14569857D01*
X3201640Y-14598429D01*
X3158783Y-14612714D01*
X3087354Y-14612714D01*
X3387354Y-14612714D02*
X3387354Y-14412714D01*
X3387354Y-14469857D02*
X3401640Y-14441286D01*
X3415926Y-14427000D01*
X3444497Y-14412714D01*
X3473069Y-14412714D01*
X3573069Y-14612714D02*
X3573069Y-14412714D01*
X3573069Y-14312714D02*
X3558783Y-14327000D01*
X3573069Y-14341286D01*
X3587354Y-14327000D01*
X3573069Y-14312714D01*
X3573069Y-14341286D01*
X3758783Y-14612714D02*
X3730212Y-14598429D01*
X3715926Y-14569857D01*
X3715926Y-14312714D01*
X3915926Y-14612714D02*
X3887354Y-14598429D01*
X3873069Y-14569857D01*
X3873069Y-14312714D01*
X4258783Y-14612714D02*
X4258783Y-14312714D01*
X4358783Y-14527000D01*
X4458783Y-14312714D01*
X4458783Y-14612714D01*
X4730212Y-14612714D02*
X4730212Y-14455571D01*
X4715926Y-14427000D01*
X4687354Y-14412714D01*
X4630212Y-14412714D01*
X4601640Y-14427000D01*
X4730212Y-14598429D02*
X4701640Y-14612714D01*
X4630212Y-14612714D01*
X4601640Y-14598429D01*
X4587354Y-14569857D01*
X4587354Y-14541286D01*
X4601640Y-14512714D01*
X4630212Y-14498429D01*
X4701640Y-14498429D01*
X4730212Y-14484143D01*
X4873069Y-14412714D02*
X4873069Y-14712714D01*
X4873069Y-14427000D02*
X4901640Y-14412714D01*
X4958783Y-14412714D01*
X4987354Y-14427000D01*
X5001640Y-14441286D01*
X5015926Y-14469857D01*
X5015926Y-14555571D01*
X5001640Y-14584143D01*
X4987354Y-14598429D01*
X4958783Y-14612714D01*
X4901640Y-14612714D01*
X4873069Y-14598429D01*
X5144497Y-14584143D02*
X5158783Y-14598429D01*
X5144497Y-14612714D01*
X5130212Y-14598429D01*
X5144497Y-14584143D01*
X5144497Y-14612714D01*
X5144497Y-14427000D02*
X5158783Y-14441286D01*
X5144497Y-14455571D01*
X5130212Y-14441286D01*
X5144497Y-14427000D01*
X5144497Y-14455571D01*
X2630746Y-15021910D02*
X2800926Y-15192090D01*
X2800926Y-15021910D02*
X2630746Y-15192090D01*
X3244497Y-15242714D02*
X3073069Y-15242714D01*
X3158783Y-15242714D02*
X3158783Y-14942714D01*
X3130212Y-14985571D01*
X3101640Y-15014143D01*
X3073069Y-15028429D01*
X3373069Y-15214143D02*
X3387354Y-15228429D01*
X3373069Y-15242714D01*
X3358783Y-15228429D01*
X3373069Y-15214143D01*
X3373069Y-15242714D01*
X3487354Y-14942714D02*
X3687354Y-14942714D01*
X3558783Y-15242714D01*
X3858783Y-14942714D02*
X3887354Y-14942714D01*
X3915926Y-14957000D01*
X3930212Y-14971286D01*
X3944497Y-14999857D01*
X3958783Y-15057000D01*
X3958783Y-15128429D01*
X3944497Y-15185571D01*
X3930212Y-15214143D01*
X3915926Y-15228429D01*
X3887354Y-15242714D01*
X3858783Y-15242714D01*
X3830212Y-15228429D01*
X3815926Y-15214143D01*
X3801640Y-15185571D01*
X3787354Y-15128429D01*
X3787354Y-15057000D01*
X3801640Y-14999857D01*
X3815926Y-14971286D01*
X3830212Y-14957000D01*
X3858783Y-14942714D01*
X4073069Y-14971286D02*
X4087354Y-14957000D01*
X4115926Y-14942714D01*
X4187354Y-14942714D01*
X4215926Y-14957000D01*
X4230212Y-14971286D01*
X4244497Y-14999857D01*
X4244497Y-15028429D01*
X4230212Y-15071286D01*
X4058783Y-15242714D01*
X4244497Y-15242714D01*
X4373069Y-15242714D02*
X4373069Y-15042714D01*
X4373069Y-15071286D02*
X4387354Y-15057000D01*
X4415926Y-15042714D01*
X4458783Y-15042714D01*
X4487354Y-15057000D01*
X4501640Y-15085571D01*
X4501640Y-15242714D01*
X4501640Y-15085571D02*
X4515926Y-15057000D01*
X4544497Y-15042714D01*
X4587354Y-15042714D01*
X4615926Y-15057000D01*
X4630212Y-15085571D01*
X4630212Y-15242714D01*
X4773069Y-15242714D02*
X4773069Y-15042714D01*
X4773069Y-15071286D02*
X4787354Y-15057000D01*
X4815926Y-15042714D01*
X4858783Y-15042714D01*
X4887354Y-15057000D01*
X4901640Y-15085571D01*
X4901640Y-15242714D01*
X4901640Y-15085571D02*
X4915926Y-15057000D01*
X4944497Y-15042714D01*
X4987354Y-15042714D01*
X5015926Y-15057000D01*
X5030212Y-15085571D01*
X5030212Y-15242714D01*
X5615926Y-14928429D02*
X5358783Y-15314143D01*
X6001640Y-14942714D02*
X6030212Y-14942714D01*
X6058783Y-14957000D01*
X6073069Y-14971286D01*
X6087354Y-14999857D01*
X6101640Y-15057000D01*
X6101640Y-15128429D01*
X6087354Y-15185571D01*
X6073069Y-15214143D01*
X6058783Y-15228429D01*
X6030212Y-15242714D01*
X6001640Y-15242714D01*
X5973069Y-15228429D01*
X5958783Y-15214143D01*
X5944497Y-15185571D01*
X5930212Y-15128429D01*
X5930212Y-15057000D01*
X5944497Y-14999857D01*
X5958783Y-14971286D01*
X5973069Y-14957000D01*
X6001640Y-14942714D01*
X6230212Y-15214143D02*
X6244497Y-15228429D01*
X6230212Y-15242714D01*
X6215926Y-15228429D01*
X6230212Y-15214143D01*
X6230212Y-15242714D01*
X6430212Y-14942714D02*
X6458783Y-14942714D01*
X6487354Y-14957000D01*
X6501640Y-14971286D01*
X6515926Y-14999857D01*
X6530212Y-15057000D01*
X6530212Y-15128429D01*
X6515926Y-15185571D01*
X6501640Y-15214143D01*
X6487354Y-15228429D01*
X6458783Y-15242714D01*
X6430212Y-15242714D01*
X6401640Y-15228429D01*
X6387354Y-15214143D01*
X6373069Y-15185571D01*
X6358783Y-15128429D01*
X6358783Y-15057000D01*
X6373069Y-14999857D01*
X6387354Y-14971286D01*
X6401640Y-14957000D01*
X6430212Y-14942714D01*
X6787354Y-14942714D02*
X6730212Y-14942714D01*
X6701640Y-14957000D01*
X6687354Y-14971286D01*
X6658783Y-15014143D01*
X6644497Y-15071286D01*
X6644497Y-15185571D01*
X6658783Y-15214143D01*
X6673069Y-15228429D01*
X6701640Y-15242714D01*
X6758783Y-15242714D01*
X6787354Y-15228429D01*
X6801640Y-15214143D01*
X6815926Y-15185571D01*
X6815926Y-15114143D01*
X6801640Y-15085571D01*
X6787354Y-15071286D01*
X6758783Y-15057000D01*
X6701640Y-15057000D01*
X6673069Y-15071286D01*
X6658783Y-15085571D01*
X6644497Y-15114143D01*
X6915926Y-14942714D02*
X7115926Y-14942714D01*
X6987354Y-15242714D01*
X7287354Y-14942714D02*
X7315926Y-14942714D01*
X7344497Y-14957000D01*
X7358783Y-14971286D01*
X7373069Y-14999857D01*
X7387354Y-15057000D01*
X7387354Y-15128429D01*
X7373069Y-15185571D01*
X7358783Y-15214143D01*
X7344497Y-15228429D01*
X7315926Y-15242714D01*
X7287354Y-15242714D01*
X7258783Y-15228429D01*
X7244497Y-15214143D01*
X7230212Y-15185571D01*
X7215926Y-15128429D01*
X7215926Y-15057000D01*
X7230212Y-14999857D01*
X7244497Y-14971286D01*
X7258783Y-14957000D01*
X7287354Y-14942714D01*
X7501640Y-14942714D02*
X7501640Y-14999857D01*
X7615926Y-14942714D02*
X7615926Y-14999857D01*
X8058783Y-15357000D02*
X8044497Y-15342714D01*
X8015926Y-15299857D01*
X8001640Y-15271286D01*
X7987354Y-15228429D01*
X7973069Y-15157000D01*
X7973069Y-15099857D01*
X7987354Y-15028429D01*
X8001640Y-14985571D01*
X8015926Y-14957000D01*
X8044497Y-14914143D01*
X8058783Y-14899857D01*
X8144497Y-14942714D02*
X8344497Y-14942714D01*
X8215926Y-15242714D01*
X8515926Y-14942714D02*
X8544497Y-14942714D01*
X8573069Y-14957000D01*
X8587354Y-14971286D01*
X8601640Y-14999857D01*
X8615926Y-15057000D01*
X8615926Y-15128429D01*
X8601640Y-15185571D01*
X8587354Y-15214143D01*
X8573069Y-15228429D01*
X8544497Y-15242714D01*
X8515926Y-15242714D01*
X8487354Y-15228429D01*
X8473069Y-15214143D01*
X8458783Y-15185571D01*
X8444497Y-15128429D01*
X8444497Y-15057000D01*
X8458783Y-14999857D01*
X8473069Y-14971286D01*
X8487354Y-14957000D01*
X8515926Y-14942714D01*
X8973069Y-15242714D02*
X8973069Y-14942714D01*
X9101640Y-15242714D02*
X9101640Y-15085571D01*
X9087354Y-15057000D01*
X9058783Y-15042714D01*
X9015926Y-15042714D01*
X8987354Y-15057000D01*
X8973069Y-15071286D01*
X9287354Y-15242714D02*
X9258783Y-15228429D01*
X9244497Y-15214143D01*
X9230212Y-15185571D01*
X9230212Y-15099857D01*
X9244497Y-15071286D01*
X9258783Y-15057000D01*
X9287354Y-15042714D01*
X9330212Y-15042714D01*
X9358783Y-15057000D01*
X9373069Y-15071286D01*
X9387354Y-15099857D01*
X9387354Y-15185571D01*
X9373069Y-15214143D01*
X9358783Y-15228429D01*
X9330212Y-15242714D01*
X9287354Y-15242714D01*
X9558783Y-15242714D02*
X9530212Y-15228429D01*
X9515926Y-15199857D01*
X9515926Y-14942714D01*
X9787354Y-15228429D02*
X9758783Y-15242714D01*
X9701640Y-15242714D01*
X9673069Y-15228429D01*
X9658783Y-15199857D01*
X9658783Y-15085571D01*
X9673069Y-15057000D01*
X9701640Y-15042714D01*
X9758783Y-15042714D01*
X9787354Y-15057000D01*
X9801640Y-15085571D01*
X9801640Y-15114143D01*
X9658783Y-15142714D01*
X9915926Y-15228429D02*
X9944497Y-15242714D01*
X10001640Y-15242714D01*
X10030212Y-15228429D01*
X10044497Y-15199857D01*
X10044497Y-15185571D01*
X10030212Y-15157000D01*
X10001640Y-15142714D01*
X9958783Y-15142714D01*
X9930212Y-15128429D01*
X9915926Y-15099857D01*
X9915926Y-15085571D01*
X9930212Y-15057000D01*
X9958783Y-15042714D01*
X10001640Y-15042714D01*
X10030212Y-15057000D01*
X10144497Y-15357000D02*
X10158783Y-15342714D01*
X10187354Y-15299857D01*
X10201640Y-15271286D01*
X10215926Y-15228429D01*
X10230212Y-15157000D01*
X10230212Y-15099857D01*
X10215926Y-15028429D01*
X10201640Y-14985571D01*
X10187354Y-14957000D01*
X10158783Y-14914143D01*
X10144497Y-14899857D01*
X10687354Y-15357000D02*
X10673069Y-15342714D01*
X10644497Y-15299857D01*
X10630212Y-15271286D01*
X10615926Y-15228429D01*
X10601640Y-15157000D01*
X10601640Y-15099857D01*
X10615926Y-15028429D01*
X10630212Y-14985571D01*
X10644497Y-14957000D01*
X10673069Y-14914143D01*
X10687354Y-14899857D01*
X10801640Y-15042714D02*
X10801640Y-15242714D01*
X10801640Y-15071286D02*
X10815926Y-15057000D01*
X10844497Y-15042714D01*
X10887354Y-15042714D01*
X10915926Y-15057000D01*
X10930212Y-15085571D01*
X10930212Y-15242714D01*
X11115926Y-15242714D02*
X11087354Y-15228429D01*
X11073069Y-15214143D01*
X11058783Y-15185571D01*
X11058783Y-15099857D01*
X11073069Y-15071286D01*
X11087354Y-15057000D01*
X11115926Y-15042714D01*
X11158783Y-15042714D01*
X11187354Y-15057000D01*
X11201640Y-15071286D01*
X11215926Y-15099857D01*
X11215926Y-15185571D01*
X11201640Y-15214143D01*
X11187354Y-15228429D01*
X11158783Y-15242714D01*
X11115926Y-15242714D01*
X11301640Y-15042714D02*
X11415926Y-15042714D01*
X11344497Y-14942714D02*
X11344497Y-15199857D01*
X11358783Y-15228429D01*
X11387354Y-15242714D01*
X11415926Y-15242714D01*
X11744497Y-15042714D02*
X11744497Y-15342714D01*
X11744497Y-15057000D02*
X11773069Y-15042714D01*
X11830212Y-15042714D01*
X11858783Y-15057000D01*
X11873069Y-15071286D01*
X11887354Y-15099857D01*
X11887354Y-15185571D01*
X11873069Y-15214143D01*
X11858783Y-15228429D01*
X11830212Y-15242714D01*
X11773069Y-15242714D01*
X11744497Y-15228429D01*
X12058783Y-15242714D02*
X12030212Y-15228429D01*
X12015926Y-15199857D01*
X12015926Y-14942714D01*
X12301640Y-15242714D02*
X12301640Y-15085571D01*
X12287354Y-15057000D01*
X12258783Y-15042714D01*
X12201640Y-15042714D01*
X12173069Y-15057000D01*
X12301640Y-15228429D02*
X12273069Y-15242714D01*
X12201640Y-15242714D01*
X12173069Y-15228429D01*
X12158783Y-15199857D01*
X12158783Y-15171286D01*
X12173069Y-15142714D01*
X12201640Y-15128429D01*
X12273069Y-15128429D01*
X12301640Y-15114143D01*
X12401640Y-15042714D02*
X12515926Y-15042714D01*
X12444497Y-14942714D02*
X12444497Y-15199857D01*
X12458783Y-15228429D01*
X12487354Y-15242714D01*
X12515926Y-15242714D01*
X12730212Y-15228429D02*
X12701640Y-15242714D01*
X12644497Y-15242714D01*
X12615926Y-15228429D01*
X12601640Y-15199857D01*
X12601640Y-15085571D01*
X12615926Y-15057000D01*
X12644497Y-15042714D01*
X12701640Y-15042714D01*
X12730212Y-15057000D01*
X12744497Y-15085571D01*
X12744497Y-15114143D01*
X12601640Y-15142714D01*
X13001640Y-15242714D02*
X13001640Y-14942714D01*
X13001640Y-15228429D02*
X12973069Y-15242714D01*
X12915926Y-15242714D01*
X12887354Y-15228429D01*
X12873069Y-15214143D01*
X12858783Y-15185571D01*
X12858783Y-15099857D01*
X12873069Y-15071286D01*
X12887354Y-15057000D01*
X12915926Y-15042714D01*
X12973069Y-15042714D01*
X13001640Y-15057000D01*
X13115926Y-15357000D02*
X13130212Y-15342714D01*
X13158783Y-15299857D01*
X13173069Y-15271286D01*
X13187354Y-15228429D01*
X13201640Y-15157000D01*
X13201640Y-15099857D01*
X13187354Y-15028429D01*
X13173069Y-14985571D01*
X13158783Y-14957000D01*
X13130212Y-14914143D01*
X13115926Y-14899857D01*
X2800926Y-15503000D02*
G75*
G03*
X2800926Y-15503000I-125000J0D01*
G01*
X3073069Y-15367286D02*
X3087354Y-15353000D01*
X3115926Y-15338714D01*
X3187354Y-15338714D01*
X3215926Y-15353000D01*
X3230212Y-15367286D01*
X3244497Y-15395857D01*
X3244497Y-15424429D01*
X3230212Y-15467286D01*
X3058783Y-15638714D01*
X3244497Y-15638714D01*
X3373069Y-15610143D02*
X3387354Y-15624429D01*
X3373069Y-15638714D01*
X3358783Y-15624429D01*
X3373069Y-15610143D01*
X3373069Y-15638714D01*
X3658783Y-15338714D02*
X3515926Y-15338714D01*
X3501640Y-15481571D01*
X3515926Y-15467286D01*
X3544497Y-15453000D01*
X3615926Y-15453000D01*
X3644497Y-15467286D01*
X3658783Y-15481571D01*
X3673069Y-15510143D01*
X3673069Y-15581571D01*
X3658783Y-15610143D01*
X3644497Y-15624429D01*
X3615926Y-15638714D01*
X3544497Y-15638714D01*
X3515926Y-15624429D01*
X3501640Y-15610143D01*
X3858783Y-15338714D02*
X3887354Y-15338714D01*
X3915926Y-15353000D01*
X3930212Y-15367286D01*
X3944497Y-15395857D01*
X3958783Y-15453000D01*
X3958783Y-15524429D01*
X3944497Y-15581571D01*
X3930212Y-15610143D01*
X3915926Y-15624429D01*
X3887354Y-15638714D01*
X3858783Y-15638714D01*
X3830212Y-15624429D01*
X3815926Y-15610143D01*
X3801640Y-15581571D01*
X3787354Y-15524429D01*
X3787354Y-15453000D01*
X3801640Y-15395857D01*
X3815926Y-15367286D01*
X3830212Y-15353000D01*
X3858783Y-15338714D01*
X4144497Y-15338714D02*
X4173069Y-15338714D01*
X4201640Y-15353000D01*
X4215926Y-15367286D01*
X4230212Y-15395857D01*
X4244497Y-15453000D01*
X4244497Y-15524429D01*
X4230212Y-15581571D01*
X4215926Y-15610143D01*
X4201640Y-15624429D01*
X4173069Y-15638714D01*
X4144497Y-15638714D01*
X4115926Y-15624429D01*
X4101640Y-15610143D01*
X4087354Y-15581571D01*
X4073069Y-15524429D01*
X4073069Y-15453000D01*
X4087354Y-15395857D01*
X4101640Y-15367286D01*
X4115926Y-15353000D01*
X4144497Y-15338714D01*
X4373069Y-15638714D02*
X4373069Y-15438714D01*
X4373069Y-15467286D02*
X4387354Y-15453000D01*
X4415926Y-15438714D01*
X4458783Y-15438714D01*
X4487354Y-15453000D01*
X4501640Y-15481571D01*
X4501640Y-15638714D01*
X4501640Y-15481571D02*
X4515926Y-15453000D01*
X4544497Y-15438714D01*
X4587354Y-15438714D01*
X4615926Y-15453000D01*
X4630212Y-15481571D01*
X4630212Y-15638714D01*
X4773069Y-15638714D02*
X4773069Y-15438714D01*
X4773069Y-15467286D02*
X4787354Y-15453000D01*
X4815926Y-15438714D01*
X4858783Y-15438714D01*
X4887354Y-15453000D01*
X4901640Y-15481571D01*
X4901640Y-15638714D01*
X4901640Y-15481571D02*
X4915926Y-15453000D01*
X4944497Y-15438714D01*
X4987354Y-15438714D01*
X5015926Y-15453000D01*
X5030212Y-15481571D01*
X5030212Y-15638714D01*
X5615926Y-15324429D02*
X5358783Y-15710143D01*
X6001640Y-15338714D02*
X6030212Y-15338714D01*
X6058783Y-15353000D01*
X6073069Y-15367286D01*
X6087354Y-15395857D01*
X6101640Y-15453000D01*
X6101640Y-15524429D01*
X6087354Y-15581571D01*
X6073069Y-15610143D01*
X6058783Y-15624429D01*
X6030212Y-15638714D01*
X6001640Y-15638714D01*
X5973069Y-15624429D01*
X5958783Y-15610143D01*
X5944497Y-15581571D01*
X5930212Y-15524429D01*
X5930212Y-15453000D01*
X5944497Y-15395857D01*
X5958783Y-15367286D01*
X5973069Y-15353000D01*
X6001640Y-15338714D01*
X6230212Y-15610143D02*
X6244497Y-15624429D01*
X6230212Y-15638714D01*
X6215926Y-15624429D01*
X6230212Y-15610143D01*
X6230212Y-15638714D01*
X6430212Y-15338714D02*
X6458783Y-15338714D01*
X6487354Y-15353000D01*
X6501640Y-15367286D01*
X6515926Y-15395857D01*
X6530212Y-15453000D01*
X6530212Y-15524429D01*
X6515926Y-15581571D01*
X6501640Y-15610143D01*
X6487354Y-15624429D01*
X6458783Y-15638714D01*
X6430212Y-15638714D01*
X6401640Y-15624429D01*
X6387354Y-15610143D01*
X6373069Y-15581571D01*
X6358783Y-15524429D01*
X6358783Y-15453000D01*
X6373069Y-15395857D01*
X6387354Y-15367286D01*
X6401640Y-15353000D01*
X6430212Y-15338714D01*
X6673069Y-15638714D02*
X6730212Y-15638714D01*
X6758783Y-15624429D01*
X6773069Y-15610143D01*
X6801640Y-15567286D01*
X6815926Y-15510143D01*
X6815926Y-15395857D01*
X6801640Y-15367286D01*
X6787354Y-15353000D01*
X6758783Y-15338714D01*
X6701640Y-15338714D01*
X6673069Y-15353000D01*
X6658783Y-15367286D01*
X6644497Y-15395857D01*
X6644497Y-15467286D01*
X6658783Y-15495857D01*
X6673069Y-15510143D01*
X6701640Y-15524429D01*
X6758783Y-15524429D01*
X6787354Y-15510143D01*
X6801640Y-15495857D01*
X6815926Y-15467286D01*
X6987354Y-15467286D02*
X6958783Y-15453000D01*
X6944497Y-15438714D01*
X6930212Y-15410143D01*
X6930212Y-15395857D01*
X6944497Y-15367286D01*
X6958783Y-15353000D01*
X6987354Y-15338714D01*
X7044497Y-15338714D01*
X7073069Y-15353000D01*
X7087354Y-15367286D01*
X7101640Y-15395857D01*
X7101640Y-15410143D01*
X7087354Y-15438714D01*
X7073069Y-15453000D01*
X7044497Y-15467286D01*
X6987354Y-15467286D01*
X6958783Y-15481571D01*
X6944497Y-15495857D01*
X6930212Y-15524429D01*
X6930212Y-15581571D01*
X6944497Y-15610143D01*
X6958783Y-15624429D01*
X6987354Y-15638714D01*
X7044497Y-15638714D01*
X7073069Y-15624429D01*
X7087354Y-15610143D01*
X7101640Y-15581571D01*
X7101640Y-15524429D01*
X7087354Y-15495857D01*
X7073069Y-15481571D01*
X7044497Y-15467286D01*
X7358783Y-15438714D02*
X7358783Y-15638714D01*
X7287354Y-15324429D02*
X7215926Y-15538714D01*
X7401640Y-15538714D01*
X7501640Y-15338714D02*
X7501640Y-15395857D01*
X7615926Y-15338714D02*
X7615926Y-15395857D01*
X8058783Y-15753000D02*
X8044497Y-15738714D01*
X8015926Y-15695857D01*
X8001640Y-15667286D01*
X7987354Y-15624429D01*
X7973069Y-15553000D01*
X7973069Y-15495857D01*
X7987354Y-15424429D01*
X8001640Y-15381571D01*
X8015926Y-15353000D01*
X8044497Y-15310143D01*
X8058783Y-15295857D01*
X8158783Y-15367286D02*
X8173069Y-15353000D01*
X8201640Y-15338714D01*
X8273069Y-15338714D01*
X8301640Y-15353000D01*
X8315926Y-15367286D01*
X8330212Y-15395857D01*
X8330212Y-15424429D01*
X8315926Y-15467286D01*
X8144497Y-15638714D01*
X8330212Y-15638714D01*
X8687354Y-15638714D02*
X8687354Y-15338714D01*
X8815926Y-15638714D02*
X8815926Y-15481571D01*
X8801640Y-15453000D01*
X8773069Y-15438714D01*
X8730212Y-15438714D01*
X8701640Y-15453000D01*
X8687354Y-15467286D01*
X9001640Y-15638714D02*
X8973069Y-15624429D01*
X8958783Y-15610143D01*
X8944497Y-15581571D01*
X8944497Y-15495857D01*
X8958783Y-15467286D01*
X8973069Y-15453000D01*
X9001640Y-15438714D01*
X9044497Y-15438714D01*
X9073069Y-15453000D01*
X9087354Y-15467286D01*
X9101640Y-15495857D01*
X9101640Y-15581571D01*
X9087354Y-15610143D01*
X9073069Y-15624429D01*
X9044497Y-15638714D01*
X9001640Y-15638714D01*
X9273069Y-15638714D02*
X9244497Y-15624429D01*
X9230212Y-15595857D01*
X9230212Y-15338714D01*
X9501640Y-15624429D02*
X9473069Y-15638714D01*
X9415926Y-15638714D01*
X9387354Y-15624429D01*
X9373069Y-15595857D01*
X9373069Y-15481571D01*
X9387354Y-15453000D01*
X9415926Y-15438714D01*
X9473069Y-15438714D01*
X9501640Y-15453000D01*
X9515926Y-15481571D01*
X9515926Y-15510143D01*
X9373069Y-15538714D01*
X9630212Y-15624429D02*
X9658783Y-15638714D01*
X9715926Y-15638714D01*
X9744497Y-15624429D01*
X9758783Y-15595857D01*
X9758783Y-15581571D01*
X9744497Y-15553000D01*
X9715926Y-15538714D01*
X9673069Y-15538714D01*
X9644497Y-15524429D01*
X9630212Y-15495857D01*
X9630212Y-15481571D01*
X9644497Y-15453000D01*
X9673069Y-15438714D01*
X9715926Y-15438714D01*
X9744497Y-15453000D01*
X9858783Y-15753000D02*
X9873069Y-15738714D01*
X9901640Y-15695857D01*
X9915926Y-15667286D01*
X9930212Y-15624429D01*
X9944497Y-15553000D01*
X9944497Y-15495857D01*
X9930212Y-15424429D01*
X9915926Y-15381571D01*
X9901640Y-15353000D01*
X9873069Y-15310143D01*
X9858783Y-15295857D01*
X10401640Y-15753000D02*
X10387354Y-15738714D01*
X10358783Y-15695857D01*
X10344497Y-15667286D01*
X10330212Y-15624429D01*
X10315926Y-15553000D01*
X10315926Y-15495857D01*
X10330212Y-15424429D01*
X10344497Y-15381571D01*
X10358783Y-15353000D01*
X10387354Y-15310143D01*
X10401640Y-15295857D01*
X10515926Y-15438714D02*
X10515926Y-15638714D01*
X10515926Y-15467286D02*
X10530212Y-15453000D01*
X10558783Y-15438714D01*
X10601640Y-15438714D01*
X10630212Y-15453000D01*
X10644497Y-15481571D01*
X10644497Y-15638714D01*
X10830212Y-15638714D02*
X10801640Y-15624429D01*
X10787354Y-15610143D01*
X10773069Y-15581571D01*
X10773069Y-15495857D01*
X10787354Y-15467286D01*
X10801640Y-15453000D01*
X10830212Y-15438714D01*
X10873069Y-15438714D01*
X10901640Y-15453000D01*
X10915926Y-15467286D01*
X10930212Y-15495857D01*
X10930212Y-15581571D01*
X10915926Y-15610143D01*
X10901640Y-15624429D01*
X10873069Y-15638714D01*
X10830212Y-15638714D01*
X11015926Y-15438714D02*
X11130212Y-15438714D01*
X11058783Y-15338714D02*
X11058783Y-15595857D01*
X11073069Y-15624429D01*
X11101640Y-15638714D01*
X11130212Y-15638714D01*
X11458783Y-15438714D02*
X11458783Y-15738714D01*
X11458783Y-15453000D02*
X11487354Y-15438714D01*
X11544497Y-15438714D01*
X11573069Y-15453000D01*
X11587354Y-15467286D01*
X11601640Y-15495857D01*
X11601640Y-15581571D01*
X11587354Y-15610143D01*
X11573069Y-15624429D01*
X11544497Y-15638714D01*
X11487354Y-15638714D01*
X11458783Y-15624429D01*
X11773069Y-15638714D02*
X11744497Y-15624429D01*
X11730212Y-15595857D01*
X11730212Y-15338714D01*
X12015926Y-15638714D02*
X12015926Y-15481571D01*
X12001640Y-15453000D01*
X11973069Y-15438714D01*
X11915926Y-15438714D01*
X11887354Y-15453000D01*
X12015926Y-15624429D02*
X11987354Y-15638714D01*
X11915926Y-15638714D01*
X11887354Y-15624429D01*
X11873069Y-15595857D01*
X11873069Y-15567286D01*
X11887354Y-15538714D01*
X11915926Y-15524429D01*
X11987354Y-15524429D01*
X12015926Y-15510143D01*
X12115926Y-15438714D02*
X12230212Y-15438714D01*
X12158783Y-15338714D02*
X12158783Y-15595857D01*
X12173069Y-15624429D01*
X12201640Y-15638714D01*
X12230212Y-15638714D01*
X12444497Y-15624429D02*
X12415926Y-15638714D01*
X12358783Y-15638714D01*
X12330212Y-15624429D01*
X12315926Y-15595857D01*
X12315926Y-15481571D01*
X12330212Y-15453000D01*
X12358783Y-15438714D01*
X12415926Y-15438714D01*
X12444497Y-15453000D01*
X12458783Y-15481571D01*
X12458783Y-15510143D01*
X12315926Y-15538714D01*
X12715926Y-15638714D02*
X12715926Y-15338714D01*
X12715926Y-15624429D02*
X12687354Y-15638714D01*
X12630212Y-15638714D01*
X12601640Y-15624429D01*
X12587354Y-15610143D01*
X12573069Y-15581571D01*
X12573069Y-15495857D01*
X12587354Y-15467286D01*
X12601640Y-15453000D01*
X12630212Y-15438714D01*
X12687354Y-15438714D01*
X12715926Y-15453000D01*
X12830212Y-15753000D02*
X12844497Y-15738714D01*
X12873069Y-15695857D01*
X12887354Y-15667286D01*
X12901640Y-15624429D01*
X12915926Y-15553000D01*
X12915926Y-15495857D01*
X12901640Y-15424429D01*
X12887354Y-15381571D01*
X12873069Y-15353000D01*
X12844497Y-15310143D01*
X12830212Y-15295857D01*
X2650926Y-15749000D02*
X2650926Y-16049000D01*
X2500926Y-15899000D02*
X2800926Y-15899000D01*
X3058783Y-15734714D02*
X3244497Y-15734714D01*
X3144497Y-15849000D01*
X3187354Y-15849000D01*
X3215926Y-15863286D01*
X3230212Y-15877571D01*
X3244497Y-15906143D01*
X3244497Y-15977571D01*
X3230212Y-16006143D01*
X3215926Y-16020429D01*
X3187354Y-16034714D01*
X3101640Y-16034714D01*
X3073069Y-16020429D01*
X3058783Y-16006143D01*
X3373069Y-16006143D02*
X3387354Y-16020429D01*
X3373069Y-16034714D01*
X3358783Y-16020429D01*
X3373069Y-16006143D01*
X3373069Y-16034714D01*
X3573069Y-15734714D02*
X3601640Y-15734714D01*
X3630212Y-15749000D01*
X3644497Y-15763286D01*
X3658783Y-15791857D01*
X3673069Y-15849000D01*
X3673069Y-15920429D01*
X3658783Y-15977571D01*
X3644497Y-16006143D01*
X3630212Y-16020429D01*
X3601640Y-16034714D01*
X3573069Y-16034714D01*
X3544497Y-16020429D01*
X3530212Y-16006143D01*
X3515926Y-15977571D01*
X3501640Y-15920429D01*
X3501640Y-15849000D01*
X3515926Y-15791857D01*
X3530212Y-15763286D01*
X3544497Y-15749000D01*
X3573069Y-15734714D01*
X3858783Y-15734714D02*
X3887354Y-15734714D01*
X3915926Y-15749000D01*
X3930212Y-15763286D01*
X3944497Y-15791857D01*
X3958783Y-15849000D01*
X3958783Y-15920429D01*
X3944497Y-15977571D01*
X3930212Y-16006143D01*
X3915926Y-16020429D01*
X3887354Y-16034714D01*
X3858783Y-16034714D01*
X3830212Y-16020429D01*
X3815926Y-16006143D01*
X3801640Y-15977571D01*
X3787354Y-15920429D01*
X3787354Y-15849000D01*
X3801640Y-15791857D01*
X3815926Y-15763286D01*
X3830212Y-15749000D01*
X3858783Y-15734714D01*
X4144497Y-15734714D02*
X4173069Y-15734714D01*
X4201640Y-15749000D01*
X4215926Y-15763286D01*
X4230212Y-15791857D01*
X4244497Y-15849000D01*
X4244497Y-15920429D01*
X4230212Y-15977571D01*
X4215926Y-16006143D01*
X4201640Y-16020429D01*
X4173069Y-16034714D01*
X4144497Y-16034714D01*
X4115926Y-16020429D01*
X4101640Y-16006143D01*
X4087354Y-15977571D01*
X4073069Y-15920429D01*
X4073069Y-15849000D01*
X4087354Y-15791857D01*
X4101640Y-15763286D01*
X4115926Y-15749000D01*
X4144497Y-15734714D01*
X4373069Y-16034714D02*
X4373069Y-15834714D01*
X4373069Y-15863286D02*
X4387354Y-15849000D01*
X4415926Y-15834714D01*
X4458783Y-15834714D01*
X4487354Y-15849000D01*
X4501640Y-15877571D01*
X4501640Y-16034714D01*
X4501640Y-15877571D02*
X4515926Y-15849000D01*
X4544497Y-15834714D01*
X4587354Y-15834714D01*
X4615926Y-15849000D01*
X4630212Y-15877571D01*
X4630212Y-16034714D01*
X4773069Y-16034714D02*
X4773069Y-15834714D01*
X4773069Y-15863286D02*
X4787354Y-15849000D01*
X4815926Y-15834714D01*
X4858783Y-15834714D01*
X4887354Y-15849000D01*
X4901640Y-15877571D01*
X4901640Y-16034714D01*
X4901640Y-15877571D02*
X4915926Y-15849000D01*
X4944497Y-15834714D01*
X4987354Y-15834714D01*
X5015926Y-15849000D01*
X5030212Y-15877571D01*
X5030212Y-16034714D01*
X5615926Y-15720429D02*
X5358783Y-16106143D01*
X6001640Y-15734714D02*
X6030212Y-15734714D01*
X6058783Y-15749000D01*
X6073069Y-15763286D01*
X6087354Y-15791857D01*
X6101640Y-15849000D01*
X6101640Y-15920429D01*
X6087354Y-15977571D01*
X6073069Y-16006143D01*
X6058783Y-16020429D01*
X6030212Y-16034714D01*
X6001640Y-16034714D01*
X5973069Y-16020429D01*
X5958783Y-16006143D01*
X5944497Y-15977571D01*
X5930212Y-15920429D01*
X5930212Y-15849000D01*
X5944497Y-15791857D01*
X5958783Y-15763286D01*
X5973069Y-15749000D01*
X6001640Y-15734714D01*
X6230212Y-16006143D02*
X6244497Y-16020429D01*
X6230212Y-16034714D01*
X6215926Y-16020429D01*
X6230212Y-16006143D01*
X6230212Y-16034714D01*
X6530212Y-16034714D02*
X6358783Y-16034714D01*
X6444497Y-16034714D02*
X6444497Y-15734714D01*
X6415926Y-15777571D01*
X6387354Y-15806143D01*
X6358783Y-15820429D01*
X6815926Y-16034714D02*
X6644497Y-16034714D01*
X6730212Y-16034714D02*
X6730212Y-15734714D01*
X6701640Y-15777571D01*
X6673069Y-15806143D01*
X6644497Y-15820429D01*
X6987354Y-15863286D02*
X6958783Y-15849000D01*
X6944497Y-15834714D01*
X6930212Y-15806143D01*
X6930212Y-15791857D01*
X6944497Y-15763286D01*
X6958783Y-15749000D01*
X6987354Y-15734714D01*
X7044497Y-15734714D01*
X7073069Y-15749000D01*
X7087354Y-15763286D01*
X7101640Y-15791857D01*
X7101640Y-15806143D01*
X7087354Y-15834714D01*
X7073069Y-15849000D01*
X7044497Y-15863286D01*
X6987354Y-15863286D01*
X6958783Y-15877571D01*
X6944497Y-15891857D01*
X6930212Y-15920429D01*
X6930212Y-15977571D01*
X6944497Y-16006143D01*
X6958783Y-16020429D01*
X6987354Y-16034714D01*
X7044497Y-16034714D01*
X7073069Y-16020429D01*
X7087354Y-16006143D01*
X7101640Y-15977571D01*
X7101640Y-15920429D01*
X7087354Y-15891857D01*
X7073069Y-15877571D01*
X7044497Y-15863286D01*
X7387354Y-16034714D02*
X7215926Y-16034714D01*
X7301640Y-16034714D02*
X7301640Y-15734714D01*
X7273069Y-15777571D01*
X7244497Y-15806143D01*
X7215926Y-15820429D01*
X7501640Y-15734714D02*
X7501640Y-15791857D01*
X7615926Y-15734714D02*
X7615926Y-15791857D01*
X8058783Y-16149000D02*
X8044497Y-16134714D01*
X8015926Y-16091857D01*
X8001640Y-16063286D01*
X7987354Y-16020429D01*
X7973069Y-15949000D01*
X7973069Y-15891857D01*
X7987354Y-15820429D01*
X8001640Y-15777571D01*
X8015926Y-15749000D01*
X8044497Y-15706143D01*
X8058783Y-15691857D01*
X8144497Y-15734714D02*
X8344497Y-15734714D01*
X8215926Y-16034714D01*
X8515926Y-15734714D02*
X8544497Y-15734714D01*
X8573069Y-15749000D01*
X8587354Y-15763286D01*
X8601640Y-15791857D01*
X8615926Y-15849000D01*
X8615926Y-15920429D01*
X8601640Y-15977571D01*
X8587354Y-16006143D01*
X8573069Y-16020429D01*
X8544497Y-16034714D01*
X8515926Y-16034714D01*
X8487354Y-16020429D01*
X8473069Y-16006143D01*
X8458783Y-15977571D01*
X8444497Y-15920429D01*
X8444497Y-15849000D01*
X8458783Y-15791857D01*
X8473069Y-15763286D01*
X8487354Y-15749000D01*
X8515926Y-15734714D01*
X8973069Y-16034714D02*
X8973069Y-15734714D01*
X9101640Y-16034714D02*
X9101640Y-15877571D01*
X9087354Y-15849000D01*
X9058783Y-15834714D01*
X9015926Y-15834714D01*
X8987354Y-15849000D01*
X8973069Y-15863286D01*
X9287354Y-16034714D02*
X9258783Y-16020429D01*
X9244497Y-16006143D01*
X9230212Y-15977571D01*
X9230212Y-15891857D01*
X9244497Y-15863286D01*
X9258783Y-15849000D01*
X9287354Y-15834714D01*
X9330212Y-15834714D01*
X9358783Y-15849000D01*
X9373069Y-15863286D01*
X9387354Y-15891857D01*
X9387354Y-15977571D01*
X9373069Y-16006143D01*
X9358783Y-16020429D01*
X9330212Y-16034714D01*
X9287354Y-16034714D01*
X9558783Y-16034714D02*
X9530212Y-16020429D01*
X9515926Y-15991857D01*
X9515926Y-15734714D01*
X9787354Y-16020429D02*
X9758783Y-16034714D01*
X9701640Y-16034714D01*
X9673069Y-16020429D01*
X9658783Y-15991857D01*
X9658783Y-15877571D01*
X9673069Y-15849000D01*
X9701640Y-15834714D01*
X9758783Y-15834714D01*
X9787354Y-15849000D01*
X9801640Y-15877571D01*
X9801640Y-15906143D01*
X9658783Y-15934714D01*
X9915926Y-16020429D02*
X9944497Y-16034714D01*
X10001640Y-16034714D01*
X10030212Y-16020429D01*
X10044497Y-15991857D01*
X10044497Y-15977571D01*
X10030212Y-15949000D01*
X10001640Y-15934714D01*
X9958783Y-15934714D01*
X9930212Y-15920429D01*
X9915926Y-15891857D01*
X9915926Y-15877571D01*
X9930212Y-15849000D01*
X9958783Y-15834714D01*
X10001640Y-15834714D01*
X10030212Y-15849000D01*
X10144497Y-16149000D02*
X10158783Y-16134714D01*
X10187354Y-16091857D01*
X10201640Y-16063286D01*
X10215926Y-16020429D01*
X10230212Y-15949000D01*
X10230212Y-15891857D01*
X10215926Y-15820429D01*
X10201640Y-15777571D01*
X10187354Y-15749000D01*
X10158783Y-15706143D01*
X10144497Y-15691857D01*
X10687354Y-16149000D02*
X10673069Y-16134714D01*
X10644497Y-16091857D01*
X10630212Y-16063286D01*
X10615926Y-16020429D01*
X10601640Y-15949000D01*
X10601640Y-15891857D01*
X10615926Y-15820429D01*
X10630212Y-15777571D01*
X10644497Y-15749000D01*
X10673069Y-15706143D01*
X10687354Y-15691857D01*
X10801640Y-15834714D02*
X10801640Y-16034714D01*
X10801640Y-15863286D02*
X10815926Y-15849000D01*
X10844497Y-15834714D01*
X10887354Y-15834714D01*
X10915926Y-15849000D01*
X10930212Y-15877571D01*
X10930212Y-16034714D01*
X11115926Y-16034714D02*
X11087354Y-16020429D01*
X11073069Y-16006143D01*
X11058783Y-15977571D01*
X11058783Y-15891857D01*
X11073069Y-15863286D01*
X11087354Y-15849000D01*
X11115926Y-15834714D01*
X11158783Y-15834714D01*
X11187354Y-15849000D01*
X11201640Y-15863286D01*
X11215926Y-15891857D01*
X11215926Y-15977571D01*
X11201640Y-16006143D01*
X11187354Y-16020429D01*
X11158783Y-16034714D01*
X11115926Y-16034714D01*
X11301640Y-15834714D02*
X11415926Y-15834714D01*
X11344497Y-15734714D02*
X11344497Y-15991857D01*
X11358783Y-16020429D01*
X11387354Y-16034714D01*
X11415926Y-16034714D01*
X11744497Y-15834714D02*
X11744497Y-16134714D01*
X11744497Y-15849000D02*
X11773069Y-15834714D01*
X11830212Y-15834714D01*
X11858783Y-15849000D01*
X11873069Y-15863286D01*
X11887354Y-15891857D01*
X11887354Y-15977571D01*
X11873069Y-16006143D01*
X11858783Y-16020429D01*
X11830212Y-16034714D01*
X11773069Y-16034714D01*
X11744497Y-16020429D01*
X12058783Y-16034714D02*
X12030212Y-16020429D01*
X12015926Y-15991857D01*
X12015926Y-15734714D01*
X12301640Y-16034714D02*
X12301640Y-15877571D01*
X12287354Y-15849000D01*
X12258783Y-15834714D01*
X12201640Y-15834714D01*
X12173069Y-15849000D01*
X12301640Y-16020429D02*
X12273069Y-16034714D01*
X12201640Y-16034714D01*
X12173069Y-16020429D01*
X12158783Y-15991857D01*
X12158783Y-15963286D01*
X12173069Y-15934714D01*
X12201640Y-15920429D01*
X12273069Y-15920429D01*
X12301640Y-15906143D01*
X12401640Y-15834714D02*
X12515926Y-15834714D01*
X12444497Y-15734714D02*
X12444497Y-15991857D01*
X12458783Y-16020429D01*
X12487354Y-16034714D01*
X12515926Y-16034714D01*
X12730212Y-16020429D02*
X12701640Y-16034714D01*
X12644497Y-16034714D01*
X12615926Y-16020429D01*
X12601640Y-15991857D01*
X12601640Y-15877571D01*
X12615926Y-15849000D01*
X12644497Y-15834714D01*
X12701640Y-15834714D01*
X12730212Y-15849000D01*
X12744497Y-15877571D01*
X12744497Y-15906143D01*
X12601640Y-15934714D01*
X13001640Y-16034714D02*
X13001640Y-15734714D01*
X13001640Y-16020429D02*
X12973069Y-16034714D01*
X12915926Y-16034714D01*
X12887354Y-16020429D01*
X12873069Y-16006143D01*
X12858783Y-15977571D01*
X12858783Y-15891857D01*
X12873069Y-15863286D01*
X12887354Y-15849000D01*
X12915926Y-15834714D01*
X12973069Y-15834714D01*
X13001640Y-15849000D01*
X13115926Y-16149000D02*
X13130212Y-16134714D01*
X13158783Y-16091857D01*
X13173069Y-16063286D01*
X13187354Y-16020429D01*
X13201640Y-15949000D01*
X13201640Y-15891857D01*
X13187354Y-15820429D01*
X13173069Y-15777571D01*
X13158783Y-15749000D01*
X13130212Y-15706143D01*
X13115926Y-15691857D01*
X2742527Y-16469991D02*
X2742527Y-16188009D01*
X2460545Y-16188009D01*
X2460545Y-16469991D01*
X2742527Y-16469991D01*
X3058783Y-16164714D02*
X3244497Y-16164714D01*
X3144497Y-16279000D01*
X3187354Y-16279000D01*
X3215926Y-16293286D01*
X3230212Y-16307571D01*
X3244497Y-16336143D01*
X3244497Y-16407571D01*
X3230212Y-16436143D01*
X3215926Y-16450429D01*
X3187354Y-16464714D01*
X3101640Y-16464714D01*
X3073069Y-16450429D01*
X3058783Y-16436143D01*
X3373069Y-16436143D02*
X3387354Y-16450429D01*
X3373069Y-16464714D01*
X3358783Y-16450429D01*
X3373069Y-16436143D01*
X3373069Y-16464714D01*
X3530212Y-16464714D02*
X3587354Y-16464714D01*
X3615926Y-16450429D01*
X3630212Y-16436143D01*
X3658783Y-16393286D01*
X3673069Y-16336143D01*
X3673069Y-16221857D01*
X3658783Y-16193286D01*
X3644497Y-16179000D01*
X3615926Y-16164714D01*
X3558783Y-16164714D01*
X3530212Y-16179000D01*
X3515926Y-16193286D01*
X3501640Y-16221857D01*
X3501640Y-16293286D01*
X3515926Y-16321857D01*
X3530212Y-16336143D01*
X3558783Y-16350429D01*
X3615926Y-16350429D01*
X3644497Y-16336143D01*
X3658783Y-16321857D01*
X3673069Y-16293286D01*
X3844497Y-16293286D02*
X3815926Y-16279000D01*
X3801640Y-16264714D01*
X3787354Y-16236143D01*
X3787354Y-16221857D01*
X3801640Y-16193286D01*
X3815926Y-16179000D01*
X3844497Y-16164714D01*
X3901640Y-16164714D01*
X3930212Y-16179000D01*
X3944497Y-16193286D01*
X3958783Y-16221857D01*
X3958783Y-16236143D01*
X3944497Y-16264714D01*
X3930212Y-16279000D01*
X3901640Y-16293286D01*
X3844497Y-16293286D01*
X3815926Y-16307571D01*
X3801640Y-16321857D01*
X3787354Y-16350429D01*
X3787354Y-16407571D01*
X3801640Y-16436143D01*
X3815926Y-16450429D01*
X3844497Y-16464714D01*
X3901640Y-16464714D01*
X3930212Y-16450429D01*
X3944497Y-16436143D01*
X3958783Y-16407571D01*
X3958783Y-16350429D01*
X3944497Y-16321857D01*
X3930212Y-16307571D01*
X3901640Y-16293286D01*
X4130212Y-16293286D02*
X4101640Y-16279000D01*
X4087354Y-16264714D01*
X4073069Y-16236143D01*
X4073069Y-16221857D01*
X4087354Y-16193286D01*
X4101640Y-16179000D01*
X4130212Y-16164714D01*
X4187354Y-16164714D01*
X4215926Y-16179000D01*
X4230212Y-16193286D01*
X4244497Y-16221857D01*
X4244497Y-16236143D01*
X4230212Y-16264714D01*
X4215926Y-16279000D01*
X4187354Y-16293286D01*
X4130212Y-16293286D01*
X4101640Y-16307571D01*
X4087354Y-16321857D01*
X4073069Y-16350429D01*
X4073069Y-16407571D01*
X4087354Y-16436143D01*
X4101640Y-16450429D01*
X4130212Y-16464714D01*
X4187354Y-16464714D01*
X4215926Y-16450429D01*
X4230212Y-16436143D01*
X4244497Y-16407571D01*
X4244497Y-16350429D01*
X4230212Y-16321857D01*
X4215926Y-16307571D01*
X4187354Y-16293286D01*
X4373069Y-16464714D02*
X4373069Y-16264714D01*
X4373069Y-16293286D02*
X4387354Y-16279000D01*
X4415926Y-16264714D01*
X4458783Y-16264714D01*
X4487354Y-16279000D01*
X4501640Y-16307571D01*
X4501640Y-16464714D01*
X4501640Y-16307571D02*
X4515926Y-16279000D01*
X4544497Y-16264714D01*
X4587354Y-16264714D01*
X4615926Y-16279000D01*
X4630212Y-16307571D01*
X4630212Y-16464714D01*
X4773069Y-16464714D02*
X4773069Y-16264714D01*
X4773069Y-16293286D02*
X4787354Y-16279000D01*
X4815926Y-16264714D01*
X4858783Y-16264714D01*
X4887354Y-16279000D01*
X4901640Y-16307571D01*
X4901640Y-16464714D01*
X4901640Y-16307571D02*
X4915926Y-16279000D01*
X4944497Y-16264714D01*
X4987354Y-16264714D01*
X5015926Y-16279000D01*
X5030212Y-16307571D01*
X5030212Y-16464714D01*
X5615926Y-16150429D02*
X5358783Y-16536143D01*
X6001640Y-16164714D02*
X6030212Y-16164714D01*
X6058783Y-16179000D01*
X6073069Y-16193286D01*
X6087354Y-16221857D01*
X6101640Y-16279000D01*
X6101640Y-16350429D01*
X6087354Y-16407571D01*
X6073069Y-16436143D01*
X6058783Y-16450429D01*
X6030212Y-16464714D01*
X6001640Y-16464714D01*
X5973069Y-16450429D01*
X5958783Y-16436143D01*
X5944497Y-16407571D01*
X5930212Y-16350429D01*
X5930212Y-16279000D01*
X5944497Y-16221857D01*
X5958783Y-16193286D01*
X5973069Y-16179000D01*
X6001640Y-16164714D01*
X6230212Y-16436143D02*
X6244497Y-16450429D01*
X6230212Y-16464714D01*
X6215926Y-16450429D01*
X6230212Y-16436143D01*
X6230212Y-16464714D01*
X6530212Y-16464714D02*
X6358783Y-16464714D01*
X6444497Y-16464714D02*
X6444497Y-16164714D01*
X6415926Y-16207571D01*
X6387354Y-16236143D01*
X6358783Y-16250429D01*
X6801640Y-16164714D02*
X6658783Y-16164714D01*
X6644497Y-16307571D01*
X6658783Y-16293286D01*
X6687354Y-16279000D01*
X6758783Y-16279000D01*
X6787354Y-16293286D01*
X6801640Y-16307571D01*
X6815926Y-16336143D01*
X6815926Y-16407571D01*
X6801640Y-16436143D01*
X6787354Y-16450429D01*
X6758783Y-16464714D01*
X6687354Y-16464714D01*
X6658783Y-16450429D01*
X6644497Y-16436143D01*
X6915926Y-16164714D02*
X7115926Y-16164714D01*
X6987354Y-16464714D01*
X7287354Y-16164714D02*
X7315926Y-16164714D01*
X7344497Y-16179000D01*
X7358783Y-16193286D01*
X7373069Y-16221857D01*
X7387354Y-16279000D01*
X7387354Y-16350429D01*
X7373069Y-16407571D01*
X7358783Y-16436143D01*
X7344497Y-16450429D01*
X7315926Y-16464714D01*
X7287354Y-16464714D01*
X7258783Y-16450429D01*
X7244497Y-16436143D01*
X7230212Y-16407571D01*
X7215926Y-16350429D01*
X7215926Y-16279000D01*
X7230212Y-16221857D01*
X7244497Y-16193286D01*
X7258783Y-16179000D01*
X7287354Y-16164714D01*
X7501640Y-16164714D02*
X7501640Y-16221857D01*
X7615926Y-16164714D02*
X7615926Y-16221857D01*
X8058783Y-16579000D02*
X8044497Y-16564714D01*
X8015926Y-16521857D01*
X8001640Y-16493286D01*
X7987354Y-16450429D01*
X7973069Y-16379000D01*
X7973069Y-16321857D01*
X7987354Y-16250429D01*
X8001640Y-16207571D01*
X8015926Y-16179000D01*
X8044497Y-16136143D01*
X8058783Y-16121857D01*
X8144497Y-16164714D02*
X8330212Y-16164714D01*
X8230212Y-16279000D01*
X8273069Y-16279000D01*
X8301640Y-16293286D01*
X8315926Y-16307571D01*
X8330212Y-16336143D01*
X8330212Y-16407571D01*
X8315926Y-16436143D01*
X8301640Y-16450429D01*
X8273069Y-16464714D01*
X8187354Y-16464714D01*
X8158783Y-16450429D01*
X8144497Y-16436143D01*
X8601640Y-16164714D02*
X8458783Y-16164714D01*
X8444497Y-16307571D01*
X8458783Y-16293286D01*
X8487354Y-16279000D01*
X8558783Y-16279000D01*
X8587354Y-16293286D01*
X8601640Y-16307571D01*
X8615926Y-16336143D01*
X8615926Y-16407571D01*
X8601640Y-16436143D01*
X8587354Y-16450429D01*
X8558783Y-16464714D01*
X8487354Y-16464714D01*
X8458783Y-16450429D01*
X8444497Y-16436143D01*
X8973069Y-16464714D02*
X8973069Y-16164714D01*
X9101640Y-16464714D02*
X9101640Y-16307571D01*
X9087354Y-16279000D01*
X9058783Y-16264714D01*
X9015926Y-16264714D01*
X8987354Y-16279000D01*
X8973069Y-16293286D01*
X9287354Y-16464714D02*
X9258783Y-16450429D01*
X9244497Y-16436143D01*
X9230212Y-16407571D01*
X9230212Y-16321857D01*
X9244497Y-16293286D01*
X9258783Y-16279000D01*
X9287354Y-16264714D01*
X9330212Y-16264714D01*
X9358783Y-16279000D01*
X9373069Y-16293286D01*
X9387354Y-16321857D01*
X9387354Y-16407571D01*
X9373069Y-16436143D01*
X9358783Y-16450429D01*
X9330212Y-16464714D01*
X9287354Y-16464714D01*
X9558783Y-16464714D02*
X9530212Y-16450429D01*
X9515926Y-16421857D01*
X9515926Y-16164714D01*
X9787354Y-16450429D02*
X9758783Y-16464714D01*
X9701640Y-16464714D01*
X9673069Y-16450429D01*
X9658783Y-16421857D01*
X9658783Y-16307571D01*
X9673069Y-16279000D01*
X9701640Y-16264714D01*
X9758783Y-16264714D01*
X9787354Y-16279000D01*
X9801640Y-16307571D01*
X9801640Y-16336143D01*
X9658783Y-16364714D01*
X9915926Y-16450429D02*
X9944497Y-16464714D01*
X10001640Y-16464714D01*
X10030212Y-16450429D01*
X10044497Y-16421857D01*
X10044497Y-16407571D01*
X10030212Y-16379000D01*
X10001640Y-16364714D01*
X9958783Y-16364714D01*
X9930212Y-16350429D01*
X9915926Y-16321857D01*
X9915926Y-16307571D01*
X9930212Y-16279000D01*
X9958783Y-16264714D01*
X10001640Y-16264714D01*
X10030212Y-16279000D01*
X10144497Y-16579000D02*
X10158783Y-16564714D01*
X10187354Y-16521857D01*
X10201640Y-16493286D01*
X10215926Y-16450429D01*
X10230212Y-16379000D01*
X10230212Y-16321857D01*
X10215926Y-16250429D01*
X10201640Y-16207571D01*
X10187354Y-16179000D01*
X10158783Y-16136143D01*
X10144497Y-16121857D01*
X10687354Y-16579000D02*
X10673069Y-16564714D01*
X10644497Y-16521857D01*
X10630212Y-16493286D01*
X10615926Y-16450429D01*
X10601640Y-16379000D01*
X10601640Y-16321857D01*
X10615926Y-16250429D01*
X10630212Y-16207571D01*
X10644497Y-16179000D01*
X10673069Y-16136143D01*
X10687354Y-16121857D01*
X10801640Y-16264714D02*
X10801640Y-16464714D01*
X10801640Y-16293286D02*
X10815926Y-16279000D01*
X10844497Y-16264714D01*
X10887354Y-16264714D01*
X10915926Y-16279000D01*
X10930212Y-16307571D01*
X10930212Y-16464714D01*
X11115926Y-16464714D02*
X11087354Y-16450429D01*
X11073069Y-16436143D01*
X11058783Y-16407571D01*
X11058783Y-16321857D01*
X11073069Y-16293286D01*
X11087354Y-16279000D01*
X11115926Y-16264714D01*
X11158783Y-16264714D01*
X11187354Y-16279000D01*
X11201640Y-16293286D01*
X11215926Y-16321857D01*
X11215926Y-16407571D01*
X11201640Y-16436143D01*
X11187354Y-16450429D01*
X11158783Y-16464714D01*
X11115926Y-16464714D01*
X11301640Y-16264714D02*
X11415926Y-16264714D01*
X11344497Y-16164714D02*
X11344497Y-16421857D01*
X11358783Y-16450429D01*
X11387354Y-16464714D01*
X11415926Y-16464714D01*
X11744497Y-16264714D02*
X11744497Y-16564714D01*
X11744497Y-16279000D02*
X11773069Y-16264714D01*
X11830212Y-16264714D01*
X11858783Y-16279000D01*
X11873069Y-16293286D01*
X11887354Y-16321857D01*
X11887354Y-16407571D01*
X11873069Y-16436143D01*
X11858783Y-16450429D01*
X11830212Y-16464714D01*
X11773069Y-16464714D01*
X11744497Y-16450429D01*
X12058783Y-16464714D02*
X12030212Y-16450429D01*
X12015926Y-16421857D01*
X12015926Y-16164714D01*
X12301640Y-16464714D02*
X12301640Y-16307571D01*
X12287354Y-16279000D01*
X12258783Y-16264714D01*
X12201640Y-16264714D01*
X12173069Y-16279000D01*
X12301640Y-16450429D02*
X12273069Y-16464714D01*
X12201640Y-16464714D01*
X12173069Y-16450429D01*
X12158783Y-16421857D01*
X12158783Y-16393286D01*
X12173069Y-16364714D01*
X12201640Y-16350429D01*
X12273069Y-16350429D01*
X12301640Y-16336143D01*
X12401640Y-16264714D02*
X12515926Y-16264714D01*
X12444497Y-16164714D02*
X12444497Y-16421857D01*
X12458783Y-16450429D01*
X12487354Y-16464714D01*
X12515926Y-16464714D01*
X12730212Y-16450429D02*
X12701640Y-16464714D01*
X12644497Y-16464714D01*
X12615926Y-16450429D01*
X12601640Y-16421857D01*
X12601640Y-16307571D01*
X12615926Y-16279000D01*
X12644497Y-16264714D01*
X12701640Y-16264714D01*
X12730212Y-16279000D01*
X12744497Y-16307571D01*
X12744497Y-16336143D01*
X12601640Y-16364714D01*
X13001640Y-16464714D02*
X13001640Y-16164714D01*
X13001640Y-16450429D02*
X12973069Y-16464714D01*
X12915926Y-16464714D01*
X12887354Y-16450429D01*
X12873069Y-16436143D01*
X12858783Y-16407571D01*
X12858783Y-16321857D01*
X12873069Y-16293286D01*
X12887354Y-16279000D01*
X12915926Y-16264714D01*
X12973069Y-16264714D01*
X13001640Y-16279000D01*
X13115926Y-16579000D02*
X13130212Y-16564714D01*
X13158783Y-16521857D01*
X13173069Y-16493286D01*
X13187354Y-16450429D01*
X13201640Y-16379000D01*
X13201640Y-16321857D01*
X13187354Y-16250429D01*
X13173069Y-16207571D01*
X13158783Y-16179000D01*
X13130212Y-16136143D01*
X13115926Y-16121857D01*
M02*
